;TYPE=PLATED
;Layer: PTH_Through
;EasyEDA Pro v3.2.148, 2026-09-13 21:34:24
;Gerber Generator version 0.3
M48
METRIC,LZ,0000.00000
;Hole size 1 = 0.30500 METRIC
T01C0.30500
;Hole size 2 = 0.60000 METRIC
T02C0.60000
;Hole size 3 = 0.80000 METRIC
T03C0.80000
;Hole size 4 = 0.91440 METRIC
T04C0.91440
;Hole size 5 = 1.30002 METRIC
T05C1.30002
%
G05
G90
T01
X21.93226Y-41.33602
X22.94825Y-40.57402
X11.42198Y-27.51994
X10.40598Y-26.50395
X5.86599Y-41.26292
X4.59599Y-42.53291
X29.52994Y-25.63385
X28.00594Y-24.10985
X32.08494Y-22.37986
X30.81494Y-31.52384
X30.39194Y-13.95707
X29.78394Y-23.12585
X13.70797Y-25.71155
X14.72397Y-24.69555
X27.11084Y-39.69002
X22.80815Y-39.75102
X10.74389Y-16.19707
X29.03185Y-16.95907
X17.06817Y-13.29687
X13.00418Y-32.60083
X18.48096Y-40.25902
X16.19497Y-42.54502
X12.89297Y-36.33623
X8.06698Y-31.51024
X14.37897Y-21.85996
X14.08397Y-26.64495
X19.93906Y-21.79086
X9.33808Y-51.6958
X18.36086Y-26.05585
X19.37686Y-25.03985
X3.03519Y-35.25283
X2.5272Y-39.06282
X10.82298Y-12.42998
X13.36297Y-12.68398
X20.31016Y-11.92198
X30.72414Y-17.00196
X18.49086Y-28.59584
X14.28927Y-29.88874
X10.87898Y-32.42094
X7.06899Y-31.65894
X3.707Y-36.82903
X12.80308Y-42.62312
T02
X26.02205Y-55.65099G85X26.02205Y-56.25099
X26.02205Y-48.65101G85X26.02205Y-49.25101
X21.22195Y-53.651G85X21.22195Y-54.251
T03
X34.74001Y-39.47G85X33.83999Y-39.47
X34.74001Y-51.97G85X33.83999Y-51.97
X35.54827Y-19.55104G85X35.94826Y-19.55104
X31.21834Y-19.55104G85X31.91834Y-19.55104
X31.21837Y-28.20096G85X31.91836Y-28.20096
X35.54827Y-28.20096G85X35.94826Y-28.20096
T04
X2.54Y-2.54
X34.671Y-2.54
X34.671Y-56.515
X2.54Y-56.515
T05
X34.29Y-45.72
X34.29Y-42.72001
X34.29Y-48.71999
M30