G04 Layer: BottomLayer*
G04 EasyEDA Pro v3.2.148, 2026-09-13 21:34:24*
G04 Gerber Generator version 0.3*
G04 Scale: 100 percent, Rotated: No, Reflected: No*
G04 Dimensions in millimeters*
G04 Leading zeros omitted, absolute positions, 4 integers and 5 decimals*
G04 Generated by one-click*
G04 Object Configs: Pad,Via,Track,Text,Image,Dimension,BoardOutline,BoardCutout,CopperFilled,SolidRegion,FPCStiffener,Line,PlaneZone,ComponentProperty,ComponentSilkscreen,TearDrop*
G04 Layer Configs: 1,2,3,4,5,6,7,8,9,10,11,13,14,56*
G04 Copper Areas: 5*
%FSLAX45Y45*%
%MOMM*%
%ADD10C,0.2032*%
%ADD11C,0.254*%
%ADD12C,1.524*%
%ADD13O,1.2X1.8*%
%ADD14C,1.9*%
%ADD15O,2.4001X1.4*%
%ADD16O,2.4X1.4*%
%ADD17O,1.8X1.2*%
%ADD18O,2.0X1.2*%
%ADD19C,0.61*%
G75*


G04 Copper Start*
G36*
G01X3672586Y-556260D02*
G01X3672586Y-1887365D01*
G01X3658064Y-1875438D01*
G01X3641492Y-1866576D01*
G01X3623510Y-1861118D01*
G01X3604809Y-1859275D01*
G01X3544809Y-1859275D01*
G01X3528287Y-1860710D01*
G01X3512260Y-1864973D01*
G01X3497208Y-1871936D01*
G01X3483582Y-1881390D01*
G01X3471790Y-1893052D01*
G01X3462187Y-1906572D01*
G01X3279448Y-1906572D01*
G01X3269845Y-1893052D01*
G01X3258053Y-1881390D01*
G01X3244427Y-1871936D01*
G01X3229375Y-1864973D01*
G01X3213348Y-1860710D01*
G01X3196826Y-1859275D01*
G01X3152234Y-1859275D01*
G01X3175098Y-1836411D01*
G01X3182808Y-1826363D01*
G01X3187655Y-1814663D01*
G01X3189308Y-1802106D01*
G01X3189308Y-1497307D01*
G01X3187655Y-1484751D01*
G01X3182808Y-1473050D01*
G01X3175098Y-1463002D01*
G01X3105467Y-1393371D01*
G01X3103152Y-1378190D01*
G01X3097408Y-1363948D01*
G01X3088542Y-1351409D01*
G01X3077029Y-1341246D01*
G01X3063488Y-1334004D01*
G01X3048643Y-1330070D01*
G01X3033292Y-1329656D01*
G01X3018258Y-1332785D01*
G01X3004346Y-1339288D01*
G01X2992303Y-1348816D01*
G01X2982774Y-1360859D01*
G01X2976272Y-1374771D01*
G01X2973143Y-1389806D01*
G01X2973557Y-1405157D01*
G01X2977490Y-1420001D01*
G01X2984733Y-1433543D01*
G01X2994896Y-1445055D01*
G01X3007434Y-1453921D01*
G01X3021676Y-1459666D01*
G01X3036858Y-1461980D01*
G01X3092280Y-1517402D01*
G01X3092280Y-1782011D01*
G01X2944089Y-1930202D01*
G01X2936380Y-1940249D01*
G01X2931533Y-1951950D01*
G01X2929880Y-1964506D01*
G01X2929880Y-2267376D01*
G01X2920782Y-2279747D01*
G01X2914773Y-2293879D01*
G01X2912176Y-2309015D01*
G01X2913130Y-2324342D01*
G01X2917585Y-2339038D01*
G01X2925300Y-2352316D01*
G01X2935862Y-2363463D01*
G01X2948705Y-2371882D01*
G01X2963141Y-2377121D01*
G01X2978394Y-2378899D01*
G01X2993647Y-2377121D01*
G01X3008083Y-2371882D01*
G01X3020926Y-2363463D01*
G01X3031488Y-2352316D01*
G01X3039204Y-2339038D01*
G01X3043658Y-2324342D01*
G01X3044612Y-2309015D01*
G01X3042015Y-2293879D01*
G01X3036006Y-2279747D01*
G01X3026908Y-2267376D01*
G01X3026908Y-1988179D01*
G01X3033864Y-2003022D01*
G01X3043249Y-2016462D01*
G01X3054787Y-2028105D01*
G01X3068141Y-2037612D01*
G01X3082920Y-2044703D01*
G01X3082920Y-2730497D01*
G01X3065909Y-2738947D01*
G01X3050899Y-2750585D01*
G01X3038479Y-2764956D01*
G01X3029139Y-2781495D01*
G01X3023244Y-2799551D01*
G01X3021028Y-2818415D01*
G01X3022575Y-2837346D01*
G01X3027827Y-2855599D01*
G01X3036576Y-2872458D01*
G01X3048479Y-2887259D01*
G01X3063067Y-2899422D01*
G01X3079769Y-2908469D01*
G01X3097926Y-2914042D01*
G01X3116826Y-2915925D01*
G01X3196826Y-2915925D01*
G01X3214500Y-2914281D01*
G01X3231567Y-2909405D01*
G01X3247442Y-2901465D01*
G01X3261579Y-2890732D01*
G01X3261579Y-2903689D01*
G01X3079157Y-3086111D01*
G01X3063976Y-3088425D01*
G01X3049734Y-3094170D01*
G01X3037196Y-3103036D01*
G01X3027033Y-3114548D01*
G01X3019790Y-3128090D01*
G01X3015857Y-3142934D01*
G01X3015443Y-3158285D01*
G01X3018572Y-3173320D01*
G01X3025074Y-3187232D01*
G01X3034603Y-3199275D01*
G01X3046646Y-3208803D01*
G01X3060558Y-3215306D01*
G01X3075592Y-3218435D01*
G01X3090943Y-3218021D01*
G01X3105788Y-3214087D01*
G01X3119329Y-3206845D01*
G01X3130842Y-3196682D01*
G01X3139708Y-3184143D01*
G01X3145452Y-3169901D01*
G01X3147767Y-3154720D01*
G01X3344398Y-2958089D01*
G01X3352108Y-2948041D01*
G01X3356954Y-2936340D01*
G01X3358607Y-2923784D01*
G01X3358607Y-2339585D01*
G01X3356954Y-2327029D01*
G01X3352108Y-2315328D01*
G01X3344398Y-2305281D01*
G01X3274766Y-2235649D01*
G01X3272173Y-2219480D01*
G01X3265697Y-2204440D01*
G01X3255733Y-2191445D01*
G01X3242887Y-2181288D01*
G01X3227945Y-2174589D01*
G01X3211817Y-2171755D01*
G01X3195486Y-2172960D01*
G01X3179948Y-2178130D01*
G01X3179948Y-2157678D01*
G01X3193505Y-2162057D01*
G01X3207687Y-2163417D01*
G01X3221830Y-2161692D01*
G01X3235270Y-2156964D01*
G01X3247377Y-2149455D01*
G01X3257585Y-2139516D01*
G01X3265415Y-2127614D01*
G01X3270500Y-2114305D01*
G01X3272601Y-2100213D01*
G01X3271621Y-2086000D01*
G01X3267605Y-2072330D01*
G01X3260741Y-2059846D01*
G01X3251351Y-2049130D01*
G01X3239876Y-2040687D01*
G01X3255366Y-2030940D01*
G01X3268720Y-2018425D01*
G01X3279452Y-2003600D01*
G01X3462183Y-2003600D01*
G01X3471787Y-2017122D01*
G01X3483579Y-2028785D01*
G01X3497205Y-2038240D01*
G01X3512258Y-2045204D01*
G01X3528286Y-2049467D01*
G01X3544809Y-2050903D01*
G01X3604809Y-2050903D01*
G01X3623510Y-2049060D01*
G01X3641492Y-2043602D01*
G01X3658064Y-2034739D01*
G01X3672586Y-2022813D01*
G01X3672586Y-2752387D01*
G01X3658064Y-2740461D01*
G01X3641492Y-2731598D01*
G01X3623510Y-2726140D01*
G01X3604809Y-2724297D01*
G01X3544809Y-2724297D01*
G01X3526116Y-2726138D01*
G01X3508142Y-2731591D01*
G01X3491577Y-2740445D01*
G01X3477058Y-2752361D01*
G01X3465142Y-2766880D01*
G01X3456288Y-2783445D01*
G01X3450836Y-2801419D01*
G01X3448995Y-2820111D01*
G01X3450836Y-2838804D01*
G01X3456288Y-2856778D01*
G01X3465142Y-2873343D01*
G01X3477058Y-2887862D01*
G01X3491577Y-2899778D01*
G01X3508142Y-2908632D01*
G01X3526116Y-2914084D01*
G01X3544809Y-2915925D01*
G01X3604809Y-2915925D01*
G01X3623510Y-2914082D01*
G01X3641492Y-2908624D01*
G01X3658064Y-2899762D01*
G01X3672586Y-2887835D01*
G01X3672586Y-5856986D01*
G01X48514Y-5856986D01*
G01X48514Y-5651500D01*
G01X141986Y-5651500D01*
G01X143893Y-5672083D01*
G01X149550Y-5691964D01*
G01X158764Y-5710468D01*
G01X171221Y-5726963D01*
G01X186496Y-5740889D01*
G01X204071Y-5751771D01*
G01X223346Y-5759238D01*
G01X243665Y-5763036D01*
G01X264335Y-5763036D01*
G01X284654Y-5759238D01*
G01X303929Y-5751771D01*
G01X321504Y-5740889D01*
G01X336779Y-5726963D01*
G01X349236Y-5710468D01*
G01X358450Y-5691964D01*
G01X364107Y-5672083D01*
G01X366014Y-5651500D01*
G01X364107Y-5630917D01*
G01X358450Y-5611036D01*
G01X350514Y-5595099D01*
G01X2266386Y-5595099D01*
G01X2268227Y-5613792D01*
G01X2273680Y-5631766D01*
G01X2282534Y-5648331D01*
G01X2294449Y-5662850D01*
G01X2308969Y-5674766D01*
G01X2325534Y-5683620D01*
G01X2343508Y-5689072D01*
G01X2362200Y-5690913D01*
G01X2380892Y-5689072D01*
G01X2398866Y-5683620D01*
G01X2415431Y-5674766D01*
G01X2429951Y-5662850D01*
G01X2441866Y-5648331D01*
G01X2450720Y-5631766D01*
G01X2456173Y-5613792D01*
G01X2458014Y-5595099D01*
G01X2456173Y-5576407D01*
G01X2452743Y-5565099D01*
G01X2506391Y-5565099D01*
G01X2506391Y-5625099D01*
G01X2508232Y-5643792D01*
G01X2513684Y-5661766D01*
G01X2522538Y-5678331D01*
G01X2534454Y-5692850D01*
G01X2548973Y-5704766D01*
G01X2565538Y-5713620D01*
G01X2583512Y-5719072D01*
G01X2602205Y-5720913D01*
G01X2620897Y-5719072D01*
G01X2638871Y-5713620D01*
G01X2655436Y-5704766D01*
G01X2669955Y-5692850D01*
G01X2681871Y-5678331D01*
G01X2690725Y-5661766D01*
G01X2693839Y-5651500D01*
G01X3355086Y-5651500D01*
G01X3356993Y-5672083D01*
G01X3362650Y-5691964D01*
G01X3371864Y-5710468D01*
G01X3384321Y-5726963D01*
G01X3399596Y-5740889D01*
G01X3417171Y-5751771D01*
G01X3436446Y-5759238D01*
G01X3456765Y-5763036D01*
G01X3477435Y-5763036D01*
G01X3497754Y-5759238D01*
G01X3517029Y-5751771D01*
G01X3534604Y-5740889D01*
G01X3549879Y-5726963D01*
G01X3562336Y-5710468D01*
G01X3571550Y-5691964D01*
G01X3577207Y-5672083D01*
G01X3579114Y-5651500D01*
G01X3577207Y-5630917D01*
G01X3571550Y-5611036D01*
G01X3562336Y-5592532D01*
G01X3549879Y-5576037D01*
G01X3534604Y-5562111D01*
G01X3517029Y-5551229D01*
G01X3497754Y-5543762D01*
G01X3477435Y-5539964D01*
G01X3456765Y-5539964D01*
G01X3436446Y-5543762D01*
G01X3417171Y-5551229D01*
G01X3399596Y-5562111D01*
G01X3384321Y-5576037D01*
G01X3371864Y-5592532D01*
G01X3362650Y-5611036D01*
G01X3356993Y-5630917D01*
G01X3355086Y-5651500D01*
G01X3355086Y-5651500D01*
G01X2693839Y-5651500D01*
G01X2696177Y-5643792D01*
G01X2698018Y-5625099D01*
G01X2698018Y-5565099D01*
G01X2696177Y-5546407D01*
G01X2690725Y-5528433D01*
G01X2681871Y-5511868D01*
G01X2669955Y-5497349D01*
G01X2655436Y-5485433D01*
G01X2638871Y-5476579D01*
G01X2620897Y-5471127D01*
G01X2602205Y-5469285D01*
G01X2583512Y-5471127D01*
G01X2565538Y-5476579D01*
G01X2548973Y-5485433D01*
G01X2534454Y-5497349D01*
G01X2522538Y-5511868D01*
G01X2513684Y-5528433D01*
G01X2508232Y-5546407D01*
G01X2506391Y-5565099D01*
G01X2506391Y-5565099D01*
G01X2452743Y-5565099D01*
G01X2450720Y-5558433D01*
G01X2441866Y-5541868D01*
G01X2429951Y-5527349D01*
G01X2415431Y-5515433D01*
G01X2398866Y-5506579D01*
G01X2380892Y-5501126D01*
G01X2362200Y-5499285D01*
G01X2343508Y-5501126D01*
G01X2325534Y-5506579D01*
G01X2308969Y-5515433D01*
G01X2294449Y-5527349D01*
G01X2282534Y-5541868D01*
G01X2273680Y-5558433D01*
G01X2268227Y-5576407D01*
G01X2266386Y-5595099D01*
G01X2266386Y-5595099D01*
G01X350514Y-5595099D01*
G01X349236Y-5592532D01*
G01X336779Y-5576037D01*
G01X321504Y-5562111D01*
G01X303929Y-5551229D01*
G01X284654Y-5543762D01*
G01X264335Y-5539964D01*
G01X243665Y-5539964D01*
G01X223346Y-5543762D01*
G01X204071Y-5551229D01*
G01X186496Y-5562111D01*
G01X171221Y-5576037D01*
G01X158764Y-5592532D01*
G01X149550Y-5611036D01*
G01X143893Y-5630917D01*
G01X141986Y-5651500D01*
G01X141986Y-5651500D01*
G01X48514Y-5651500D01*
G01X48514Y-5365100D01*
G01X2026382Y-5365100D01*
G01X2026382Y-5425100D01*
G01X2028223Y-5443792D01*
G01X2033675Y-5461766D01*
G01X2042529Y-5478331D01*
G01X2054445Y-5492850D01*
G01X2068964Y-5504766D01*
G01X2085529Y-5513620D01*
G01X2103503Y-5519072D01*
G01X2122195Y-5520914D01*
G01X2140888Y-5519072D01*
G01X2158862Y-5513620D01*
G01X2175427Y-5504766D01*
G01X2189946Y-5492850D01*
G01X2201862Y-5478331D01*
G01X2210716Y-5461766D01*
G01X2216168Y-5443792D01*
G01X2218009Y-5425100D01*
G01X2218009Y-5365100D01*
G01X2216168Y-5346407D01*
G01X2210716Y-5328433D01*
G01X2201862Y-5311868D01*
G01X2189946Y-5297349D01*
G01X2175427Y-5285433D01*
G01X2158862Y-5276579D01*
G01X2140888Y-5271127D01*
G01X2122195Y-5269286D01*
G01X2103503Y-5271127D01*
G01X2085529Y-5276579D01*
G01X2068964Y-5285433D01*
G01X2054445Y-5297349D01*
G01X2042529Y-5311868D01*
G01X2033675Y-5328433D01*
G01X2028223Y-5346407D01*
G01X2026382Y-5365100D01*
G01X2026382Y-5365100D01*
G01X48514Y-5365100D01*
G01X48514Y-4259193D01*
G01X393548Y-4259193D01*
G01X396677Y-4274228D01*
G01X403180Y-4288139D01*
G01X412708Y-4300183D01*
G01X424751Y-4309711D01*
G01X438663Y-4316214D01*
G01X453698Y-4319342D01*
G01X469049Y-4318929D01*
G01X483893Y-4314995D01*
G01X497434Y-4307753D01*
G01X508947Y-4297590D01*
G01X517813Y-4285051D01*
G01X523557Y-4270809D01*
G01X525872Y-4255628D01*
G01X588935Y-4192565D01*
G01X588935Y-4192565D01*
G01X604116Y-4190250D01*
G01X618358Y-4184506D01*
G01X630897Y-4175640D01*
G01X641060Y-4164127D01*
G01X648303Y-4150586D01*
G01X652236Y-4135741D01*
G01X652650Y-4120390D01*
G01X649521Y-4105356D01*
G01X643018Y-4091444D01*
G01X633490Y-4079401D01*
G01X621447Y-4069872D01*
G01X607535Y-4063369D01*
G01X592500Y-4060241D01*
G01X577149Y-4060655D01*
G01X562305Y-4064588D01*
G01X548763Y-4071831D01*
G01X537251Y-4081994D01*
G01X528385Y-4094532D01*
G01X522640Y-4108774D01*
G01X520326Y-4123955D01*
G01X457263Y-4187019D01*
G01X442081Y-4189333D01*
G01X427840Y-4195077D01*
G01X415301Y-4203944D01*
G01X405138Y-4215456D01*
G01X397895Y-4228998D01*
G01X393962Y-4243842D01*
G01X393548Y-4259193D01*
G01X48514Y-4259193D01*
G01X48514Y-3912184D01*
G01X186669Y-3912184D01*
G01X189797Y-3927218D01*
G01X196300Y-3941130D01*
G01X205828Y-3953173D01*
G01X217872Y-3962702D01*
G01X231783Y-3969205D01*
G01X246818Y-3972333D01*
G01X262169Y-3971919D01*
G01X277013Y-3967986D01*
G01X290555Y-3960743D01*
G01X302067Y-3950580D01*
G01X310934Y-3938042D01*
G01X316678Y-3923800D01*
G01X318992Y-3908619D01*
G01X337824Y-3889787D01*
G01X345534Y-3879739D01*
G01X350380Y-3868039D01*
G01X352033Y-3855482D01*
G01X352033Y-3746535D01*
G01X365517Y-3749014D01*
G01X379221Y-3748667D01*
G01X392562Y-3745509D01*
G01X404968Y-3739676D01*
G01X415910Y-3731417D01*
G01X680804Y-3731417D01*
G01X1214035Y-4264648D01*
G01X1216192Y-4279243D01*
G01X1221522Y-4293000D01*
G01X1229762Y-4305237D01*
G01X1240504Y-4315351D01*
G01X1253215Y-4322839D01*
G01X1267268Y-4327331D01*
G01X1281967Y-4328605D01*
G01X1296583Y-4326597D01*
G01X1310393Y-4321408D01*
G01X1310393Y-4724385D01*
G01X931472Y-5103307D01*
G01X916291Y-5105621D01*
G01X902049Y-5111366D01*
G01X889510Y-5120232D01*
G01X879347Y-5131744D01*
G01X872104Y-5145286D01*
G01X868171Y-5160130D01*
G01X867757Y-5175481D01*
G01X870886Y-5190516D01*
G01X877389Y-5204428D01*
G01X886917Y-5216471D01*
G01X898960Y-5225999D01*
G01X912872Y-5232502D01*
G01X927907Y-5235630D01*
G01X943258Y-5235217D01*
G01X958102Y-5231283D01*
G01X971644Y-5224041D01*
G01X983156Y-5213878D01*
G01X992022Y-5201339D01*
G01X997713Y-5187229D01*
G01X3273638Y-5187229D01*
G01X3273638Y-5206756D01*
G01X3277226Y-5225950D01*
G01X3284279Y-5244158D01*
G01X3294559Y-5260759D01*
G01X3307714Y-5275190D01*
G01X3323296Y-5286957D01*
G01X3340776Y-5295661D01*
G01X3359557Y-5301005D01*
G01X3379000Y-5302806D01*
G01X3479000Y-5302806D01*
G01X3498443Y-5301005D01*
G01X3517224Y-5295661D01*
G01X3534704Y-5286957D01*
G01X3550286Y-5275190D01*
G01X3563441Y-5260759D01*
G01X3573721Y-5244158D01*
G01X3580774Y-5225950D01*
G01X3584362Y-5206756D01*
G01X3584362Y-5187229D01*
G01X3580774Y-5168035D01*
G01X3573721Y-5149827D01*
G01X3563441Y-5133225D01*
G01X3550286Y-5118795D01*
G01X3534704Y-5107028D01*
G01X3517224Y-5098324D01*
G01X3498443Y-5092980D01*
G01X3479000Y-5091179D01*
G01X3479000Y-5091179D01*
G01X3379000Y-5091179D01*
G01X3359557Y-5092980D01*
G01X3340776Y-5098324D01*
G01X3323296Y-5107028D01*
G01X3307714Y-5118795D01*
G01X3294559Y-5133225D01*
G01X3284279Y-5149827D01*
G01X3277226Y-5168035D01*
G01X3273638Y-5187229D01*
G01X997713Y-5187229D01*
G01X997766Y-5187097D01*
G01X1000081Y-5171916D01*
G01X1176896Y-4995100D01*
G01X2266386Y-4995100D01*
G01X2268227Y-5013793D01*
G01X2273680Y-5031767D01*
G01X2282534Y-5048332D01*
G01X2294449Y-5062851D01*
G01X2308969Y-5074767D01*
G01X2325534Y-5083621D01*
G01X2343508Y-5089073D01*
G01X2362200Y-5090914D01*
G01X2380892Y-5089073D01*
G01X2398866Y-5083621D01*
G01X2415431Y-5074767D01*
G01X2429951Y-5062851D01*
G01X2441866Y-5048332D01*
G01X2450720Y-5031767D01*
G01X2456173Y-5013793D01*
G01X2458014Y-4995100D01*
G01X2456173Y-4976408D01*
G01X2450720Y-4958434D01*
G01X2441866Y-4941869D01*
G01X2429951Y-4927350D01*
G01X2415431Y-4915434D01*
G01X2398866Y-4906580D01*
G01X2380892Y-4901128D01*
G01X2362200Y-4899287D01*
G01X2343508Y-4901128D01*
G01X2325534Y-4906580D01*
G01X2308969Y-4915434D01*
G01X2294449Y-4927350D01*
G01X2282534Y-4941869D01*
G01X2273680Y-4958434D01*
G01X2268227Y-4976408D01*
G01X2266386Y-4995100D01*
G01X2266386Y-4995100D01*
G01X1176896Y-4995100D01*
G01X1306896Y-4865101D01*
G01X2506391Y-4865101D01*
G01X2506391Y-4925101D01*
G01X2508232Y-4943793D01*
G01X2513684Y-4961767D01*
G01X2522538Y-4978332D01*
G01X2534454Y-4992851D01*
G01X2548973Y-5004767D01*
G01X2565538Y-5013621D01*
G01X2583512Y-5019073D01*
G01X2602205Y-5020915D01*
G01X2620897Y-5019073D01*
G01X2638871Y-5013621D01*
G01X2655436Y-5004767D01*
G01X2669955Y-4992851D01*
G01X2681871Y-4978332D01*
G01X2690725Y-4961767D01*
G01X2696177Y-4943793D01*
G01X2698018Y-4925101D01*
G01X2698018Y-4871999D01*
G01X3298186Y-4871999D01*
G01X3300174Y-4894715D01*
G01X3306075Y-4916740D01*
G01X3315712Y-4937406D01*
G01X3328791Y-4956085D01*
G01X3344915Y-4972209D01*
G01X3363593Y-4985287D01*
G01X3384259Y-4994924D01*
G01X3406284Y-5000826D01*
G01X3429000Y-5002813D01*
G01X3451716Y-5000826D01*
G01X3473741Y-4994924D01*
G01X3494407Y-4985287D01*
G01X3513085Y-4972209D01*
G01X3529209Y-4956085D01*
G01X3542288Y-4937406D01*
G01X3551925Y-4916740D01*
G01X3557826Y-4894715D01*
G01X3559814Y-4871999D01*
G01X3559814Y-4871999D01*
G01X3557826Y-4849284D01*
G01X3551925Y-4827258D01*
G01X3542288Y-4806592D01*
G01X3529209Y-4787914D01*
G01X3513085Y-4771790D01*
G01X3494407Y-4758711D01*
G01X3473741Y-4749075D01*
G01X3451716Y-4743173D01*
G01X3429000Y-4741186D01*
G01X3406284Y-4743173D01*
G01X3384259Y-4749075D01*
G01X3363593Y-4758711D01*
G01X3344915Y-4771790D01*
G01X3328791Y-4787914D01*
G01X3315712Y-4806592D01*
G01X3306075Y-4827258D01*
G01X3300174Y-4849284D01*
G01X3298186Y-4871999D01*
G01X2698018Y-4871999D01*
G01X2698018Y-4865101D01*
G01X2696177Y-4846408D01*
G01X2690725Y-4828434D01*
G01X2681871Y-4811869D01*
G01X2669955Y-4797350D01*
G01X2655436Y-4785434D01*
G01X2638871Y-4776580D01*
G01X2620897Y-4771128D01*
G01X2602205Y-4769287D01*
G01X2583512Y-4771128D01*
G01X2565538Y-4776580D01*
G01X2548973Y-4785434D01*
G01X2534454Y-4797350D01*
G01X2522538Y-4811869D01*
G01X2513684Y-4828434D01*
G01X2508232Y-4846408D01*
G01X2506391Y-4865101D01*
G01X2506391Y-4865101D01*
G01X1306896Y-4865101D01*
G01X1393212Y-4778785D01*
G01X1400922Y-4768737D01*
G01X1405768Y-4757037D01*
G01X1407421Y-4744481D01*
G01X1407421Y-4260403D01*
G01X1553446Y-4260403D01*
G01X1556574Y-4275438D01*
G01X1563077Y-4289349D01*
G01X1572606Y-4301393D01*
G01X1584649Y-4310921D01*
G01X1598561Y-4317424D01*
G01X1613595Y-4320552D01*
G01X1628946Y-4320139D01*
G01X1643791Y-4316205D01*
G01X1657332Y-4308963D01*
G01X1668845Y-4298800D01*
G01X1677711Y-4286261D01*
G01X1683455Y-4272019D01*
G01X1685770Y-4256838D01*
G01X1804633Y-4137974D01*
G01X2127056Y-4137974D01*
G01X2130051Y-4153762D01*
G01X2136755Y-4168366D01*
G01X2146775Y-4180929D01*
G01X2159523Y-4190713D01*
G01X2174249Y-4197143D01*
G01X2190090Y-4199842D01*
G01X2206116Y-4198651D01*
G01X2221384Y-4193640D01*
G01X2234999Y-4185105D01*
G01X2246161Y-4173545D01*
G01X2252930Y-4167906D01*
G01X2297162Y-4123675D01*
G01X2312752Y-4121247D01*
G01X2327328Y-4115204D01*
G01X2340064Y-4105889D01*
G01X2350238Y-4093829D01*
G01X2357276Y-4079707D01*
G01X2360777Y-4064322D01*
G01X2360545Y-4048545D01*
G01X2356592Y-4033269D01*
G01X2349143Y-4019360D01*
G01X2338618Y-4007605D01*
G01X2344660Y-3993029D01*
G01X2347088Y-3977438D01*
G01X2377110Y-3947416D01*
G01X2648382Y-3947416D01*
G01X2645175Y-3961689D01*
G01X2645175Y-3976317D01*
G01X2648383Y-3990589D01*
G01X2654641Y-4003811D01*
G01X2663646Y-4015339D01*
G01X2674960Y-4024613D01*
G01X2688031Y-4031180D01*
G01X2702224Y-4034721D01*
G01X2716849Y-4035065D01*
G01X2731192Y-4032194D01*
G01X2744558Y-4026248D01*
G01X2756294Y-4017516D01*
G01X2805909Y-4017516D01*
G01X3308793Y-4520400D01*
G01X3301717Y-4541812D01*
G01X3298424Y-4564121D01*
G01X3299011Y-4586664D01*
G01X3303461Y-4608772D01*
G01X3311642Y-4629786D01*
G01X3323310Y-4649084D01*
G01X3338120Y-4666090D01*
G01X3355630Y-4680301D01*
G01X3375320Y-4691293D01*
G01X3396606Y-4698739D01*
G01X3418855Y-4702420D01*
G01X3441405Y-4702224D01*
G01X3463586Y-4698159D01*
G01X3484740Y-4690344D01*
G01X3504237Y-4679012D01*
G01X3521498Y-4664501D01*
G01X3536010Y-4647240D01*
G01X3547343Y-4627743D01*
G01X3555158Y-4606590D01*
G01X3559224Y-4584408D01*
G01X3559420Y-4561858D01*
G01X3555740Y-4539610D01*
G01X3548294Y-4518324D01*
G01X3537303Y-4498633D01*
G01X3523093Y-4481122D01*
G01X3506087Y-4466312D01*
G01X3486790Y-4454643D01*
G01X3465775Y-4446462D01*
G01X3443668Y-4442011D01*
G01X3421125Y-4441423D01*
G01X3398815Y-4444716D01*
G01X3377403Y-4451792D01*
G01X2873028Y-3947416D01*
G01X3035809Y-3947416D01*
G01X3308793Y-4220401D01*
G01X3301717Y-4241813D01*
G01X3298424Y-4264122D01*
G01X3299011Y-4286665D01*
G01X3303461Y-4308772D01*
G01X3311642Y-4329787D01*
G01X3323310Y-4349084D01*
G01X3338120Y-4366091D01*
G01X3355630Y-4380301D01*
G01X3375320Y-4391293D01*
G01X3396606Y-4398740D01*
G01X3418855Y-4402420D01*
G01X3441405Y-4402225D01*
G01X3463586Y-4398159D01*
G01X3484740Y-4390345D01*
G01X3504237Y-4379013D01*
G01X3521498Y-4364501D01*
G01X3536010Y-4347240D01*
G01X3547343Y-4327744D01*
G01X3555158Y-4306590D01*
G01X3559224Y-4284409D01*
G01X3559420Y-4261859D01*
G01X3555740Y-4239610D01*
G01X3548294Y-4218324D01*
G01X3537303Y-4198633D01*
G01X3523093Y-4181123D01*
G01X3506087Y-4166313D01*
G01X3486790Y-4154644D01*
G01X3465775Y-4146462D01*
G01X3443668Y-4142012D01*
G01X3421125Y-4141424D01*
G01X3398815Y-4144717D01*
G01X3377403Y-4151792D01*
G01X3162855Y-3937244D01*
G01X3273638Y-3937244D01*
G01X3273638Y-3956771D01*
G01X3277226Y-3975965D01*
G01X3284279Y-3994173D01*
G01X3294559Y-4010775D01*
G01X3307714Y-4025205D01*
G01X3323296Y-4036972D01*
G01X3340776Y-4045676D01*
G01X3359557Y-4051020D01*
G01X3379000Y-4052821D01*
G01X3479000Y-4052821D01*
G01X3498443Y-4051020D01*
G01X3517224Y-4045676D01*
G01X3534704Y-4036972D01*
G01X3550286Y-4025205D01*
G01X3563441Y-4010775D01*
G01X3573721Y-3994173D01*
G01X3580774Y-3975965D01*
G01X3584362Y-3956771D01*
G01X3584362Y-3937244D01*
G01X3580774Y-3918050D01*
G01X3573721Y-3899842D01*
G01X3563441Y-3883241D01*
G01X3550286Y-3868810D01*
G01X3534704Y-3857043D01*
G01X3517224Y-3848339D01*
G01X3498443Y-3842995D01*
G01X3479000Y-3841194D01*
G01X3479000Y-3841194D01*
G01X3379000Y-3841194D01*
G01X3359557Y-3842995D01*
G01X3340776Y-3848339D01*
G01X3323296Y-3857043D01*
G01X3307714Y-3868810D01*
G01X3294559Y-3883241D01*
G01X3284279Y-3899842D01*
G01X3277226Y-3918050D01*
G01X3273638Y-3937244D01*
G01X3162855Y-3937244D01*
G01X3090208Y-3864598D01*
G01X3080161Y-3856888D01*
G01X3068460Y-3852041D01*
G01X3055904Y-3850388D01*
G01X2357015Y-3850388D01*
G01X2357015Y-3850388D01*
G01X2344459Y-3852041D01*
G01X2332758Y-3856888D01*
G01X2322711Y-3864598D01*
G01X2278479Y-3908829D01*
G01X2262888Y-3911257D01*
G01X2248313Y-3917300D01*
G01X2235577Y-3926615D01*
G01X2225403Y-3938675D01*
G01X2218365Y-3952797D01*
G01X2214864Y-3968182D01*
G01X2215096Y-3983959D01*
G01X2219048Y-3999235D01*
G01X2226498Y-4013144D01*
G01X2237023Y-4024899D01*
G01X2230981Y-4039475D01*
G01X2228553Y-4055066D01*
G01X2213238Y-4070380D01*
G01X2197444Y-4067422D01*
G01X2181401Y-4068351D01*
G01X2166053Y-4073111D01*
G01X2152300Y-4081423D01*
G01X2140951Y-4092799D01*
G01X2132671Y-4106571D01*
G01X2127947Y-4121930D01*
G01X2127056Y-4137974D01*
G01X1804633Y-4137974D01*
G01X1850433Y-4092175D01*
G01X1865614Y-4089860D01*
G01X1879856Y-4084116D01*
G01X1892394Y-4075250D01*
G01X1902557Y-4063737D01*
G01X1909800Y-4050196D01*
G01X1913734Y-4035352D01*
G01X1914147Y-4020000D01*
G01X1911019Y-4004966D01*
G01X1904516Y-3991054D01*
G01X1894987Y-3979011D01*
G01X1882944Y-3969482D01*
G01X1869032Y-3962980D01*
G01X1853998Y-3959851D01*
G01X1838647Y-3960265D01*
G01X1823802Y-3964198D01*
G01X1810261Y-3971441D01*
G01X1798748Y-3981604D01*
G01X1789882Y-3994143D01*
G01X1784138Y-4008384D01*
G01X1781824Y-4023566D01*
G01X1617160Y-4188229D01*
G01X1617160Y-4188229D01*
G01X1601979Y-4190543D01*
G01X1587737Y-4196287D01*
G01X1575199Y-4205154D01*
G01X1565036Y-4216666D01*
G01X1557793Y-4230208D01*
G01X1553860Y-4245052D01*
G01X1553446Y-4260403D01*
G01X1407421Y-4260403D01*
G01X1407421Y-2834180D01*
G01X1630114Y-2611486D01*
G01X1770036Y-2611486D01*
G01X1773164Y-2626521D01*
G01X1779667Y-2640433D01*
G01X1789195Y-2652476D01*
G01X1801238Y-2662004D01*
G01X1815150Y-2668507D01*
G01X1830185Y-2671636D01*
G01X1845536Y-2671222D01*
G01X1860380Y-2667288D01*
G01X1873922Y-2660046D01*
G01X1885434Y-2649883D01*
G01X1894300Y-2637344D01*
G01X1900045Y-2623102D01*
G01X1902359Y-2607921D01*
G01X1940022Y-2570258D01*
G01X1955204Y-2567943D01*
G01X1969446Y-2562199D01*
G01X1981984Y-2553333D01*
G01X1992147Y-2541820D01*
G01X1999390Y-2528279D01*
G01X2003323Y-2513435D01*
G01X2003737Y-2498083D01*
G01X2000608Y-2483049D01*
G01X1994106Y-2469137D01*
G01X1984577Y-2457094D01*
G01X1984577Y-2457094D01*
G01X1972534Y-2447566D01*
G01X1958622Y-2441063D01*
G01X1943588Y-2437934D01*
G01X1928237Y-2438348D01*
G01X1913392Y-2442281D01*
G01X1899851Y-2449524D01*
G01X1888338Y-2459687D01*
G01X1879472Y-2472226D01*
G01X1873728Y-2486467D01*
G01X1871413Y-2501649D01*
G01X1833750Y-2539312D01*
G01X1818569Y-2541626D01*
G01X1804327Y-2547371D01*
G01X1791788Y-2556237D01*
G01X1781625Y-2567749D01*
G01X1774383Y-2581291D01*
G01X1770449Y-2596135D01*
G01X1770036Y-2611486D01*
G01X1630114Y-2611486D01*
G01X1836517Y-2405084D01*
G01X2734544Y-2405084D01*
G01X2734957Y-2420435D01*
G01X2738891Y-2435279D01*
G01X2746133Y-2448821D01*
G01X2756296Y-2460333D01*
G01X2768835Y-2469199D01*
G01X2783077Y-2474944D01*
G01X2798258Y-2477258D01*
G01X2886721Y-2565721D01*
G01X2889036Y-2580902D01*
G01X2894780Y-2595144D01*
G01X2903646Y-2607683D01*
G01X2915159Y-2617846D01*
G01X2928700Y-2625089D01*
G01X2943545Y-2629022D01*
G01X2958896Y-2629436D01*
G01X2973930Y-2626307D01*
G01X2987842Y-2619804D01*
G01X2999885Y-2610276D01*
G01X3009414Y-2598233D01*
G01X3015916Y-2584321D01*
G01X3019045Y-2569286D01*
G01X3018631Y-2553935D01*
G01X3014698Y-2539091D01*
G01X3007455Y-2525549D01*
G01X2997292Y-2514037D01*
G01X2984754Y-2505171D01*
G01X2970512Y-2499427D01*
G01X2955330Y-2497112D01*
G01X2866867Y-2408649D01*
G01X2864553Y-2393468D01*
G01X2858808Y-2379226D01*
G01X2849942Y-2366687D01*
G01X2838430Y-2356524D01*
G01X2824888Y-2349281D01*
G01X2810044Y-2345348D01*
G01X2794693Y-2344934D01*
G01X2779658Y-2348063D01*
G01X2765746Y-2354566D01*
G01X2753703Y-2364094D01*
G01X2753703Y-2364094D01*
G01X2744175Y-2376137D01*
G01X2737672Y-2390049D01*
G01X2734544Y-2405084D01*
G01X1836517Y-2405084D01*
G01X1996242Y-2245358D01*
G01X2011424Y-2243044D01*
G01X2025665Y-2237300D01*
G01X2038204Y-2228434D01*
G01X2048367Y-2216921D01*
G01X2055610Y-2203380D01*
G01X2059543Y-2188535D01*
G01X2059957Y-2173184D01*
G01X2056828Y-2158150D01*
G01X2050325Y-2144238D01*
G01X2040797Y-2132195D01*
G01X2028754Y-2122666D01*
G01X2014842Y-2116163D01*
G01X1999808Y-2113035D01*
G01X1984456Y-2113448D01*
G01X1969612Y-2117382D01*
G01X1956071Y-2124624D01*
G01X1944558Y-2134788D01*
G01X1935692Y-2147326D01*
G01X1929948Y-2161568D01*
G01X1927633Y-2176749D01*
G01X1583911Y-2520472D01*
G01X1583911Y-2283495D01*
G01X1582258Y-2270939D01*
G01X1577411Y-2259238D01*
G01X1569701Y-2249191D01*
G01X1504170Y-2183659D01*
G01X1501855Y-2168478D01*
G01X1496111Y-2154236D01*
G01X1487245Y-2141698D01*
G01X1475733Y-2131534D01*
G01X1462191Y-2124292D01*
G01X1447347Y-2120358D01*
G01X1431996Y-2119945D01*
G01X1416961Y-2123073D01*
G01X1403049Y-2129576D01*
G01X1391006Y-2139105D01*
G01X1381478Y-2151148D01*
G01X1374975Y-2165060D01*
G01X1371846Y-2180094D01*
G01X1372260Y-2195445D01*
G01X1376193Y-2210290D01*
G01X1383436Y-2223831D01*
G01X1393599Y-2235344D01*
G01X1406138Y-2244210D01*
G01X1420380Y-2249954D01*
G01X1435561Y-2252268D01*
G01X1486883Y-2303591D01*
G01X1486883Y-2404842D01*
G01X1472447Y-2403241D01*
G01X1458008Y-2404821D01*
G01X1444260Y-2409506D01*
G01X1431861Y-2417073D01*
G01X1421407Y-2427157D01*
G01X1413400Y-2439275D01*
G01X1408223Y-2452846D01*
G01X1406124Y-2467218D01*
G01X1368461Y-2504882D01*
G01X1358558Y-2505980D01*
G01X1348931Y-2508549D01*
G01X1348931Y-1756182D01*
G01X1709153Y-1395960D01*
G01X1723847Y-1393777D01*
G01X1737686Y-1388378D01*
G01X1749976Y-1380034D01*
G01X1760100Y-1369164D01*
G01X1767551Y-1356313D01*
G01X1771954Y-1342125D01*
G01X1773088Y-1327314D01*
G01X1770897Y-1312621D01*
G01X2451291Y-1312621D01*
G01X2836912Y-1698243D01*
G01X2839226Y-1713424D01*
G01X2844971Y-1727666D01*
G01X2853837Y-1740205D01*
G01X2865349Y-1750368D01*
G01X2878891Y-1757610D01*
G01X2893735Y-1761544D01*
G01X2909086Y-1761957D01*
G01X2924121Y-1758829D01*
G01X2938033Y-1752326D01*
G01X2950076Y-1742798D01*
G01X2959604Y-1730755D01*
G01X2966107Y-1716843D01*
G01X2969236Y-1701808D01*
G01X2968822Y-1686457D01*
G01X2964889Y-1671613D01*
G01X2957646Y-1658071D01*
G01X2947483Y-1646559D01*
G01X2934944Y-1637693D01*
G01X2920702Y-1631948D01*
G01X2905521Y-1629634D01*
G01X2505690Y-1229803D01*
G01X2495643Y-1222093D01*
G01X2483942Y-1217247D01*
G01X2471386Y-1215593D01*
G01X1429988Y-1215593D01*
G01X1417431Y-1217247D01*
G01X1405731Y-1222093D01*
G01X1395683Y-1229803D01*
G01X1072052Y-1553434D01*
G01X1056871Y-1555748D01*
G01X1042629Y-1561493D01*
G01X1030090Y-1570359D01*
G01X1019927Y-1581871D01*
G01X1012685Y-1595413D01*
G01X1008751Y-1610257D01*
G01X1008338Y-1625608D01*
G01X1011466Y-1640643D01*
G01X1017969Y-1654555D01*
G01X1027497Y-1666598D01*
G01X1039541Y-1676126D01*
G01X1053452Y-1682629D01*
G01X1068487Y-1685758D01*
G01X1083838Y-1685344D01*
G01X1098682Y-1681410D01*
G01X1112224Y-1674168D01*
G01X1123736Y-1664005D01*
G01X1132603Y-1651466D01*
G01X1138347Y-1637224D01*
G01X1140661Y-1622043D01*
G01X1450083Y-1312621D01*
G01X1642736Y-1312621D01*
G01X1640544Y-1327351D01*
G01X1266113Y-1701782D01*
G01X1258403Y-1711830D01*
G01X1253556Y-1723530D01*
G01X1251903Y-1736087D01*
G01X1251903Y-3214874D01*
G01X1242316Y-3228119D01*
G01X1236261Y-3243307D01*
G01X1234106Y-3259515D01*
G01X1235983Y-3275758D01*
G01X1241777Y-3291048D01*
G01X1251136Y-3304455D01*
G01X1263491Y-3315165D01*
G01X1278091Y-3322526D01*
G01X1294049Y-3326091D01*
G01X1310393Y-3325643D01*
G01X1310393Y-3570754D01*
G01X1301137Y-3568374D01*
G01X1291634Y-3567350D01*
G01X872971Y-3148687D01*
G01X870657Y-3133506D01*
G01X864912Y-3119264D01*
G01X856046Y-3106726D01*
G01X844534Y-3096563D01*
G01X830992Y-3089320D01*
G01X816148Y-3085386D01*
G01X800797Y-3084973D01*
G01X785762Y-3088101D01*
G01X771850Y-3094604D01*
G01X759807Y-3104133D01*
G01X750279Y-3116176D01*
G01X743776Y-3130088D01*
G01X740648Y-3145122D01*
G01X741061Y-3160473D01*
G01X744995Y-3175318D01*
G01X752237Y-3188859D01*
G01X762400Y-3200372D01*
G01X774939Y-3209238D01*
G01X789181Y-3214982D01*
G01X804362Y-3217296D01*
G01X1223025Y-3635959D01*
G01X1225345Y-3651161D01*
G01X1231104Y-3665419D01*
G01X1239992Y-3677968D01*
G01X1251531Y-3688132D01*
G01X1265102Y-3695365D01*
G01X1279973Y-3699278D01*
G01X1295346Y-3699660D01*
G01X1310393Y-3696492D01*
G01X1310393Y-3696492D01*
G01X1310393Y-4203215D01*
G01X1296911Y-4198110D01*
G01X1282644Y-4196039D01*
G01X735204Y-3648598D01*
G01X725156Y-3640888D01*
G01X713455Y-3636042D01*
G01X700899Y-3634389D01*
G01X415910Y-3634389D01*
G01X404968Y-3626129D01*
G01X392562Y-3620296D01*
G01X379221Y-3617138D01*
G01X365517Y-3616792D01*
G01X352033Y-3619270D01*
G01X352033Y-3570493D01*
G01X361132Y-3558122D01*
G01X367140Y-3543989D01*
G01X369737Y-3528854D01*
G01X368783Y-3513527D01*
G01X364329Y-3498830D01*
G01X356614Y-3485552D01*
G01X346051Y-3474405D01*
G01X333208Y-3465986D01*
G01X318773Y-3460747D01*
G01X303519Y-3458969D01*
G01X288266Y-3460747D01*
G01X273831Y-3465986D01*
G01X260987Y-3474405D01*
G01X250425Y-3485552D01*
G01X242710Y-3498830D01*
G01X238256Y-3513527D01*
G01X237302Y-3528854D01*
G01X239899Y-3543989D01*
G01X245907Y-3558122D01*
G01X255005Y-3570493D01*
G01X255005Y-3835387D01*
G01X250383Y-3840009D01*
G01X235202Y-3842324D01*
G01X220960Y-3848068D01*
G01X208421Y-3856934D01*
G01X198258Y-3868447D01*
G01X191016Y-3881988D01*
G01X187082Y-3896833D01*
G01X186669Y-3912184D01*
G01X48514Y-3912184D01*
G01X48514Y-2644493D01*
G01X974547Y-2644493D01*
G01X974961Y-2659844D01*
G01X978894Y-2674689D01*
G01X986137Y-2688230D01*
G01X996300Y-2699743D01*
G01X1008838Y-2708609D01*
G01X1023080Y-2714353D01*
G01X1038262Y-2716668D01*
G01X1075925Y-2754331D01*
G01X1075925Y-2754331D01*
G01X1078239Y-2769512D01*
G01X1083984Y-2783754D01*
G01X1092850Y-2796293D01*
G01X1104362Y-2806456D01*
G01X1117904Y-2813698D01*
G01X1132748Y-2817632D01*
G01X1148099Y-2818045D01*
G01X1163134Y-2814917D01*
G01X1177046Y-2808414D01*
G01X1189089Y-2798886D01*
G01X1198617Y-2786843D01*
G01X1205120Y-2772931D01*
G01X1208249Y-2757896D01*
G01X1207835Y-2742545D01*
G01X1203901Y-2727701D01*
G01X1196659Y-2714159D01*
G01X1186496Y-2702647D01*
G01X1173957Y-2693781D01*
G01X1159715Y-2688036D01*
G01X1144534Y-2685722D01*
G01X1106871Y-2648058D01*
G01X1104556Y-2632877D01*
G01X1098812Y-2618635D01*
G01X1089946Y-2606097D01*
G01X1078433Y-2595934D01*
G01X1064892Y-2588691D01*
G01X1050047Y-2584758D01*
G01X1034696Y-2584344D01*
G01X1019662Y-2587472D01*
G01X1005750Y-2593975D01*
G01X993707Y-2603504D01*
G01X984178Y-2615547D01*
G01X977676Y-2629459D01*
G01X974547Y-2644493D01*
G01X48514Y-2644493D01*
G01X48514Y-556260D01*
G01X3672586Y-556260D01*
G37*
G54D10*
G01X3672586Y-556260D02*
G01X3672586Y-1887365D01*
G03X3604809Y-1859275I-67777J-67724D01*
G01X3544809Y-1859275D01*
G03X3462187Y-1906572I0J-95814D01*
G01X3279448Y-1906572D01*
G03X3196826Y-1859275I-82622J-48517D01*
G01X3152234Y-1859275D01*
G01X3175098Y-1836411D01*
G03X3189308Y-1802106I-34305J34305D01*
G01X3189308Y-1497307D01*
G03X3175098Y-1463002I-48514J0D01*
G01X3105467Y-1393371D01*
G03X2992303Y-1348816I-66273J-2336D01*
G03X3036858Y-1461980I46891J-46891D01*
G01X3092280Y-1517402D01*
G01X3092280Y-1782011D01*
G01X2944089Y-1930202D01*
G03X2929880Y-1964506I34305J-34305D01*
G01X2929880Y-2267376D01*
G03X2978394Y-2378899I48514J-45210D01*
G03X3026908Y-2267376I0J66314D01*
G01X3026908Y-1988179D01*
G03X3082920Y-2044703I89918J33091D01*
G01X3082920Y-2730497D01*
G03X3116826Y-2915925I33907J-89614D01*
G01X3196826Y-2915925D01*
G03X3261579Y-2890732I0J95814D01*
G01X3261579Y-2903689D01*
G01X3079157Y-3086111D01*
G03X3034603Y-3199275I2336J-66273D01*
G03X3147767Y-3154720I46891J46891D01*
G01X3344398Y-2958089D01*
G03X3358607Y-2923784I-34305J34305D01*
G01X3358607Y-2339585D01*
G03X3344398Y-2305281I-48514J0D01*
G01X3274766Y-2235649D01*
G03X3179948Y-2178130I-66273J-2336D01*
G01X3179948Y-2157678D01*
G03X3265415Y-2127614I26891J60069D01*
G03X3239876Y-2040687I-58576J30005D01*
G03X3279452Y-2003600I-43050J85598D01*
G01X3462183Y-2003600D01*
G03X3544809Y-2050903I82625J48511D01*
G01X3604809Y-2050903D01*
G03X3672586Y-2022813I0J95814D01*
G01X3672586Y-2752387D01*
G03X3604809Y-2724297I-67777J-67724D01*
G01X3544809Y-2724297D01*
G03X3544809Y-2915925I0J-95814D01*
G01X3604809Y-2915925D01*
G03X3672586Y-2887835I0J95814D01*
G01X3672586Y-5856986D01*
G01X48514Y-5856986D01*
G01X48514Y-556260D01*
G01X3672586Y-556260D01*
G01X141986Y-5651500D02*
G03X366014Y-5651500I112014J0D01*
G03X141986Y-5651500I-112014J0D01*
G01X1310393Y-3696492D02*
G01X1310393Y-4203215D01*
G03X1282644Y-4196039I-30085J-59097D01*
G01X735204Y-3648598D01*
G03X700899Y-3634389I-34305J-34305D01*
G01X415910Y-3634389D01*
G03X352033Y-3619270I-45210J-48514D01*
G01X352033Y-3570493D01*
G03X303519Y-3458969I-48514J45210D01*
G03X255005Y-3570493I0J-66314D01*
G01X255005Y-3835387D01*
G01X250383Y-3840009D01*
G03X205828Y-3953173I2336J-66273D01*
G03X318992Y-3908619I46891J46891D01*
G01X337824Y-3889787D01*
G03X352033Y-3855482I-34305J34305D01*
G01X352033Y-3746535D01*
G03X415910Y-3731417I18666J63633D01*
G01X680804Y-3731417D01*
G01X1214035Y-4264648D01*
G03X1310393Y-4321408I66273J2336D01*
G01X1310393Y-4724385D01*
G01X931472Y-5103307D01*
G03X886917Y-5216471I2336J-66273D01*
G03X1000081Y-5171916I46891J46891D01*
G01X1393212Y-4778785D01*
G03X1407421Y-4744481I-34305J34305D01*
G01X1407421Y-2834180D01*
G01X1996242Y-2245358D01*
G03X2040797Y-2132195I-2336J66273D01*
G03X1927633Y-2176749I-46891J-46891D01*
G01X1583911Y-2520472D01*
G01X1583911Y-2283495D01*
G03X1569701Y-2249191I-48514J0D01*
G01X1504170Y-2183659D01*
G03X1391006Y-2139105I-66273J-2336D01*
G03X1435561Y-2252268I46891J-46891D01*
G01X1486883Y-2303591D01*
G01X1486883Y-2404842D01*
G03X1431861Y-2417073I-14486J-64712D01*
G03X1406124Y-2467218I40536J-52482D01*
G01X1368461Y-2504882D01*
G03X1348931Y-2508549I2336J-66273D01*
G01X1348931Y-1756182D01*
G01X1709153Y-1395960D01*
G03X1770897Y-1312621I-2336J66273D01*
G01X2451291Y-1312621D01*
G01X2836912Y-1698243D01*
G03X2950076Y-1742798I66273J2336D01*
G03X2905521Y-1629634I-46891J46891D01*
G01X2505690Y-1229803D01*
G03X2471386Y-1215593I-34305J-34305D01*
G01X1429988Y-1215593D01*
G03X1395683Y-1229803I0J-48514D01*
G01X1072052Y-1553434D01*
G03X1027497Y-1666598I2336J-66273D01*
G03X1140661Y-1622043I46891J46891D01*
G01X1450083Y-1312621D01*
G01X1642736Y-1312621D01*
G03X1640544Y-1327351I64080J-17066D01*
G01X1266113Y-1701782D01*
G03X1251903Y-1736087I34305J-34305D01*
G01X1251903Y-3214874D01*
G03X1241777Y-3291048I48514J-45210D01*
G03X1310393Y-3325643I58641J30964D01*
G01X1310393Y-3570754D01*
G03X1291634Y-3567350I-21096J-62869D01*
G01X872971Y-3148687D01*
G03X759807Y-3104133I-66273J-2336D01*
G03X804362Y-3217296I46891J-46891D01*
G01X1223025Y-3635959D01*
G03X1310393Y-3696492I66273J2336D01*
G01X588935Y-4192565D02*
G03X633490Y-4079401I-2336J66273D01*
G03X520326Y-4123955I-46891J-46891D01*
G01X457263Y-4187019D01*
G03X412708Y-4300183I2336J-66273D01*
G03X525872Y-4255628I46891J46891D01*
G01X588935Y-4192565D01*
G01X1075925Y-2754331D02*
G03X1189089Y-2798886I66273J2336D01*
G03X1144534Y-2685722I-46891J46891D01*
G01X1106871Y-2648058D01*
G03X993707Y-2603504I-66273J-2336D01*
G03X1038262Y-2716668I46891J-46891D01*
G01X1075925Y-2754331D01*
G01X1617160Y-4188229D02*
G03X1572606Y-4301393I2336J-66273D01*
G03X1685770Y-4256838I46891J46891D01*
G01X1850433Y-4092175D01*
G03X1894987Y-3979011I-2336J66273D01*
G03X1781824Y-4023566I-46891J-46891D01*
G01X1617160Y-4188229D01*
G01X1984577Y-2457094D02*
G03X1871413Y-2501649I-46891J-46891D01*
G01X1833750Y-2539312D01*
G03X1789195Y-2652476I2336J-66273D01*
G03X1902359Y-2607921I46891J46891D01*
G01X1940022Y-2570258D01*
G03X1984577Y-2457094I-2336J66273D01*
G01X2026382Y-5365100D02*
G01X2026382Y-5425100D01*
G03X2218009Y-5425100I95814J0D01*
G01X2218009Y-5365100D01*
G03X2026382Y-5365100I-95814J0D01*
G01X2357015Y-3850388D02*
G03X2322711Y-3864598I0J-48514D01*
G01X2278479Y-3908829D01*
G03X2218365Y-3952797I2336J-66273D01*
G03X2237023Y-4024899I62450J-22305D01*
G03X2228553Y-4055066I57802J-32503D01*
G01X2213238Y-4070380D01*
G03X2130051Y-4153762I-20013J-63222D01*
G03X2246161Y-4173545I63175J20161D01*
G03X2252930Y-4167906I-27535J39943D01*
G01X2297162Y-4123675D01*
G03X2357276Y-4079707I-2336J66273D01*
G03X2338618Y-4007605I-62450J22305D01*
G03X2347088Y-3977438I-57802J32503D01*
G01X2377110Y-3947416D01*
G01X2648382Y-3947416D01*
G03X2674960Y-4024613I62702J-21586D01*
G03X2756294Y-4017516I36125J55611D01*
G01X2805909Y-4017516D01*
G01X3308793Y-4520400D01*
G03X3521498Y-4664501I120207J-51600D01*
G03X3377403Y-4451792I-92498J92501D01*
G01X2873028Y-3947416D01*
G01X3035809Y-3947416D01*
G01X3308793Y-4220401D01*
G03X3521498Y-4364501I120207J-51600D01*
G03X3377403Y-4151792I-92498J92501D01*
G01X3090208Y-3864598D01*
G03X3055904Y-3850388I-34305J-34305D01*
G01X2357015Y-3850388D01*
G01X2266386Y-4995100D02*
G03X2458014Y-4995100I95814J0D01*
G03X2266386Y-4995100I-95814J0D01*
G01X2266386Y-5595099D02*
G03X2458014Y-5595099I95814J0D01*
G03X2266386Y-5595099I-95814J0D01*
G01X2506391Y-5565099D02*
G01X2506391Y-5625099D01*
G03X2698018Y-5625099I95814J0D01*
G01X2698018Y-5565099D01*
G03X2506391Y-5565099I-95814J0D01*
G01X2506391Y-4865101D02*
G01X2506391Y-4925101D01*
G03X2698018Y-4925101I95814J0D01*
G01X2698018Y-4865101D01*
G03X2506391Y-4865101I-95814J0D01*
G01X2753703Y-2364094D02*
G03X2798258Y-2477258I46891J-46891D01*
G01X2886721Y-2565721D01*
G03X2999885Y-2610276I66273J2336D01*
G03X2955330Y-2497112I-46891J46891D01*
G01X2866867Y-2408649D01*
G03X2753703Y-2364094I-66273J-2336D01*
G01X3479000Y-3841194D02*
G01X3379000Y-3841194D01*
G03X3379000Y-4052821I0J-105814D01*
G01X3479000Y-4052821D01*
G03X3479000Y-3841194I0J105814D01*
G01X3479000Y-5091179D02*
G01X3379000Y-5091179D01*
G03X3379000Y-5302806I0J-105814D01*
G01X3479000Y-5302806D01*
G03X3479000Y-5091179I0J105814D01*
G01X3559814Y-4871999D02*
G03X3298186Y-4871999I-130814J0D01*
G03X3559814Y-4871999I130814J0D01*
G01X3355086Y-5651500D02*
G03X3579114Y-5651500I112014J0D01*
G03X3355086Y-5651500I-112014J0D01*
G54D11*
G01X3429000Y-4871999D02*
G01X3549654Y-4871999D01*
G01X3429000Y-4871999D02*
G01X3308346Y-4871999D01*
G01X3429000Y-4871999D02*
G01X3429000Y-4992653D01*
G01X3429000Y-4871999D02*
G01X3429000Y-4751346D01*
G04 Copper End*

G04 Pad Start*
G54D12*
G01X254000Y-254000D03*
G01X3467100Y-254000D03*
G01X3467100Y-5651500D03*
G01X254000Y-5651500D03*
G54D13*
G01X2602205Y-5595099D03*
G01X2602205Y-4895101D03*
G01X2122195Y-5395100D03*
G54D14*
G01X3429000Y-4572000D03*
G01X3429000Y-4272001D03*
G01X3429000Y-4871999D03*
G54D16*
G01X3429000Y-3947008D03*
G01X3429000Y-5196992D03*
G54D17*
G01X3574809Y-1955089D03*
G54D18*
G01X3156826Y-1955089D03*
G01X3156826Y-2820111D03*
G54D17*
G01X3574809Y-2820111D03*
G04 Pad End*

G04 Via Start*
G54D19*
G01X2193226Y-4133602D03*
G01X2294825Y-4057402D03*
G01X1142198Y-2751994D03*
G01X1040598Y-2650395D03*
G01X586599Y-4126292D03*
G01X459599Y-4253291D03*
G01X2952994Y-2563385D03*
G01X2800594Y-2410985D03*
G01X3208494Y-2237986D03*
G01X3081494Y-3152384D03*
G01X3039194Y-1395707D03*
G01X2978394Y-2312585D03*
G01X1370797Y-2571155D03*
G01X1472397Y-2469555D03*
G01X2711084Y-3969002D03*
G01X2280815Y-3975102D03*
G01X1074389Y-1619707D03*
G01X2903185Y-1695907D03*
G01X1706817Y-1329687D03*
G01X1300418Y-3260083D03*
G01X1848096Y-4025902D03*
G01X1619497Y-4254502D03*
G01X1289297Y-3633623D03*
G01X806698Y-3151024D03*
G01X1437897Y-2185996D03*
G01X1408397Y-2664495D03*
G01X1993906Y-2179086D03*
G01X933808Y-5169580D03*
G01X1836086Y-2605585D03*
G01X1937686Y-2503985D03*
G01X303519Y-3525283D03*
G01X252720Y-3906282D03*
G01X1082298Y-1242998D03*
G01X1336297Y-1268398D03*
G01X2031016Y-1192198D03*
G01X3072414Y-1700196D03*
G01X1849086Y-2859584D03*
G01X1428927Y-2988874D03*
G01X1087898Y-3242094D03*
G01X706899Y-3165894D03*
G01X370700Y-3682903D03*
G01X1280308Y-4262312D03*
G04 Via End*

G04 Track Start*
G54D11*
G01X2193226Y-4133602D02*
G01X2218625Y-4133602D01*
G01X2294825Y-4057402D01*
G01X1142198Y-2751994D02*
G01X1040598Y-2650395D01*
G01X3156834Y-1955086D02*
G01X3574813Y-1955086D01*
G01X3156834Y-1955086D02*
G01X3131434Y-1980486D01*
G01X3131434Y-2794704D01*
G01X3156834Y-2820104D01*
G01X586599Y-4126292D02*
G01X459599Y-4253291D01*
G01X2952994Y-2563385D02*
G01X2800594Y-2410985D01*
G01X3208494Y-2237986D02*
G01X3310093Y-2339585D01*
G01X3310093Y-2923784D01*
G01X3081494Y-3152384D01*
G01X3039194Y-1395707D02*
G01X3140794Y-1497307D01*
G01X3140794Y-1802106D01*
G01X2978394Y-1964506D01*
G01X2978394Y-2312585D01*
G01X1370797Y-2571155D02*
G01X1472397Y-2469555D01*
G01X2711084Y-3969002D02*
G01X2826004Y-3969002D01*
G01X3429003Y-4572001D01*
G01X2280815Y-3975102D02*
G01X2357015Y-3898902D01*
G01X3055904Y-3898902D01*
G01X3429003Y-4272001D01*
G01X1074389Y-1619707D02*
G01X1429988Y-1264107D01*
G01X2471386Y-1264107D01*
G01X2903185Y-1695907D01*
G01X1706817Y-1329687D02*
G01X1300418Y-1736086D01*
G01X1300418Y-3260083D01*
G01X1848096Y-4025902D02*
G01X1619497Y-4254502D01*
G01X1289297Y-3633623D02*
G01X806698Y-3151024D01*
G01X1437897Y-2185996D02*
G01X1535397Y-2283496D01*
G01X1535397Y-2537495D01*
G01X1408397Y-2664495D01*
G01X1993906Y-2179086D02*
G01X1358907Y-2814084D01*
G01X1358907Y-4744480D01*
G01X933808Y-5169580D01*
G01X1836086Y-2605585D02*
G01X1937686Y-2503985D01*
G01X303519Y-3525283D02*
G01X303519Y-3855482D01*
G01X252720Y-3906282D01*
G01X1082298Y-1242998D02*
G01X1209298Y-1242998D01*
G01X1234698Y-1268398D01*
G01X1336297Y-1268398D01*
G01X1412497Y-1192198D01*
G01X2031016Y-1192198D01*
G01X2564415Y-1192198D01*
G01X3072414Y-1700196D01*
G01X1849086Y-2859584D02*
G01X1634417Y-2859584D01*
G01X1505127Y-2988874D01*
G01X1428927Y-2988874D01*
G01X1087898Y-3242094D02*
G01X935498Y-3089694D01*
G01X783099Y-3089694D01*
G01X706899Y-3165894D01*
G01X370700Y-3682903D02*
G01X700899Y-3682903D01*
G01X1280308Y-4262312D01*
G04 Track End*

M02*

