G04 Layer: DrillDrawingLayer*
G04 EasyEDA Pro v3.2.148, 2026-09-13 21:34:24*
G04 Gerber Generator version 0.3*
G04 Scale: 100 percent, Rotated: No, Reflected: No*
G04 Dimensions in millimeters*
G04 Leading zeros omitted, absolute positions, 4 integers and 5 decimals*
G04 Generated by one-click*
G04 Object Configs: Pad,Via,Track,Text,Image,Dimension,BoardOutline,BoardCutout,CopperFilled,SolidRegion,FPCStiffener,Line,PlaneZone,ComponentProperty,ComponentSilkscreen,TearDrop*
G04 Layer Configs: 1,2,3,4,5,6,7,8,9,10,11,13,14,56*
G04 Copper Areas: 0*
%FSLAX45Y45*%
%MOMM*%
%AMIconRect*4,1,4,0.28,-0.28,-0.28,-0.28,-0.28,0.28,0.28,0.28,0.28,-0.28,0*4,0,4,0.233333,-0.233333,0.233333,0.233333,-0.233333,0.233333,-0.233333,-0.233333,0.233333,-0.233333,0*%
%AMIconTriangle*4,1,3,-0.339593,0.240473,0.339593,0.240473,0,-0.37884,-0.339593,0.240473,0*4,0,3,-0.265673,0.19404,0,-0.27342,0.266233,0.19404,-0.265673,0.19404,0*%
%AMIconStar6*4,1,12,0.12068,0.20888,0.298527,0.172713,0.241313,0,0.298527,-0.17206,0.12068,-0.208227,0,-0.344073,-0.120073,-0.208227,-0.298573,-0.17206,-0.240707,0,-0.298573,0.17206,-0.120073,0.20888,0,0.344073,0.12068,0.20888,0*4,0,12,-0.000467,0.273467,-0.090067,0.171733,-0.237533,0.136733,-0.193667,-0.007467,-0.237533,-0.1372,-0.090067,-0.171733,-0.000467,-0.273933,0.090067,-0.171733,0.237533,-0.1372,0.194133,0.007,0.237533,0.1372,0.090067,0.171267,-0.000467,0.273467,0*%
%AMIconStar4*4,1,8,-0.311733,0.311733,0,0.202533,0.311733,0.311733,0.202533,0,0.311733,-0.311733,0,-0.202533,-0.304407,-0.311733,-0.202533,0,-0.311733,0.311733,0*4,0,8,0.233333,-0.233333,0.1512,0,0.233333,0.233333,0,0.1512,-0.233333,0.233333,-0.1512,0,-0.233333,-0.233333,0,-0.1512,0.233333,-0.233333,0*%
%AMIconPlus*4,1,12,0.1736,-0.28,-0.1736,-0.28,-0.1736,-0.1736,-0.28,-0.1736,-0.28,0.1736,-0.1736,0.1736,-0.1736,0.28,0.1736,0.28,0.1736,0.1736,0.28,0.1736,0.28,-0.1736,0.1736,-0.1736,0.1736,-0.28,0*4,0,12,0.126933,-0.233333,0.126933,-0.126933,0.233333,-0.126933,0.233333,0.126933,0.126933,0.126933,0.126933,0.233333,-0.126933,0.233333,-0.126933,0.126933,-0.233333,0.126933,-0.233333,-0.126933,-0.126933,-0.126933,-0.126933,-0.233333,0.126933,-0.233333,0*%
%AMIconX*4,1,16,0.28,-0.28,0.076347,-0.28,0,-0.203653,-0.076347,-0.28,-0.28,-0.28,-0.28,-0.076347,-0.203653,0,-0.28,0.076347,-0.28,0.28,-0.076347,0.28,0,0.203653,0.076347,0.28,0.28,0.28,0.28,0.076347,0.203653,0,0.28,-0.076347,0.28,-0.28,0*4,0,16,0.23352,-0.23296,0.23352,-0.095853,0.137107,0.000093,0.23352,0.095853,0.23352,0.2331,0.095853,0.2331,0,0.137107,-0.095853,0.2331,-0.23352,0.2331,-0.23352,0.095853,-0.137107,0.000093,-0.23352,-0.095853,-0.23352,-0.23296,-0.095853,-0.23296,0,-0.137107,0.095853,-0.23296,0.23352,-0.23296,0*%
%AMIconDiamond*4,1,4,0,-0.364,-0.364,0,0,0.364,0.364,0,0,-0.364,0*4,0,4,0,-0.284807,0.284807,0,0,0.28504,-0.284807,0,0,-0.284807,0*%
%AMIconRect2*4,1,6,0.28,-0.28,-0.28,-0.28,-0.28,0.28,-0.23352,0.2331,-0.233333,-0.233333,0.23352,-0.233333,0.28,-0.28,0*4,1,6,0.28,-0.28,0.23352,-0.233333,0.23352,0.2331,-0.23352,0.2331,-0.28,0.28,0.28,0.28,0.28,-0.28,0*4,1,6,0.186853,-0.186667,-0.186667,-0.186667,-0.186667,0.186853,-0.14,0.140187,-0.14,-0.14,0.140187,-0.14,0.186853,-0.186667,0*4,1,6,0.186853,-0.186667,0.140187,-0.14,0.140187,0.140187,-0.14,0.140187,-0.186667,0.186853,0.186853,0.186853,0.186853,-0.186667,0*%
%ADD10IconRect*%
%ADD11C,0.616X0.522667*%
%ADD12IconTriangle*%
%ADD13IconStar6*%
%ADD14IconStar4*%
%ADD15IconPlus*%
%ADD16IconX*%
%ADD17IconDiamond*%
%ADD18IconRect2*%
%ADD19C,0.2032*%
%ADD20C,0.254*%
G75*


G04 Drill Drawing Start*
G54D10*
G01X3429000Y-5197000D03*
G01X3429000Y-3947000D03*
G54D11*
G01X3574826Y-2820096D03*
G01X3574826Y-1955104D03*
G54D12*
G01X3156834Y-1955104D03*
G01X3156836Y-2820096D03*
G54D13*
G01X2362200Y-5595099D03*
G01X2362200Y-4995100D03*
G54D14*
G01X3206839Y-2677592D03*
G01X3206839Y-2097608D03*
G54D15*
G01X2122195Y-5395100D03*
G01X2602205Y-5595099D03*
G01X2602205Y-4895101D03*
G54D16*
G01X3429000Y-4871999D03*
G01X3429000Y-4572000D03*
G01X3429000Y-4272001D03*
G54D17*
G01X254000Y-5651500D03*
G01X254000Y-254000D03*
G01X3467100Y-5651500D03*
G01X3467100Y-254000D03*
G54D18*
G01X252720Y-3906282D03*
G01X303519Y-3525283D03*
G01X370700Y-3682903D03*
G01X459599Y-4253291D03*
G01X586599Y-4126292D03*
G01X706899Y-3165894D03*
G01X806698Y-3151024D03*
G01X933808Y-5169580D03*
G01X1040598Y-2650395D03*
G01X1074389Y-1619707D03*
G01X1082298Y-1242998D03*
G01X1087898Y-3242094D03*
G01X1142198Y-2751994D03*
G01X1280308Y-4262312D03*
G01X1289297Y-3633623D03*
G01X1300418Y-3260083D03*
G01X1336297Y-1268398D03*
G01X1370797Y-2571155D03*
G01X1408397Y-2664495D03*
G01X1428927Y-2988874D03*
G01X1437897Y-2185996D03*
G01X1472397Y-2469555D03*
G01X1619497Y-4254502D03*
G01X1706817Y-1329687D03*
G01X1836086Y-2605585D03*
G01X1848096Y-4025902D03*
G01X1849086Y-2859584D03*
G01X1937686Y-2503985D03*
G01X1993906Y-2179086D03*
G01X2031016Y-1192198D03*
G01X2193226Y-4133602D03*
G01X2280815Y-3975102D03*
G01X2294825Y-4057402D03*
G01X2711084Y-3969002D03*
G01X2800594Y-2410985D03*
G01X2903185Y-1695907D03*
G01X2952994Y-2563385D03*
G01X2978394Y-2312585D03*
G01X3039194Y-1395707D03*
G01X3072414Y-1700196D03*
G01X3081494Y-3152384D03*
G01X3208494Y-2237986D03*
G04 Drill Drawing End*

G04 Text Start*
G54D19*
G01X6008846Y-234406D02*
G01X6008846Y-354548D01*
G01X6008846Y-234406D02*
G01X6054566Y-354548D01*
G01X6100286Y-234406D02*
G01X6054566Y-354548D01*
G01X6100286Y-234406D02*
G01X6100286Y-354548D01*
G01X6216618Y-274538D02*
G01X6216618Y-354548D01*
G01X6216618Y-291556D02*
G01X6205188Y-280126D01*
G01X6193758Y-274538D01*
G01X6176740Y-274538D01*
G01X6165310Y-280126D01*
G01X6153880Y-291556D01*
G01X6148038Y-308828D01*
G01X6148038Y-320258D01*
G01X6153880Y-337276D01*
G01X6165310Y-348706D01*
G01X6176740Y-354548D01*
G01X6193758Y-354548D01*
G01X6205188Y-348706D01*
G01X6216618Y-337276D01*
G01X6264370Y-274538D02*
G01X6264370Y-354548D01*
G01X6264370Y-308828D02*
G01X6270212Y-291556D01*
G01X6281642Y-280126D01*
G01X6293072Y-274538D01*
G01X6310090Y-274538D01*
G01X6357842Y-234406D02*
G01X6357842Y-354548D01*
G01X6414992Y-274538D02*
G01X6357842Y-331688D01*
G01X6380702Y-308828D02*
G01X6420834Y-354548D01*
G01X7546126Y-263108D02*
G01X7540284Y-251678D01*
G01X7528854Y-240248D01*
G01X7517424Y-234406D01*
G01X7494564Y-234406D01*
G01X7483134Y-240248D01*
G01X7471704Y-251678D01*
G01X7466116Y-263108D01*
G01X7460274Y-280126D01*
G01X7460274Y-308828D01*
G01X7466116Y-325846D01*
G01X7471704Y-337276D01*
G01X7483134Y-348706D01*
G01X7494564Y-354548D01*
G01X7517424Y-354548D01*
G01X7528854Y-348706D01*
G01X7540284Y-337276D01*
G01X7546126Y-325846D01*
G01X7622580Y-274538D02*
G01X7611150Y-280126D01*
G01X7599720Y-291556D01*
G01X7593878Y-308828D01*
G01X7593878Y-320258D01*
G01X7599720Y-337276D01*
G01X7611150Y-348706D01*
G01X7622580Y-354548D01*
G01X7639598Y-354548D01*
G01X7651028Y-348706D01*
G01X7662458Y-337276D01*
G01X7668300Y-320258D01*
G01X7668300Y-308828D01*
G01X7662458Y-291556D01*
G01X7651028Y-280126D01*
G01X7639598Y-274538D01*
G01X7622580Y-274538D01*
G01X7716052Y-274538D02*
G01X7716052Y-331688D01*
G01X7721894Y-348706D01*
G01X7733324Y-354548D01*
G01X7750342Y-354548D01*
G01X7761772Y-348706D01*
G01X7779044Y-331688D01*
G01X7779044Y-274538D02*
G01X7779044Y-354548D01*
G01X7826796Y-274538D02*
G01X7826796Y-354548D01*
G01X7826796Y-297398D02*
G01X7844068Y-280126D01*
G01X7855498Y-274538D01*
G01X7872516Y-274538D01*
G01X7883946Y-280126D01*
G01X7889788Y-297398D01*
G01X7889788Y-354548D01*
G01X7954812Y-234406D02*
G01X7954812Y-331688D01*
G01X7960400Y-348706D01*
G01X7971830Y-354548D01*
G01X7983260Y-354548D01*
G01X7937540Y-274538D02*
G01X7977672Y-274538D01*
G01X8954447Y-251678D02*
G01X8943017Y-240248D01*
G01X8925999Y-234406D01*
G01X8903139Y-234406D01*
G01X8885867Y-240248D01*
G01X8874437Y-251678D01*
G01X8874437Y-263108D01*
G01X8880279Y-274538D01*
G01X8885867Y-280126D01*
G01X8897297Y-285968D01*
G01X8931587Y-297398D01*
G01X8943017Y-302986D01*
G01X8948859Y-308828D01*
G01X8954447Y-320258D01*
G01X8954447Y-337276D01*
G01X8943017Y-348706D01*
G01X8925999Y-354548D01*
G01X8903139Y-354548D01*
G01X8885867Y-348706D01*
G01X8874437Y-337276D01*
G01X9002199Y-234406D02*
G01X9008041Y-240248D01*
G01X9013629Y-234406D01*
G01X9008041Y-228818D01*
G01X9002199Y-234406D01*
G01X9008041Y-274538D02*
G01X9008041Y-354548D01*
G01X9124373Y-274538D02*
G01X9061381Y-354548D01*
G01X9061381Y-274538D02*
G01X9124373Y-274538D01*
G01X9061381Y-354548D02*
G01X9124373Y-354548D01*
G01X9172125Y-308828D02*
G01X9240705Y-308828D01*
G01X9240705Y-297398D01*
G01X9235117Y-285968D01*
G01X9229275Y-280126D01*
G01X9217845Y-274538D01*
G01X9200827Y-274538D01*
G01X9189397Y-280126D01*
G01X9177967Y-291556D01*
G01X9172125Y-308828D01*
G01X9172125Y-320258D01*
G01X9177967Y-337276D01*
G01X9189397Y-348706D01*
G01X9200827Y-354548D01*
G01X9217845Y-354548D01*
G01X9229275Y-348706D01*
G01X9240705Y-337276D01*
G01X12711253Y-234406D02*
G01X12711253Y-354548D01*
G01X12711253Y-234406D02*
G01X12762815Y-234406D01*
G01X12779833Y-240248D01*
G01X12785675Y-245836D01*
G01X12791263Y-257266D01*
G01X12791263Y-274538D01*
G01X12785675Y-285968D01*
G01X12779833Y-291556D01*
G01X12762815Y-297398D01*
G01X12711253Y-297398D01*
G01X12839015Y-234406D02*
G01X12839015Y-354548D01*
G01X12955347Y-274538D02*
G01X12955347Y-354548D01*
G01X12955347Y-291556D02*
G01X12943917Y-280126D01*
G01X12932487Y-274538D01*
G01X12915469Y-274538D01*
G01X12904039Y-280126D01*
G01X12892609Y-291556D01*
G01X12886767Y-308828D01*
G01X12886767Y-320258D01*
G01X12892609Y-337276D01*
G01X12904039Y-348706D01*
G01X12915469Y-354548D01*
G01X12932487Y-354548D01*
G01X12943917Y-348706D01*
G01X12955347Y-337276D01*
G01X13020371Y-234406D02*
G01X13020371Y-331688D01*
G01X13025959Y-348706D01*
G01X13037389Y-354548D01*
G01X13048819Y-354548D01*
G01X13003099Y-274538D02*
G01X13043231Y-274538D01*
G01X13096571Y-308828D02*
G01X13165151Y-308828D01*
G01X13165151Y-297398D01*
G01X13159563Y-285968D01*
G01X13153721Y-280126D01*
G01X13142291Y-274538D01*
G01X13125273Y-274538D01*
G01X13113843Y-280126D01*
G01X13102413Y-291556D01*
G01X13096571Y-308828D01*
G01X13096571Y-320258D01*
G01X13102413Y-337276D01*
G01X13113843Y-348706D01*
G01X13125273Y-354548D01*
G01X13142291Y-354548D01*
G01X13153721Y-348706D01*
G01X13165151Y-337276D01*
G01X13281483Y-234406D02*
G01X13281483Y-354548D01*
G01X13281483Y-291556D02*
G01X13270053Y-280126D01*
G01X13258623Y-274538D01*
G01X13241605Y-274538D01*
G01X13230175Y-280126D01*
G01X13218745Y-291556D01*
G01X13212903Y-308828D01*
G01X13212903Y-320258D01*
G01X13218745Y-337276D01*
G01X13230175Y-348706D01*
G01X13241605Y-354548D01*
G01X13258623Y-354548D01*
G01X13270053Y-348706D01*
G01X13281483Y-337276D01*
G01X14252670Y-251678D02*
G01X14241240Y-240248D01*
G01X14224222Y-234406D01*
G01X14201362Y-234406D01*
G01X14184090Y-240248D01*
G01X14172660Y-251678D01*
G01X14172660Y-263108D01*
G01X14178502Y-274538D01*
G01X14184090Y-280126D01*
G01X14195520Y-285968D01*
G01X14229810Y-297398D01*
G01X14241240Y-302986D01*
G01X14247082Y-308828D01*
G01X14252670Y-320258D01*
G01X14252670Y-337276D01*
G01X14241240Y-348706D01*
G01X14224222Y-354548D01*
G01X14201362Y-354548D01*
G01X14184090Y-348706D01*
G01X14172660Y-337276D01*
G01X14300422Y-234406D02*
G01X14300422Y-354548D01*
G01X14300422Y-297398D02*
G01X14317694Y-280126D01*
G01X14329124Y-274538D01*
G01X14346142Y-274538D01*
G01X14357572Y-280126D01*
G01X14363414Y-297398D01*
G01X14363414Y-354548D01*
G01X14479746Y-274538D02*
G01X14479746Y-354548D01*
G01X14479746Y-291556D02*
G01X14468316Y-280126D01*
G01X14456886Y-274538D01*
G01X14439868Y-274538D01*
G01X14428438Y-280126D01*
G01X14417008Y-291556D01*
G01X14411166Y-308828D01*
G01X14411166Y-320258D01*
G01X14417008Y-337276D01*
G01X14428438Y-348706D01*
G01X14439868Y-354548D01*
G01X14456886Y-354548D01*
G01X14468316Y-348706D01*
G01X14479746Y-337276D01*
G01X14527498Y-274538D02*
G01X14527498Y-394426D01*
G01X14527498Y-291556D02*
G01X14538928Y-280126D01*
G01X14550358Y-274538D01*
G01X14567630Y-274538D01*
G01X14579060Y-280126D01*
G01X14590490Y-291556D01*
G01X14596078Y-308828D01*
G01X14596078Y-320258D01*
G01X14590490Y-337276D01*
G01X14579060Y-348706D01*
G01X14567630Y-354548D01*
G01X14550358Y-354548D01*
G01X14538928Y-348706D01*
G01X14527498Y-337276D01*
G01X14643830Y-308828D02*
G01X14712410Y-308828D01*
G01X14712410Y-297398D01*
G01X14706822Y-285968D01*
G01X14700980Y-280126D01*
G01X14689550Y-274538D01*
G01X14672532Y-274538D01*
G01X14661102Y-280126D01*
G01X14649672Y-291556D01*
G01X14643830Y-308828D01*
G01X14643830Y-320258D01*
G01X14649672Y-337276D01*
G01X14661102Y-348706D01*
G01X14672532Y-354548D01*
G01X14689550Y-354548D01*
G01X14700980Y-348706D01*
G01X14712410Y-337276D01*
G01X15603841Y-234406D02*
G01X15649561Y-354548D01*
G01X15695281Y-234406D02*
G01X15649561Y-354548D01*
G01X15743033Y-234406D02*
G01X15748875Y-240248D01*
G01X15754463Y-234406D01*
G01X15748875Y-228818D01*
G01X15743033Y-234406D01*
G01X15748875Y-274538D02*
G01X15748875Y-354548D01*
G01X15870795Y-274538D02*
G01X15870795Y-354548D01*
G01X15870795Y-291556D02*
G01X15859365Y-280126D01*
G01X15847935Y-274538D01*
G01X15830917Y-274538D01*
G01X15819487Y-280126D01*
G01X15808057Y-291556D01*
G01X15802215Y-308828D01*
G01X15802215Y-320258D01*
G01X15808057Y-337276D01*
G01X15819487Y-348706D01*
G01X15830917Y-354548D01*
G01X15847935Y-354548D01*
G01X15859365Y-348706D01*
G01X15870795Y-337276D01*
G01X16021417Y-211546D02*
G01X15918547Y-394426D01*
G01X16069169Y-234406D02*
G01X16069169Y-354548D01*
G01X16069169Y-234406D02*
G01X16120731Y-234406D01*
G01X16137749Y-240248D01*
G01X16143591Y-245836D01*
G01X16149179Y-257266D01*
G01X16149179Y-274538D01*
G01X16143591Y-285968D01*
G01X16137749Y-291556D01*
G01X16120731Y-297398D01*
G01X16069169Y-297398D01*
G01X16265511Y-274538D02*
G01X16265511Y-354548D01*
G01X16265511Y-291556D02*
G01X16254081Y-280126D01*
G01X16242651Y-274538D01*
G01X16225633Y-274538D01*
G01X16214203Y-280126D01*
G01X16202773Y-291556D01*
G01X16196931Y-308828D01*
G01X16196931Y-320258D01*
G01X16202773Y-337276D01*
G01X16214203Y-348706D01*
G01X16225633Y-354548D01*
G01X16242651Y-354548D01*
G01X16254081Y-348706D01*
G01X16265511Y-337276D01*
G01X16381843Y-234406D02*
G01X16381843Y-354548D01*
G01X16381843Y-291556D02*
G01X16370413Y-280126D01*
G01X16358983Y-274538D01*
G01X16341965Y-274538D01*
G01X16330535Y-280126D01*
G01X16319105Y-291556D01*
G01X16313263Y-308828D01*
G01X16313263Y-320258D01*
G01X16319105Y-337276D01*
G01X16330535Y-348706D01*
G01X16341965Y-354548D01*
G01X16358983Y-354548D01*
G01X16370413Y-348706D01*
G01X16381843Y-337276D01*
G01X17273020Y-234406D02*
G01X17273020Y-354548D01*
G01X17273020Y-234406D02*
G01X17324582Y-234406D01*
G01X17341600Y-240248D01*
G01X17347442Y-245836D01*
G01X17353030Y-257266D01*
G01X17353030Y-274538D01*
G01X17347442Y-285968D01*
G01X17341600Y-291556D01*
G01X17324582Y-297398D01*
G01X17273020Y-297398D01*
G01X17469362Y-274538D02*
G01X17469362Y-354548D01*
G01X17469362Y-291556D02*
G01X17457932Y-280126D01*
G01X17446502Y-274538D01*
G01X17429484Y-274538D01*
G01X17418054Y-280126D01*
G01X17406624Y-291556D01*
G01X17400782Y-308828D01*
G01X17400782Y-320258D01*
G01X17406624Y-337276D01*
G01X17418054Y-348706D01*
G01X17429484Y-354548D01*
G01X17446502Y-354548D01*
G01X17457932Y-348706D01*
G01X17469362Y-337276D01*
G01X17585694Y-234406D02*
G01X17585694Y-354548D01*
G01X17585694Y-291556D02*
G01X17574264Y-280126D01*
G01X17562834Y-274538D01*
G01X17545816Y-274538D01*
G01X17534386Y-280126D01*
G01X17522956Y-291556D01*
G01X17517114Y-308828D01*
G01X17517114Y-320258D01*
G01X17522956Y-337276D01*
G01X17534386Y-348706D01*
G01X17545816Y-354548D01*
G01X17562834Y-354548D01*
G01X17574264Y-348706D01*
G01X17585694Y-337276D01*
G01X17841472Y-251678D02*
G01X17830042Y-240248D01*
G01X17813024Y-234406D01*
G01X17790164Y-234406D01*
G01X17772892Y-240248D01*
G01X17761462Y-251678D01*
G01X17761462Y-263108D01*
G01X17767304Y-274538D01*
G01X17772892Y-280126D01*
G01X17784322Y-285968D01*
G01X17818612Y-297398D01*
G01X17830042Y-302986D01*
G01X17835884Y-308828D01*
G01X17841472Y-320258D01*
G01X17841472Y-337276D01*
G01X17830042Y-348706D01*
G01X17813024Y-354548D01*
G01X17790164Y-354548D01*
G01X17772892Y-348706D01*
G01X17761462Y-337276D01*
G01X17889224Y-234406D02*
G01X17889224Y-354548D01*
G01X17889224Y-297398D02*
G01X17906496Y-280126D01*
G01X17917926Y-274538D01*
G01X17934944Y-274538D01*
G01X17946374Y-280126D01*
G01X17952216Y-297398D01*
G01X17952216Y-354548D01*
G01X18068548Y-274538D02*
G01X18068548Y-354548D01*
G01X18068548Y-291556D02*
G01X18057118Y-280126D01*
G01X18045688Y-274538D01*
G01X18028670Y-274538D01*
G01X18017240Y-280126D01*
G01X18005810Y-291556D01*
G01X17999968Y-308828D01*
G01X17999968Y-320258D01*
G01X18005810Y-337276D01*
G01X18017240Y-348706D01*
G01X18028670Y-354548D01*
G01X18045688Y-354548D01*
G01X18057118Y-348706D01*
G01X18068548Y-337276D01*
G01X18116300Y-274538D02*
G01X18116300Y-394426D01*
G01X18116300Y-291556D02*
G01X18127730Y-280126D01*
G01X18139160Y-274538D01*
G01X18156432Y-274538D01*
G01X18167862Y-280126D01*
G01X18179292Y-291556D01*
G01X18184880Y-308828D01*
G01X18184880Y-320258D01*
G01X18179292Y-337276D01*
G01X18167862Y-348706D01*
G01X18156432Y-354548D01*
G01X18139160Y-354548D01*
G01X18127730Y-348706D01*
G01X18116300Y-337276D01*
G01X18232632Y-308828D02*
G01X18301212Y-308828D01*
G01X18301212Y-297398D01*
G01X18295624Y-285968D01*
G01X18289782Y-280126D01*
G01X18278352Y-274538D01*
G01X18261334Y-274538D01*
G01X18249904Y-280126D01*
G01X18238474Y-291556D01*
G01X18232632Y-308828D01*
G01X18232632Y-320258D01*
G01X18238474Y-337276D01*
G01X18249904Y-348706D01*
G01X18261334Y-354548D01*
G01X18278352Y-354548D01*
G01X18289782Y-348706D01*
G01X18301212Y-337276D01*
G01X19192389Y-234406D02*
G01X19192389Y-354548D01*
G01X19192389Y-354548D02*
G01X19260969Y-354548D01*
G01X19377301Y-274538D02*
G01X19377301Y-354548D01*
G01X19377301Y-291556D02*
G01X19365871Y-280126D01*
G01X19354441Y-274538D01*
G01X19337423Y-274538D01*
G01X19325993Y-280126D01*
G01X19314563Y-291556D01*
G01X19308721Y-308828D01*
G01X19308721Y-320258D01*
G01X19314563Y-337276D01*
G01X19325993Y-348706D01*
G01X19337423Y-354548D01*
G01X19354441Y-354548D01*
G01X19365871Y-348706D01*
G01X19377301Y-337276D01*
G01X19430895Y-274538D02*
G01X19465185Y-354548D01*
G01X19499475Y-274538D02*
G01X19465185Y-354548D01*
G01X19453755Y-377408D01*
G01X19442325Y-388838D01*
G01X19430895Y-394426D01*
G01X19425053Y-394426D01*
G01X19547227Y-308828D02*
G01X19615807Y-308828D01*
G01X19615807Y-297398D01*
G01X19610219Y-285968D01*
G01X19604377Y-280126D01*
G01X19592947Y-274538D01*
G01X19575929Y-274538D01*
G01X19564499Y-280126D01*
G01X19553069Y-291556D01*
G01X19547227Y-308828D01*
G01X19547227Y-320258D01*
G01X19553069Y-337276D01*
G01X19564499Y-348706D01*
G01X19575929Y-354548D01*
G01X19592947Y-354548D01*
G01X19604377Y-348706D01*
G01X19615807Y-337276D01*
G01X19663559Y-274538D02*
G01X19663559Y-354548D01*
G01X19663559Y-308828D02*
G01X19669401Y-291556D01*
G01X19680831Y-280126D01*
G01X19692261Y-274538D01*
G01X19709279Y-274538D01*
G01X19885047Y-234406D02*
G01X19885047Y-354548D01*
G01X19885047Y-234406D02*
G01X19936609Y-234406D01*
G01X19953627Y-240248D01*
G01X19959469Y-245836D01*
G01X19965057Y-257266D01*
G01X19965057Y-274538D01*
G01X19959469Y-285968D01*
G01X19953627Y-291556D01*
G01X19936609Y-297398D01*
G01X19885047Y-297398D01*
G01X20081389Y-274538D02*
G01X20081389Y-354548D01*
G01X20081389Y-291556D02*
G01X20069959Y-280126D01*
G01X20058529Y-274538D01*
G01X20041511Y-274538D01*
G01X20030081Y-280126D01*
G01X20018651Y-291556D01*
G01X20012809Y-308828D01*
G01X20012809Y-320258D01*
G01X20018651Y-337276D01*
G01X20030081Y-348706D01*
G01X20041511Y-354548D01*
G01X20058529Y-354548D01*
G01X20069959Y-348706D01*
G01X20081389Y-337276D01*
G01X20129141Y-234406D02*
G01X20134983Y-240248D01*
G01X20140571Y-234406D01*
G01X20134983Y-228818D01*
G01X20129141Y-234406D01*
G01X20134983Y-274538D02*
G01X20134983Y-354548D01*
G01X20188323Y-274538D02*
G01X20188323Y-354548D01*
G01X20188323Y-308828D02*
G01X20194165Y-291556D01*
G01X20205595Y-280126D01*
G01X20217025Y-274538D01*
G01X20234043Y-274538D01*
G01X7466116Y-843679D02*
G01X7466116Y-837837D01*
G01X7471704Y-826407D01*
G01X7477546Y-820819D01*
G01X7488976Y-814977D01*
G01X7511836Y-814977D01*
G01X7523266Y-820819D01*
G01X7528854Y-826407D01*
G01X7534696Y-837837D01*
G01X7534696Y-849267D01*
G01X7528854Y-860697D01*
G01X7517424Y-877969D01*
G01X7460274Y-935119D01*
G01X7540284Y-935119D01*
G01X8885867Y-814977D02*
G01X8948859Y-814977D01*
G01X8914569Y-860697D01*
G01X8931587Y-860697D01*
G01X8943017Y-866539D01*
G01X8948859Y-872127D01*
G01X8954447Y-889399D01*
G01X8954447Y-900829D01*
G01X8948859Y-917847D01*
G01X8937429Y-929277D01*
G01X8920157Y-935119D01*
G01X8903139Y-935119D01*
G01X8885867Y-929277D01*
G01X8880279Y-923689D01*
G01X8874437Y-912259D01*
G01X9002199Y-837837D02*
G01X9013629Y-832249D01*
G01X9030901Y-814977D01*
G01X9030901Y-935119D01*
G01X9084495Y-906417D02*
G01X9078653Y-912259D01*
G01X9084495Y-917847D01*
G01X9090083Y-912259D01*
G01X9084495Y-906417D01*
G01X9206415Y-814977D02*
G01X9149265Y-814977D01*
G01X9143677Y-866539D01*
G01X9149265Y-860697D01*
G01X9166537Y-855109D01*
G01X9183555Y-855109D01*
G01X9200827Y-860697D01*
G01X9212257Y-872127D01*
G01X9217845Y-889399D01*
G01X9217845Y-900829D01*
G01X9212257Y-917847D01*
G01X9200827Y-929277D01*
G01X9183555Y-935119D01*
G01X9166537Y-935119D01*
G01X9149265Y-929277D01*
G01X9143677Y-923689D01*
G01X9137835Y-912259D01*
G01X9265597Y-855109D02*
G01X9328589Y-935119D01*
G01X9328589Y-855109D02*
G01X9265597Y-935119D01*
G01X9444921Y-832249D02*
G01X9439333Y-820819D01*
G01X9422061Y-814977D01*
G01X9410631Y-814977D01*
G01X9393613Y-820819D01*
G01X9382183Y-837837D01*
G01X9376341Y-866539D01*
G01X9376341Y-894987D01*
G01X9382183Y-917847D01*
G01X9393613Y-929277D01*
G01X9410631Y-935119D01*
G01X9416473Y-935119D01*
G01X9433491Y-929277D01*
G01X9444921Y-917847D01*
G01X9450763Y-900829D01*
G01X9450763Y-894987D01*
G01X9444921Y-877969D01*
G01X9433491Y-866539D01*
G01X9416473Y-860697D01*
G01X9410631Y-860697D01*
G01X9393613Y-866539D01*
G01X9382183Y-877969D01*
G01X9376341Y-894987D01*
G01X9567095Y-832249D02*
G01X9561507Y-820819D01*
G01X9544235Y-814977D01*
G01X9532805Y-814977D01*
G01X9515787Y-820819D01*
G01X9504357Y-837837D01*
G01X9498515Y-866539D01*
G01X9498515Y-894987D01*
G01X9504357Y-917847D01*
G01X9515787Y-929277D01*
G01X9532805Y-935119D01*
G01X9538647Y-935119D01*
G01X9555665Y-929277D01*
G01X9567095Y-917847D01*
G01X9572937Y-900829D01*
G01X9572937Y-894987D01*
G01X9567095Y-877969D01*
G01X9555665Y-866539D01*
G01X9538647Y-860697D01*
G01X9532805Y-860697D01*
G01X9515787Y-866539D01*
G01X9504357Y-877969D01*
G01X9498515Y-894987D01*
G01X9626531Y-906417D02*
G01X9620689Y-912259D01*
G01X9626531Y-917847D01*
G01X9632119Y-912259D01*
G01X9626531Y-906417D01*
G01X9754293Y-855109D02*
G01X9748451Y-872127D01*
G01X9737021Y-883557D01*
G01X9720003Y-889399D01*
G01X9714161Y-889399D01*
G01X9697143Y-883557D01*
G01X9685713Y-872127D01*
G01X9679871Y-855109D01*
G01X9679871Y-849267D01*
G01X9685713Y-832249D01*
G01X9697143Y-820819D01*
G01X9714161Y-814977D01*
G01X9720003Y-814977D01*
G01X9737021Y-820819D01*
G01X9748451Y-832249D01*
G01X9754293Y-855109D01*
G01X9754293Y-883557D01*
G01X9748451Y-912259D01*
G01X9737021Y-929277D01*
G01X9720003Y-935119D01*
G01X9708573Y-935119D01*
G01X9691301Y-929277D01*
G01X9685713Y-917847D01*
G01X9802045Y-855109D02*
G01X9802045Y-935119D01*
G01X9802045Y-877969D02*
G01X9819317Y-860697D01*
G01X9830747Y-855109D01*
G01X9847765Y-855109D01*
G01X9859195Y-860697D01*
G01X9865037Y-877969D01*
G01X9865037Y-935119D01*
G01X9865037Y-877969D02*
G01X9882055Y-860697D01*
G01X9893485Y-855109D01*
G01X9910757Y-855109D01*
G01X9922187Y-860697D01*
G01X9927775Y-877969D01*
G01X9927775Y-935119D01*
G01X9975527Y-814977D02*
G01X9981369Y-820819D01*
G01X9986957Y-814977D01*
G01X9981369Y-809389D01*
G01X9975527Y-814977D01*
G01X9981369Y-855109D02*
G01X9981369Y-935119D01*
G01X10034709Y-814977D02*
G01X10034709Y-935119D01*
G01X10122593Y-792117D02*
G01X10111163Y-803547D01*
G01X10099733Y-820819D01*
G01X10088303Y-843679D01*
G01X10082461Y-872127D01*
G01X10082461Y-894987D01*
G01X10088303Y-923689D01*
G01X10099733Y-946549D01*
G01X10111163Y-963567D01*
G01X10122593Y-974997D01*
G01X10204635Y-814977D02*
G01X10187617Y-820819D01*
G01X10176187Y-837837D01*
G01X10170345Y-866539D01*
G01X10170345Y-883557D01*
G01X10176187Y-912259D01*
G01X10187617Y-929277D01*
G01X10204635Y-935119D01*
G01X10216065Y-935119D01*
G01X10233337Y-929277D01*
G01X10244767Y-912259D01*
G01X10250355Y-883557D01*
G01X10250355Y-866539D01*
G01X10244767Y-837837D01*
G01X10233337Y-820819D01*
G01X10216065Y-814977D01*
G01X10204635Y-814977D01*
G01X10303949Y-906417D02*
G01X10298107Y-912259D01*
G01X10303949Y-917847D01*
G01X10309537Y-912259D01*
G01X10303949Y-906417D01*
G01X10385991Y-814977D02*
G01X10368719Y-820819D01*
G01X10363131Y-832249D01*
G01X10363131Y-843679D01*
G01X10368719Y-855109D01*
G01X10380149Y-860697D01*
G01X10403009Y-866539D01*
G01X10420281Y-872127D01*
G01X10431711Y-883557D01*
G01X10437299Y-894987D01*
G01X10437299Y-912259D01*
G01X10431711Y-923689D01*
G01X10425869Y-929277D01*
G01X10408851Y-935119D01*
G01X10385991Y-935119D01*
G01X10368719Y-929277D01*
G01X10363131Y-923689D01*
G01X10357289Y-912259D01*
G01X10357289Y-894987D01*
G01X10363131Y-883557D01*
G01X10374561Y-872127D01*
G01X10391579Y-866539D01*
G01X10414439Y-860697D01*
G01X10425869Y-855109D01*
G01X10431711Y-843679D01*
G01X10431711Y-832249D01*
G01X10425869Y-820819D01*
G01X10408851Y-814977D01*
G01X10385991Y-814977D01*
G01X10519341Y-814977D02*
G01X10502323Y-820819D01*
G01X10490893Y-837837D01*
G01X10485051Y-866539D01*
G01X10485051Y-883557D01*
G01X10490893Y-912259D01*
G01X10502323Y-929277D01*
G01X10519341Y-935119D01*
G01X10530771Y-935119D01*
G01X10548043Y-929277D01*
G01X10559473Y-912259D01*
G01X10565061Y-883557D01*
G01X10565061Y-866539D01*
G01X10559473Y-837837D01*
G01X10548043Y-820819D01*
G01X10530771Y-814977D01*
G01X10519341Y-814977D01*
G01X10647103Y-814977D02*
G01X10630085Y-820819D01*
G01X10618655Y-837837D01*
G01X10612813Y-866539D01*
G01X10612813Y-883557D01*
G01X10618655Y-912259D01*
G01X10630085Y-929277D01*
G01X10647103Y-935119D01*
G01X10658533Y-935119D01*
G01X10675805Y-929277D01*
G01X10687235Y-912259D01*
G01X10692823Y-883557D01*
G01X10692823Y-866539D01*
G01X10687235Y-837837D01*
G01X10675805Y-820819D01*
G01X10658533Y-814977D01*
G01X10647103Y-814977D01*
G01X10740575Y-855109D02*
G01X10803567Y-935119D01*
G01X10803567Y-855109D02*
G01X10740575Y-935119D01*
G01X10851319Y-837837D02*
G01X10862749Y-832249D01*
G01X10880021Y-814977D01*
G01X10880021Y-935119D01*
G01X10933615Y-906417D02*
G01X10927773Y-912259D01*
G01X10933615Y-917847D01*
G01X10939203Y-912259D01*
G01X10933615Y-906417D01*
G01X11066965Y-814977D02*
G01X11009815Y-935119D01*
G01X10986955Y-814977D02*
G01X11066965Y-814977D01*
G01X11149007Y-814977D02*
G01X11131989Y-820819D01*
G01X11120559Y-837837D01*
G01X11114717Y-866539D01*
G01X11114717Y-883557D01*
G01X11120559Y-912259D01*
G01X11131989Y-929277D01*
G01X11149007Y-935119D01*
G01X11160437Y-935119D01*
G01X11177709Y-929277D01*
G01X11189139Y-912259D01*
G01X11194727Y-883557D01*
G01X11194727Y-866539D01*
G01X11189139Y-837837D01*
G01X11177709Y-820819D01*
G01X11160437Y-814977D01*
G01X11149007Y-814977D01*
G01X11276769Y-814977D02*
G01X11259751Y-820819D01*
G01X11248321Y-837837D01*
G01X11242479Y-866539D01*
G01X11242479Y-883557D01*
G01X11248321Y-912259D01*
G01X11259751Y-929277D01*
G01X11276769Y-935119D01*
G01X11288199Y-935119D01*
G01X11305471Y-929277D01*
G01X11316901Y-912259D01*
G01X11322489Y-883557D01*
G01X11322489Y-866539D01*
G01X11316901Y-837837D01*
G01X11305471Y-820819D01*
G01X11288199Y-814977D01*
G01X11276769Y-814977D01*
G01X11370241Y-855109D02*
G01X11370241Y-935119D01*
G01X11370241Y-877969D02*
G01X11387513Y-860697D01*
G01X11398943Y-855109D01*
G01X11415961Y-855109D01*
G01X11427391Y-860697D01*
G01X11433233Y-877969D01*
G01X11433233Y-935119D01*
G01X11433233Y-877969D02*
G01X11450251Y-860697D01*
G01X11461681Y-855109D01*
G01X11478953Y-855109D01*
G01X11490383Y-860697D01*
G01X11495971Y-877969D01*
G01X11495971Y-935119D01*
G01X11543723Y-855109D02*
G01X11543723Y-935119D01*
G01X11543723Y-877969D02*
G01X11560995Y-860697D01*
G01X11572425Y-855109D01*
G01X11589443Y-855109D01*
G01X11600873Y-860697D01*
G01X11606715Y-877969D01*
G01X11606715Y-935119D01*
G01X11606715Y-877969D02*
G01X11623733Y-860697D01*
G01X11635163Y-855109D01*
G01X11652435Y-855109D01*
G01X11663865Y-860697D01*
G01X11669453Y-877969D01*
G01X11669453Y-935119D01*
G01X11717205Y-792117D02*
G01X11728635Y-803547D01*
G01X11740065Y-820819D01*
G01X11751495Y-843679D01*
G01X11757337Y-872127D01*
G01X11757337Y-894987D01*
G01X11751495Y-923689D01*
G01X11740065Y-946549D01*
G01X11728635Y-963567D01*
G01X11717205Y-974997D01*
G01X12711253Y-814977D02*
G01X12711253Y-935119D01*
G01X12711253Y-814977D02*
G01X12762815Y-814977D01*
G01X12779833Y-820819D01*
G01X12785675Y-826407D01*
G01X12791263Y-837837D01*
G01X12791263Y-855109D01*
G01X12785675Y-866539D01*
G01X12779833Y-872127D01*
G01X12762815Y-877969D01*
G01X12711253Y-877969D01*
G01X12879147Y-814977D02*
G01X12879147Y-935119D01*
G01X12839015Y-814977D02*
G01X12919025Y-814977D01*
G01X12966777Y-814977D02*
G01X12966777Y-935119D01*
G01X13046787Y-814977D02*
G01X13046787Y-935119D01*
G01X12966777Y-872127D02*
G01X13046787Y-872127D01*
G01X14252670Y-832249D02*
G01X14241240Y-820819D01*
G01X14224222Y-814977D01*
G01X14201362Y-814977D01*
G01X14184090Y-820819D01*
G01X14172660Y-832249D01*
G01X14172660Y-843679D01*
G01X14178502Y-855109D01*
G01X14184090Y-860697D01*
G01X14195520Y-866539D01*
G01X14229810Y-877969D01*
G01X14241240Y-883557D01*
G01X14247082Y-889399D01*
G01X14252670Y-900829D01*
G01X14252670Y-917847D01*
G01X14241240Y-929277D01*
G01X14224222Y-935119D01*
G01X14201362Y-935119D01*
G01X14184090Y-929277D01*
G01X14172660Y-917847D01*
G01X14300422Y-814977D02*
G01X14300422Y-935119D01*
G01X14376876Y-855109D02*
G01X14365446Y-860697D01*
G01X14354016Y-872127D01*
G01X14348174Y-889399D01*
G01X14348174Y-900829D01*
G01X14354016Y-917847D01*
G01X14365446Y-929277D01*
G01X14376876Y-935119D01*
G01X14393894Y-935119D01*
G01X14405324Y-929277D01*
G01X14416754Y-917847D01*
G01X14422596Y-900829D01*
G01X14422596Y-889399D01*
G01X14416754Y-872127D01*
G01X14405324Y-860697D01*
G01X14393894Y-855109D01*
G01X14376876Y-855109D01*
G01X14487620Y-814977D02*
G01X14487620Y-912259D01*
G01X14493208Y-929277D01*
G01X14504638Y-935119D01*
G01X14516068Y-935119D01*
G01X14470348Y-855109D02*
G01X14510480Y-855109D01*
G01X15603841Y-814977D02*
G01X15603841Y-935119D01*
G01X15603841Y-814977D02*
G01X15655403Y-814977D01*
G01X15672421Y-820819D01*
G01X15678263Y-826407D01*
G01X15683851Y-837837D01*
G01X15683851Y-855109D01*
G01X15678263Y-866539D01*
G01X15672421Y-872127D01*
G01X15655403Y-877969D01*
G01X15603841Y-877969D01*
G01X15800183Y-855109D02*
G01X15800183Y-935119D01*
G01X15800183Y-872127D02*
G01X15788753Y-860697D01*
G01X15777323Y-855109D01*
G01X15760305Y-855109D01*
G01X15748875Y-860697D01*
G01X15737445Y-872127D01*
G01X15731603Y-889399D01*
G01X15731603Y-900829D01*
G01X15737445Y-917847D01*
G01X15748875Y-929277D01*
G01X15760305Y-935119D01*
G01X15777323Y-935119D01*
G01X15788753Y-929277D01*
G01X15800183Y-917847D01*
G01X15916515Y-814977D02*
G01X15916515Y-935119D01*
G01X15916515Y-872127D02*
G01X15905085Y-860697D01*
G01X15893655Y-855109D01*
G01X15876637Y-855109D01*
G01X15865207Y-860697D01*
G01X15853777Y-872127D01*
G01X15847935Y-889399D01*
G01X15847935Y-900829D01*
G01X15853777Y-917847D01*
G01X15865207Y-929277D01*
G01X15876637Y-935119D01*
G01X15893655Y-935119D01*
G01X15905085Y-929277D01*
G01X15916515Y-917847D01*
G01X17307310Y-814977D02*
G01X17295880Y-820819D01*
G01X17284450Y-832249D01*
G01X17278862Y-843679D01*
G01X17273020Y-860697D01*
G01X17273020Y-889399D01*
G01X17278862Y-906417D01*
G01X17284450Y-917847D01*
G01X17295880Y-929277D01*
G01X17307310Y-935119D01*
G01X17330170Y-935119D01*
G01X17341600Y-929277D01*
G01X17353030Y-917847D01*
G01X17358872Y-906417D01*
G01X17364460Y-889399D01*
G01X17364460Y-860697D01*
G01X17358872Y-843679D01*
G01X17353030Y-832249D01*
G01X17341600Y-820819D01*
G01X17330170Y-814977D01*
G01X17307310Y-814977D01*
G01X17412212Y-855109D02*
G01X17446502Y-935119D01*
G01X17480792Y-855109D02*
G01X17446502Y-935119D01*
G01X17597124Y-855109D02*
G01X17597124Y-935119D01*
G01X17597124Y-872127D02*
G01X17585694Y-860697D01*
G01X17574264Y-855109D01*
G01X17557246Y-855109D01*
G01X17545816Y-860697D01*
G01X17534386Y-872127D01*
G01X17528544Y-889399D01*
G01X17528544Y-900829D01*
G01X17534386Y-917847D01*
G01X17545816Y-929277D01*
G01X17557246Y-935119D01*
G01X17574264Y-935119D01*
G01X17585694Y-929277D01*
G01X17597124Y-917847D01*
G01X17644876Y-814977D02*
G01X17644876Y-935119D01*
G01X19232521Y-814977D02*
G01X19232521Y-935119D01*
G01X19192389Y-814977D02*
G01X19272399Y-814977D01*
G01X19348853Y-855109D02*
G01X19337423Y-860697D01*
G01X19325993Y-872127D01*
G01X19320151Y-889399D01*
G01X19320151Y-900829D01*
G01X19325993Y-917847D01*
G01X19337423Y-929277D01*
G01X19348853Y-935119D01*
G01X19365871Y-935119D01*
G01X19377301Y-929277D01*
G01X19388731Y-917847D01*
G01X19394573Y-900829D01*
G01X19394573Y-889399D01*
G01X19388731Y-872127D01*
G01X19377301Y-860697D01*
G01X19365871Y-855109D01*
G01X19348853Y-855109D01*
G01X19442325Y-855109D02*
G01X19442325Y-974997D01*
G01X19442325Y-872127D02*
G01X19453755Y-860697D01*
G01X19465185Y-855109D01*
G01X19482457Y-855109D01*
G01X19493887Y-860697D01*
G01X19505317Y-872127D01*
G01X19510905Y-889399D01*
G01X19510905Y-900829D01*
G01X19505317Y-917847D01*
G01X19493887Y-929277D01*
G01X19482457Y-935119D01*
G01X19465185Y-935119D01*
G01X19453755Y-929277D01*
G01X19442325Y-917847D01*
G01X19686673Y-814977D02*
G01X19686673Y-935119D01*
G01X19686673Y-935119D02*
G01X19755253Y-935119D01*
G01X19871585Y-855109D02*
G01X19871585Y-935119D01*
G01X19871585Y-872127D02*
G01X19860155Y-860697D01*
G01X19848725Y-855109D01*
G01X19831707Y-855109D01*
G01X19820277Y-860697D01*
G01X19808847Y-872127D01*
G01X19803005Y-889399D01*
G01X19803005Y-900829D01*
G01X19808847Y-917847D01*
G01X19820277Y-929277D01*
G01X19831707Y-935119D01*
G01X19848725Y-935119D01*
G01X19860155Y-929277D01*
G01X19871585Y-917847D01*
G01X19925179Y-855109D02*
G01X19959469Y-935119D01*
G01X19993759Y-855109D02*
G01X19959469Y-935119D01*
G01X19948039Y-957979D01*
G01X19936609Y-969409D01*
G01X19925179Y-974997D01*
G01X19919337Y-974997D01*
G01X20041511Y-889399D02*
G01X20110091Y-889399D01*
G01X20110091Y-877969D01*
G01X20104503Y-866539D01*
G01X20098661Y-860697D01*
G01X20087231Y-855109D01*
G01X20070213Y-855109D01*
G01X20058783Y-860697D01*
G01X20047353Y-872127D01*
G01X20041511Y-889399D01*
G01X20041511Y-900829D01*
G01X20047353Y-917847D01*
G01X20058783Y-929277D01*
G01X20070213Y-935119D01*
G01X20087231Y-935119D01*
G01X20098661Y-929277D01*
G01X20110091Y-917847D01*
G01X20157843Y-855109D02*
G01X20157843Y-935119D01*
G01X20157843Y-889399D02*
G01X20163685Y-872127D01*
G01X20175115Y-860697D01*
G01X20186545Y-855109D01*
G01X20203563Y-855109D01*
G01X20251315Y-883557D02*
G01X20354185Y-883557D01*
G01X20401937Y-814977D02*
G01X20401937Y-935119D01*
G01X20401937Y-814977D02*
G01X20453499Y-814977D01*
G01X20470517Y-820819D01*
G01X20476359Y-826407D01*
G01X20481947Y-837837D01*
G01X20481947Y-849267D01*
G01X20476359Y-860697D01*
G01X20470517Y-866539D01*
G01X20453499Y-872127D01*
G01X20401937Y-872127D02*
G01X20453499Y-872127D01*
G01X20470517Y-877969D01*
G01X20476359Y-883557D01*
G01X20481947Y-894987D01*
G01X20481947Y-912259D01*
G01X20476359Y-923689D01*
G01X20470517Y-929277D01*
G01X20453499Y-935119D01*
G01X20401937Y-935119D01*
G01X20558401Y-855109D02*
G01X20546971Y-860697D01*
G01X20535541Y-872127D01*
G01X20529699Y-889399D01*
G01X20529699Y-900829D01*
G01X20535541Y-917847D01*
G01X20546971Y-929277D01*
G01X20558401Y-935119D01*
G01X20575419Y-935119D01*
G01X20586849Y-929277D01*
G01X20598279Y-917847D01*
G01X20604121Y-900829D01*
G01X20604121Y-889399D01*
G01X20598279Y-872127D01*
G01X20586849Y-860697D01*
G01X20575419Y-855109D01*
G01X20558401Y-855109D01*
G01X20669145Y-814977D02*
G01X20669145Y-912259D01*
G01X20674733Y-929277D01*
G01X20686163Y-935119D01*
G01X20697593Y-935119D01*
G01X20651873Y-855109D02*
G01X20692005Y-855109D01*
G01X20762617Y-814977D02*
G01X20762617Y-912259D01*
G01X20768205Y-929277D01*
G01X20779635Y-935119D01*
G01X20791065Y-935119D01*
G01X20745345Y-855109D02*
G01X20785477Y-855109D01*
G01X20867519Y-855109D02*
G01X20856089Y-860697D01*
G01X20844659Y-872127D01*
G01X20838817Y-889399D01*
G01X20838817Y-900829D01*
G01X20844659Y-917847D01*
G01X20856089Y-929277D01*
G01X20867519Y-935119D01*
G01X20884537Y-935119D01*
G01X20895967Y-929277D01*
G01X20907397Y-917847D01*
G01X20913239Y-900829D01*
G01X20913239Y-889399D01*
G01X20907397Y-872127D01*
G01X20895967Y-860697D01*
G01X20884537Y-855109D01*
G01X20867519Y-855109D01*
G01X20960991Y-855109D02*
G01X20960991Y-935119D01*
G01X20960991Y-877969D02*
G01X20978263Y-860697D01*
G01X20989693Y-855109D01*
G01X21006711Y-855109D01*
G01X21018141Y-860697D01*
G01X21023983Y-877969D01*
G01X21023983Y-935119D01*
G01X21023983Y-877969D02*
G01X21041001Y-860697D01*
G01X21052431Y-855109D01*
G01X21069703Y-855109D01*
G01X21081133Y-860697D01*
G01X21086721Y-877969D01*
G01X21086721Y-935119D01*
G01X21262489Y-814977D02*
G01X21262489Y-935119D01*
G01X21262489Y-935119D02*
G01X21331069Y-935119D01*
G01X21447401Y-855109D02*
G01X21447401Y-935119D01*
G01X21447401Y-872127D02*
G01X21435971Y-860697D01*
G01X21424541Y-855109D01*
G01X21407523Y-855109D01*
G01X21396093Y-860697D01*
G01X21384663Y-872127D01*
G01X21378821Y-889399D01*
G01X21378821Y-900829D01*
G01X21384663Y-917847D01*
G01X21396093Y-929277D01*
G01X21407523Y-935119D01*
G01X21424541Y-935119D01*
G01X21435971Y-929277D01*
G01X21447401Y-917847D01*
G01X21500995Y-855109D02*
G01X21535285Y-935119D01*
G01X21569575Y-855109D02*
G01X21535285Y-935119D01*
G01X21523855Y-957979D01*
G01X21512425Y-969409D01*
G01X21500995Y-974997D01*
G01X21495153Y-974997D01*
G01X21617327Y-889399D02*
G01X21685907Y-889399D01*
G01X21685907Y-877969D01*
G01X21680319Y-866539D01*
G01X21674477Y-860697D01*
G01X21663047Y-855109D01*
G01X21646029Y-855109D01*
G01X21634599Y-860697D01*
G01X21623169Y-872127D01*
G01X21617327Y-889399D01*
G01X21617327Y-900829D01*
G01X21623169Y-917847D01*
G01X21634599Y-929277D01*
G01X21646029Y-935119D01*
G01X21663047Y-935119D01*
G01X21674477Y-929277D01*
G01X21685907Y-917847D01*
G01X21733659Y-855109D02*
G01X21733659Y-935119D01*
G01X21733659Y-889399D02*
G01X21739501Y-872127D01*
G01X21750931Y-860697D01*
G01X21762361Y-855109D01*
G01X21779379Y-855109D01*
G01X7466116Y-1424251D02*
G01X7466116Y-1418409D01*
G01X7471704Y-1406979D01*
G01X7477546Y-1401391D01*
G01X7488976Y-1395549D01*
G01X7511836Y-1395549D01*
G01X7523266Y-1401391D01*
G01X7528854Y-1406979D01*
G01X7534696Y-1418409D01*
G01X7534696Y-1429839D01*
G01X7528854Y-1441269D01*
G01X7517424Y-1458541D01*
G01X7460274Y-1515691D01*
G01X7540284Y-1515691D01*
G01X8885867Y-1395549D02*
G01X8948859Y-1395549D01*
G01X8914569Y-1441269D01*
G01X8931587Y-1441269D01*
G01X8943017Y-1447111D01*
G01X8948859Y-1452699D01*
G01X8954447Y-1469971D01*
G01X8954447Y-1481401D01*
G01X8948859Y-1498419D01*
G01X8937429Y-1509849D01*
G01X8920157Y-1515691D01*
G01X8903139Y-1515691D01*
G01X8885867Y-1509849D01*
G01X8880279Y-1504261D01*
G01X8874437Y-1492831D01*
G01X9002199Y-1418409D02*
G01X9013629Y-1412821D01*
G01X9030901Y-1395549D01*
G01X9030901Y-1515691D01*
G01X9084495Y-1486989D02*
G01X9078653Y-1492831D01*
G01X9084495Y-1498419D01*
G01X9090083Y-1492831D01*
G01X9084495Y-1486989D01*
G01X9206415Y-1395549D02*
G01X9149265Y-1395549D01*
G01X9143677Y-1447111D01*
G01X9149265Y-1441269D01*
G01X9166537Y-1435681D01*
G01X9183555Y-1435681D01*
G01X9200827Y-1441269D01*
G01X9212257Y-1452699D01*
G01X9217845Y-1469971D01*
G01X9217845Y-1481401D01*
G01X9212257Y-1498419D01*
G01X9200827Y-1509849D01*
G01X9183555Y-1515691D01*
G01X9166537Y-1515691D01*
G01X9149265Y-1509849D01*
G01X9143677Y-1504261D01*
G01X9137835Y-1492831D01*
G01X9265597Y-1435681D02*
G01X9328589Y-1515691D01*
G01X9328589Y-1435681D02*
G01X9265597Y-1515691D01*
G01X9433491Y-1395549D02*
G01X9376341Y-1475559D01*
G01X9462193Y-1475559D01*
G01X9433491Y-1395549D02*
G01X9433491Y-1515691D01*
G01X9589955Y-1395549D02*
G01X9532805Y-1515691D01*
G01X9509945Y-1395549D02*
G01X9589955Y-1395549D01*
G01X9643549Y-1486989D02*
G01X9637707Y-1492831D01*
G01X9643549Y-1498419D01*
G01X9649137Y-1492831D01*
G01X9643549Y-1486989D01*
G01X9702731Y-1424251D02*
G01X9702731Y-1418409D01*
G01X9708319Y-1406979D01*
G01X9714161Y-1401391D01*
G01X9725591Y-1395549D01*
G01X9748451Y-1395549D01*
G01X9759881Y-1401391D01*
G01X9765469Y-1406979D01*
G01X9771311Y-1418409D01*
G01X9771311Y-1429839D01*
G01X9765469Y-1441269D01*
G01X9754039Y-1458541D01*
G01X9696889Y-1515691D01*
G01X9776899Y-1515691D01*
G01X9824651Y-1435681D02*
G01X9824651Y-1515691D01*
G01X9824651Y-1458541D02*
G01X9841923Y-1441269D01*
G01X9853353Y-1435681D01*
G01X9870371Y-1435681D01*
G01X9881801Y-1441269D01*
G01X9887643Y-1458541D01*
G01X9887643Y-1515691D01*
G01X9887643Y-1458541D02*
G01X9904661Y-1441269D01*
G01X9916091Y-1435681D01*
G01X9933363Y-1435681D01*
G01X9944793Y-1441269D01*
G01X9950381Y-1458541D01*
G01X9950381Y-1515691D01*
G01X9998133Y-1395549D02*
G01X10003975Y-1401391D01*
G01X10009563Y-1395549D01*
G01X10003975Y-1389961D01*
G01X9998133Y-1395549D01*
G01X10003975Y-1435681D02*
G01X10003975Y-1515691D01*
G01X10057315Y-1395549D02*
G01X10057315Y-1515691D01*
G01X10145199Y-1372689D02*
G01X10133769Y-1384119D01*
G01X10122339Y-1401391D01*
G01X10110909Y-1424251D01*
G01X10105067Y-1452699D01*
G01X10105067Y-1475559D01*
G01X10110909Y-1504261D01*
G01X10122339Y-1527121D01*
G01X10133769Y-1544139D01*
G01X10145199Y-1555569D01*
G01X10227241Y-1395549D02*
G01X10210223Y-1401391D01*
G01X10198793Y-1418409D01*
G01X10192951Y-1447111D01*
G01X10192951Y-1464129D01*
G01X10198793Y-1492831D01*
G01X10210223Y-1509849D01*
G01X10227241Y-1515691D01*
G01X10238671Y-1515691D01*
G01X10255943Y-1509849D01*
G01X10267373Y-1492831D01*
G01X10272961Y-1464129D01*
G01X10272961Y-1447111D01*
G01X10267373Y-1418409D01*
G01X10255943Y-1401391D01*
G01X10238671Y-1395549D01*
G01X10227241Y-1395549D01*
G01X10326555Y-1486989D02*
G01X10320713Y-1492831D01*
G01X10326555Y-1498419D01*
G01X10332143Y-1492831D01*
G01X10326555Y-1486989D01*
G01X10408597Y-1395549D02*
G01X10391325Y-1401391D01*
G01X10385737Y-1412821D01*
G01X10385737Y-1424251D01*
G01X10391325Y-1435681D01*
G01X10402755Y-1441269D01*
G01X10425615Y-1447111D01*
G01X10442887Y-1452699D01*
G01X10454317Y-1464129D01*
G01X10459905Y-1475559D01*
G01X10459905Y-1492831D01*
G01X10454317Y-1504261D01*
G01X10448475Y-1509849D01*
G01X10431457Y-1515691D01*
G01X10408597Y-1515691D01*
G01X10391325Y-1509849D01*
G01X10385737Y-1504261D01*
G01X10379895Y-1492831D01*
G01X10379895Y-1475559D01*
G01X10385737Y-1464129D01*
G01X10397167Y-1452699D01*
G01X10414185Y-1447111D01*
G01X10437045Y-1441269D01*
G01X10448475Y-1435681D01*
G01X10454317Y-1424251D01*
G01X10454317Y-1412821D01*
G01X10448475Y-1401391D01*
G01X10431457Y-1395549D01*
G01X10408597Y-1395549D01*
G01X10541947Y-1395549D02*
G01X10524929Y-1401391D01*
G01X10513499Y-1418409D01*
G01X10507657Y-1447111D01*
G01X10507657Y-1464129D01*
G01X10513499Y-1492831D01*
G01X10524929Y-1509849D01*
G01X10541947Y-1515691D01*
G01X10553377Y-1515691D01*
G01X10570649Y-1509849D01*
G01X10582079Y-1492831D01*
G01X10587667Y-1464129D01*
G01X10587667Y-1447111D01*
G01X10582079Y-1418409D01*
G01X10570649Y-1401391D01*
G01X10553377Y-1395549D01*
G01X10541947Y-1395549D01*
G01X10669709Y-1395549D02*
G01X10652691Y-1401391D01*
G01X10641261Y-1418409D01*
G01X10635419Y-1447111D01*
G01X10635419Y-1464129D01*
G01X10641261Y-1492831D01*
G01X10652691Y-1509849D01*
G01X10669709Y-1515691D01*
G01X10681139Y-1515691D01*
G01X10698411Y-1509849D01*
G01X10709841Y-1492831D01*
G01X10715429Y-1464129D01*
G01X10715429Y-1447111D01*
G01X10709841Y-1418409D01*
G01X10698411Y-1401391D01*
G01X10681139Y-1395549D01*
G01X10669709Y-1395549D01*
G01X10763181Y-1435681D02*
G01X10826173Y-1515691D01*
G01X10826173Y-1435681D02*
G01X10763181Y-1515691D01*
G01X10873925Y-1418409D02*
G01X10885355Y-1412821D01*
G01X10902627Y-1395549D01*
G01X10902627Y-1515691D01*
G01X10956221Y-1486989D02*
G01X10950379Y-1492831D01*
G01X10956221Y-1498419D01*
G01X10961809Y-1492831D01*
G01X10956221Y-1486989D01*
G01X11015403Y-1424251D02*
G01X11015403Y-1418409D01*
G01X11020991Y-1406979D01*
G01X11026833Y-1401391D01*
G01X11038263Y-1395549D01*
G01X11061123Y-1395549D01*
G01X11072553Y-1401391D01*
G01X11078141Y-1406979D01*
G01X11083983Y-1418409D01*
G01X11083983Y-1429839D01*
G01X11078141Y-1441269D01*
G01X11066711Y-1458541D01*
G01X11009561Y-1515691D01*
G01X11089571Y-1515691D01*
G01X11171613Y-1395549D02*
G01X11154595Y-1401391D01*
G01X11143165Y-1418409D01*
G01X11137323Y-1447111D01*
G01X11137323Y-1464129D01*
G01X11143165Y-1492831D01*
G01X11154595Y-1509849D01*
G01X11171613Y-1515691D01*
G01X11183043Y-1515691D01*
G01X11200315Y-1509849D01*
G01X11211745Y-1492831D01*
G01X11217333Y-1464129D01*
G01X11217333Y-1447111D01*
G01X11211745Y-1418409D01*
G01X11200315Y-1401391D01*
G01X11183043Y-1395549D01*
G01X11171613Y-1395549D01*
G01X11299375Y-1395549D02*
G01X11282357Y-1401391D01*
G01X11270927Y-1418409D01*
G01X11265085Y-1447111D01*
G01X11265085Y-1464129D01*
G01X11270927Y-1492831D01*
G01X11282357Y-1509849D01*
G01X11299375Y-1515691D01*
G01X11310805Y-1515691D01*
G01X11328077Y-1509849D01*
G01X11339507Y-1492831D01*
G01X11345095Y-1464129D01*
G01X11345095Y-1447111D01*
G01X11339507Y-1418409D01*
G01X11328077Y-1401391D01*
G01X11310805Y-1395549D01*
G01X11299375Y-1395549D01*
G01X11392847Y-1435681D02*
G01X11392847Y-1515691D01*
G01X11392847Y-1458541D02*
G01X11410119Y-1441269D01*
G01X11421549Y-1435681D01*
G01X11438567Y-1435681D01*
G01X11449997Y-1441269D01*
G01X11455839Y-1458541D01*
G01X11455839Y-1515691D01*
G01X11455839Y-1458541D02*
G01X11472857Y-1441269D01*
G01X11484287Y-1435681D01*
G01X11501559Y-1435681D01*
G01X11512989Y-1441269D01*
G01X11518577Y-1458541D01*
G01X11518577Y-1515691D01*
G01X11566329Y-1435681D02*
G01X11566329Y-1515691D01*
G01X11566329Y-1458541D02*
G01X11583601Y-1441269D01*
G01X11595031Y-1435681D01*
G01X11612049Y-1435681D01*
G01X11623479Y-1441269D01*
G01X11629321Y-1458541D01*
G01X11629321Y-1515691D01*
G01X11629321Y-1458541D02*
G01X11646339Y-1441269D01*
G01X11657769Y-1435681D01*
G01X11675041Y-1435681D01*
G01X11686471Y-1441269D01*
G01X11692059Y-1458541D01*
G01X11692059Y-1515691D01*
G01X11739811Y-1372689D02*
G01X11751241Y-1384119D01*
G01X11762671Y-1401391D01*
G01X11774101Y-1424251D01*
G01X11779943Y-1452699D01*
G01X11779943Y-1475559D01*
G01X11774101Y-1504261D01*
G01X11762671Y-1527121D01*
G01X11751241Y-1544139D01*
G01X11739811Y-1555569D01*
G01X12711253Y-1395549D02*
G01X12711253Y-1515691D01*
G01X12711253Y-1395549D02*
G01X12762815Y-1395549D01*
G01X12779833Y-1401391D01*
G01X12785675Y-1406979D01*
G01X12791263Y-1418409D01*
G01X12791263Y-1435681D01*
G01X12785675Y-1447111D01*
G01X12779833Y-1452699D01*
G01X12762815Y-1458541D01*
G01X12711253Y-1458541D01*
G01X12879147Y-1395549D02*
G01X12879147Y-1515691D01*
G01X12839015Y-1395549D02*
G01X12919025Y-1395549D01*
G01X12966777Y-1395549D02*
G01X12966777Y-1515691D01*
G01X13046787Y-1395549D02*
G01X13046787Y-1515691D01*
G01X12966777Y-1452699D02*
G01X13046787Y-1452699D01*
G01X14252670Y-1412821D02*
G01X14241240Y-1401391D01*
G01X14224222Y-1395549D01*
G01X14201362Y-1395549D01*
G01X14184090Y-1401391D01*
G01X14172660Y-1412821D01*
G01X14172660Y-1424251D01*
G01X14178502Y-1435681D01*
G01X14184090Y-1441269D01*
G01X14195520Y-1447111D01*
G01X14229810Y-1458541D01*
G01X14241240Y-1464129D01*
G01X14247082Y-1469971D01*
G01X14252670Y-1481401D01*
G01X14252670Y-1498419D01*
G01X14241240Y-1509849D01*
G01X14224222Y-1515691D01*
G01X14201362Y-1515691D01*
G01X14184090Y-1509849D01*
G01X14172660Y-1498419D01*
G01X14300422Y-1395549D02*
G01X14300422Y-1515691D01*
G01X14376876Y-1435681D02*
G01X14365446Y-1441269D01*
G01X14354016Y-1452699D01*
G01X14348174Y-1469971D01*
G01X14348174Y-1481401D01*
G01X14354016Y-1498419D01*
G01X14365446Y-1509849D01*
G01X14376876Y-1515691D01*
G01X14393894Y-1515691D01*
G01X14405324Y-1509849D01*
G01X14416754Y-1498419D01*
G01X14422596Y-1481401D01*
G01X14422596Y-1469971D01*
G01X14416754Y-1452699D01*
G01X14405324Y-1441269D01*
G01X14393894Y-1435681D01*
G01X14376876Y-1435681D01*
G01X14487620Y-1395549D02*
G01X14487620Y-1492831D01*
G01X14493208Y-1509849D01*
G01X14504638Y-1515691D01*
G01X14516068Y-1515691D01*
G01X14470348Y-1435681D02*
G01X14510480Y-1435681D01*
G01X15603841Y-1395549D02*
G01X15603841Y-1515691D01*
G01X15603841Y-1395549D02*
G01X15655403Y-1395549D01*
G01X15672421Y-1401391D01*
G01X15678263Y-1406979D01*
G01X15683851Y-1418409D01*
G01X15683851Y-1435681D01*
G01X15678263Y-1447111D01*
G01X15672421Y-1452699D01*
G01X15655403Y-1458541D01*
G01X15603841Y-1458541D01*
G01X15800183Y-1435681D02*
G01X15800183Y-1515691D01*
G01X15800183Y-1452699D02*
G01X15788753Y-1441269D01*
G01X15777323Y-1435681D01*
G01X15760305Y-1435681D01*
G01X15748875Y-1441269D01*
G01X15737445Y-1452699D01*
G01X15731603Y-1469971D01*
G01X15731603Y-1481401D01*
G01X15737445Y-1498419D01*
G01X15748875Y-1509849D01*
G01X15760305Y-1515691D01*
G01X15777323Y-1515691D01*
G01X15788753Y-1509849D01*
G01X15800183Y-1498419D01*
G01X15916515Y-1395549D02*
G01X15916515Y-1515691D01*
G01X15916515Y-1452699D02*
G01X15905085Y-1441269D01*
G01X15893655Y-1435681D01*
G01X15876637Y-1435681D01*
G01X15865207Y-1441269D01*
G01X15853777Y-1452699D01*
G01X15847935Y-1469971D01*
G01X15847935Y-1481401D01*
G01X15853777Y-1498419D01*
G01X15865207Y-1509849D01*
G01X15876637Y-1515691D01*
G01X15893655Y-1515691D01*
G01X15905085Y-1509849D01*
G01X15916515Y-1498419D01*
G01X17307310Y-1395549D02*
G01X17295880Y-1401391D01*
G01X17284450Y-1412821D01*
G01X17278862Y-1424251D01*
G01X17273020Y-1441269D01*
G01X17273020Y-1469971D01*
G01X17278862Y-1486989D01*
G01X17284450Y-1498419D01*
G01X17295880Y-1509849D01*
G01X17307310Y-1515691D01*
G01X17330170Y-1515691D01*
G01X17341600Y-1509849D01*
G01X17353030Y-1498419D01*
G01X17358872Y-1486989D01*
G01X17364460Y-1469971D01*
G01X17364460Y-1441269D01*
G01X17358872Y-1424251D01*
G01X17353030Y-1412821D01*
G01X17341600Y-1401391D01*
G01X17330170Y-1395549D01*
G01X17307310Y-1395549D01*
G01X17412212Y-1435681D02*
G01X17446502Y-1515691D01*
G01X17480792Y-1435681D02*
G01X17446502Y-1515691D01*
G01X17597124Y-1435681D02*
G01X17597124Y-1515691D01*
G01X17597124Y-1452699D02*
G01X17585694Y-1441269D01*
G01X17574264Y-1435681D01*
G01X17557246Y-1435681D01*
G01X17545816Y-1441269D01*
G01X17534386Y-1452699D01*
G01X17528544Y-1469971D01*
G01X17528544Y-1481401D01*
G01X17534386Y-1498419D01*
G01X17545816Y-1509849D01*
G01X17557246Y-1515691D01*
G01X17574264Y-1515691D01*
G01X17585694Y-1509849D01*
G01X17597124Y-1498419D01*
G01X17644876Y-1395549D02*
G01X17644876Y-1515691D01*
G01X19232521Y-1395549D02*
G01X19232521Y-1515691D01*
G01X19192389Y-1395549D02*
G01X19272399Y-1395549D01*
G01X19348853Y-1435681D02*
G01X19337423Y-1441269D01*
G01X19325993Y-1452699D01*
G01X19320151Y-1469971D01*
G01X19320151Y-1481401D01*
G01X19325993Y-1498419D01*
G01X19337423Y-1509849D01*
G01X19348853Y-1515691D01*
G01X19365871Y-1515691D01*
G01X19377301Y-1509849D01*
G01X19388731Y-1498419D01*
G01X19394573Y-1481401D01*
G01X19394573Y-1469971D01*
G01X19388731Y-1452699D01*
G01X19377301Y-1441269D01*
G01X19365871Y-1435681D01*
G01X19348853Y-1435681D01*
G01X19442325Y-1435681D02*
G01X19442325Y-1555569D01*
G01X19442325Y-1452699D02*
G01X19453755Y-1441269D01*
G01X19465185Y-1435681D01*
G01X19482457Y-1435681D01*
G01X19493887Y-1441269D01*
G01X19505317Y-1452699D01*
G01X19510905Y-1469971D01*
G01X19510905Y-1481401D01*
G01X19505317Y-1498419D01*
G01X19493887Y-1509849D01*
G01X19482457Y-1515691D01*
G01X19465185Y-1515691D01*
G01X19453755Y-1509849D01*
G01X19442325Y-1498419D01*
G01X19686673Y-1395549D02*
G01X19686673Y-1515691D01*
G01X19686673Y-1515691D02*
G01X19755253Y-1515691D01*
G01X19871585Y-1435681D02*
G01X19871585Y-1515691D01*
G01X19871585Y-1452699D02*
G01X19860155Y-1441269D01*
G01X19848725Y-1435681D01*
G01X19831707Y-1435681D01*
G01X19820277Y-1441269D01*
G01X19808847Y-1452699D01*
G01X19803005Y-1469971D01*
G01X19803005Y-1481401D01*
G01X19808847Y-1498419D01*
G01X19820277Y-1509849D01*
G01X19831707Y-1515691D01*
G01X19848725Y-1515691D01*
G01X19860155Y-1509849D01*
G01X19871585Y-1498419D01*
G01X19925179Y-1435681D02*
G01X19959469Y-1515691D01*
G01X19993759Y-1435681D02*
G01X19959469Y-1515691D01*
G01X19948039Y-1538551D01*
G01X19936609Y-1549981D01*
G01X19925179Y-1555569D01*
G01X19919337Y-1555569D01*
G01X20041511Y-1469971D02*
G01X20110091Y-1469971D01*
G01X20110091Y-1458541D01*
G01X20104503Y-1447111D01*
G01X20098661Y-1441269D01*
G01X20087231Y-1435681D01*
G01X20070213Y-1435681D01*
G01X20058783Y-1441269D01*
G01X20047353Y-1452699D01*
G01X20041511Y-1469971D01*
G01X20041511Y-1481401D01*
G01X20047353Y-1498419D01*
G01X20058783Y-1509849D01*
G01X20070213Y-1515691D01*
G01X20087231Y-1515691D01*
G01X20098661Y-1509849D01*
G01X20110091Y-1498419D01*
G01X20157843Y-1435681D02*
G01X20157843Y-1515691D01*
G01X20157843Y-1469971D02*
G01X20163685Y-1452699D01*
G01X20175115Y-1441269D01*
G01X20186545Y-1435681D01*
G01X20203563Y-1435681D01*
G01X20251315Y-1464129D02*
G01X20354185Y-1464129D01*
G01X20401937Y-1395549D02*
G01X20401937Y-1515691D01*
G01X20401937Y-1395549D02*
G01X20453499Y-1395549D01*
G01X20470517Y-1401391D01*
G01X20476359Y-1406979D01*
G01X20481947Y-1418409D01*
G01X20481947Y-1429839D01*
G01X20476359Y-1441269D01*
G01X20470517Y-1447111D01*
G01X20453499Y-1452699D01*
G01X20401937Y-1452699D02*
G01X20453499Y-1452699D01*
G01X20470517Y-1458541D01*
G01X20476359Y-1464129D01*
G01X20481947Y-1475559D01*
G01X20481947Y-1492831D01*
G01X20476359Y-1504261D01*
G01X20470517Y-1509849D01*
G01X20453499Y-1515691D01*
G01X20401937Y-1515691D01*
G01X20558401Y-1435681D02*
G01X20546971Y-1441269D01*
G01X20535541Y-1452699D01*
G01X20529699Y-1469971D01*
G01X20529699Y-1481401D01*
G01X20535541Y-1498419D01*
G01X20546971Y-1509849D01*
G01X20558401Y-1515691D01*
G01X20575419Y-1515691D01*
G01X20586849Y-1509849D01*
G01X20598279Y-1498419D01*
G01X20604121Y-1481401D01*
G01X20604121Y-1469971D01*
G01X20598279Y-1452699D01*
G01X20586849Y-1441269D01*
G01X20575419Y-1435681D01*
G01X20558401Y-1435681D01*
G01X20669145Y-1395549D02*
G01X20669145Y-1492831D01*
G01X20674733Y-1509849D01*
G01X20686163Y-1515691D01*
G01X20697593Y-1515691D01*
G01X20651873Y-1435681D02*
G01X20692005Y-1435681D01*
G01X20762617Y-1395549D02*
G01X20762617Y-1492831D01*
G01X20768205Y-1509849D01*
G01X20779635Y-1515691D01*
G01X20791065Y-1515691D01*
G01X20745345Y-1435681D02*
G01X20785477Y-1435681D01*
G01X20867519Y-1435681D02*
G01X20856089Y-1441269D01*
G01X20844659Y-1452699D01*
G01X20838817Y-1469971D01*
G01X20838817Y-1481401D01*
G01X20844659Y-1498419D01*
G01X20856089Y-1509849D01*
G01X20867519Y-1515691D01*
G01X20884537Y-1515691D01*
G01X20895967Y-1509849D01*
G01X20907397Y-1498419D01*
G01X20913239Y-1481401D01*
G01X20913239Y-1469971D01*
G01X20907397Y-1452699D01*
G01X20895967Y-1441269D01*
G01X20884537Y-1435681D01*
G01X20867519Y-1435681D01*
G01X20960991Y-1435681D02*
G01X20960991Y-1515691D01*
G01X20960991Y-1458541D02*
G01X20978263Y-1441269D01*
G01X20989693Y-1435681D01*
G01X21006711Y-1435681D01*
G01X21018141Y-1441269D01*
G01X21023983Y-1458541D01*
G01X21023983Y-1515691D01*
G01X21023983Y-1458541D02*
G01X21041001Y-1441269D01*
G01X21052431Y-1435681D01*
G01X21069703Y-1435681D01*
G01X21081133Y-1441269D01*
G01X21086721Y-1458541D01*
G01X21086721Y-1515691D01*
G01X21262489Y-1395549D02*
G01X21262489Y-1515691D01*
G01X21262489Y-1515691D02*
G01X21331069Y-1515691D01*
G01X21447401Y-1435681D02*
G01X21447401Y-1515691D01*
G01X21447401Y-1452699D02*
G01X21435971Y-1441269D01*
G01X21424541Y-1435681D01*
G01X21407523Y-1435681D01*
G01X21396093Y-1441269D01*
G01X21384663Y-1452699D01*
G01X21378821Y-1469971D01*
G01X21378821Y-1481401D01*
G01X21384663Y-1498419D01*
G01X21396093Y-1509849D01*
G01X21407523Y-1515691D01*
G01X21424541Y-1515691D01*
G01X21435971Y-1509849D01*
G01X21447401Y-1498419D01*
G01X21500995Y-1435681D02*
G01X21535285Y-1515691D01*
G01X21569575Y-1435681D02*
G01X21535285Y-1515691D01*
G01X21523855Y-1538551D01*
G01X21512425Y-1549981D01*
G01X21500995Y-1555569D01*
G01X21495153Y-1555569D01*
G01X21617327Y-1469971D02*
G01X21685907Y-1469971D01*
G01X21685907Y-1458541D01*
G01X21680319Y-1447111D01*
G01X21674477Y-1441269D01*
G01X21663047Y-1435681D01*
G01X21646029Y-1435681D01*
G01X21634599Y-1441269D01*
G01X21623169Y-1452699D01*
G01X21617327Y-1469971D01*
G01X21617327Y-1481401D01*
G01X21623169Y-1498419D01*
G01X21634599Y-1509849D01*
G01X21646029Y-1515691D01*
G01X21663047Y-1515691D01*
G01X21674477Y-1509849D01*
G01X21685907Y-1498419D01*
G01X21733659Y-1435681D02*
G01X21733659Y-1515691D01*
G01X21733659Y-1469971D02*
G01X21739501Y-1452699D01*
G01X21750931Y-1441269D01*
G01X21762361Y-1435681D01*
G01X21779379Y-1435681D01*
G01X7466116Y-2004822D02*
G01X7466116Y-1998980D01*
G01X7471704Y-1987550D01*
G01X7477546Y-1981962D01*
G01X7488976Y-1976120D01*
G01X7511836Y-1976120D01*
G01X7523266Y-1981962D01*
G01X7528854Y-1987550D01*
G01X7534696Y-1998980D01*
G01X7534696Y-2010410D01*
G01X7528854Y-2021840D01*
G01X7517424Y-2039112D01*
G01X7460274Y-2096262D01*
G01X7540284Y-2096262D01*
G01X8885867Y-1976120D02*
G01X8948859Y-1976120D01*
G01X8914569Y-2021840D01*
G01X8931587Y-2021840D01*
G01X8943017Y-2027682D01*
G01X8948859Y-2033270D01*
G01X8954447Y-2050542D01*
G01X8954447Y-2061972D01*
G01X8948859Y-2078990D01*
G01X8937429Y-2090420D01*
G01X8920157Y-2096262D01*
G01X8903139Y-2096262D01*
G01X8885867Y-2090420D01*
G01X8880279Y-2084832D01*
G01X8874437Y-2073402D01*
G01X9002199Y-1998980D02*
G01X9013629Y-1993392D01*
G01X9030901Y-1976120D01*
G01X9030901Y-2096262D01*
G01X9084495Y-2067560D02*
G01X9078653Y-2073402D01*
G01X9084495Y-2078990D01*
G01X9090083Y-2073402D01*
G01X9084495Y-2067560D01*
G01X9206415Y-1976120D02*
G01X9149265Y-1976120D01*
G01X9143677Y-2027682D01*
G01X9149265Y-2021840D01*
G01X9166537Y-2016252D01*
G01X9183555Y-2016252D01*
G01X9200827Y-2021840D01*
G01X9212257Y-2033270D01*
G01X9217845Y-2050542D01*
G01X9217845Y-2061972D01*
G01X9212257Y-2078990D01*
G01X9200827Y-2090420D01*
G01X9183555Y-2096262D01*
G01X9166537Y-2096262D01*
G01X9149265Y-2090420D01*
G01X9143677Y-2084832D01*
G01X9137835Y-2073402D01*
G01X9265597Y-2016252D02*
G01X9328589Y-2096262D01*
G01X9328589Y-2016252D02*
G01X9265597Y-2096262D01*
G01X9444921Y-1976120D02*
G01X9387771Y-1976120D01*
G01X9382183Y-2027682D01*
G01X9387771Y-2021840D01*
G01X9405043Y-2016252D01*
G01X9422061Y-2016252D01*
G01X9439333Y-2021840D01*
G01X9450763Y-2033270D01*
G01X9456351Y-2050542D01*
G01X9456351Y-2061972D01*
G01X9450763Y-2078990D01*
G01X9439333Y-2090420D01*
G01X9422061Y-2096262D01*
G01X9405043Y-2096262D01*
G01X9387771Y-2090420D01*
G01X9382183Y-2084832D01*
G01X9376341Y-2073402D01*
G01X9578525Y-2016252D02*
G01X9572683Y-2033270D01*
G01X9561253Y-2044700D01*
G01X9544235Y-2050542D01*
G01X9538393Y-2050542D01*
G01X9521375Y-2044700D01*
G01X9509945Y-2033270D01*
G01X9504103Y-2016252D01*
G01X9504103Y-2010410D01*
G01X9509945Y-1993392D01*
G01X9521375Y-1981962D01*
G01X9538393Y-1976120D01*
G01X9544235Y-1976120D01*
G01X9561253Y-1981962D01*
G01X9572683Y-1993392D01*
G01X9578525Y-2016252D01*
G01X9578525Y-2044700D01*
G01X9572683Y-2073402D01*
G01X9561253Y-2090420D01*
G01X9544235Y-2096262D01*
G01X9532805Y-2096262D01*
G01X9515533Y-2090420D01*
G01X9509945Y-2078990D01*
G01X9632119Y-2067560D02*
G01X9626277Y-2073402D01*
G01X9632119Y-2078990D01*
G01X9637707Y-2073402D01*
G01X9632119Y-2067560D01*
G01X9685459Y-1998980D02*
G01X9696889Y-1993392D01*
G01X9714161Y-1976120D01*
G01X9714161Y-2096262D01*
G01X9761913Y-2016252D02*
G01X9761913Y-2096262D01*
G01X9761913Y-2039112D02*
G01X9779185Y-2021840D01*
G01X9790615Y-2016252D01*
G01X9807633Y-2016252D01*
G01X9819063Y-2021840D01*
G01X9824905Y-2039112D01*
G01X9824905Y-2096262D01*
G01X9824905Y-2039112D02*
G01X9841923Y-2021840D01*
G01X9853353Y-2016252D01*
G01X9870625Y-2016252D01*
G01X9882055Y-2021840D01*
G01X9887643Y-2039112D01*
G01X9887643Y-2096262D01*
G01X9935395Y-1976120D02*
G01X9941237Y-1981962D01*
G01X9946825Y-1976120D01*
G01X9941237Y-1970532D01*
G01X9935395Y-1976120D01*
G01X9941237Y-2016252D02*
G01X9941237Y-2096262D01*
G01X9994577Y-1976120D02*
G01X9994577Y-2096262D01*
G01X10082461Y-1953260D02*
G01X10071031Y-1964690D01*
G01X10059601Y-1981962D01*
G01X10048171Y-2004822D01*
G01X10042329Y-2033270D01*
G01X10042329Y-2056130D01*
G01X10048171Y-2084832D01*
G01X10059601Y-2107692D01*
G01X10071031Y-2124710D01*
G01X10082461Y-2136140D01*
G01X10164503Y-1976120D02*
G01X10147485Y-1981962D01*
G01X10136055Y-1998980D01*
G01X10130213Y-2027682D01*
G01X10130213Y-2044700D01*
G01X10136055Y-2073402D01*
G01X10147485Y-2090420D01*
G01X10164503Y-2096262D01*
G01X10175933Y-2096262D01*
G01X10193205Y-2090420D01*
G01X10204635Y-2073402D01*
G01X10210223Y-2044700D01*
G01X10210223Y-2027682D01*
G01X10204635Y-1998980D01*
G01X10193205Y-1981962D01*
G01X10175933Y-1976120D01*
G01X10164503Y-1976120D01*
G01X10263817Y-2067560D02*
G01X10257975Y-2073402D01*
G01X10263817Y-2078990D01*
G01X10269405Y-2073402D01*
G01X10263817Y-2067560D01*
G01X10345859Y-1976120D02*
G01X10328587Y-1981962D01*
G01X10322999Y-1993392D01*
G01X10322999Y-2004822D01*
G01X10328587Y-2016252D01*
G01X10340017Y-2021840D01*
G01X10362877Y-2027682D01*
G01X10380149Y-2033270D01*
G01X10391579Y-2044700D01*
G01X10397167Y-2056130D01*
G01X10397167Y-2073402D01*
G01X10391579Y-2084832D01*
G01X10385737Y-2090420D01*
G01X10368719Y-2096262D01*
G01X10345859Y-2096262D01*
G01X10328587Y-2090420D01*
G01X10322999Y-2084832D01*
G01X10317157Y-2073402D01*
G01X10317157Y-2056130D01*
G01X10322999Y-2044700D01*
G01X10334429Y-2033270D01*
G01X10351447Y-2027682D01*
G01X10374307Y-2021840D01*
G01X10385737Y-2016252D01*
G01X10391579Y-2004822D01*
G01X10391579Y-1993392D01*
G01X10385737Y-1981962D01*
G01X10368719Y-1976120D01*
G01X10345859Y-1976120D01*
G01X10479209Y-1976120D02*
G01X10462191Y-1981962D01*
G01X10450761Y-1998980D01*
G01X10444919Y-2027682D01*
G01X10444919Y-2044700D01*
G01X10450761Y-2073402D01*
G01X10462191Y-2090420D01*
G01X10479209Y-2096262D01*
G01X10490639Y-2096262D01*
G01X10507911Y-2090420D01*
G01X10519341Y-2073402D01*
G01X10524929Y-2044700D01*
G01X10524929Y-2027682D01*
G01X10519341Y-1998980D01*
G01X10507911Y-1981962D01*
G01X10490639Y-1976120D01*
G01X10479209Y-1976120D01*
G01X10606971Y-1976120D02*
G01X10589953Y-1981962D01*
G01X10578523Y-1998980D01*
G01X10572681Y-2027682D01*
G01X10572681Y-2044700D01*
G01X10578523Y-2073402D01*
G01X10589953Y-2090420D01*
G01X10606971Y-2096262D01*
G01X10618401Y-2096262D01*
G01X10635673Y-2090420D01*
G01X10647103Y-2073402D01*
G01X10652691Y-2044700D01*
G01X10652691Y-2027682D01*
G01X10647103Y-1998980D01*
G01X10635673Y-1981962D01*
G01X10618401Y-1976120D01*
G01X10606971Y-1976120D01*
G01X10700443Y-2016252D02*
G01X10763435Y-2096262D01*
G01X10763435Y-2016252D02*
G01X10700443Y-2096262D01*
G01X10811187Y-1998980D02*
G01X10822617Y-1993392D01*
G01X10839889Y-1976120D01*
G01X10839889Y-2096262D01*
G01X10893483Y-2067560D02*
G01X10887641Y-2073402D01*
G01X10893483Y-2078990D01*
G01X10899071Y-2073402D01*
G01X10893483Y-2067560D01*
G01X11015403Y-1976120D02*
G01X10958253Y-1976120D01*
G01X10952665Y-2027682D01*
G01X10958253Y-2021840D01*
G01X10975525Y-2016252D01*
G01X10992543Y-2016252D01*
G01X11009815Y-2021840D01*
G01X11021245Y-2033270D01*
G01X11026833Y-2050542D01*
G01X11026833Y-2061972D01*
G01X11021245Y-2078990D01*
G01X11009815Y-2090420D01*
G01X10992543Y-2096262D01*
G01X10975525Y-2096262D01*
G01X10958253Y-2090420D01*
G01X10952665Y-2084832D01*
G01X10946823Y-2073402D01*
G01X11108875Y-1976120D02*
G01X11091857Y-1981962D01*
G01X11080427Y-1998980D01*
G01X11074585Y-2027682D01*
G01X11074585Y-2044700D01*
G01X11080427Y-2073402D01*
G01X11091857Y-2090420D01*
G01X11108875Y-2096262D01*
G01X11120305Y-2096262D01*
G01X11137577Y-2090420D01*
G01X11149007Y-2073402D01*
G01X11154595Y-2044700D01*
G01X11154595Y-2027682D01*
G01X11149007Y-1998980D01*
G01X11137577Y-1981962D01*
G01X11120305Y-1976120D01*
G01X11108875Y-1976120D01*
G01X11236637Y-1976120D02*
G01X11219619Y-1981962D01*
G01X11208189Y-1998980D01*
G01X11202347Y-2027682D01*
G01X11202347Y-2044700D01*
G01X11208189Y-2073402D01*
G01X11219619Y-2090420D01*
G01X11236637Y-2096262D01*
G01X11248067Y-2096262D01*
G01X11265339Y-2090420D01*
G01X11276769Y-2073402D01*
G01X11282357Y-2044700D01*
G01X11282357Y-2027682D01*
G01X11276769Y-1998980D01*
G01X11265339Y-1981962D01*
G01X11248067Y-1976120D01*
G01X11236637Y-1976120D01*
G01X11330109Y-2016252D02*
G01X11330109Y-2096262D01*
G01X11330109Y-2039112D02*
G01X11347381Y-2021840D01*
G01X11358811Y-2016252D01*
G01X11375829Y-2016252D01*
G01X11387259Y-2021840D01*
G01X11393101Y-2039112D01*
G01X11393101Y-2096262D01*
G01X11393101Y-2039112D02*
G01X11410119Y-2021840D01*
G01X11421549Y-2016252D01*
G01X11438821Y-2016252D01*
G01X11450251Y-2021840D01*
G01X11455839Y-2039112D01*
G01X11455839Y-2096262D01*
G01X11503591Y-2016252D02*
G01X11503591Y-2096262D01*
G01X11503591Y-2039112D02*
G01X11520863Y-2021840D01*
G01X11532293Y-2016252D01*
G01X11549311Y-2016252D01*
G01X11560741Y-2021840D01*
G01X11566583Y-2039112D01*
G01X11566583Y-2096262D01*
G01X11566583Y-2039112D02*
G01X11583601Y-2021840D01*
G01X11595031Y-2016252D01*
G01X11612303Y-2016252D01*
G01X11623733Y-2021840D01*
G01X11629321Y-2039112D01*
G01X11629321Y-2096262D01*
G01X11677073Y-1953260D02*
G01X11688503Y-1964690D01*
G01X11699933Y-1981962D01*
G01X11711363Y-2004822D01*
G01X11717205Y-2033270D01*
G01X11717205Y-2056130D01*
G01X11711363Y-2084832D01*
G01X11699933Y-2107692D01*
G01X11688503Y-2124710D01*
G01X11677073Y-2136140D01*
G01X12711253Y-1976120D02*
G01X12711253Y-2096262D01*
G01X12711253Y-1976120D02*
G01X12762815Y-1976120D01*
G01X12779833Y-1981962D01*
G01X12785675Y-1987550D01*
G01X12791263Y-1998980D01*
G01X12791263Y-2016252D01*
G01X12785675Y-2027682D01*
G01X12779833Y-2033270D01*
G01X12762815Y-2039112D01*
G01X12711253Y-2039112D01*
G01X12879147Y-1976120D02*
G01X12879147Y-2096262D01*
G01X12839015Y-1976120D02*
G01X12919025Y-1976120D01*
G01X12966777Y-1976120D02*
G01X12966777Y-2096262D01*
G01X13046787Y-1976120D02*
G01X13046787Y-2096262D01*
G01X12966777Y-2033270D02*
G01X13046787Y-2033270D01*
G01X14252670Y-1993392D02*
G01X14241240Y-1981962D01*
G01X14224222Y-1976120D01*
G01X14201362Y-1976120D01*
G01X14184090Y-1981962D01*
G01X14172660Y-1993392D01*
G01X14172660Y-2004822D01*
G01X14178502Y-2016252D01*
G01X14184090Y-2021840D01*
G01X14195520Y-2027682D01*
G01X14229810Y-2039112D01*
G01X14241240Y-2044700D01*
G01X14247082Y-2050542D01*
G01X14252670Y-2061972D01*
G01X14252670Y-2078990D01*
G01X14241240Y-2090420D01*
G01X14224222Y-2096262D01*
G01X14201362Y-2096262D01*
G01X14184090Y-2090420D01*
G01X14172660Y-2078990D01*
G01X14300422Y-1976120D02*
G01X14300422Y-2096262D01*
G01X14376876Y-2016252D02*
G01X14365446Y-2021840D01*
G01X14354016Y-2033270D01*
G01X14348174Y-2050542D01*
G01X14348174Y-2061972D01*
G01X14354016Y-2078990D01*
G01X14365446Y-2090420D01*
G01X14376876Y-2096262D01*
G01X14393894Y-2096262D01*
G01X14405324Y-2090420D01*
G01X14416754Y-2078990D01*
G01X14422596Y-2061972D01*
G01X14422596Y-2050542D01*
G01X14416754Y-2033270D01*
G01X14405324Y-2021840D01*
G01X14393894Y-2016252D01*
G01X14376876Y-2016252D01*
G01X14487620Y-1976120D02*
G01X14487620Y-2073402D01*
G01X14493208Y-2090420D01*
G01X14504638Y-2096262D01*
G01X14516068Y-2096262D01*
G01X14470348Y-2016252D02*
G01X14510480Y-2016252D01*
G01X15603841Y-1976120D02*
G01X15603841Y-2096262D01*
G01X15603841Y-1976120D02*
G01X15655403Y-1976120D01*
G01X15672421Y-1981962D01*
G01X15678263Y-1987550D01*
G01X15683851Y-1998980D01*
G01X15683851Y-2016252D01*
G01X15678263Y-2027682D01*
G01X15672421Y-2033270D01*
G01X15655403Y-2039112D01*
G01X15603841Y-2039112D01*
G01X15800183Y-2016252D02*
G01X15800183Y-2096262D01*
G01X15800183Y-2033270D02*
G01X15788753Y-2021840D01*
G01X15777323Y-2016252D01*
G01X15760305Y-2016252D01*
G01X15748875Y-2021840D01*
G01X15737445Y-2033270D01*
G01X15731603Y-2050542D01*
G01X15731603Y-2061972D01*
G01X15737445Y-2078990D01*
G01X15748875Y-2090420D01*
G01X15760305Y-2096262D01*
G01X15777323Y-2096262D01*
G01X15788753Y-2090420D01*
G01X15800183Y-2078990D01*
G01X15916515Y-1976120D02*
G01X15916515Y-2096262D01*
G01X15916515Y-2033270D02*
G01X15905085Y-2021840D01*
G01X15893655Y-2016252D01*
G01X15876637Y-2016252D01*
G01X15865207Y-2021840D01*
G01X15853777Y-2033270D01*
G01X15847935Y-2050542D01*
G01X15847935Y-2061972D01*
G01X15853777Y-2078990D01*
G01X15865207Y-2090420D01*
G01X15876637Y-2096262D01*
G01X15893655Y-2096262D01*
G01X15905085Y-2090420D01*
G01X15916515Y-2078990D01*
G01X17307310Y-1976120D02*
G01X17295880Y-1981962D01*
G01X17284450Y-1993392D01*
G01X17278862Y-2004822D01*
G01X17273020Y-2021840D01*
G01X17273020Y-2050542D01*
G01X17278862Y-2067560D01*
G01X17284450Y-2078990D01*
G01X17295880Y-2090420D01*
G01X17307310Y-2096262D01*
G01X17330170Y-2096262D01*
G01X17341600Y-2090420D01*
G01X17353030Y-2078990D01*
G01X17358872Y-2067560D01*
G01X17364460Y-2050542D01*
G01X17364460Y-2021840D01*
G01X17358872Y-2004822D01*
G01X17353030Y-1993392D01*
G01X17341600Y-1981962D01*
G01X17330170Y-1976120D01*
G01X17307310Y-1976120D01*
G01X17412212Y-2016252D02*
G01X17446502Y-2096262D01*
G01X17480792Y-2016252D02*
G01X17446502Y-2096262D01*
G01X17597124Y-2016252D02*
G01X17597124Y-2096262D01*
G01X17597124Y-2033270D02*
G01X17585694Y-2021840D01*
G01X17574264Y-2016252D01*
G01X17557246Y-2016252D01*
G01X17545816Y-2021840D01*
G01X17534386Y-2033270D01*
G01X17528544Y-2050542D01*
G01X17528544Y-2061972D01*
G01X17534386Y-2078990D01*
G01X17545816Y-2090420D01*
G01X17557246Y-2096262D01*
G01X17574264Y-2096262D01*
G01X17585694Y-2090420D01*
G01X17597124Y-2078990D01*
G01X17644876Y-1976120D02*
G01X17644876Y-2096262D01*
G01X19232521Y-1976120D02*
G01X19232521Y-2096262D01*
G01X19192389Y-1976120D02*
G01X19272399Y-1976120D01*
G01X19348853Y-2016252D02*
G01X19337423Y-2021840D01*
G01X19325993Y-2033270D01*
G01X19320151Y-2050542D01*
G01X19320151Y-2061972D01*
G01X19325993Y-2078990D01*
G01X19337423Y-2090420D01*
G01X19348853Y-2096262D01*
G01X19365871Y-2096262D01*
G01X19377301Y-2090420D01*
G01X19388731Y-2078990D01*
G01X19394573Y-2061972D01*
G01X19394573Y-2050542D01*
G01X19388731Y-2033270D01*
G01X19377301Y-2021840D01*
G01X19365871Y-2016252D01*
G01X19348853Y-2016252D01*
G01X19442325Y-2016252D02*
G01X19442325Y-2136140D01*
G01X19442325Y-2033270D02*
G01X19453755Y-2021840D01*
G01X19465185Y-2016252D01*
G01X19482457Y-2016252D01*
G01X19493887Y-2021840D01*
G01X19505317Y-2033270D01*
G01X19510905Y-2050542D01*
G01X19510905Y-2061972D01*
G01X19505317Y-2078990D01*
G01X19493887Y-2090420D01*
G01X19482457Y-2096262D01*
G01X19465185Y-2096262D01*
G01X19453755Y-2090420D01*
G01X19442325Y-2078990D01*
G01X19686673Y-1976120D02*
G01X19686673Y-2096262D01*
G01X19686673Y-2096262D02*
G01X19755253Y-2096262D01*
G01X19871585Y-2016252D02*
G01X19871585Y-2096262D01*
G01X19871585Y-2033270D02*
G01X19860155Y-2021840D01*
G01X19848725Y-2016252D01*
G01X19831707Y-2016252D01*
G01X19820277Y-2021840D01*
G01X19808847Y-2033270D01*
G01X19803005Y-2050542D01*
G01X19803005Y-2061972D01*
G01X19808847Y-2078990D01*
G01X19820277Y-2090420D01*
G01X19831707Y-2096262D01*
G01X19848725Y-2096262D01*
G01X19860155Y-2090420D01*
G01X19871585Y-2078990D01*
G01X19925179Y-2016252D02*
G01X19959469Y-2096262D01*
G01X19993759Y-2016252D02*
G01X19959469Y-2096262D01*
G01X19948039Y-2119122D01*
G01X19936609Y-2130552D01*
G01X19925179Y-2136140D01*
G01X19919337Y-2136140D01*
G01X20041511Y-2050542D02*
G01X20110091Y-2050542D01*
G01X20110091Y-2039112D01*
G01X20104503Y-2027682D01*
G01X20098661Y-2021840D01*
G01X20087231Y-2016252D01*
G01X20070213Y-2016252D01*
G01X20058783Y-2021840D01*
G01X20047353Y-2033270D01*
G01X20041511Y-2050542D01*
G01X20041511Y-2061972D01*
G01X20047353Y-2078990D01*
G01X20058783Y-2090420D01*
G01X20070213Y-2096262D01*
G01X20087231Y-2096262D01*
G01X20098661Y-2090420D01*
G01X20110091Y-2078990D01*
G01X20157843Y-2016252D02*
G01X20157843Y-2096262D01*
G01X20157843Y-2050542D02*
G01X20163685Y-2033270D01*
G01X20175115Y-2021840D01*
G01X20186545Y-2016252D01*
G01X20203563Y-2016252D01*
G01X20251315Y-2044700D02*
G01X20354185Y-2044700D01*
G01X20401937Y-1976120D02*
G01X20401937Y-2096262D01*
G01X20401937Y-1976120D02*
G01X20453499Y-1976120D01*
G01X20470517Y-1981962D01*
G01X20476359Y-1987550D01*
G01X20481947Y-1998980D01*
G01X20481947Y-2010410D01*
G01X20476359Y-2021840D01*
G01X20470517Y-2027682D01*
G01X20453499Y-2033270D01*
G01X20401937Y-2033270D02*
G01X20453499Y-2033270D01*
G01X20470517Y-2039112D01*
G01X20476359Y-2044700D01*
G01X20481947Y-2056130D01*
G01X20481947Y-2073402D01*
G01X20476359Y-2084832D01*
G01X20470517Y-2090420D01*
G01X20453499Y-2096262D01*
G01X20401937Y-2096262D01*
G01X20558401Y-2016252D02*
G01X20546971Y-2021840D01*
G01X20535541Y-2033270D01*
G01X20529699Y-2050542D01*
G01X20529699Y-2061972D01*
G01X20535541Y-2078990D01*
G01X20546971Y-2090420D01*
G01X20558401Y-2096262D01*
G01X20575419Y-2096262D01*
G01X20586849Y-2090420D01*
G01X20598279Y-2078990D01*
G01X20604121Y-2061972D01*
G01X20604121Y-2050542D01*
G01X20598279Y-2033270D01*
G01X20586849Y-2021840D01*
G01X20575419Y-2016252D01*
G01X20558401Y-2016252D01*
G01X20669145Y-1976120D02*
G01X20669145Y-2073402D01*
G01X20674733Y-2090420D01*
G01X20686163Y-2096262D01*
G01X20697593Y-2096262D01*
G01X20651873Y-2016252D02*
G01X20692005Y-2016252D01*
G01X20762617Y-1976120D02*
G01X20762617Y-2073402D01*
G01X20768205Y-2090420D01*
G01X20779635Y-2096262D01*
G01X20791065Y-2096262D01*
G01X20745345Y-2016252D02*
G01X20785477Y-2016252D01*
G01X20867519Y-2016252D02*
G01X20856089Y-2021840D01*
G01X20844659Y-2033270D01*
G01X20838817Y-2050542D01*
G01X20838817Y-2061972D01*
G01X20844659Y-2078990D01*
G01X20856089Y-2090420D01*
G01X20867519Y-2096262D01*
G01X20884537Y-2096262D01*
G01X20895967Y-2090420D01*
G01X20907397Y-2078990D01*
G01X20913239Y-2061972D01*
G01X20913239Y-2050542D01*
G01X20907397Y-2033270D01*
G01X20895967Y-2021840D01*
G01X20884537Y-2016252D01*
G01X20867519Y-2016252D01*
G01X20960991Y-2016252D02*
G01X20960991Y-2096262D01*
G01X20960991Y-2039112D02*
G01X20978263Y-2021840D01*
G01X20989693Y-2016252D01*
G01X21006711Y-2016252D01*
G01X21018141Y-2021840D01*
G01X21023983Y-2039112D01*
G01X21023983Y-2096262D01*
G01X21023983Y-2039112D02*
G01X21041001Y-2021840D01*
G01X21052431Y-2016252D01*
G01X21069703Y-2016252D01*
G01X21081133Y-2021840D01*
G01X21086721Y-2039112D01*
G01X21086721Y-2096262D01*
G01X21262489Y-1976120D02*
G01X21262489Y-2096262D01*
G01X21262489Y-2096262D02*
G01X21331069Y-2096262D01*
G01X21447401Y-2016252D02*
G01X21447401Y-2096262D01*
G01X21447401Y-2033270D02*
G01X21435971Y-2021840D01*
G01X21424541Y-2016252D01*
G01X21407523Y-2016252D01*
G01X21396093Y-2021840D01*
G01X21384663Y-2033270D01*
G01X21378821Y-2050542D01*
G01X21378821Y-2061972D01*
G01X21384663Y-2078990D01*
G01X21396093Y-2090420D01*
G01X21407523Y-2096262D01*
G01X21424541Y-2096262D01*
G01X21435971Y-2090420D01*
G01X21447401Y-2078990D01*
G01X21500995Y-2016252D02*
G01X21535285Y-2096262D01*
G01X21569575Y-2016252D02*
G01X21535285Y-2096262D01*
G01X21523855Y-2119122D01*
G01X21512425Y-2130552D01*
G01X21500995Y-2136140D01*
G01X21495153Y-2136140D01*
G01X21617327Y-2050542D02*
G01X21685907Y-2050542D01*
G01X21685907Y-2039112D01*
G01X21680319Y-2027682D01*
G01X21674477Y-2021840D01*
G01X21663047Y-2016252D01*
G01X21646029Y-2016252D01*
G01X21634599Y-2021840D01*
G01X21623169Y-2033270D01*
G01X21617327Y-2050542D01*
G01X21617327Y-2061972D01*
G01X21623169Y-2078990D01*
G01X21634599Y-2090420D01*
G01X21646029Y-2096262D01*
G01X21663047Y-2096262D01*
G01X21674477Y-2090420D01*
G01X21685907Y-2078990D01*
G01X21733659Y-2016252D02*
G01X21733659Y-2096262D01*
G01X21733659Y-2050542D02*
G01X21739501Y-2033270D01*
G01X21750931Y-2021840D01*
G01X21762361Y-2016252D01*
G01X21779379Y-2016252D01*
G01X7466116Y-2585393D02*
G01X7466116Y-2579551D01*
G01X7471704Y-2568121D01*
G01X7477546Y-2562533D01*
G01X7488976Y-2556691D01*
G01X7511836Y-2556691D01*
G01X7523266Y-2562533D01*
G01X7528854Y-2568121D01*
G01X7534696Y-2579551D01*
G01X7534696Y-2590981D01*
G01X7528854Y-2602411D01*
G01X7517424Y-2619683D01*
G01X7460274Y-2676833D01*
G01X7540284Y-2676833D01*
G01X8931587Y-2556691D02*
G01X8874437Y-2636701D01*
G01X8960289Y-2636701D01*
G01X8931587Y-2556691D02*
G01X8931587Y-2676833D01*
G01X9088051Y-2556691D02*
G01X9030901Y-2676833D01*
G01X9008041Y-2556691D02*
G01X9088051Y-2556691D01*
G01X9141645Y-2648131D02*
G01X9135803Y-2653973D01*
G01X9141645Y-2659561D01*
G01X9147233Y-2653973D01*
G01X9141645Y-2648131D01*
G01X9200827Y-2585393D02*
G01X9200827Y-2579551D01*
G01X9206415Y-2568121D01*
G01X9212257Y-2562533D01*
G01X9223687Y-2556691D01*
G01X9246547Y-2556691D01*
G01X9257977Y-2562533D01*
G01X9263565Y-2568121D01*
G01X9269407Y-2579551D01*
G01X9269407Y-2590981D01*
G01X9263565Y-2602411D01*
G01X9252135Y-2619683D01*
G01X9194985Y-2676833D01*
G01X9274995Y-2676833D01*
G01X9322747Y-2596823D02*
G01X9322747Y-2676833D01*
G01X9322747Y-2619683D02*
G01X9340019Y-2602411D01*
G01X9351449Y-2596823D01*
G01X9368467Y-2596823D01*
G01X9379897Y-2602411D01*
G01X9385739Y-2619683D01*
G01X9385739Y-2676833D01*
G01X9385739Y-2619683D02*
G01X9402757Y-2602411D01*
G01X9414187Y-2596823D01*
G01X9431459Y-2596823D01*
G01X9442889Y-2602411D01*
G01X9448477Y-2619683D01*
G01X9448477Y-2676833D01*
G01X9496229Y-2556691D02*
G01X9502071Y-2562533D01*
G01X9507659Y-2556691D01*
G01X9502071Y-2551103D01*
G01X9496229Y-2556691D01*
G01X9502071Y-2596823D02*
G01X9502071Y-2676833D01*
G01X9555411Y-2556691D02*
G01X9555411Y-2676833D01*
G01X9643295Y-2533831D02*
G01X9631865Y-2545261D01*
G01X9620435Y-2562533D01*
G01X9609005Y-2585393D01*
G01X9603163Y-2613841D01*
G01X9603163Y-2636701D01*
G01X9609005Y-2665403D01*
G01X9620435Y-2688263D01*
G01X9631865Y-2705281D01*
G01X9643295Y-2716711D01*
G01X9691047Y-2579551D02*
G01X9702477Y-2573963D01*
G01X9719749Y-2556691D01*
G01X9719749Y-2676833D01*
G01X9773343Y-2648131D02*
G01X9767501Y-2653973D01*
G01X9773343Y-2659561D01*
G01X9778931Y-2653973D01*
G01X9773343Y-2648131D01*
G01X9832525Y-2585393D02*
G01X9832525Y-2579551D01*
G01X9838113Y-2568121D01*
G01X9843955Y-2562533D01*
G01X9855385Y-2556691D01*
G01X9878245Y-2556691D01*
G01X9889675Y-2562533D01*
G01X9895263Y-2568121D01*
G01X9901105Y-2579551D01*
G01X9901105Y-2590981D01*
G01X9895263Y-2602411D01*
G01X9883833Y-2619683D01*
G01X9826683Y-2676833D01*
G01X9906693Y-2676833D01*
G01X9988735Y-2556691D02*
G01X9971717Y-2562533D01*
G01X9960287Y-2579551D01*
G01X9954445Y-2608253D01*
G01X9954445Y-2625271D01*
G01X9960287Y-2653973D01*
G01X9971717Y-2670991D01*
G01X9988735Y-2676833D01*
G01X10000165Y-2676833D01*
G01X10017437Y-2670991D01*
G01X10028867Y-2653973D01*
G01X10034455Y-2625271D01*
G01X10034455Y-2608253D01*
G01X10028867Y-2579551D01*
G01X10017437Y-2562533D01*
G01X10000165Y-2556691D01*
G01X9988735Y-2556691D01*
G01X10116497Y-2556691D02*
G01X10099479Y-2562533D01*
G01X10088049Y-2579551D01*
G01X10082207Y-2608253D01*
G01X10082207Y-2625271D01*
G01X10088049Y-2653973D01*
G01X10099479Y-2670991D01*
G01X10116497Y-2676833D01*
G01X10127927Y-2676833D01*
G01X10145199Y-2670991D01*
G01X10156629Y-2653973D01*
G01X10162217Y-2625271D01*
G01X10162217Y-2608253D01*
G01X10156629Y-2579551D01*
G01X10145199Y-2562533D01*
G01X10127927Y-2556691D01*
G01X10116497Y-2556691D01*
G01X10209969Y-2596823D02*
G01X10209969Y-2676833D01*
G01X10209969Y-2619683D02*
G01X10227241Y-2602411D01*
G01X10238671Y-2596823D01*
G01X10255689Y-2596823D01*
G01X10267119Y-2602411D01*
G01X10272961Y-2619683D01*
G01X10272961Y-2676833D01*
G01X10272961Y-2619683D02*
G01X10289979Y-2602411D01*
G01X10301409Y-2596823D01*
G01X10318681Y-2596823D01*
G01X10330111Y-2602411D01*
G01X10335699Y-2619683D01*
G01X10335699Y-2676833D01*
G01X10383451Y-2596823D02*
G01X10383451Y-2676833D01*
G01X10383451Y-2619683D02*
G01X10400723Y-2602411D01*
G01X10412153Y-2596823D01*
G01X10429171Y-2596823D01*
G01X10440601Y-2602411D01*
G01X10446443Y-2619683D01*
G01X10446443Y-2676833D01*
G01X10446443Y-2619683D02*
G01X10463461Y-2602411D01*
G01X10474891Y-2596823D01*
G01X10492163Y-2596823D01*
G01X10503593Y-2602411D01*
G01X10509181Y-2619683D01*
G01X10509181Y-2676833D01*
G01X10556933Y-2533831D02*
G01X10568363Y-2545261D01*
G01X10579793Y-2562533D01*
G01X10591223Y-2585393D01*
G01X10597065Y-2613841D01*
G01X10597065Y-2636701D01*
G01X10591223Y-2665403D01*
G01X10579793Y-2688263D01*
G01X10568363Y-2705281D01*
G01X10556933Y-2716711D01*
G01X12711253Y-2556691D02*
G01X12711253Y-2676833D01*
G01X12711253Y-2556691D02*
G01X12791263Y-2676833D01*
G01X12791263Y-2556691D02*
G01X12791263Y-2676833D01*
G01X12839015Y-2556691D02*
G01X12839015Y-2676833D01*
G01X12839015Y-2556691D02*
G01X12890577Y-2556691D01*
G01X12907595Y-2562533D01*
G01X12913437Y-2568121D01*
G01X12919025Y-2579551D01*
G01X12919025Y-2596823D01*
G01X12913437Y-2608253D01*
G01X12907595Y-2613841D01*
G01X12890577Y-2619683D01*
G01X12839015Y-2619683D01*
G01X13006909Y-2556691D02*
G01X13006909Y-2676833D01*
G01X12966777Y-2556691D02*
G01X13046787Y-2556691D01*
G01X13094539Y-2556691D02*
G01X13094539Y-2676833D01*
G01X13174549Y-2556691D02*
G01X13174549Y-2676833D01*
G01X13094539Y-2613841D02*
G01X13174549Y-2613841D01*
G01X14172660Y-2556691D02*
G01X14172660Y-2676833D01*
G01X14172660Y-2556691D02*
G01X14224222Y-2556691D01*
G01X14241240Y-2562533D01*
G01X14247082Y-2568121D01*
G01X14252670Y-2579551D01*
G01X14252670Y-2590981D01*
G01X14247082Y-2602411D01*
G01X14241240Y-2608253D01*
G01X14224222Y-2613841D01*
G01X14172660Y-2613841D01*
G01X14212792Y-2613841D02*
G01X14252670Y-2676833D01*
G01X14329124Y-2596823D02*
G01X14317694Y-2602411D01*
G01X14306264Y-2613841D01*
G01X14300422Y-2631113D01*
G01X14300422Y-2642543D01*
G01X14306264Y-2659561D01*
G01X14317694Y-2670991D01*
G01X14329124Y-2676833D01*
G01X14346142Y-2676833D01*
G01X14357572Y-2670991D01*
G01X14369002Y-2659561D01*
G01X14374844Y-2642543D01*
G01X14374844Y-2631113D01*
G01X14369002Y-2613841D01*
G01X14357572Y-2602411D01*
G01X14346142Y-2596823D01*
G01X14329124Y-2596823D01*
G01X14422596Y-2596823D02*
G01X14422596Y-2653973D01*
G01X14428438Y-2670991D01*
G01X14439868Y-2676833D01*
G01X14456886Y-2676833D01*
G01X14468316Y-2670991D01*
G01X14485588Y-2653973D01*
G01X14485588Y-2596823D02*
G01X14485588Y-2676833D01*
G01X14533340Y-2596823D02*
G01X14533340Y-2676833D01*
G01X14533340Y-2619683D02*
G01X14550612Y-2602411D01*
G01X14562042Y-2596823D01*
G01X14579060Y-2596823D01*
G01X14590490Y-2602411D01*
G01X14596332Y-2619683D01*
G01X14596332Y-2676833D01*
G01X14712664Y-2556691D02*
G01X14712664Y-2676833D01*
G01X14712664Y-2613841D02*
G01X14701234Y-2602411D01*
G01X14689804Y-2596823D01*
G01X14672786Y-2596823D01*
G01X14661356Y-2602411D01*
G01X14649926Y-2613841D01*
G01X14644084Y-2631113D01*
G01X14644084Y-2642543D01*
G01X14649926Y-2659561D01*
G01X14661356Y-2670991D01*
G01X14672786Y-2676833D01*
G01X14689804Y-2676833D01*
G01X14701234Y-2670991D01*
G01X14712664Y-2659561D01*
G01X15603841Y-2556691D02*
G01X15649561Y-2676833D01*
G01X15695281Y-2556691D02*
G01X15649561Y-2676833D01*
G01X15743033Y-2556691D02*
G01X15748875Y-2562533D01*
G01X15754463Y-2556691D01*
G01X15748875Y-2551103D01*
G01X15743033Y-2556691D01*
G01X15748875Y-2596823D02*
G01X15748875Y-2676833D01*
G01X15870795Y-2596823D02*
G01X15870795Y-2676833D01*
G01X15870795Y-2613841D02*
G01X15859365Y-2602411D01*
G01X15847935Y-2596823D01*
G01X15830917Y-2596823D01*
G01X15819487Y-2602411D01*
G01X15808057Y-2613841D01*
G01X15802215Y-2631113D01*
G01X15802215Y-2642543D01*
G01X15808057Y-2659561D01*
G01X15819487Y-2670991D01*
G01X15830917Y-2676833D01*
G01X15847935Y-2676833D01*
G01X15859365Y-2670991D01*
G01X15870795Y-2659561D01*
G01X19232521Y-2556691D02*
G01X19232521Y-2676833D01*
G01X19192389Y-2556691D02*
G01X19272399Y-2556691D01*
G01X19348853Y-2596823D02*
G01X19337423Y-2602411D01*
G01X19325993Y-2613841D01*
G01X19320151Y-2631113D01*
G01X19320151Y-2642543D01*
G01X19325993Y-2659561D01*
G01X19337423Y-2670991D01*
G01X19348853Y-2676833D01*
G01X19365871Y-2676833D01*
G01X19377301Y-2670991D01*
G01X19388731Y-2659561D01*
G01X19394573Y-2642543D01*
G01X19394573Y-2631113D01*
G01X19388731Y-2613841D01*
G01X19377301Y-2602411D01*
G01X19365871Y-2596823D01*
G01X19348853Y-2596823D01*
G01X19442325Y-2596823D02*
G01X19442325Y-2716711D01*
G01X19442325Y-2613841D02*
G01X19453755Y-2602411D01*
G01X19465185Y-2596823D01*
G01X19482457Y-2596823D01*
G01X19493887Y-2602411D01*
G01X19505317Y-2613841D01*
G01X19510905Y-2631113D01*
G01X19510905Y-2642543D01*
G01X19505317Y-2659561D01*
G01X19493887Y-2670991D01*
G01X19482457Y-2676833D01*
G01X19465185Y-2676833D01*
G01X19453755Y-2670991D01*
G01X19442325Y-2659561D01*
G01X19686673Y-2556691D02*
G01X19686673Y-2676833D01*
G01X19686673Y-2676833D02*
G01X19755253Y-2676833D01*
G01X19871585Y-2596823D02*
G01X19871585Y-2676833D01*
G01X19871585Y-2613841D02*
G01X19860155Y-2602411D01*
G01X19848725Y-2596823D01*
G01X19831707Y-2596823D01*
G01X19820277Y-2602411D01*
G01X19808847Y-2613841D01*
G01X19803005Y-2631113D01*
G01X19803005Y-2642543D01*
G01X19808847Y-2659561D01*
G01X19820277Y-2670991D01*
G01X19831707Y-2676833D01*
G01X19848725Y-2676833D01*
G01X19860155Y-2670991D01*
G01X19871585Y-2659561D01*
G01X19925179Y-2596823D02*
G01X19959469Y-2676833D01*
G01X19993759Y-2596823D02*
G01X19959469Y-2676833D01*
G01X19948039Y-2699693D01*
G01X19936609Y-2711123D01*
G01X19925179Y-2716711D01*
G01X19919337Y-2716711D01*
G01X20041511Y-2631113D02*
G01X20110091Y-2631113D01*
G01X20110091Y-2619683D01*
G01X20104503Y-2608253D01*
G01X20098661Y-2602411D01*
G01X20087231Y-2596823D01*
G01X20070213Y-2596823D01*
G01X20058783Y-2602411D01*
G01X20047353Y-2613841D01*
G01X20041511Y-2631113D01*
G01X20041511Y-2642543D01*
G01X20047353Y-2659561D01*
G01X20058783Y-2670991D01*
G01X20070213Y-2676833D01*
G01X20087231Y-2676833D01*
G01X20098661Y-2670991D01*
G01X20110091Y-2659561D01*
G01X20157843Y-2596823D02*
G01X20157843Y-2676833D01*
G01X20157843Y-2631113D02*
G01X20163685Y-2613841D01*
G01X20175115Y-2602411D01*
G01X20186545Y-2596823D01*
G01X20203563Y-2596823D01*
G01X20251315Y-2625271D02*
G01X20354185Y-2625271D01*
G01X20401937Y-2556691D02*
G01X20401937Y-2676833D01*
G01X20401937Y-2556691D02*
G01X20453499Y-2556691D01*
G01X20470517Y-2562533D01*
G01X20476359Y-2568121D01*
G01X20481947Y-2579551D01*
G01X20481947Y-2590981D01*
G01X20476359Y-2602411D01*
G01X20470517Y-2608253D01*
G01X20453499Y-2613841D01*
G01X20401937Y-2613841D02*
G01X20453499Y-2613841D01*
G01X20470517Y-2619683D01*
G01X20476359Y-2625271D01*
G01X20481947Y-2636701D01*
G01X20481947Y-2653973D01*
G01X20476359Y-2665403D01*
G01X20470517Y-2670991D01*
G01X20453499Y-2676833D01*
G01X20401937Y-2676833D01*
G01X20558401Y-2596823D02*
G01X20546971Y-2602411D01*
G01X20535541Y-2613841D01*
G01X20529699Y-2631113D01*
G01X20529699Y-2642543D01*
G01X20535541Y-2659561D01*
G01X20546971Y-2670991D01*
G01X20558401Y-2676833D01*
G01X20575419Y-2676833D01*
G01X20586849Y-2670991D01*
G01X20598279Y-2659561D01*
G01X20604121Y-2642543D01*
G01X20604121Y-2631113D01*
G01X20598279Y-2613841D01*
G01X20586849Y-2602411D01*
G01X20575419Y-2596823D01*
G01X20558401Y-2596823D01*
G01X20669145Y-2556691D02*
G01X20669145Y-2653973D01*
G01X20674733Y-2670991D01*
G01X20686163Y-2676833D01*
G01X20697593Y-2676833D01*
G01X20651873Y-2596823D02*
G01X20692005Y-2596823D01*
G01X20762617Y-2556691D02*
G01X20762617Y-2653973D01*
G01X20768205Y-2670991D01*
G01X20779635Y-2676833D01*
G01X20791065Y-2676833D01*
G01X20745345Y-2596823D02*
G01X20785477Y-2596823D01*
G01X20867519Y-2596823D02*
G01X20856089Y-2602411D01*
G01X20844659Y-2613841D01*
G01X20838817Y-2631113D01*
G01X20838817Y-2642543D01*
G01X20844659Y-2659561D01*
G01X20856089Y-2670991D01*
G01X20867519Y-2676833D01*
G01X20884537Y-2676833D01*
G01X20895967Y-2670991D01*
G01X20907397Y-2659561D01*
G01X20913239Y-2642543D01*
G01X20913239Y-2631113D01*
G01X20907397Y-2613841D01*
G01X20895967Y-2602411D01*
G01X20884537Y-2596823D01*
G01X20867519Y-2596823D01*
G01X20960991Y-2596823D02*
G01X20960991Y-2676833D01*
G01X20960991Y-2619683D02*
G01X20978263Y-2602411D01*
G01X20989693Y-2596823D01*
G01X21006711Y-2596823D01*
G01X21018141Y-2602411D01*
G01X21023983Y-2619683D01*
G01X21023983Y-2676833D01*
G01X21023983Y-2619683D02*
G01X21041001Y-2602411D01*
G01X21052431Y-2596823D01*
G01X21069703Y-2596823D01*
G01X21081133Y-2602411D01*
G01X21086721Y-2619683D01*
G01X21086721Y-2676833D01*
G01X21262489Y-2556691D02*
G01X21262489Y-2676833D01*
G01X21262489Y-2676833D02*
G01X21331069Y-2676833D01*
G01X21447401Y-2596823D02*
G01X21447401Y-2676833D01*
G01X21447401Y-2613841D02*
G01X21435971Y-2602411D01*
G01X21424541Y-2596823D01*
G01X21407523Y-2596823D01*
G01X21396093Y-2602411D01*
G01X21384663Y-2613841D01*
G01X21378821Y-2631113D01*
G01X21378821Y-2642543D01*
G01X21384663Y-2659561D01*
G01X21396093Y-2670991D01*
G01X21407523Y-2676833D01*
G01X21424541Y-2676833D01*
G01X21435971Y-2670991D01*
G01X21447401Y-2659561D01*
G01X21500995Y-2596823D02*
G01X21535285Y-2676833D01*
G01X21569575Y-2596823D02*
G01X21535285Y-2676833D01*
G01X21523855Y-2699693D01*
G01X21512425Y-2711123D01*
G01X21500995Y-2716711D01*
G01X21495153Y-2716711D01*
G01X21617327Y-2631113D02*
G01X21685907Y-2631113D01*
G01X21685907Y-2619683D01*
G01X21680319Y-2608253D01*
G01X21674477Y-2602411D01*
G01X21663047Y-2596823D01*
G01X21646029Y-2596823D01*
G01X21634599Y-2602411D01*
G01X21623169Y-2613841D01*
G01X21617327Y-2631113D01*
G01X21617327Y-2642543D01*
G01X21623169Y-2659561D01*
G01X21634599Y-2670991D01*
G01X21646029Y-2676833D01*
G01X21663047Y-2676833D01*
G01X21674477Y-2670991D01*
G01X21685907Y-2659561D01*
G01X21733659Y-2596823D02*
G01X21733659Y-2676833D01*
G01X21733659Y-2631113D02*
G01X21739501Y-2613841D01*
G01X21750931Y-2602411D01*
G01X21762361Y-2596823D01*
G01X21779379Y-2596823D01*
G01X7466116Y-3165965D02*
G01X7466116Y-3160123D01*
G01X7471704Y-3148693D01*
G01X7477546Y-3143105D01*
G01X7488976Y-3137263D01*
G01X7511836Y-3137263D01*
G01X7523266Y-3143105D01*
G01X7528854Y-3148693D01*
G01X7534696Y-3160123D01*
G01X7534696Y-3171553D01*
G01X7528854Y-3182983D01*
G01X7517424Y-3200255D01*
G01X7460274Y-3257405D01*
G01X7540284Y-3257405D01*
G01X8880279Y-3165965D02*
G01X8880279Y-3160123D01*
G01X8885867Y-3148693D01*
G01X8891709Y-3143105D01*
G01X8903139Y-3137263D01*
G01X8925999Y-3137263D01*
G01X8937429Y-3143105D01*
G01X8943017Y-3148693D01*
G01X8948859Y-3160123D01*
G01X8948859Y-3171553D01*
G01X8943017Y-3182983D01*
G01X8931587Y-3200255D01*
G01X8874437Y-3257405D01*
G01X8954447Y-3257405D01*
G01X9013629Y-3137263D02*
G01X9076621Y-3137263D01*
G01X9042331Y-3182983D01*
G01X9059349Y-3182983D01*
G01X9070779Y-3188825D01*
G01X9076621Y-3194413D01*
G01X9082209Y-3211685D01*
G01X9082209Y-3223115D01*
G01X9076621Y-3240133D01*
G01X9065191Y-3251563D01*
G01X9047919Y-3257405D01*
G01X9030901Y-3257405D01*
G01X9013629Y-3251563D01*
G01X9008041Y-3245975D01*
G01X9002199Y-3234545D01*
G01X9135803Y-3228703D02*
G01X9129961Y-3234545D01*
G01X9135803Y-3240133D01*
G01X9141391Y-3234545D01*
G01X9135803Y-3228703D01*
G01X9257723Y-3154535D02*
G01X9252135Y-3143105D01*
G01X9234863Y-3137263D01*
G01X9223433Y-3137263D01*
G01X9206415Y-3143105D01*
G01X9194985Y-3160123D01*
G01X9189143Y-3188825D01*
G01X9189143Y-3217273D01*
G01X9194985Y-3240133D01*
G01X9206415Y-3251563D01*
G01X9223433Y-3257405D01*
G01X9229275Y-3257405D01*
G01X9246293Y-3251563D01*
G01X9257723Y-3240133D01*
G01X9263565Y-3223115D01*
G01X9263565Y-3217273D01*
G01X9257723Y-3200255D01*
G01X9246293Y-3188825D01*
G01X9229275Y-3182983D01*
G01X9223433Y-3182983D01*
G01X9206415Y-3188825D01*
G01X9194985Y-3200255D01*
G01X9189143Y-3217273D01*
G01X9311317Y-3177395D02*
G01X9311317Y-3257405D01*
G01X9311317Y-3200255D02*
G01X9328589Y-3182983D01*
G01X9340019Y-3177395D01*
G01X9357037Y-3177395D01*
G01X9368467Y-3182983D01*
G01X9374309Y-3200255D01*
G01X9374309Y-3257405D01*
G01X9374309Y-3200255D02*
G01X9391327Y-3182983D01*
G01X9402757Y-3177395D01*
G01X9420029Y-3177395D01*
G01X9431459Y-3182983D01*
G01X9437047Y-3200255D01*
G01X9437047Y-3257405D01*
G01X9484799Y-3137263D02*
G01X9490641Y-3143105D01*
G01X9496229Y-3137263D01*
G01X9490641Y-3131675D01*
G01X9484799Y-3137263D01*
G01X9490641Y-3177395D02*
G01X9490641Y-3257405D01*
G01X9543981Y-3137263D02*
G01X9543981Y-3257405D01*
G01X9631865Y-3114403D02*
G01X9620435Y-3125833D01*
G01X9609005Y-3143105D01*
G01X9597575Y-3165965D01*
G01X9591733Y-3194413D01*
G01X9591733Y-3217273D01*
G01X9597575Y-3245975D01*
G01X9609005Y-3268835D01*
G01X9620435Y-3285853D01*
G01X9631865Y-3297283D01*
G01X9713907Y-3137263D02*
G01X9696889Y-3143105D01*
G01X9685459Y-3160123D01*
G01X9679617Y-3188825D01*
G01X9679617Y-3205843D01*
G01X9685459Y-3234545D01*
G01X9696889Y-3251563D01*
G01X9713907Y-3257405D01*
G01X9725337Y-3257405D01*
G01X9742609Y-3251563D01*
G01X9754039Y-3234545D01*
G01X9759627Y-3205843D01*
G01X9759627Y-3188825D01*
G01X9754039Y-3160123D01*
G01X9742609Y-3143105D01*
G01X9725337Y-3137263D01*
G01X9713907Y-3137263D01*
G01X9813221Y-3228703D02*
G01X9807379Y-3234545D01*
G01X9813221Y-3240133D01*
G01X9818809Y-3234545D01*
G01X9813221Y-3228703D01*
G01X9935141Y-3154535D02*
G01X9929553Y-3143105D01*
G01X9912281Y-3137263D01*
G01X9900851Y-3137263D01*
G01X9883833Y-3143105D01*
G01X9872403Y-3160123D01*
G01X9866561Y-3188825D01*
G01X9866561Y-3217273D01*
G01X9872403Y-3240133D01*
G01X9883833Y-3251563D01*
G01X9900851Y-3257405D01*
G01X9906693Y-3257405D01*
G01X9923711Y-3251563D01*
G01X9935141Y-3240133D01*
G01X9940983Y-3223115D01*
G01X9940983Y-3217273D01*
G01X9935141Y-3200255D01*
G01X9923711Y-3188825D01*
G01X9906693Y-3182983D01*
G01X9900851Y-3182983D01*
G01X9883833Y-3188825D01*
G01X9872403Y-3200255D01*
G01X9866561Y-3217273D01*
G01X10023025Y-3137263D02*
G01X10006007Y-3143105D01*
G01X9994577Y-3160123D01*
G01X9988735Y-3188825D01*
G01X9988735Y-3205843D01*
G01X9994577Y-3234545D01*
G01X10006007Y-3251563D01*
G01X10023025Y-3257405D01*
G01X10034455Y-3257405D01*
G01X10051727Y-3251563D01*
G01X10063157Y-3234545D01*
G01X10068745Y-3205843D01*
G01X10068745Y-3188825D01*
G01X10063157Y-3160123D01*
G01X10051727Y-3143105D01*
G01X10034455Y-3137263D01*
G01X10023025Y-3137263D01*
G01X10150787Y-3137263D02*
G01X10133769Y-3143105D01*
G01X10122339Y-3160123D01*
G01X10116497Y-3188825D01*
G01X10116497Y-3205843D01*
G01X10122339Y-3234545D01*
G01X10133769Y-3251563D01*
G01X10150787Y-3257405D01*
G01X10162217Y-3257405D01*
G01X10179489Y-3251563D01*
G01X10190919Y-3234545D01*
G01X10196507Y-3205843D01*
G01X10196507Y-3188825D01*
G01X10190919Y-3160123D01*
G01X10179489Y-3143105D01*
G01X10162217Y-3137263D01*
G01X10150787Y-3137263D01*
G01X10244259Y-3177395D02*
G01X10244259Y-3257405D01*
G01X10244259Y-3200255D02*
G01X10261531Y-3182983D01*
G01X10272961Y-3177395D01*
G01X10289979Y-3177395D01*
G01X10301409Y-3182983D01*
G01X10307251Y-3200255D01*
G01X10307251Y-3257405D01*
G01X10307251Y-3200255D02*
G01X10324269Y-3182983D01*
G01X10335699Y-3177395D01*
G01X10352971Y-3177395D01*
G01X10364401Y-3182983D01*
G01X10369989Y-3200255D01*
G01X10369989Y-3257405D01*
G01X10417741Y-3177395D02*
G01X10417741Y-3257405D01*
G01X10417741Y-3200255D02*
G01X10435013Y-3182983D01*
G01X10446443Y-3177395D01*
G01X10463461Y-3177395D01*
G01X10474891Y-3182983D01*
G01X10480733Y-3200255D01*
G01X10480733Y-3257405D01*
G01X10480733Y-3200255D02*
G01X10497751Y-3182983D01*
G01X10509181Y-3177395D01*
G01X10526453Y-3177395D01*
G01X10537883Y-3182983D01*
G01X10543471Y-3200255D01*
G01X10543471Y-3257405D01*
G01X10591223Y-3114403D02*
G01X10602653Y-3125833D01*
G01X10614083Y-3143105D01*
G01X10625513Y-3165965D01*
G01X10631355Y-3194413D01*
G01X10631355Y-3217273D01*
G01X10625513Y-3245975D01*
G01X10614083Y-3268835D01*
G01X10602653Y-3285853D01*
G01X10591223Y-3297283D01*
G01X12711253Y-3137263D02*
G01X12711253Y-3257405D01*
G01X12711253Y-3137263D02*
G01X12791263Y-3257405D01*
G01X12791263Y-3137263D02*
G01X12791263Y-3257405D01*
G01X12839015Y-3137263D02*
G01X12839015Y-3257405D01*
G01X12839015Y-3137263D02*
G01X12890577Y-3137263D01*
G01X12907595Y-3143105D01*
G01X12913437Y-3148693D01*
G01X12919025Y-3160123D01*
G01X12919025Y-3177395D01*
G01X12913437Y-3188825D01*
G01X12907595Y-3194413D01*
G01X12890577Y-3200255D01*
G01X12839015Y-3200255D01*
G01X13006909Y-3137263D02*
G01X13006909Y-3257405D01*
G01X12966777Y-3137263D02*
G01X13046787Y-3137263D01*
G01X13094539Y-3137263D02*
G01X13094539Y-3257405D01*
G01X13174549Y-3137263D02*
G01X13174549Y-3257405D01*
G01X13094539Y-3194413D02*
G01X13174549Y-3194413D01*
G01X14172660Y-3137263D02*
G01X14172660Y-3257405D01*
G01X14172660Y-3137263D02*
G01X14224222Y-3137263D01*
G01X14241240Y-3143105D01*
G01X14247082Y-3148693D01*
G01X14252670Y-3160123D01*
G01X14252670Y-3171553D01*
G01X14247082Y-3182983D01*
G01X14241240Y-3188825D01*
G01X14224222Y-3194413D01*
G01X14172660Y-3194413D01*
G01X14212792Y-3194413D02*
G01X14252670Y-3257405D01*
G01X14329124Y-3177395D02*
G01X14317694Y-3182983D01*
G01X14306264Y-3194413D01*
G01X14300422Y-3211685D01*
G01X14300422Y-3223115D01*
G01X14306264Y-3240133D01*
G01X14317694Y-3251563D01*
G01X14329124Y-3257405D01*
G01X14346142Y-3257405D01*
G01X14357572Y-3251563D01*
G01X14369002Y-3240133D01*
G01X14374844Y-3223115D01*
G01X14374844Y-3211685D01*
G01X14369002Y-3194413D01*
G01X14357572Y-3182983D01*
G01X14346142Y-3177395D01*
G01X14329124Y-3177395D01*
G01X14422596Y-3177395D02*
G01X14422596Y-3234545D01*
G01X14428438Y-3251563D01*
G01X14439868Y-3257405D01*
G01X14456886Y-3257405D01*
G01X14468316Y-3251563D01*
G01X14485588Y-3234545D01*
G01X14485588Y-3177395D02*
G01X14485588Y-3257405D01*
G01X14533340Y-3177395D02*
G01X14533340Y-3257405D01*
G01X14533340Y-3200255D02*
G01X14550612Y-3182983D01*
G01X14562042Y-3177395D01*
G01X14579060Y-3177395D01*
G01X14590490Y-3182983D01*
G01X14596332Y-3200255D01*
G01X14596332Y-3257405D01*
G01X14712664Y-3137263D02*
G01X14712664Y-3257405D01*
G01X14712664Y-3194413D02*
G01X14701234Y-3182983D01*
G01X14689804Y-3177395D01*
G01X14672786Y-3177395D01*
G01X14661356Y-3182983D01*
G01X14649926Y-3194413D01*
G01X14644084Y-3211685D01*
G01X14644084Y-3223115D01*
G01X14649926Y-3240133D01*
G01X14661356Y-3251563D01*
G01X14672786Y-3257405D01*
G01X14689804Y-3257405D01*
G01X14701234Y-3251563D01*
G01X14712664Y-3240133D01*
G01X15603841Y-3137263D02*
G01X15649561Y-3257405D01*
G01X15695281Y-3137263D02*
G01X15649561Y-3257405D01*
G01X15743033Y-3137263D02*
G01X15748875Y-3143105D01*
G01X15754463Y-3137263D01*
G01X15748875Y-3131675D01*
G01X15743033Y-3137263D01*
G01X15748875Y-3177395D02*
G01X15748875Y-3257405D01*
G01X15870795Y-3177395D02*
G01X15870795Y-3257405D01*
G01X15870795Y-3194413D02*
G01X15859365Y-3182983D01*
G01X15847935Y-3177395D01*
G01X15830917Y-3177395D01*
G01X15819487Y-3182983D01*
G01X15808057Y-3194413D01*
G01X15802215Y-3211685D01*
G01X15802215Y-3223115D01*
G01X15808057Y-3240133D01*
G01X15819487Y-3251563D01*
G01X15830917Y-3257405D01*
G01X15847935Y-3257405D01*
G01X15859365Y-3251563D01*
G01X15870795Y-3240133D01*
G01X19232521Y-3137263D02*
G01X19232521Y-3257405D01*
G01X19192389Y-3137263D02*
G01X19272399Y-3137263D01*
G01X19348853Y-3177395D02*
G01X19337423Y-3182983D01*
G01X19325993Y-3194413D01*
G01X19320151Y-3211685D01*
G01X19320151Y-3223115D01*
G01X19325993Y-3240133D01*
G01X19337423Y-3251563D01*
G01X19348853Y-3257405D01*
G01X19365871Y-3257405D01*
G01X19377301Y-3251563D01*
G01X19388731Y-3240133D01*
G01X19394573Y-3223115D01*
G01X19394573Y-3211685D01*
G01X19388731Y-3194413D01*
G01X19377301Y-3182983D01*
G01X19365871Y-3177395D01*
G01X19348853Y-3177395D01*
G01X19442325Y-3177395D02*
G01X19442325Y-3297283D01*
G01X19442325Y-3194413D02*
G01X19453755Y-3182983D01*
G01X19465185Y-3177395D01*
G01X19482457Y-3177395D01*
G01X19493887Y-3182983D01*
G01X19505317Y-3194413D01*
G01X19510905Y-3211685D01*
G01X19510905Y-3223115D01*
G01X19505317Y-3240133D01*
G01X19493887Y-3251563D01*
G01X19482457Y-3257405D01*
G01X19465185Y-3257405D01*
G01X19453755Y-3251563D01*
G01X19442325Y-3240133D01*
G01X19686673Y-3137263D02*
G01X19686673Y-3257405D01*
G01X19686673Y-3257405D02*
G01X19755253Y-3257405D01*
G01X19871585Y-3177395D02*
G01X19871585Y-3257405D01*
G01X19871585Y-3194413D02*
G01X19860155Y-3182983D01*
G01X19848725Y-3177395D01*
G01X19831707Y-3177395D01*
G01X19820277Y-3182983D01*
G01X19808847Y-3194413D01*
G01X19803005Y-3211685D01*
G01X19803005Y-3223115D01*
G01X19808847Y-3240133D01*
G01X19820277Y-3251563D01*
G01X19831707Y-3257405D01*
G01X19848725Y-3257405D01*
G01X19860155Y-3251563D01*
G01X19871585Y-3240133D01*
G01X19925179Y-3177395D02*
G01X19959469Y-3257405D01*
G01X19993759Y-3177395D02*
G01X19959469Y-3257405D01*
G01X19948039Y-3280265D01*
G01X19936609Y-3291695D01*
G01X19925179Y-3297283D01*
G01X19919337Y-3297283D01*
G01X20041511Y-3211685D02*
G01X20110091Y-3211685D01*
G01X20110091Y-3200255D01*
G01X20104503Y-3188825D01*
G01X20098661Y-3182983D01*
G01X20087231Y-3177395D01*
G01X20070213Y-3177395D01*
G01X20058783Y-3182983D01*
G01X20047353Y-3194413D01*
G01X20041511Y-3211685D01*
G01X20041511Y-3223115D01*
G01X20047353Y-3240133D01*
G01X20058783Y-3251563D01*
G01X20070213Y-3257405D01*
G01X20087231Y-3257405D01*
G01X20098661Y-3251563D01*
G01X20110091Y-3240133D01*
G01X20157843Y-3177395D02*
G01X20157843Y-3257405D01*
G01X20157843Y-3211685D02*
G01X20163685Y-3194413D01*
G01X20175115Y-3182983D01*
G01X20186545Y-3177395D01*
G01X20203563Y-3177395D01*
G01X20251315Y-3205843D02*
G01X20354185Y-3205843D01*
G01X20401937Y-3137263D02*
G01X20401937Y-3257405D01*
G01X20401937Y-3137263D02*
G01X20453499Y-3137263D01*
G01X20470517Y-3143105D01*
G01X20476359Y-3148693D01*
G01X20481947Y-3160123D01*
G01X20481947Y-3171553D01*
G01X20476359Y-3182983D01*
G01X20470517Y-3188825D01*
G01X20453499Y-3194413D01*
G01X20401937Y-3194413D02*
G01X20453499Y-3194413D01*
G01X20470517Y-3200255D01*
G01X20476359Y-3205843D01*
G01X20481947Y-3217273D01*
G01X20481947Y-3234545D01*
G01X20476359Y-3245975D01*
G01X20470517Y-3251563D01*
G01X20453499Y-3257405D01*
G01X20401937Y-3257405D01*
G01X20558401Y-3177395D02*
G01X20546971Y-3182983D01*
G01X20535541Y-3194413D01*
G01X20529699Y-3211685D01*
G01X20529699Y-3223115D01*
G01X20535541Y-3240133D01*
G01X20546971Y-3251563D01*
G01X20558401Y-3257405D01*
G01X20575419Y-3257405D01*
G01X20586849Y-3251563D01*
G01X20598279Y-3240133D01*
G01X20604121Y-3223115D01*
G01X20604121Y-3211685D01*
G01X20598279Y-3194413D01*
G01X20586849Y-3182983D01*
G01X20575419Y-3177395D01*
G01X20558401Y-3177395D01*
G01X20669145Y-3137263D02*
G01X20669145Y-3234545D01*
G01X20674733Y-3251563D01*
G01X20686163Y-3257405D01*
G01X20697593Y-3257405D01*
G01X20651873Y-3177395D02*
G01X20692005Y-3177395D01*
G01X20762617Y-3137263D02*
G01X20762617Y-3234545D01*
G01X20768205Y-3251563D01*
G01X20779635Y-3257405D01*
G01X20791065Y-3257405D01*
G01X20745345Y-3177395D02*
G01X20785477Y-3177395D01*
G01X20867519Y-3177395D02*
G01X20856089Y-3182983D01*
G01X20844659Y-3194413D01*
G01X20838817Y-3211685D01*
G01X20838817Y-3223115D01*
G01X20844659Y-3240133D01*
G01X20856089Y-3251563D01*
G01X20867519Y-3257405D01*
G01X20884537Y-3257405D01*
G01X20895967Y-3251563D01*
G01X20907397Y-3240133D01*
G01X20913239Y-3223115D01*
G01X20913239Y-3211685D01*
G01X20907397Y-3194413D01*
G01X20895967Y-3182983D01*
G01X20884537Y-3177395D01*
G01X20867519Y-3177395D01*
G01X20960991Y-3177395D02*
G01X20960991Y-3257405D01*
G01X20960991Y-3200255D02*
G01X20978263Y-3182983D01*
G01X20989693Y-3177395D01*
G01X21006711Y-3177395D01*
G01X21018141Y-3182983D01*
G01X21023983Y-3200255D01*
G01X21023983Y-3257405D01*
G01X21023983Y-3200255D02*
G01X21041001Y-3182983D01*
G01X21052431Y-3177395D01*
G01X21069703Y-3177395D01*
G01X21081133Y-3182983D01*
G01X21086721Y-3200255D01*
G01X21086721Y-3257405D01*
G01X21262489Y-3137263D02*
G01X21262489Y-3257405D01*
G01X21262489Y-3257405D02*
G01X21331069Y-3257405D01*
G01X21447401Y-3177395D02*
G01X21447401Y-3257405D01*
G01X21447401Y-3194413D02*
G01X21435971Y-3182983D01*
G01X21424541Y-3177395D01*
G01X21407523Y-3177395D01*
G01X21396093Y-3182983D01*
G01X21384663Y-3194413D01*
G01X21378821Y-3211685D01*
G01X21378821Y-3223115D01*
G01X21384663Y-3240133D01*
G01X21396093Y-3251563D01*
G01X21407523Y-3257405D01*
G01X21424541Y-3257405D01*
G01X21435971Y-3251563D01*
G01X21447401Y-3240133D01*
G01X21500995Y-3177395D02*
G01X21535285Y-3257405D01*
G01X21569575Y-3177395D02*
G01X21535285Y-3257405D01*
G01X21523855Y-3280265D01*
G01X21512425Y-3291695D01*
G01X21500995Y-3297283D01*
G01X21495153Y-3297283D01*
G01X21617327Y-3211685D02*
G01X21685907Y-3211685D01*
G01X21685907Y-3200255D01*
G01X21680319Y-3188825D01*
G01X21674477Y-3182983D01*
G01X21663047Y-3177395D01*
G01X21646029Y-3177395D01*
G01X21634599Y-3182983D01*
G01X21623169Y-3194413D01*
G01X21617327Y-3211685D01*
G01X21617327Y-3223115D01*
G01X21623169Y-3240133D01*
G01X21634599Y-3251563D01*
G01X21646029Y-3257405D01*
G01X21663047Y-3257405D01*
G01X21674477Y-3251563D01*
G01X21685907Y-3240133D01*
G01X21733659Y-3177395D02*
G01X21733659Y-3257405D01*
G01X21733659Y-3211685D02*
G01X21739501Y-3194413D01*
G01X21750931Y-3182983D01*
G01X21762361Y-3177395D01*
G01X21779379Y-3177395D01*
G01X7471704Y-3717834D02*
G01X7534696Y-3717834D01*
G01X7500406Y-3763554D01*
G01X7517424Y-3763554D01*
G01X7528854Y-3769396D01*
G01X7534696Y-3774984D01*
G01X7540284Y-3792256D01*
G01X7540284Y-3803686D01*
G01X7534696Y-3820704D01*
G01X7523266Y-3832134D01*
G01X7505994Y-3837976D01*
G01X7488976Y-3837976D01*
G01X7471704Y-3832134D01*
G01X7466116Y-3826546D01*
G01X7460274Y-3815116D01*
G01X8880279Y-3746536D02*
G01X8880279Y-3740694D01*
G01X8885867Y-3729264D01*
G01X8891709Y-3723676D01*
G01X8903139Y-3717834D01*
G01X8925999Y-3717834D01*
G01X8937429Y-3723676D01*
G01X8943017Y-3729264D01*
G01X8948859Y-3740694D01*
G01X8948859Y-3752124D01*
G01X8943017Y-3763554D01*
G01X8931587Y-3780826D01*
G01X8874437Y-3837976D01*
G01X8954447Y-3837976D01*
G01X9013629Y-3717834D02*
G01X9076621Y-3717834D01*
G01X9042331Y-3763554D01*
G01X9059349Y-3763554D01*
G01X9070779Y-3769396D01*
G01X9076621Y-3774984D01*
G01X9082209Y-3792256D01*
G01X9082209Y-3803686D01*
G01X9076621Y-3820704D01*
G01X9065191Y-3832134D01*
G01X9047919Y-3837976D01*
G01X9030901Y-3837976D01*
G01X9013629Y-3832134D01*
G01X9008041Y-3826546D01*
G01X9002199Y-3815116D01*
G01X9135803Y-3809274D02*
G01X9129961Y-3815116D01*
G01X9135803Y-3820704D01*
G01X9141391Y-3815116D01*
G01X9135803Y-3809274D01*
G01X9257723Y-3735106D02*
G01X9252135Y-3723676D01*
G01X9234863Y-3717834D01*
G01X9223433Y-3717834D01*
G01X9206415Y-3723676D01*
G01X9194985Y-3740694D01*
G01X9189143Y-3769396D01*
G01X9189143Y-3797844D01*
G01X9194985Y-3820704D01*
G01X9206415Y-3832134D01*
G01X9223433Y-3837976D01*
G01X9229275Y-3837976D01*
G01X9246293Y-3832134D01*
G01X9257723Y-3820704D01*
G01X9263565Y-3803686D01*
G01X9263565Y-3797844D01*
G01X9257723Y-3780826D01*
G01X9246293Y-3769396D01*
G01X9229275Y-3763554D01*
G01X9223433Y-3763554D01*
G01X9206415Y-3769396D01*
G01X9194985Y-3780826D01*
G01X9189143Y-3797844D01*
G01X9311317Y-3757966D02*
G01X9374309Y-3837976D01*
G01X9374309Y-3757966D02*
G01X9311317Y-3837976D01*
G01X9479211Y-3717834D02*
G01X9422061Y-3797844D01*
G01X9507913Y-3797844D01*
G01X9479211Y-3717834D02*
G01X9479211Y-3837976D01*
G01X9635675Y-3717834D02*
G01X9578525Y-3837976D01*
G01X9555665Y-3717834D02*
G01X9635675Y-3717834D01*
G01X9689269Y-3809274D02*
G01X9683427Y-3815116D01*
G01X9689269Y-3820704D01*
G01X9694857Y-3815116D01*
G01X9689269Y-3809274D01*
G01X9748451Y-3746536D02*
G01X9748451Y-3740694D01*
G01X9754039Y-3729264D01*
G01X9759881Y-3723676D01*
G01X9771311Y-3717834D01*
G01X9794171Y-3717834D01*
G01X9805601Y-3723676D01*
G01X9811189Y-3729264D01*
G01X9817031Y-3740694D01*
G01X9817031Y-3752124D01*
G01X9811189Y-3763554D01*
G01X9799759Y-3780826D01*
G01X9742609Y-3837976D01*
G01X9822619Y-3837976D01*
G01X9870371Y-3757966D02*
G01X9870371Y-3837976D01*
G01X9870371Y-3780826D02*
G01X9887643Y-3763554D01*
G01X9899073Y-3757966D01*
G01X9916091Y-3757966D01*
G01X9927521Y-3763554D01*
G01X9933363Y-3780826D01*
G01X9933363Y-3837976D01*
G01X9933363Y-3780826D02*
G01X9950381Y-3763554D01*
G01X9961811Y-3757966D01*
G01X9979083Y-3757966D01*
G01X9990513Y-3763554D01*
G01X9996101Y-3780826D01*
G01X9996101Y-3837976D01*
G01X10043853Y-3717834D02*
G01X10049695Y-3723676D01*
G01X10055283Y-3717834D01*
G01X10049695Y-3712246D01*
G01X10043853Y-3717834D01*
G01X10049695Y-3757966D02*
G01X10049695Y-3837976D01*
G01X10103035Y-3717834D02*
G01X10103035Y-3837976D01*
G01X10190919Y-3694974D02*
G01X10179489Y-3706404D01*
G01X10168059Y-3723676D01*
G01X10156629Y-3746536D01*
G01X10150787Y-3774984D01*
G01X10150787Y-3797844D01*
G01X10156629Y-3826546D01*
G01X10168059Y-3849406D01*
G01X10179489Y-3866424D01*
G01X10190919Y-3877854D01*
G01X10272961Y-3717834D02*
G01X10255943Y-3723676D01*
G01X10244513Y-3740694D01*
G01X10238671Y-3769396D01*
G01X10238671Y-3786414D01*
G01X10244513Y-3815116D01*
G01X10255943Y-3832134D01*
G01X10272961Y-3837976D01*
G01X10284391Y-3837976D01*
G01X10301663Y-3832134D01*
G01X10313093Y-3815116D01*
G01X10318681Y-3786414D01*
G01X10318681Y-3769396D01*
G01X10313093Y-3740694D01*
G01X10301663Y-3723676D01*
G01X10284391Y-3717834D01*
G01X10272961Y-3717834D01*
G01X10372275Y-3809274D02*
G01X10366433Y-3815116D01*
G01X10372275Y-3820704D01*
G01X10377863Y-3815116D01*
G01X10372275Y-3809274D01*
G01X10494195Y-3735106D02*
G01X10488607Y-3723676D01*
G01X10471335Y-3717834D01*
G01X10459905Y-3717834D01*
G01X10442887Y-3723676D01*
G01X10431457Y-3740694D01*
G01X10425615Y-3769396D01*
G01X10425615Y-3797844D01*
G01X10431457Y-3820704D01*
G01X10442887Y-3832134D01*
G01X10459905Y-3837976D01*
G01X10465747Y-3837976D01*
G01X10482765Y-3832134D01*
G01X10494195Y-3820704D01*
G01X10500037Y-3803686D01*
G01X10500037Y-3797844D01*
G01X10494195Y-3780826D01*
G01X10482765Y-3769396D01*
G01X10465747Y-3763554D01*
G01X10459905Y-3763554D01*
G01X10442887Y-3769396D01*
G01X10431457Y-3780826D01*
G01X10425615Y-3797844D01*
G01X10582079Y-3717834D02*
G01X10565061Y-3723676D01*
G01X10553631Y-3740694D01*
G01X10547789Y-3769396D01*
G01X10547789Y-3786414D01*
G01X10553631Y-3815116D01*
G01X10565061Y-3832134D01*
G01X10582079Y-3837976D01*
G01X10593509Y-3837976D01*
G01X10610781Y-3832134D01*
G01X10622211Y-3815116D01*
G01X10627799Y-3786414D01*
G01X10627799Y-3769396D01*
G01X10622211Y-3740694D01*
G01X10610781Y-3723676D01*
G01X10593509Y-3717834D01*
G01X10582079Y-3717834D01*
G01X10709841Y-3717834D02*
G01X10692823Y-3723676D01*
G01X10681393Y-3740694D01*
G01X10675551Y-3769396D01*
G01X10675551Y-3786414D01*
G01X10681393Y-3815116D01*
G01X10692823Y-3832134D01*
G01X10709841Y-3837976D01*
G01X10721271Y-3837976D01*
G01X10738543Y-3832134D01*
G01X10749973Y-3815116D01*
G01X10755561Y-3786414D01*
G01X10755561Y-3769396D01*
G01X10749973Y-3740694D01*
G01X10738543Y-3723676D01*
G01X10721271Y-3717834D01*
G01X10709841Y-3717834D01*
G01X10803313Y-3757966D02*
G01X10866305Y-3837976D01*
G01X10866305Y-3757966D02*
G01X10803313Y-3837976D01*
G01X10914057Y-3740694D02*
G01X10925487Y-3735106D01*
G01X10942759Y-3717834D01*
G01X10942759Y-3837976D01*
G01X10996353Y-3809274D02*
G01X10990511Y-3815116D01*
G01X10996353Y-3820704D01*
G01X11001941Y-3815116D01*
G01X10996353Y-3809274D01*
G01X11055535Y-3746536D02*
G01X11055535Y-3740694D01*
G01X11061123Y-3729264D01*
G01X11066965Y-3723676D01*
G01X11078395Y-3717834D01*
G01X11101255Y-3717834D01*
G01X11112685Y-3723676D01*
G01X11118273Y-3729264D01*
G01X11124115Y-3740694D01*
G01X11124115Y-3752124D01*
G01X11118273Y-3763554D01*
G01X11106843Y-3780826D01*
G01X11049693Y-3837976D01*
G01X11129703Y-3837976D01*
G01X11211745Y-3717834D02*
G01X11194727Y-3723676D01*
G01X11183297Y-3740694D01*
G01X11177455Y-3769396D01*
G01X11177455Y-3786414D01*
G01X11183297Y-3815116D01*
G01X11194727Y-3832134D01*
G01X11211745Y-3837976D01*
G01X11223175Y-3837976D01*
G01X11240447Y-3832134D01*
G01X11251877Y-3815116D01*
G01X11257465Y-3786414D01*
G01X11257465Y-3769396D01*
G01X11251877Y-3740694D01*
G01X11240447Y-3723676D01*
G01X11223175Y-3717834D01*
G01X11211745Y-3717834D01*
G01X11339507Y-3717834D02*
G01X11322489Y-3723676D01*
G01X11311059Y-3740694D01*
G01X11305217Y-3769396D01*
G01X11305217Y-3786414D01*
G01X11311059Y-3815116D01*
G01X11322489Y-3832134D01*
G01X11339507Y-3837976D01*
G01X11350937Y-3837976D01*
G01X11368209Y-3832134D01*
G01X11379639Y-3815116D01*
G01X11385227Y-3786414D01*
G01X11385227Y-3769396D01*
G01X11379639Y-3740694D01*
G01X11368209Y-3723676D01*
G01X11350937Y-3717834D01*
G01X11339507Y-3717834D01*
G01X11432979Y-3757966D02*
G01X11432979Y-3837976D01*
G01X11432979Y-3780826D02*
G01X11450251Y-3763554D01*
G01X11461681Y-3757966D01*
G01X11478699Y-3757966D01*
G01X11490129Y-3763554D01*
G01X11495971Y-3780826D01*
G01X11495971Y-3837976D01*
G01X11495971Y-3780826D02*
G01X11512989Y-3763554D01*
G01X11524419Y-3757966D01*
G01X11541691Y-3757966D01*
G01X11553121Y-3763554D01*
G01X11558709Y-3780826D01*
G01X11558709Y-3837976D01*
G01X11606461Y-3757966D02*
G01X11606461Y-3837976D01*
G01X11606461Y-3780826D02*
G01X11623733Y-3763554D01*
G01X11635163Y-3757966D01*
G01X11652181Y-3757966D01*
G01X11663611Y-3763554D01*
G01X11669453Y-3780826D01*
G01X11669453Y-3837976D01*
G01X11669453Y-3780826D02*
G01X11686471Y-3763554D01*
G01X11697901Y-3757966D01*
G01X11715173Y-3757966D01*
G01X11726603Y-3763554D01*
G01X11732191Y-3780826D01*
G01X11732191Y-3837976D01*
G01X11779943Y-3694974D02*
G01X11791373Y-3706404D01*
G01X11802803Y-3723676D01*
G01X11814233Y-3746536D01*
G01X11820075Y-3774984D01*
G01X11820075Y-3797844D01*
G01X11814233Y-3826546D01*
G01X11802803Y-3849406D01*
G01X11791373Y-3866424D01*
G01X11779943Y-3877854D01*
G01X12711253Y-3717834D02*
G01X12711253Y-3837976D01*
G01X12711253Y-3717834D02*
G01X12762815Y-3717834D01*
G01X12779833Y-3723676D01*
G01X12785675Y-3729264D01*
G01X12791263Y-3740694D01*
G01X12791263Y-3757966D01*
G01X12785675Y-3769396D01*
G01X12779833Y-3774984D01*
G01X12762815Y-3780826D01*
G01X12711253Y-3780826D01*
G01X12879147Y-3717834D02*
G01X12879147Y-3837976D01*
G01X12839015Y-3717834D02*
G01X12919025Y-3717834D01*
G01X12966777Y-3717834D02*
G01X12966777Y-3837976D01*
G01X13046787Y-3717834D02*
G01X13046787Y-3837976D01*
G01X12966777Y-3774984D02*
G01X13046787Y-3774984D01*
G01X14252670Y-3735106D02*
G01X14241240Y-3723676D01*
G01X14224222Y-3717834D01*
G01X14201362Y-3717834D01*
G01X14184090Y-3723676D01*
G01X14172660Y-3735106D01*
G01X14172660Y-3746536D01*
G01X14178502Y-3757966D01*
G01X14184090Y-3763554D01*
G01X14195520Y-3769396D01*
G01X14229810Y-3780826D01*
G01X14241240Y-3786414D01*
G01X14247082Y-3792256D01*
G01X14252670Y-3803686D01*
G01X14252670Y-3820704D01*
G01X14241240Y-3832134D01*
G01X14224222Y-3837976D01*
G01X14201362Y-3837976D01*
G01X14184090Y-3832134D01*
G01X14172660Y-3820704D01*
G01X14300422Y-3717834D02*
G01X14300422Y-3837976D01*
G01X14376876Y-3757966D02*
G01X14365446Y-3763554D01*
G01X14354016Y-3774984D01*
G01X14348174Y-3792256D01*
G01X14348174Y-3803686D01*
G01X14354016Y-3820704D01*
G01X14365446Y-3832134D01*
G01X14376876Y-3837976D01*
G01X14393894Y-3837976D01*
G01X14405324Y-3832134D01*
G01X14416754Y-3820704D01*
G01X14422596Y-3803686D01*
G01X14422596Y-3792256D01*
G01X14416754Y-3774984D01*
G01X14405324Y-3763554D01*
G01X14393894Y-3757966D01*
G01X14376876Y-3757966D01*
G01X14487620Y-3717834D02*
G01X14487620Y-3815116D01*
G01X14493208Y-3832134D01*
G01X14504638Y-3837976D01*
G01X14516068Y-3837976D01*
G01X14470348Y-3757966D02*
G01X14510480Y-3757966D01*
G01X15603841Y-3717834D02*
G01X15603841Y-3837976D01*
G01X15603841Y-3717834D02*
G01X15655403Y-3717834D01*
G01X15672421Y-3723676D01*
G01X15678263Y-3729264D01*
G01X15683851Y-3740694D01*
G01X15683851Y-3757966D01*
G01X15678263Y-3769396D01*
G01X15672421Y-3774984D01*
G01X15655403Y-3780826D01*
G01X15603841Y-3780826D01*
G01X15800183Y-3757966D02*
G01X15800183Y-3837976D01*
G01X15800183Y-3774984D02*
G01X15788753Y-3763554D01*
G01X15777323Y-3757966D01*
G01X15760305Y-3757966D01*
G01X15748875Y-3763554D01*
G01X15737445Y-3774984D01*
G01X15731603Y-3792256D01*
G01X15731603Y-3803686D01*
G01X15737445Y-3820704D01*
G01X15748875Y-3832134D01*
G01X15760305Y-3837976D01*
G01X15777323Y-3837976D01*
G01X15788753Y-3832134D01*
G01X15800183Y-3820704D01*
G01X15916515Y-3717834D02*
G01X15916515Y-3837976D01*
G01X15916515Y-3774984D02*
G01X15905085Y-3763554D01*
G01X15893655Y-3757966D01*
G01X15876637Y-3757966D01*
G01X15865207Y-3763554D01*
G01X15853777Y-3774984D01*
G01X15847935Y-3792256D01*
G01X15847935Y-3803686D01*
G01X15853777Y-3820704D01*
G01X15865207Y-3832134D01*
G01X15876637Y-3837976D01*
G01X15893655Y-3837976D01*
G01X15905085Y-3832134D01*
G01X15916515Y-3820704D01*
G01X17307310Y-3717834D02*
G01X17295880Y-3723676D01*
G01X17284450Y-3735106D01*
G01X17278862Y-3746536D01*
G01X17273020Y-3763554D01*
G01X17273020Y-3792256D01*
G01X17278862Y-3809274D01*
G01X17284450Y-3820704D01*
G01X17295880Y-3832134D01*
G01X17307310Y-3837976D01*
G01X17330170Y-3837976D01*
G01X17341600Y-3832134D01*
G01X17353030Y-3820704D01*
G01X17358872Y-3809274D01*
G01X17364460Y-3792256D01*
G01X17364460Y-3763554D01*
G01X17358872Y-3746536D01*
G01X17353030Y-3735106D01*
G01X17341600Y-3723676D01*
G01X17330170Y-3717834D01*
G01X17307310Y-3717834D01*
G01X17412212Y-3757966D02*
G01X17446502Y-3837976D01*
G01X17480792Y-3757966D02*
G01X17446502Y-3837976D01*
G01X17597124Y-3757966D02*
G01X17597124Y-3837976D01*
G01X17597124Y-3774984D02*
G01X17585694Y-3763554D01*
G01X17574264Y-3757966D01*
G01X17557246Y-3757966D01*
G01X17545816Y-3763554D01*
G01X17534386Y-3774984D01*
G01X17528544Y-3792256D01*
G01X17528544Y-3803686D01*
G01X17534386Y-3820704D01*
G01X17545816Y-3832134D01*
G01X17557246Y-3837976D01*
G01X17574264Y-3837976D01*
G01X17585694Y-3832134D01*
G01X17597124Y-3820704D01*
G01X17644876Y-3717834D02*
G01X17644876Y-3837976D01*
G01X19232521Y-3717834D02*
G01X19232521Y-3837976D01*
G01X19192389Y-3717834D02*
G01X19272399Y-3717834D01*
G01X19348853Y-3757966D02*
G01X19337423Y-3763554D01*
G01X19325993Y-3774984D01*
G01X19320151Y-3792256D01*
G01X19320151Y-3803686D01*
G01X19325993Y-3820704D01*
G01X19337423Y-3832134D01*
G01X19348853Y-3837976D01*
G01X19365871Y-3837976D01*
G01X19377301Y-3832134D01*
G01X19388731Y-3820704D01*
G01X19394573Y-3803686D01*
G01X19394573Y-3792256D01*
G01X19388731Y-3774984D01*
G01X19377301Y-3763554D01*
G01X19365871Y-3757966D01*
G01X19348853Y-3757966D01*
G01X19442325Y-3757966D02*
G01X19442325Y-3877854D01*
G01X19442325Y-3774984D02*
G01X19453755Y-3763554D01*
G01X19465185Y-3757966D01*
G01X19482457Y-3757966D01*
G01X19493887Y-3763554D01*
G01X19505317Y-3774984D01*
G01X19510905Y-3792256D01*
G01X19510905Y-3803686D01*
G01X19505317Y-3820704D01*
G01X19493887Y-3832134D01*
G01X19482457Y-3837976D01*
G01X19465185Y-3837976D01*
G01X19453755Y-3832134D01*
G01X19442325Y-3820704D01*
G01X19686673Y-3717834D02*
G01X19686673Y-3837976D01*
G01X19686673Y-3837976D02*
G01X19755253Y-3837976D01*
G01X19871585Y-3757966D02*
G01X19871585Y-3837976D01*
G01X19871585Y-3774984D02*
G01X19860155Y-3763554D01*
G01X19848725Y-3757966D01*
G01X19831707Y-3757966D01*
G01X19820277Y-3763554D01*
G01X19808847Y-3774984D01*
G01X19803005Y-3792256D01*
G01X19803005Y-3803686D01*
G01X19808847Y-3820704D01*
G01X19820277Y-3832134D01*
G01X19831707Y-3837976D01*
G01X19848725Y-3837976D01*
G01X19860155Y-3832134D01*
G01X19871585Y-3820704D01*
G01X19925179Y-3757966D02*
G01X19959469Y-3837976D01*
G01X19993759Y-3757966D02*
G01X19959469Y-3837976D01*
G01X19948039Y-3860836D01*
G01X19936609Y-3872266D01*
G01X19925179Y-3877854D01*
G01X19919337Y-3877854D01*
G01X20041511Y-3792256D02*
G01X20110091Y-3792256D01*
G01X20110091Y-3780826D01*
G01X20104503Y-3769396D01*
G01X20098661Y-3763554D01*
G01X20087231Y-3757966D01*
G01X20070213Y-3757966D01*
G01X20058783Y-3763554D01*
G01X20047353Y-3774984D01*
G01X20041511Y-3792256D01*
G01X20041511Y-3803686D01*
G01X20047353Y-3820704D01*
G01X20058783Y-3832134D01*
G01X20070213Y-3837976D01*
G01X20087231Y-3837976D01*
G01X20098661Y-3832134D01*
G01X20110091Y-3820704D01*
G01X20157843Y-3757966D02*
G01X20157843Y-3837976D01*
G01X20157843Y-3792256D02*
G01X20163685Y-3774984D01*
G01X20175115Y-3763554D01*
G01X20186545Y-3757966D01*
G01X20203563Y-3757966D01*
G01X20251315Y-3786414D02*
G01X20354185Y-3786414D01*
G01X20401937Y-3717834D02*
G01X20401937Y-3837976D01*
G01X20401937Y-3717834D02*
G01X20453499Y-3717834D01*
G01X20470517Y-3723676D01*
G01X20476359Y-3729264D01*
G01X20481947Y-3740694D01*
G01X20481947Y-3752124D01*
G01X20476359Y-3763554D01*
G01X20470517Y-3769396D01*
G01X20453499Y-3774984D01*
G01X20401937Y-3774984D02*
G01X20453499Y-3774984D01*
G01X20470517Y-3780826D01*
G01X20476359Y-3786414D01*
G01X20481947Y-3797844D01*
G01X20481947Y-3815116D01*
G01X20476359Y-3826546D01*
G01X20470517Y-3832134D01*
G01X20453499Y-3837976D01*
G01X20401937Y-3837976D01*
G01X20558401Y-3757966D02*
G01X20546971Y-3763554D01*
G01X20535541Y-3774984D01*
G01X20529699Y-3792256D01*
G01X20529699Y-3803686D01*
G01X20535541Y-3820704D01*
G01X20546971Y-3832134D01*
G01X20558401Y-3837976D01*
G01X20575419Y-3837976D01*
G01X20586849Y-3832134D01*
G01X20598279Y-3820704D01*
G01X20604121Y-3803686D01*
G01X20604121Y-3792256D01*
G01X20598279Y-3774984D01*
G01X20586849Y-3763554D01*
G01X20575419Y-3757966D01*
G01X20558401Y-3757966D01*
G01X20669145Y-3717834D02*
G01X20669145Y-3815116D01*
G01X20674733Y-3832134D01*
G01X20686163Y-3837976D01*
G01X20697593Y-3837976D01*
G01X20651873Y-3757966D02*
G01X20692005Y-3757966D01*
G01X20762617Y-3717834D02*
G01X20762617Y-3815116D01*
G01X20768205Y-3832134D01*
G01X20779635Y-3837976D01*
G01X20791065Y-3837976D01*
G01X20745345Y-3757966D02*
G01X20785477Y-3757966D01*
G01X20867519Y-3757966D02*
G01X20856089Y-3763554D01*
G01X20844659Y-3774984D01*
G01X20838817Y-3792256D01*
G01X20838817Y-3803686D01*
G01X20844659Y-3820704D01*
G01X20856089Y-3832134D01*
G01X20867519Y-3837976D01*
G01X20884537Y-3837976D01*
G01X20895967Y-3832134D01*
G01X20907397Y-3820704D01*
G01X20913239Y-3803686D01*
G01X20913239Y-3792256D01*
G01X20907397Y-3774984D01*
G01X20895967Y-3763554D01*
G01X20884537Y-3757966D01*
G01X20867519Y-3757966D01*
G01X20960991Y-3757966D02*
G01X20960991Y-3837976D01*
G01X20960991Y-3780826D02*
G01X20978263Y-3763554D01*
G01X20989693Y-3757966D01*
G01X21006711Y-3757966D01*
G01X21018141Y-3763554D01*
G01X21023983Y-3780826D01*
G01X21023983Y-3837976D01*
G01X21023983Y-3780826D02*
G01X21041001Y-3763554D01*
G01X21052431Y-3757966D01*
G01X21069703Y-3757966D01*
G01X21081133Y-3763554D01*
G01X21086721Y-3780826D01*
G01X21086721Y-3837976D01*
G01X21262489Y-3717834D02*
G01X21262489Y-3837976D01*
G01X21262489Y-3837976D02*
G01X21331069Y-3837976D01*
G01X21447401Y-3757966D02*
G01X21447401Y-3837976D01*
G01X21447401Y-3774984D02*
G01X21435971Y-3763554D01*
G01X21424541Y-3757966D01*
G01X21407523Y-3757966D01*
G01X21396093Y-3763554D01*
G01X21384663Y-3774984D01*
G01X21378821Y-3792256D01*
G01X21378821Y-3803686D01*
G01X21384663Y-3820704D01*
G01X21396093Y-3832134D01*
G01X21407523Y-3837976D01*
G01X21424541Y-3837976D01*
G01X21435971Y-3832134D01*
G01X21447401Y-3820704D01*
G01X21500995Y-3757966D02*
G01X21535285Y-3837976D01*
G01X21569575Y-3757966D02*
G01X21535285Y-3837976D01*
G01X21523855Y-3860836D01*
G01X21512425Y-3872266D01*
G01X21500995Y-3877854D01*
G01X21495153Y-3877854D01*
G01X21617327Y-3792256D02*
G01X21685907Y-3792256D01*
G01X21685907Y-3780826D01*
G01X21680319Y-3769396D01*
G01X21674477Y-3763554D01*
G01X21663047Y-3757966D01*
G01X21646029Y-3757966D01*
G01X21634599Y-3763554D01*
G01X21623169Y-3774984D01*
G01X21617327Y-3792256D01*
G01X21617327Y-3803686D01*
G01X21623169Y-3820704D01*
G01X21634599Y-3832134D01*
G01X21646029Y-3837976D01*
G01X21663047Y-3837976D01*
G01X21674477Y-3832134D01*
G01X21685907Y-3820704D01*
G01X21733659Y-3757966D02*
G01X21733659Y-3837976D01*
G01X21733659Y-3792256D02*
G01X21739501Y-3774984D01*
G01X21750931Y-3763554D01*
G01X21762361Y-3757966D01*
G01X21779379Y-3757966D01*
G01X7471704Y-4298406D02*
G01X7534696Y-4298406D01*
G01X7500406Y-4344126D01*
G01X7517424Y-4344126D01*
G01X7528854Y-4349968D01*
G01X7534696Y-4355556D01*
G01X7540284Y-4372828D01*
G01X7540284Y-4384258D01*
G01X7534696Y-4401276D01*
G01X7523266Y-4412706D01*
G01X7505994Y-4418548D01*
G01X7488976Y-4418548D01*
G01X7471704Y-4412706D01*
G01X7466116Y-4407118D01*
G01X7460274Y-4395688D01*
G01X8943017Y-4298406D02*
G01X8885867Y-4298406D01*
G01X8880279Y-4349968D01*
G01X8885867Y-4344126D01*
G01X8903139Y-4338538D01*
G01X8920157Y-4338538D01*
G01X8937429Y-4344126D01*
G01X8948859Y-4355556D01*
G01X8954447Y-4372828D01*
G01X8954447Y-4384258D01*
G01X8948859Y-4401276D01*
G01X8937429Y-4412706D01*
G01X8920157Y-4418548D01*
G01X8903139Y-4418548D01*
G01X8885867Y-4412706D01*
G01X8880279Y-4407118D01*
G01X8874437Y-4395688D01*
G01X9002199Y-4321266D02*
G01X9013629Y-4315678D01*
G01X9030901Y-4298406D01*
G01X9030901Y-4418548D01*
G01X9084495Y-4389846D02*
G01X9078653Y-4395688D01*
G01X9084495Y-4401276D01*
G01X9090083Y-4395688D01*
G01X9084495Y-4389846D01*
G01X9143677Y-4327108D02*
G01X9143677Y-4321266D01*
G01X9149265Y-4309836D01*
G01X9155107Y-4304248D01*
G01X9166537Y-4298406D01*
G01X9189397Y-4298406D01*
G01X9200827Y-4304248D01*
G01X9206415Y-4309836D01*
G01X9212257Y-4321266D01*
G01X9212257Y-4332696D01*
G01X9206415Y-4344126D01*
G01X9194985Y-4361398D01*
G01X9137835Y-4418548D01*
G01X9217845Y-4418548D01*
G01X9265597Y-4338538D02*
G01X9328589Y-4418548D01*
G01X9328589Y-4338538D02*
G01X9265597Y-4418548D01*
G01X9444921Y-4298406D02*
G01X9387771Y-4298406D01*
G01X9382183Y-4349968D01*
G01X9387771Y-4344126D01*
G01X9405043Y-4338538D01*
G01X9422061Y-4338538D01*
G01X9439333Y-4344126D01*
G01X9450763Y-4355556D01*
G01X9456351Y-4372828D01*
G01X9456351Y-4384258D01*
G01X9450763Y-4401276D01*
G01X9439333Y-4412706D01*
G01X9422061Y-4418548D01*
G01X9405043Y-4418548D01*
G01X9387771Y-4412706D01*
G01X9382183Y-4407118D01*
G01X9376341Y-4395688D01*
G01X9504103Y-4321266D02*
G01X9515533Y-4315678D01*
G01X9532805Y-4298406D01*
G01X9532805Y-4418548D01*
G01X9586399Y-4389846D02*
G01X9580557Y-4395688D01*
G01X9586399Y-4401276D01*
G01X9591987Y-4395688D01*
G01X9586399Y-4389846D01*
G01X9645581Y-4327108D02*
G01X9645581Y-4321266D01*
G01X9651169Y-4309836D01*
G01X9657011Y-4304248D01*
G01X9668441Y-4298406D01*
G01X9691301Y-4298406D01*
G01X9702731Y-4304248D01*
G01X9708319Y-4309836D01*
G01X9714161Y-4321266D01*
G01X9714161Y-4332696D01*
G01X9708319Y-4344126D01*
G01X9696889Y-4361398D01*
G01X9639739Y-4418548D01*
G01X9719749Y-4418548D01*
G01X9767501Y-4338538D02*
G01X9767501Y-4418548D01*
G01X9767501Y-4361398D02*
G01X9784773Y-4344126D01*
G01X9796203Y-4338538D01*
G01X9813221Y-4338538D01*
G01X9824651Y-4344126D01*
G01X9830493Y-4361398D01*
G01X9830493Y-4418548D01*
G01X9830493Y-4361398D02*
G01X9847511Y-4344126D01*
G01X9858941Y-4338538D01*
G01X9876213Y-4338538D01*
G01X9887643Y-4344126D01*
G01X9893231Y-4361398D01*
G01X9893231Y-4418548D01*
G01X9940983Y-4298406D02*
G01X9946825Y-4304248D01*
G01X9952413Y-4298406D01*
G01X9946825Y-4292818D01*
G01X9940983Y-4298406D01*
G01X9946825Y-4338538D02*
G01X9946825Y-4418548D01*
G01X10000165Y-4298406D02*
G01X10000165Y-4418548D01*
G01X10088049Y-4275546D02*
G01X10076619Y-4286976D01*
G01X10065189Y-4304248D01*
G01X10053759Y-4327108D01*
G01X10047917Y-4355556D01*
G01X10047917Y-4378416D01*
G01X10053759Y-4407118D01*
G01X10065189Y-4429978D01*
G01X10076619Y-4446996D01*
G01X10088049Y-4458426D01*
G01X10135801Y-4321266D02*
G01X10147231Y-4315678D01*
G01X10164503Y-4298406D01*
G01X10164503Y-4418548D01*
G01X10218097Y-4389846D02*
G01X10212255Y-4395688D01*
G01X10218097Y-4401276D01*
G01X10223685Y-4395688D01*
G01X10218097Y-4389846D01*
G01X10282867Y-4298406D02*
G01X10345859Y-4298406D01*
G01X10311569Y-4344126D01*
G01X10328587Y-4344126D01*
G01X10340017Y-4349968D01*
G01X10345859Y-4355556D01*
G01X10351447Y-4372828D01*
G01X10351447Y-4384258D01*
G01X10345859Y-4401276D01*
G01X10334429Y-4412706D01*
G01X10317157Y-4418548D01*
G01X10300139Y-4418548D01*
G01X10282867Y-4412706D01*
G01X10277279Y-4407118D01*
G01X10271437Y-4395688D01*
G01X10433489Y-4298406D02*
G01X10416471Y-4304248D01*
G01X10405041Y-4321266D01*
G01X10399199Y-4349968D01*
G01X10399199Y-4366986D01*
G01X10405041Y-4395688D01*
G01X10416471Y-4412706D01*
G01X10433489Y-4418548D01*
G01X10444919Y-4418548D01*
G01X10462191Y-4412706D01*
G01X10473621Y-4395688D01*
G01X10479209Y-4366986D01*
G01X10479209Y-4349968D01*
G01X10473621Y-4321266D01*
G01X10462191Y-4304248D01*
G01X10444919Y-4298406D01*
G01X10433489Y-4298406D01*
G01X10561251Y-4298406D02*
G01X10544233Y-4304248D01*
G01X10532803Y-4321266D01*
G01X10526961Y-4349968D01*
G01X10526961Y-4366986D01*
G01X10532803Y-4395688D01*
G01X10544233Y-4412706D01*
G01X10561251Y-4418548D01*
G01X10572681Y-4418548D01*
G01X10589953Y-4412706D01*
G01X10601383Y-4395688D01*
G01X10606971Y-4366986D01*
G01X10606971Y-4349968D01*
G01X10601383Y-4321266D01*
G01X10589953Y-4304248D01*
G01X10572681Y-4298406D01*
G01X10561251Y-4298406D01*
G01X10654723Y-4338538D02*
G01X10717715Y-4418548D01*
G01X10717715Y-4338538D02*
G01X10654723Y-4418548D01*
G01X10765467Y-4321266D02*
G01X10776897Y-4315678D01*
G01X10794169Y-4298406D01*
G01X10794169Y-4418548D01*
G01X10847763Y-4389846D02*
G01X10841921Y-4395688D01*
G01X10847763Y-4401276D01*
G01X10853351Y-4395688D01*
G01X10847763Y-4389846D01*
G01X10912533Y-4298406D02*
G01X10975525Y-4298406D01*
G01X10941235Y-4344126D01*
G01X10958253Y-4344126D01*
G01X10969683Y-4349968D01*
G01X10975525Y-4355556D01*
G01X10981113Y-4372828D01*
G01X10981113Y-4384258D01*
G01X10975525Y-4401276D01*
G01X10964095Y-4412706D01*
G01X10946823Y-4418548D01*
G01X10929805Y-4418548D01*
G01X10912533Y-4412706D01*
G01X10906945Y-4407118D01*
G01X10901103Y-4395688D01*
G01X11063155Y-4298406D02*
G01X11046137Y-4304248D01*
G01X11034707Y-4321266D01*
G01X11028865Y-4349968D01*
G01X11028865Y-4366986D01*
G01X11034707Y-4395688D01*
G01X11046137Y-4412706D01*
G01X11063155Y-4418548D01*
G01X11074585Y-4418548D01*
G01X11091857Y-4412706D01*
G01X11103287Y-4395688D01*
G01X11108875Y-4366986D01*
G01X11108875Y-4349968D01*
G01X11103287Y-4321266D01*
G01X11091857Y-4304248D01*
G01X11074585Y-4298406D01*
G01X11063155Y-4298406D01*
G01X11190917Y-4298406D02*
G01X11173899Y-4304248D01*
G01X11162469Y-4321266D01*
G01X11156627Y-4349968D01*
G01X11156627Y-4366986D01*
G01X11162469Y-4395688D01*
G01X11173899Y-4412706D01*
G01X11190917Y-4418548D01*
G01X11202347Y-4418548D01*
G01X11219619Y-4412706D01*
G01X11231049Y-4395688D01*
G01X11236637Y-4366986D01*
G01X11236637Y-4349968D01*
G01X11231049Y-4321266D01*
G01X11219619Y-4304248D01*
G01X11202347Y-4298406D01*
G01X11190917Y-4298406D01*
G01X11284389Y-4338538D02*
G01X11284389Y-4418548D01*
G01X11284389Y-4361398D02*
G01X11301661Y-4344126D01*
G01X11313091Y-4338538D01*
G01X11330109Y-4338538D01*
G01X11341539Y-4344126D01*
G01X11347381Y-4361398D01*
G01X11347381Y-4418548D01*
G01X11347381Y-4361398D02*
G01X11364399Y-4344126D01*
G01X11375829Y-4338538D01*
G01X11393101Y-4338538D01*
G01X11404531Y-4344126D01*
G01X11410119Y-4361398D01*
G01X11410119Y-4418548D01*
G01X11457871Y-4338538D02*
G01X11457871Y-4418548D01*
G01X11457871Y-4361398D02*
G01X11475143Y-4344126D01*
G01X11486573Y-4338538D01*
G01X11503591Y-4338538D01*
G01X11515021Y-4344126D01*
G01X11520863Y-4361398D01*
G01X11520863Y-4418548D01*
G01X11520863Y-4361398D02*
G01X11537881Y-4344126D01*
G01X11549311Y-4338538D01*
G01X11566583Y-4338538D01*
G01X11578013Y-4344126D01*
G01X11583601Y-4361398D01*
G01X11583601Y-4418548D01*
G01X11631353Y-4275546D02*
G01X11642783Y-4286976D01*
G01X11654213Y-4304248D01*
G01X11665643Y-4327108D01*
G01X11671485Y-4355556D01*
G01X11671485Y-4378416D01*
G01X11665643Y-4407118D01*
G01X11654213Y-4429978D01*
G01X11642783Y-4446996D01*
G01X11631353Y-4458426D01*
G01X12711253Y-4298406D02*
G01X12711253Y-4418548D01*
G01X12711253Y-4298406D02*
G01X12762815Y-4298406D01*
G01X12779833Y-4304248D01*
G01X12785675Y-4309836D01*
G01X12791263Y-4321266D01*
G01X12791263Y-4338538D01*
G01X12785675Y-4349968D01*
G01X12779833Y-4355556D01*
G01X12762815Y-4361398D01*
G01X12711253Y-4361398D01*
G01X12879147Y-4298406D02*
G01X12879147Y-4418548D01*
G01X12839015Y-4298406D02*
G01X12919025Y-4298406D01*
G01X12966777Y-4298406D02*
G01X12966777Y-4418548D01*
G01X13046787Y-4298406D02*
G01X13046787Y-4418548D01*
G01X12966777Y-4355556D02*
G01X13046787Y-4355556D01*
G01X14172660Y-4298406D02*
G01X14172660Y-4418548D01*
G01X14172660Y-4298406D02*
G01X14224222Y-4298406D01*
G01X14241240Y-4304248D01*
G01X14247082Y-4309836D01*
G01X14252670Y-4321266D01*
G01X14252670Y-4332696D01*
G01X14247082Y-4344126D01*
G01X14241240Y-4349968D01*
G01X14224222Y-4355556D01*
G01X14172660Y-4355556D01*
G01X14212792Y-4355556D02*
G01X14252670Y-4418548D01*
G01X14329124Y-4338538D02*
G01X14317694Y-4344126D01*
G01X14306264Y-4355556D01*
G01X14300422Y-4372828D01*
G01X14300422Y-4384258D01*
G01X14306264Y-4401276D01*
G01X14317694Y-4412706D01*
G01X14329124Y-4418548D01*
G01X14346142Y-4418548D01*
G01X14357572Y-4412706D01*
G01X14369002Y-4401276D01*
G01X14374844Y-4384258D01*
G01X14374844Y-4372828D01*
G01X14369002Y-4355556D01*
G01X14357572Y-4344126D01*
G01X14346142Y-4338538D01*
G01X14329124Y-4338538D01*
G01X14422596Y-4338538D02*
G01X14422596Y-4395688D01*
G01X14428438Y-4412706D01*
G01X14439868Y-4418548D01*
G01X14456886Y-4418548D01*
G01X14468316Y-4412706D01*
G01X14485588Y-4395688D01*
G01X14485588Y-4338538D02*
G01X14485588Y-4418548D01*
G01X14533340Y-4338538D02*
G01X14533340Y-4418548D01*
G01X14533340Y-4361398D02*
G01X14550612Y-4344126D01*
G01X14562042Y-4338538D01*
G01X14579060Y-4338538D01*
G01X14590490Y-4344126D01*
G01X14596332Y-4361398D01*
G01X14596332Y-4418548D01*
G01X14712664Y-4298406D02*
G01X14712664Y-4418548D01*
G01X14712664Y-4355556D02*
G01X14701234Y-4344126D01*
G01X14689804Y-4338538D01*
G01X14672786Y-4338538D01*
G01X14661356Y-4344126D01*
G01X14649926Y-4355556D01*
G01X14644084Y-4372828D01*
G01X14644084Y-4384258D01*
G01X14649926Y-4401276D01*
G01X14661356Y-4412706D01*
G01X14672786Y-4418548D01*
G01X14689804Y-4418548D01*
G01X14701234Y-4412706D01*
G01X14712664Y-4401276D01*
G01X15603841Y-4298406D02*
G01X15603841Y-4418548D01*
G01X15603841Y-4298406D02*
G01X15655403Y-4298406D01*
G01X15672421Y-4304248D01*
G01X15678263Y-4309836D01*
G01X15683851Y-4321266D01*
G01X15683851Y-4338538D01*
G01X15678263Y-4349968D01*
G01X15672421Y-4355556D01*
G01X15655403Y-4361398D01*
G01X15603841Y-4361398D01*
G01X15800183Y-4338538D02*
G01X15800183Y-4418548D01*
G01X15800183Y-4355556D02*
G01X15788753Y-4344126D01*
G01X15777323Y-4338538D01*
G01X15760305Y-4338538D01*
G01X15748875Y-4344126D01*
G01X15737445Y-4355556D01*
G01X15731603Y-4372828D01*
G01X15731603Y-4384258D01*
G01X15737445Y-4401276D01*
G01X15748875Y-4412706D01*
G01X15760305Y-4418548D01*
G01X15777323Y-4418548D01*
G01X15788753Y-4412706D01*
G01X15800183Y-4401276D01*
G01X15916515Y-4298406D02*
G01X15916515Y-4418548D01*
G01X15916515Y-4355556D02*
G01X15905085Y-4344126D01*
G01X15893655Y-4338538D01*
G01X15876637Y-4338538D01*
G01X15865207Y-4344126D01*
G01X15853777Y-4355556D01*
G01X15847935Y-4372828D01*
G01X15847935Y-4384258D01*
G01X15853777Y-4401276D01*
G01X15865207Y-4412706D01*
G01X15876637Y-4418548D01*
G01X15893655Y-4418548D01*
G01X15905085Y-4412706D01*
G01X15916515Y-4401276D01*
G01X17273020Y-4298406D02*
G01X17273020Y-4418548D01*
G01X17273020Y-4298406D02*
G01X17324582Y-4298406D01*
G01X17341600Y-4304248D01*
G01X17347442Y-4309836D01*
G01X17353030Y-4321266D01*
G01X17353030Y-4332696D01*
G01X17347442Y-4344126D01*
G01X17341600Y-4349968D01*
G01X17324582Y-4355556D01*
G01X17273020Y-4355556D01*
G01X17313152Y-4355556D02*
G01X17353030Y-4418548D01*
G01X17429484Y-4338538D02*
G01X17418054Y-4344126D01*
G01X17406624Y-4355556D01*
G01X17400782Y-4372828D01*
G01X17400782Y-4384258D01*
G01X17406624Y-4401276D01*
G01X17418054Y-4412706D01*
G01X17429484Y-4418548D01*
G01X17446502Y-4418548D01*
G01X17457932Y-4412706D01*
G01X17469362Y-4401276D01*
G01X17475204Y-4384258D01*
G01X17475204Y-4372828D01*
G01X17469362Y-4355556D01*
G01X17457932Y-4344126D01*
G01X17446502Y-4338538D01*
G01X17429484Y-4338538D01*
G01X17522956Y-4338538D02*
G01X17522956Y-4395688D01*
G01X17528798Y-4412706D01*
G01X17540228Y-4418548D01*
G01X17557246Y-4418548D01*
G01X17568676Y-4412706D01*
G01X17585948Y-4395688D01*
G01X17585948Y-4338538D02*
G01X17585948Y-4418548D01*
G01X17633700Y-4338538D02*
G01X17633700Y-4418548D01*
G01X17633700Y-4361398D02*
G01X17650972Y-4344126D01*
G01X17662402Y-4338538D01*
G01X17679420Y-4338538D01*
G01X17690850Y-4344126D01*
G01X17696692Y-4361398D01*
G01X17696692Y-4418548D01*
G01X17813024Y-4298406D02*
G01X17813024Y-4418548D01*
G01X17813024Y-4355556D02*
G01X17801594Y-4344126D01*
G01X17790164Y-4338538D01*
G01X17773146Y-4338538D01*
G01X17761716Y-4344126D01*
G01X17750286Y-4355556D01*
G01X17744444Y-4372828D01*
G01X17744444Y-4384258D01*
G01X17750286Y-4401276D01*
G01X17761716Y-4412706D01*
G01X17773146Y-4418548D01*
G01X17790164Y-4418548D01*
G01X17801594Y-4412706D01*
G01X17813024Y-4401276D01*
G01X19232521Y-4298406D02*
G01X19232521Y-4418548D01*
G01X19192389Y-4298406D02*
G01X19272399Y-4298406D01*
G01X19348853Y-4338538D02*
G01X19337423Y-4344126D01*
G01X19325993Y-4355556D01*
G01X19320151Y-4372828D01*
G01X19320151Y-4384258D01*
G01X19325993Y-4401276D01*
G01X19337423Y-4412706D01*
G01X19348853Y-4418548D01*
G01X19365871Y-4418548D01*
G01X19377301Y-4412706D01*
G01X19388731Y-4401276D01*
G01X19394573Y-4384258D01*
G01X19394573Y-4372828D01*
G01X19388731Y-4355556D01*
G01X19377301Y-4344126D01*
G01X19365871Y-4338538D01*
G01X19348853Y-4338538D01*
G01X19442325Y-4338538D02*
G01X19442325Y-4458426D01*
G01X19442325Y-4355556D02*
G01X19453755Y-4344126D01*
G01X19465185Y-4338538D01*
G01X19482457Y-4338538D01*
G01X19493887Y-4344126D01*
G01X19505317Y-4355556D01*
G01X19510905Y-4372828D01*
G01X19510905Y-4384258D01*
G01X19505317Y-4401276D01*
G01X19493887Y-4412706D01*
G01X19482457Y-4418548D01*
G01X19465185Y-4418548D01*
G01X19453755Y-4412706D01*
G01X19442325Y-4401276D01*
G01X19686673Y-4298406D02*
G01X19686673Y-4418548D01*
G01X19686673Y-4418548D02*
G01X19755253Y-4418548D01*
G01X19871585Y-4338538D02*
G01X19871585Y-4418548D01*
G01X19871585Y-4355556D02*
G01X19860155Y-4344126D01*
G01X19848725Y-4338538D01*
G01X19831707Y-4338538D01*
G01X19820277Y-4344126D01*
G01X19808847Y-4355556D01*
G01X19803005Y-4372828D01*
G01X19803005Y-4384258D01*
G01X19808847Y-4401276D01*
G01X19820277Y-4412706D01*
G01X19831707Y-4418548D01*
G01X19848725Y-4418548D01*
G01X19860155Y-4412706D01*
G01X19871585Y-4401276D01*
G01X19925179Y-4338538D02*
G01X19959469Y-4418548D01*
G01X19993759Y-4338538D02*
G01X19959469Y-4418548D01*
G01X19948039Y-4441408D01*
G01X19936609Y-4452838D01*
G01X19925179Y-4458426D01*
G01X19919337Y-4458426D01*
G01X20041511Y-4372828D02*
G01X20110091Y-4372828D01*
G01X20110091Y-4361398D01*
G01X20104503Y-4349968D01*
G01X20098661Y-4344126D01*
G01X20087231Y-4338538D01*
G01X20070213Y-4338538D01*
G01X20058783Y-4344126D01*
G01X20047353Y-4355556D01*
G01X20041511Y-4372828D01*
G01X20041511Y-4384258D01*
G01X20047353Y-4401276D01*
G01X20058783Y-4412706D01*
G01X20070213Y-4418548D01*
G01X20087231Y-4418548D01*
G01X20098661Y-4412706D01*
G01X20110091Y-4401276D01*
G01X20157843Y-4338538D02*
G01X20157843Y-4418548D01*
G01X20157843Y-4372828D02*
G01X20163685Y-4355556D01*
G01X20175115Y-4344126D01*
G01X20186545Y-4338538D01*
G01X20203563Y-4338538D01*
G01X20251315Y-4366986D02*
G01X20354185Y-4366986D01*
G01X20401937Y-4298406D02*
G01X20401937Y-4418548D01*
G01X20401937Y-4298406D02*
G01X20453499Y-4298406D01*
G01X20470517Y-4304248D01*
G01X20476359Y-4309836D01*
G01X20481947Y-4321266D01*
G01X20481947Y-4332696D01*
G01X20476359Y-4344126D01*
G01X20470517Y-4349968D01*
G01X20453499Y-4355556D01*
G01X20401937Y-4355556D02*
G01X20453499Y-4355556D01*
G01X20470517Y-4361398D01*
G01X20476359Y-4366986D01*
G01X20481947Y-4378416D01*
G01X20481947Y-4395688D01*
G01X20476359Y-4407118D01*
G01X20470517Y-4412706D01*
G01X20453499Y-4418548D01*
G01X20401937Y-4418548D01*
G01X20558401Y-4338538D02*
G01X20546971Y-4344126D01*
G01X20535541Y-4355556D01*
G01X20529699Y-4372828D01*
G01X20529699Y-4384258D01*
G01X20535541Y-4401276D01*
G01X20546971Y-4412706D01*
G01X20558401Y-4418548D01*
G01X20575419Y-4418548D01*
G01X20586849Y-4412706D01*
G01X20598279Y-4401276D01*
G01X20604121Y-4384258D01*
G01X20604121Y-4372828D01*
G01X20598279Y-4355556D01*
G01X20586849Y-4344126D01*
G01X20575419Y-4338538D01*
G01X20558401Y-4338538D01*
G01X20669145Y-4298406D02*
G01X20669145Y-4395688D01*
G01X20674733Y-4412706D01*
G01X20686163Y-4418548D01*
G01X20697593Y-4418548D01*
G01X20651873Y-4338538D02*
G01X20692005Y-4338538D01*
G01X20762617Y-4298406D02*
G01X20762617Y-4395688D01*
G01X20768205Y-4412706D01*
G01X20779635Y-4418548D01*
G01X20791065Y-4418548D01*
G01X20745345Y-4338538D02*
G01X20785477Y-4338538D01*
G01X20867519Y-4338538D02*
G01X20856089Y-4344126D01*
G01X20844659Y-4355556D01*
G01X20838817Y-4372828D01*
G01X20838817Y-4384258D01*
G01X20844659Y-4401276D01*
G01X20856089Y-4412706D01*
G01X20867519Y-4418548D01*
G01X20884537Y-4418548D01*
G01X20895967Y-4412706D01*
G01X20907397Y-4401276D01*
G01X20913239Y-4384258D01*
G01X20913239Y-4372828D01*
G01X20907397Y-4355556D01*
G01X20895967Y-4344126D01*
G01X20884537Y-4338538D01*
G01X20867519Y-4338538D01*
G01X20960991Y-4338538D02*
G01X20960991Y-4418548D01*
G01X20960991Y-4361398D02*
G01X20978263Y-4344126D01*
G01X20989693Y-4338538D01*
G01X21006711Y-4338538D01*
G01X21018141Y-4344126D01*
G01X21023983Y-4361398D01*
G01X21023983Y-4418548D01*
G01X21023983Y-4361398D02*
G01X21041001Y-4344126D01*
G01X21052431Y-4338538D01*
G01X21069703Y-4338538D01*
G01X21081133Y-4344126D01*
G01X21086721Y-4361398D01*
G01X21086721Y-4418548D01*
G01X21262489Y-4298406D02*
G01X21262489Y-4418548D01*
G01X21262489Y-4418548D02*
G01X21331069Y-4418548D01*
G01X21447401Y-4338538D02*
G01X21447401Y-4418548D01*
G01X21447401Y-4355556D02*
G01X21435971Y-4344126D01*
G01X21424541Y-4338538D01*
G01X21407523Y-4338538D01*
G01X21396093Y-4344126D01*
G01X21384663Y-4355556D01*
G01X21378821Y-4372828D01*
G01X21378821Y-4384258D01*
G01X21384663Y-4401276D01*
G01X21396093Y-4412706D01*
G01X21407523Y-4418548D01*
G01X21424541Y-4418548D01*
G01X21435971Y-4412706D01*
G01X21447401Y-4401276D01*
G01X21500995Y-4338538D02*
G01X21535285Y-4418548D01*
G01X21569575Y-4338538D02*
G01X21535285Y-4418548D01*
G01X21523855Y-4441408D01*
G01X21512425Y-4452838D01*
G01X21500995Y-4458426D01*
G01X21495153Y-4458426D01*
G01X21617327Y-4372828D02*
G01X21685907Y-4372828D01*
G01X21685907Y-4361398D01*
G01X21680319Y-4349968D01*
G01X21674477Y-4344126D01*
G01X21663047Y-4338538D01*
G01X21646029Y-4338538D01*
G01X21634599Y-4344126D01*
G01X21623169Y-4355556D01*
G01X21617327Y-4372828D01*
G01X21617327Y-4384258D01*
G01X21623169Y-4401276D01*
G01X21634599Y-4412706D01*
G01X21646029Y-4418548D01*
G01X21663047Y-4418548D01*
G01X21674477Y-4412706D01*
G01X21685907Y-4401276D01*
G01X21733659Y-4338538D02*
G01X21733659Y-4418548D01*
G01X21733659Y-4372828D02*
G01X21739501Y-4355556D01*
G01X21750931Y-4344126D01*
G01X21762361Y-4338538D01*
G01X21779379Y-4338538D01*
G01X7517424Y-4878977D02*
G01X7460274Y-4958987D01*
G01X7546126Y-4958987D01*
G01X7517424Y-4878977D02*
G01X7517424Y-4999119D01*
G01X8885867Y-4878977D02*
G01X8948859Y-4878977D01*
G01X8914569Y-4924697D01*
G01X8931587Y-4924697D01*
G01X8943017Y-4930539D01*
G01X8948859Y-4936127D01*
G01X8954447Y-4953399D01*
G01X8954447Y-4964829D01*
G01X8948859Y-4981847D01*
G01X8937429Y-4993277D01*
G01X8920157Y-4999119D01*
G01X8903139Y-4999119D01*
G01X8885867Y-4993277D01*
G01X8880279Y-4987689D01*
G01X8874437Y-4976259D01*
G01X9070779Y-4896249D02*
G01X9065191Y-4884819D01*
G01X9047919Y-4878977D01*
G01X9036489Y-4878977D01*
G01X9019471Y-4884819D01*
G01X9008041Y-4901837D01*
G01X9002199Y-4930539D01*
G01X9002199Y-4958987D01*
G01X9008041Y-4981847D01*
G01X9019471Y-4993277D01*
G01X9036489Y-4999119D01*
G01X9042331Y-4999119D01*
G01X9059349Y-4993277D01*
G01X9070779Y-4981847D01*
G01X9076621Y-4964829D01*
G01X9076621Y-4958987D01*
G01X9070779Y-4941969D01*
G01X9059349Y-4930539D01*
G01X9042331Y-4924697D01*
G01X9036489Y-4924697D01*
G01X9019471Y-4930539D01*
G01X9008041Y-4941969D01*
G01X9002199Y-4958987D01*
G01X9130215Y-4970417D02*
G01X9124373Y-4976259D01*
G01X9130215Y-4981847D01*
G01X9135803Y-4976259D01*
G01X9130215Y-4970417D01*
G01X9217845Y-4878977D02*
G01X9200827Y-4884819D01*
G01X9189397Y-4901837D01*
G01X9183555Y-4930539D01*
G01X9183555Y-4947557D01*
G01X9189397Y-4976259D01*
G01X9200827Y-4993277D01*
G01X9217845Y-4999119D01*
G01X9229275Y-4999119D01*
G01X9246547Y-4993277D01*
G01X9257977Y-4976259D01*
G01X9263565Y-4947557D01*
G01X9263565Y-4930539D01*
G01X9257977Y-4901837D01*
G01X9246547Y-4884819D01*
G01X9229275Y-4878977D01*
G01X9217845Y-4878977D01*
G01X9311317Y-4919109D02*
G01X9374309Y-4999119D01*
G01X9374309Y-4919109D02*
G01X9311317Y-4999119D01*
G01X9433491Y-4878977D02*
G01X9496483Y-4878977D01*
G01X9462193Y-4924697D01*
G01X9479211Y-4924697D01*
G01X9490641Y-4930539D01*
G01X9496483Y-4936127D01*
G01X9502071Y-4953399D01*
G01X9502071Y-4964829D01*
G01X9496483Y-4981847D01*
G01X9485053Y-4993277D01*
G01X9467781Y-4999119D01*
G01X9450763Y-4999119D01*
G01X9433491Y-4993277D01*
G01X9427903Y-4987689D01*
G01X9422061Y-4976259D01*
G01X9618403Y-4896249D02*
G01X9612815Y-4884819D01*
G01X9595543Y-4878977D01*
G01X9584113Y-4878977D01*
G01X9567095Y-4884819D01*
G01X9555665Y-4901837D01*
G01X9549823Y-4930539D01*
G01X9549823Y-4958987D01*
G01X9555665Y-4981847D01*
G01X9567095Y-4993277D01*
G01X9584113Y-4999119D01*
G01X9589955Y-4999119D01*
G01X9606973Y-4993277D01*
G01X9618403Y-4981847D01*
G01X9624245Y-4964829D01*
G01X9624245Y-4958987D01*
G01X9618403Y-4941969D01*
G01X9606973Y-4930539D01*
G01X9589955Y-4924697D01*
G01X9584113Y-4924697D01*
G01X9567095Y-4930539D01*
G01X9555665Y-4941969D01*
G01X9549823Y-4958987D01*
G01X9677839Y-4970417D02*
G01X9671997Y-4976259D01*
G01X9677839Y-4981847D01*
G01X9683427Y-4976259D01*
G01X9677839Y-4970417D01*
G01X9765469Y-4878977D02*
G01X9748451Y-4884819D01*
G01X9737021Y-4901837D01*
G01X9731179Y-4930539D01*
G01X9731179Y-4947557D01*
G01X9737021Y-4976259D01*
G01X9748451Y-4993277D01*
G01X9765469Y-4999119D01*
G01X9776899Y-4999119D01*
G01X9794171Y-4993277D01*
G01X9805601Y-4976259D01*
G01X9811189Y-4947557D01*
G01X9811189Y-4930539D01*
G01X9805601Y-4901837D01*
G01X9794171Y-4884819D01*
G01X9776899Y-4878977D01*
G01X9765469Y-4878977D01*
G01X9858941Y-4919109D02*
G01X9858941Y-4999119D01*
G01X9858941Y-4941969D02*
G01X9876213Y-4924697D01*
G01X9887643Y-4919109D01*
G01X9904661Y-4919109D01*
G01X9916091Y-4924697D01*
G01X9921933Y-4941969D01*
G01X9921933Y-4999119D01*
G01X9921933Y-4941969D02*
G01X9938951Y-4924697D01*
G01X9950381Y-4919109D01*
G01X9967653Y-4919109D01*
G01X9979083Y-4924697D01*
G01X9984671Y-4941969D01*
G01X9984671Y-4999119D01*
G01X10032423Y-4878977D02*
G01X10038265Y-4884819D01*
G01X10043853Y-4878977D01*
G01X10038265Y-4873389D01*
G01X10032423Y-4878977D01*
G01X10038265Y-4919109D02*
G01X10038265Y-4999119D01*
G01X10091605Y-4878977D02*
G01X10091605Y-4999119D01*
G01X10179489Y-4856117D02*
G01X10168059Y-4867547D01*
G01X10156629Y-4884819D01*
G01X10145199Y-4907679D01*
G01X10139357Y-4936127D01*
G01X10139357Y-4958987D01*
G01X10145199Y-4987689D01*
G01X10156629Y-5010549D01*
G01X10168059Y-5027567D01*
G01X10179489Y-5038997D01*
G01X10261531Y-4878977D02*
G01X10244513Y-4884819D01*
G01X10233083Y-4901837D01*
G01X10227241Y-4930539D01*
G01X10227241Y-4947557D01*
G01X10233083Y-4976259D01*
G01X10244513Y-4993277D01*
G01X10261531Y-4999119D01*
G01X10272961Y-4999119D01*
G01X10290233Y-4993277D01*
G01X10301663Y-4976259D01*
G01X10307251Y-4947557D01*
G01X10307251Y-4930539D01*
G01X10301663Y-4901837D01*
G01X10290233Y-4884819D01*
G01X10272961Y-4878977D01*
G01X10261531Y-4878977D01*
G01X10360845Y-4970417D02*
G01X10355003Y-4976259D01*
G01X10360845Y-4981847D01*
G01X10366433Y-4976259D01*
G01X10360845Y-4970417D01*
G01X10488607Y-4919109D02*
G01X10482765Y-4936127D01*
G01X10471335Y-4947557D01*
G01X10454317Y-4953399D01*
G01X10448475Y-4953399D01*
G01X10431457Y-4947557D01*
G01X10420027Y-4936127D01*
G01X10414185Y-4919109D01*
G01X10414185Y-4913267D01*
G01X10420027Y-4896249D01*
G01X10431457Y-4884819D01*
G01X10448475Y-4878977D01*
G01X10454317Y-4878977D01*
G01X10471335Y-4884819D01*
G01X10482765Y-4896249D01*
G01X10488607Y-4919109D01*
G01X10488607Y-4947557D01*
G01X10482765Y-4976259D01*
G01X10471335Y-4993277D01*
G01X10454317Y-4999119D01*
G01X10442887Y-4999119D01*
G01X10425615Y-4993277D01*
G01X10420027Y-4981847D01*
G01X10536359Y-4901837D02*
G01X10547789Y-4896249D01*
G01X10565061Y-4878977D01*
G01X10565061Y-4999119D01*
G01X10669963Y-4878977D02*
G01X10612813Y-4958987D01*
G01X10698665Y-4958987D01*
G01X10669963Y-4878977D02*
G01X10669963Y-4999119D01*
G01X10746417Y-4919109D02*
G01X10809409Y-4999119D01*
G01X10809409Y-4919109D02*
G01X10746417Y-4999119D01*
G01X10891451Y-4878977D02*
G01X10874433Y-4884819D01*
G01X10863003Y-4901837D01*
G01X10857161Y-4930539D01*
G01X10857161Y-4947557D01*
G01X10863003Y-4976259D01*
G01X10874433Y-4993277D01*
G01X10891451Y-4999119D01*
G01X10902881Y-4999119D01*
G01X10920153Y-4993277D01*
G01X10931583Y-4976259D01*
G01X10937171Y-4947557D01*
G01X10937171Y-4930539D01*
G01X10931583Y-4901837D01*
G01X10920153Y-4884819D01*
G01X10902881Y-4878977D01*
G01X10891451Y-4878977D01*
G01X10990765Y-4970417D02*
G01X10984923Y-4976259D01*
G01X10990765Y-4981847D01*
G01X10996353Y-4976259D01*
G01X10990765Y-4970417D01*
G01X11118527Y-4919109D02*
G01X11112685Y-4936127D01*
G01X11101255Y-4947557D01*
G01X11084237Y-4953399D01*
G01X11078395Y-4953399D01*
G01X11061377Y-4947557D01*
G01X11049947Y-4936127D01*
G01X11044105Y-4919109D01*
G01X11044105Y-4913267D01*
G01X11049947Y-4896249D01*
G01X11061377Y-4884819D01*
G01X11078395Y-4878977D01*
G01X11084237Y-4878977D01*
G01X11101255Y-4884819D01*
G01X11112685Y-4896249D01*
G01X11118527Y-4919109D01*
G01X11118527Y-4947557D01*
G01X11112685Y-4976259D01*
G01X11101255Y-4993277D01*
G01X11084237Y-4999119D01*
G01X11072807Y-4999119D01*
G01X11055535Y-4993277D01*
G01X11049947Y-4981847D01*
G01X11166279Y-4901837D02*
G01X11177709Y-4896249D01*
G01X11194981Y-4878977D01*
G01X11194981Y-4999119D01*
G01X11299883Y-4878977D02*
G01X11242733Y-4958987D01*
G01X11328585Y-4958987D01*
G01X11299883Y-4878977D02*
G01X11299883Y-4999119D01*
G01X11376337Y-4919109D02*
G01X11376337Y-4999119D01*
G01X11376337Y-4941969D02*
G01X11393609Y-4924697D01*
G01X11405039Y-4919109D01*
G01X11422057Y-4919109D01*
G01X11433487Y-4924697D01*
G01X11439329Y-4941969D01*
G01X11439329Y-4999119D01*
G01X11439329Y-4941969D02*
G01X11456347Y-4924697D01*
G01X11467777Y-4919109D01*
G01X11485049Y-4919109D01*
G01X11496479Y-4924697D01*
G01X11502067Y-4941969D01*
G01X11502067Y-4999119D01*
G01X11549819Y-4919109D02*
G01X11549819Y-4999119D01*
G01X11549819Y-4941969D02*
G01X11567091Y-4924697D01*
G01X11578521Y-4919109D01*
G01X11595539Y-4919109D01*
G01X11606969Y-4924697D01*
G01X11612811Y-4941969D01*
G01X11612811Y-4999119D01*
G01X11612811Y-4941969D02*
G01X11629829Y-4924697D01*
G01X11641259Y-4919109D01*
G01X11658531Y-4919109D01*
G01X11669961Y-4924697D01*
G01X11675549Y-4941969D01*
G01X11675549Y-4999119D01*
G01X11723301Y-4856117D02*
G01X11734731Y-4867547D01*
G01X11746161Y-4884819D01*
G01X11757591Y-4907679D01*
G01X11763433Y-4936127D01*
G01X11763433Y-4958987D01*
G01X11757591Y-4987689D01*
G01X11746161Y-5010549D01*
G01X11734731Y-5027567D01*
G01X11723301Y-5038997D01*
G01X12711253Y-4878977D02*
G01X12711253Y-4999119D01*
G01X12711253Y-4878977D02*
G01X12762815Y-4878977D01*
G01X12779833Y-4884819D01*
G01X12785675Y-4890407D01*
G01X12791263Y-4901837D01*
G01X12791263Y-4919109D01*
G01X12785675Y-4930539D01*
G01X12779833Y-4936127D01*
G01X12762815Y-4941969D01*
G01X12711253Y-4941969D01*
G01X12879147Y-4878977D02*
G01X12879147Y-4999119D01*
G01X12839015Y-4878977D02*
G01X12919025Y-4878977D01*
G01X12966777Y-4878977D02*
G01X12966777Y-4999119D01*
G01X13046787Y-4878977D02*
G01X13046787Y-4999119D01*
G01X12966777Y-4936127D02*
G01X13046787Y-4936127D01*
G01X14172660Y-4878977D02*
G01X14172660Y-4999119D01*
G01X14172660Y-4878977D02*
G01X14224222Y-4878977D01*
G01X14241240Y-4884819D01*
G01X14247082Y-4890407D01*
G01X14252670Y-4901837D01*
G01X14252670Y-4913267D01*
G01X14247082Y-4924697D01*
G01X14241240Y-4930539D01*
G01X14224222Y-4936127D01*
G01X14172660Y-4936127D01*
G01X14212792Y-4936127D02*
G01X14252670Y-4999119D01*
G01X14329124Y-4919109D02*
G01X14317694Y-4924697D01*
G01X14306264Y-4936127D01*
G01X14300422Y-4953399D01*
G01X14300422Y-4964829D01*
G01X14306264Y-4981847D01*
G01X14317694Y-4993277D01*
G01X14329124Y-4999119D01*
G01X14346142Y-4999119D01*
G01X14357572Y-4993277D01*
G01X14369002Y-4981847D01*
G01X14374844Y-4964829D01*
G01X14374844Y-4953399D01*
G01X14369002Y-4936127D01*
G01X14357572Y-4924697D01*
G01X14346142Y-4919109D01*
G01X14329124Y-4919109D01*
G01X14422596Y-4919109D02*
G01X14422596Y-4976259D01*
G01X14428438Y-4993277D01*
G01X14439868Y-4999119D01*
G01X14456886Y-4999119D01*
G01X14468316Y-4993277D01*
G01X14485588Y-4976259D01*
G01X14485588Y-4919109D02*
G01X14485588Y-4999119D01*
G01X14533340Y-4919109D02*
G01X14533340Y-4999119D01*
G01X14533340Y-4941969D02*
G01X14550612Y-4924697D01*
G01X14562042Y-4919109D01*
G01X14579060Y-4919109D01*
G01X14590490Y-4924697D01*
G01X14596332Y-4941969D01*
G01X14596332Y-4999119D01*
G01X14712664Y-4878977D02*
G01X14712664Y-4999119D01*
G01X14712664Y-4936127D02*
G01X14701234Y-4924697D01*
G01X14689804Y-4919109D01*
G01X14672786Y-4919109D01*
G01X14661356Y-4924697D01*
G01X14649926Y-4936127D01*
G01X14644084Y-4953399D01*
G01X14644084Y-4964829D01*
G01X14649926Y-4981847D01*
G01X14661356Y-4993277D01*
G01X14672786Y-4999119D01*
G01X14689804Y-4999119D01*
G01X14701234Y-4993277D01*
G01X14712664Y-4981847D01*
G01X15603841Y-4878977D02*
G01X15603841Y-4999119D01*
G01X15603841Y-4878977D02*
G01X15655403Y-4878977D01*
G01X15672421Y-4884819D01*
G01X15678263Y-4890407D01*
G01X15683851Y-4901837D01*
G01X15683851Y-4919109D01*
G01X15678263Y-4930539D01*
G01X15672421Y-4936127D01*
G01X15655403Y-4941969D01*
G01X15603841Y-4941969D01*
G01X15800183Y-4919109D02*
G01X15800183Y-4999119D01*
G01X15800183Y-4936127D02*
G01X15788753Y-4924697D01*
G01X15777323Y-4919109D01*
G01X15760305Y-4919109D01*
G01X15748875Y-4924697D01*
G01X15737445Y-4936127D01*
G01X15731603Y-4953399D01*
G01X15731603Y-4964829D01*
G01X15737445Y-4981847D01*
G01X15748875Y-4993277D01*
G01X15760305Y-4999119D01*
G01X15777323Y-4999119D01*
G01X15788753Y-4993277D01*
G01X15800183Y-4981847D01*
G01X15916515Y-4878977D02*
G01X15916515Y-4999119D01*
G01X15916515Y-4936127D02*
G01X15905085Y-4924697D01*
G01X15893655Y-4919109D01*
G01X15876637Y-4919109D01*
G01X15865207Y-4924697D01*
G01X15853777Y-4936127D01*
G01X15847935Y-4953399D01*
G01X15847935Y-4964829D01*
G01X15853777Y-4981847D01*
G01X15865207Y-4993277D01*
G01X15876637Y-4999119D01*
G01X15893655Y-4999119D01*
G01X15905085Y-4993277D01*
G01X15916515Y-4981847D01*
G01X17273020Y-4878977D02*
G01X17273020Y-4999119D01*
G01X17273020Y-4878977D02*
G01X17324582Y-4878977D01*
G01X17341600Y-4884819D01*
G01X17347442Y-4890407D01*
G01X17353030Y-4901837D01*
G01X17353030Y-4913267D01*
G01X17347442Y-4924697D01*
G01X17341600Y-4930539D01*
G01X17324582Y-4936127D01*
G01X17273020Y-4936127D01*
G01X17313152Y-4936127D02*
G01X17353030Y-4999119D01*
G01X17429484Y-4919109D02*
G01X17418054Y-4924697D01*
G01X17406624Y-4936127D01*
G01X17400782Y-4953399D01*
G01X17400782Y-4964829D01*
G01X17406624Y-4981847D01*
G01X17418054Y-4993277D01*
G01X17429484Y-4999119D01*
G01X17446502Y-4999119D01*
G01X17457932Y-4993277D01*
G01X17469362Y-4981847D01*
G01X17475204Y-4964829D01*
G01X17475204Y-4953399D01*
G01X17469362Y-4936127D01*
G01X17457932Y-4924697D01*
G01X17446502Y-4919109D01*
G01X17429484Y-4919109D01*
G01X17522956Y-4919109D02*
G01X17522956Y-4976259D01*
G01X17528798Y-4993277D01*
G01X17540228Y-4999119D01*
G01X17557246Y-4999119D01*
G01X17568676Y-4993277D01*
G01X17585948Y-4976259D01*
G01X17585948Y-4919109D02*
G01X17585948Y-4999119D01*
G01X17633700Y-4919109D02*
G01X17633700Y-4999119D01*
G01X17633700Y-4941969D02*
G01X17650972Y-4924697D01*
G01X17662402Y-4919109D01*
G01X17679420Y-4919109D01*
G01X17690850Y-4924697D01*
G01X17696692Y-4941969D01*
G01X17696692Y-4999119D01*
G01X17813024Y-4878977D02*
G01X17813024Y-4999119D01*
G01X17813024Y-4936127D02*
G01X17801594Y-4924697D01*
G01X17790164Y-4919109D01*
G01X17773146Y-4919109D01*
G01X17761716Y-4924697D01*
G01X17750286Y-4936127D01*
G01X17744444Y-4953399D01*
G01X17744444Y-4964829D01*
G01X17750286Y-4981847D01*
G01X17761716Y-4993277D01*
G01X17773146Y-4999119D01*
G01X17790164Y-4999119D01*
G01X17801594Y-4993277D01*
G01X17813024Y-4981847D01*
G01X19232521Y-4878977D02*
G01X19232521Y-4999119D01*
G01X19192389Y-4878977D02*
G01X19272399Y-4878977D01*
G01X19348853Y-4919109D02*
G01X19337423Y-4924697D01*
G01X19325993Y-4936127D01*
G01X19320151Y-4953399D01*
G01X19320151Y-4964829D01*
G01X19325993Y-4981847D01*
G01X19337423Y-4993277D01*
G01X19348853Y-4999119D01*
G01X19365871Y-4999119D01*
G01X19377301Y-4993277D01*
G01X19388731Y-4981847D01*
G01X19394573Y-4964829D01*
G01X19394573Y-4953399D01*
G01X19388731Y-4936127D01*
G01X19377301Y-4924697D01*
G01X19365871Y-4919109D01*
G01X19348853Y-4919109D01*
G01X19442325Y-4919109D02*
G01X19442325Y-5038997D01*
G01X19442325Y-4936127D02*
G01X19453755Y-4924697D01*
G01X19465185Y-4919109D01*
G01X19482457Y-4919109D01*
G01X19493887Y-4924697D01*
G01X19505317Y-4936127D01*
G01X19510905Y-4953399D01*
G01X19510905Y-4964829D01*
G01X19505317Y-4981847D01*
G01X19493887Y-4993277D01*
G01X19482457Y-4999119D01*
G01X19465185Y-4999119D01*
G01X19453755Y-4993277D01*
G01X19442325Y-4981847D01*
G01X19686673Y-4878977D02*
G01X19686673Y-4999119D01*
G01X19686673Y-4999119D02*
G01X19755253Y-4999119D01*
G01X19871585Y-4919109D02*
G01X19871585Y-4999119D01*
G01X19871585Y-4936127D02*
G01X19860155Y-4924697D01*
G01X19848725Y-4919109D01*
G01X19831707Y-4919109D01*
G01X19820277Y-4924697D01*
G01X19808847Y-4936127D01*
G01X19803005Y-4953399D01*
G01X19803005Y-4964829D01*
G01X19808847Y-4981847D01*
G01X19820277Y-4993277D01*
G01X19831707Y-4999119D01*
G01X19848725Y-4999119D01*
G01X19860155Y-4993277D01*
G01X19871585Y-4981847D01*
G01X19925179Y-4919109D02*
G01X19959469Y-4999119D01*
G01X19993759Y-4919109D02*
G01X19959469Y-4999119D01*
G01X19948039Y-5021979D01*
G01X19936609Y-5033409D01*
G01X19925179Y-5038997D01*
G01X19919337Y-5038997D01*
G01X20041511Y-4953399D02*
G01X20110091Y-4953399D01*
G01X20110091Y-4941969D01*
G01X20104503Y-4930539D01*
G01X20098661Y-4924697D01*
G01X20087231Y-4919109D01*
G01X20070213Y-4919109D01*
G01X20058783Y-4924697D01*
G01X20047353Y-4936127D01*
G01X20041511Y-4953399D01*
G01X20041511Y-4964829D01*
G01X20047353Y-4981847D01*
G01X20058783Y-4993277D01*
G01X20070213Y-4999119D01*
G01X20087231Y-4999119D01*
G01X20098661Y-4993277D01*
G01X20110091Y-4981847D01*
G01X20157843Y-4919109D02*
G01X20157843Y-4999119D01*
G01X20157843Y-4953399D02*
G01X20163685Y-4936127D01*
G01X20175115Y-4924697D01*
G01X20186545Y-4919109D01*
G01X20203563Y-4919109D01*
G01X20251315Y-4947557D02*
G01X20354185Y-4947557D01*
G01X20401937Y-4878977D02*
G01X20401937Y-4999119D01*
G01X20401937Y-4878977D02*
G01X20453499Y-4878977D01*
G01X20470517Y-4884819D01*
G01X20476359Y-4890407D01*
G01X20481947Y-4901837D01*
G01X20481947Y-4913267D01*
G01X20476359Y-4924697D01*
G01X20470517Y-4930539D01*
G01X20453499Y-4936127D01*
G01X20401937Y-4936127D02*
G01X20453499Y-4936127D01*
G01X20470517Y-4941969D01*
G01X20476359Y-4947557D01*
G01X20481947Y-4958987D01*
G01X20481947Y-4976259D01*
G01X20476359Y-4987689D01*
G01X20470517Y-4993277D01*
G01X20453499Y-4999119D01*
G01X20401937Y-4999119D01*
G01X20558401Y-4919109D02*
G01X20546971Y-4924697D01*
G01X20535541Y-4936127D01*
G01X20529699Y-4953399D01*
G01X20529699Y-4964829D01*
G01X20535541Y-4981847D01*
G01X20546971Y-4993277D01*
G01X20558401Y-4999119D01*
G01X20575419Y-4999119D01*
G01X20586849Y-4993277D01*
G01X20598279Y-4981847D01*
G01X20604121Y-4964829D01*
G01X20604121Y-4953399D01*
G01X20598279Y-4936127D01*
G01X20586849Y-4924697D01*
G01X20575419Y-4919109D01*
G01X20558401Y-4919109D01*
G01X20669145Y-4878977D02*
G01X20669145Y-4976259D01*
G01X20674733Y-4993277D01*
G01X20686163Y-4999119D01*
G01X20697593Y-4999119D01*
G01X20651873Y-4919109D02*
G01X20692005Y-4919109D01*
G01X20762617Y-4878977D02*
G01X20762617Y-4976259D01*
G01X20768205Y-4993277D01*
G01X20779635Y-4999119D01*
G01X20791065Y-4999119D01*
G01X20745345Y-4919109D02*
G01X20785477Y-4919109D01*
G01X20867519Y-4919109D02*
G01X20856089Y-4924697D01*
G01X20844659Y-4936127D01*
G01X20838817Y-4953399D01*
G01X20838817Y-4964829D01*
G01X20844659Y-4981847D01*
G01X20856089Y-4993277D01*
G01X20867519Y-4999119D01*
G01X20884537Y-4999119D01*
G01X20895967Y-4993277D01*
G01X20907397Y-4981847D01*
G01X20913239Y-4964829D01*
G01X20913239Y-4953399D01*
G01X20907397Y-4936127D01*
G01X20895967Y-4924697D01*
G01X20884537Y-4919109D01*
G01X20867519Y-4919109D01*
G01X20960991Y-4919109D02*
G01X20960991Y-4999119D01*
G01X20960991Y-4941969D02*
G01X20978263Y-4924697D01*
G01X20989693Y-4919109D01*
G01X21006711Y-4919109D01*
G01X21018141Y-4924697D01*
G01X21023983Y-4941969D01*
G01X21023983Y-4999119D01*
G01X21023983Y-4941969D02*
G01X21041001Y-4924697D01*
G01X21052431Y-4919109D01*
G01X21069703Y-4919109D01*
G01X21081133Y-4924697D01*
G01X21086721Y-4941969D01*
G01X21086721Y-4999119D01*
G01X21262489Y-4878977D02*
G01X21262489Y-4999119D01*
G01X21262489Y-4999119D02*
G01X21331069Y-4999119D01*
G01X21447401Y-4919109D02*
G01X21447401Y-4999119D01*
G01X21447401Y-4936127D02*
G01X21435971Y-4924697D01*
G01X21424541Y-4919109D01*
G01X21407523Y-4919109D01*
G01X21396093Y-4924697D01*
G01X21384663Y-4936127D01*
G01X21378821Y-4953399D01*
G01X21378821Y-4964829D01*
G01X21384663Y-4981847D01*
G01X21396093Y-4993277D01*
G01X21407523Y-4999119D01*
G01X21424541Y-4999119D01*
G01X21435971Y-4993277D01*
G01X21447401Y-4981847D01*
G01X21500995Y-4919109D02*
G01X21535285Y-4999119D01*
G01X21569575Y-4919109D02*
G01X21535285Y-4999119D01*
G01X21523855Y-5021979D01*
G01X21512425Y-5033409D01*
G01X21500995Y-5038997D01*
G01X21495153Y-5038997D01*
G01X21617327Y-4953399D02*
G01X21685907Y-4953399D01*
G01X21685907Y-4941969D01*
G01X21680319Y-4930539D01*
G01X21674477Y-4924697D01*
G01X21663047Y-4919109D01*
G01X21646029Y-4919109D01*
G01X21634599Y-4924697D01*
G01X21623169Y-4936127D01*
G01X21617327Y-4953399D01*
G01X21617327Y-4964829D01*
G01X21623169Y-4981847D01*
G01X21634599Y-4993277D01*
G01X21646029Y-4999119D01*
G01X21663047Y-4999119D01*
G01X21674477Y-4993277D01*
G01X21685907Y-4981847D01*
G01X21733659Y-4919109D02*
G01X21733659Y-4999119D01*
G01X21733659Y-4953399D02*
G01X21739501Y-4936127D01*
G01X21750931Y-4924697D01*
G01X21762361Y-4919109D01*
G01X21779379Y-4919109D01*
G01X7517424Y-5459549D02*
G01X7460274Y-5539559D01*
G01X7546126Y-5539559D01*
G01X7517424Y-5459549D02*
G01X7517424Y-5579691D01*
G01X7599720Y-5488251D02*
G01X7599720Y-5482409D01*
G01X7605308Y-5470979D01*
G01X7611150Y-5465391D01*
G01X7622580Y-5459549D01*
G01X7645440Y-5459549D01*
G01X7656870Y-5465391D01*
G01X7662458Y-5470979D01*
G01X7668300Y-5482409D01*
G01X7668300Y-5493839D01*
G01X7662458Y-5505269D01*
G01X7651028Y-5522541D01*
G01X7593878Y-5579691D01*
G01X7673888Y-5579691D01*
G01X8874437Y-5482409D02*
G01X8885867Y-5476821D01*
G01X8903139Y-5459549D01*
G01X8903139Y-5579691D01*
G01X8956733Y-5488251D02*
G01X8956733Y-5482409D01*
G01X8962321Y-5470979D01*
G01X8968163Y-5465391D01*
G01X8979593Y-5459549D01*
G01X9002453Y-5459549D01*
G01X9013883Y-5465391D01*
G01X9019471Y-5470979D01*
G01X9025313Y-5482409D01*
G01X9025313Y-5493839D01*
G01X9019471Y-5505269D01*
G01X9008041Y-5522541D01*
G01X8950891Y-5579691D01*
G01X9030901Y-5579691D01*
G01X9084495Y-5550989D02*
G01X9078653Y-5556831D01*
G01X9084495Y-5562419D01*
G01X9090083Y-5556831D01*
G01X9084495Y-5550989D01*
G01X9172125Y-5459549D02*
G01X9155107Y-5465391D01*
G01X9143677Y-5482409D01*
G01X9137835Y-5511111D01*
G01X9137835Y-5528129D01*
G01X9143677Y-5556831D01*
G01X9155107Y-5573849D01*
G01X9172125Y-5579691D01*
G01X9183555Y-5579691D01*
G01X9200827Y-5573849D01*
G01X9212257Y-5556831D01*
G01X9217845Y-5528129D01*
G01X9217845Y-5511111D01*
G01X9212257Y-5482409D01*
G01X9200827Y-5465391D01*
G01X9183555Y-5459549D01*
G01X9172125Y-5459549D01*
G01X9265597Y-5499681D02*
G01X9265597Y-5579691D01*
G01X9265597Y-5522541D02*
G01X9282869Y-5505269D01*
G01X9294299Y-5499681D01*
G01X9311317Y-5499681D01*
G01X9322747Y-5505269D01*
G01X9328589Y-5522541D01*
G01X9328589Y-5579691D01*
G01X9328589Y-5522541D02*
G01X9345607Y-5505269D01*
G01X9357037Y-5499681D01*
G01X9374309Y-5499681D01*
G01X9385739Y-5505269D01*
G01X9391327Y-5522541D01*
G01X9391327Y-5579691D01*
G01X9439079Y-5459549D02*
G01X9444921Y-5465391D01*
G01X9450509Y-5459549D01*
G01X9444921Y-5453961D01*
G01X9439079Y-5459549D01*
G01X9444921Y-5499681D02*
G01X9444921Y-5579691D01*
G01X9498261Y-5459549D02*
G01X9498261Y-5579691D01*
G01X9586145Y-5436689D02*
G01X9574715Y-5448119D01*
G01X9563285Y-5465391D01*
G01X9551855Y-5488251D01*
G01X9546013Y-5516699D01*
G01X9546013Y-5539559D01*
G01X9551855Y-5568261D01*
G01X9563285Y-5591121D01*
G01X9574715Y-5608139D01*
G01X9586145Y-5619569D01*
G01X9668187Y-5459549D02*
G01X9651169Y-5465391D01*
G01X9639739Y-5482409D01*
G01X9633897Y-5511111D01*
G01X9633897Y-5528129D01*
G01X9639739Y-5556831D01*
G01X9651169Y-5573849D01*
G01X9668187Y-5579691D01*
G01X9679617Y-5579691D01*
G01X9696889Y-5573849D01*
G01X9708319Y-5556831D01*
G01X9713907Y-5528129D01*
G01X9713907Y-5511111D01*
G01X9708319Y-5482409D01*
G01X9696889Y-5465391D01*
G01X9679617Y-5459549D01*
G01X9668187Y-5459549D01*
G01X9767501Y-5550989D02*
G01X9761659Y-5556831D01*
G01X9767501Y-5562419D01*
G01X9773089Y-5556831D01*
G01X9767501Y-5550989D01*
G01X9832271Y-5459549D02*
G01X9895263Y-5459549D01*
G01X9860973Y-5505269D01*
G01X9877991Y-5505269D01*
G01X9889421Y-5511111D01*
G01X9895263Y-5516699D01*
G01X9900851Y-5533971D01*
G01X9900851Y-5545401D01*
G01X9895263Y-5562419D01*
G01X9883833Y-5573849D01*
G01X9866561Y-5579691D01*
G01X9849543Y-5579691D01*
G01X9832271Y-5573849D01*
G01X9826683Y-5568261D01*
G01X9820841Y-5556831D01*
G01X9982893Y-5459549D02*
G01X9965875Y-5465391D01*
G01X9954445Y-5482409D01*
G01X9948603Y-5511111D01*
G01X9948603Y-5528129D01*
G01X9954445Y-5556831D01*
G01X9965875Y-5573849D01*
G01X9982893Y-5579691D01*
G01X9994323Y-5579691D01*
G01X10011595Y-5573849D01*
G01X10023025Y-5556831D01*
G01X10028613Y-5528129D01*
G01X10028613Y-5511111D01*
G01X10023025Y-5482409D01*
G01X10011595Y-5465391D01*
G01X9994323Y-5459549D01*
G01X9982893Y-5459549D01*
G01X10144945Y-5459549D02*
G01X10087795Y-5459549D01*
G01X10082207Y-5511111D01*
G01X10087795Y-5505269D01*
G01X10105067Y-5499681D01*
G01X10122085Y-5499681D01*
G01X10139357Y-5505269D01*
G01X10150787Y-5516699D01*
G01X10156375Y-5533971D01*
G01X10156375Y-5545401D01*
G01X10150787Y-5562419D01*
G01X10139357Y-5573849D01*
G01X10122085Y-5579691D01*
G01X10105067Y-5579691D01*
G01X10087795Y-5573849D01*
G01X10082207Y-5568261D01*
G01X10076365Y-5556831D01*
G01X10204127Y-5499681D02*
G01X10204127Y-5579691D01*
G01X10204127Y-5522541D02*
G01X10221399Y-5505269D01*
G01X10232829Y-5499681D01*
G01X10249847Y-5499681D01*
G01X10261277Y-5505269D01*
G01X10267119Y-5522541D01*
G01X10267119Y-5579691D01*
G01X10267119Y-5522541D02*
G01X10284137Y-5505269D01*
G01X10295567Y-5499681D01*
G01X10312839Y-5499681D01*
G01X10324269Y-5505269D01*
G01X10329857Y-5522541D01*
G01X10329857Y-5579691D01*
G01X10377609Y-5499681D02*
G01X10377609Y-5579691D01*
G01X10377609Y-5522541D02*
G01X10394881Y-5505269D01*
G01X10406311Y-5499681D01*
G01X10423329Y-5499681D01*
G01X10434759Y-5505269D01*
G01X10440601Y-5522541D01*
G01X10440601Y-5579691D01*
G01X10440601Y-5522541D02*
G01X10457619Y-5505269D01*
G01X10469049Y-5499681D01*
G01X10486321Y-5499681D01*
G01X10497751Y-5505269D01*
G01X10503339Y-5522541D01*
G01X10503339Y-5579691D01*
G01X10551091Y-5436689D02*
G01X10562521Y-5448119D01*
G01X10573951Y-5465391D01*
G01X10585381Y-5488251D01*
G01X10591223Y-5516699D01*
G01X10591223Y-5539559D01*
G01X10585381Y-5568261D01*
G01X10573951Y-5591121D01*
G01X10562521Y-5608139D01*
G01X10551091Y-5619569D01*
G01X12711253Y-5459549D02*
G01X12711253Y-5579691D01*
G01X12711253Y-5459549D02*
G01X12762815Y-5459549D01*
G01X12779833Y-5465391D01*
G01X12785675Y-5470979D01*
G01X12791263Y-5482409D01*
G01X12791263Y-5499681D01*
G01X12785675Y-5511111D01*
G01X12779833Y-5516699D01*
G01X12762815Y-5522541D01*
G01X12711253Y-5522541D01*
G01X12879147Y-5459549D02*
G01X12879147Y-5579691D01*
G01X12839015Y-5459549D02*
G01X12919025Y-5459549D01*
G01X12966777Y-5459549D02*
G01X12966777Y-5579691D01*
G01X13046787Y-5459549D02*
G01X13046787Y-5579691D01*
G01X12966777Y-5516699D02*
G01X13046787Y-5516699D01*
G01X14172660Y-5459549D02*
G01X14172660Y-5579691D01*
G01X14172660Y-5459549D02*
G01X14224222Y-5459549D01*
G01X14241240Y-5465391D01*
G01X14247082Y-5470979D01*
G01X14252670Y-5482409D01*
G01X14252670Y-5493839D01*
G01X14247082Y-5505269D01*
G01X14241240Y-5511111D01*
G01X14224222Y-5516699D01*
G01X14172660Y-5516699D01*
G01X14212792Y-5516699D02*
G01X14252670Y-5579691D01*
G01X14329124Y-5499681D02*
G01X14317694Y-5505269D01*
G01X14306264Y-5516699D01*
G01X14300422Y-5533971D01*
G01X14300422Y-5545401D01*
G01X14306264Y-5562419D01*
G01X14317694Y-5573849D01*
G01X14329124Y-5579691D01*
G01X14346142Y-5579691D01*
G01X14357572Y-5573849D01*
G01X14369002Y-5562419D01*
G01X14374844Y-5545401D01*
G01X14374844Y-5533971D01*
G01X14369002Y-5516699D01*
G01X14357572Y-5505269D01*
G01X14346142Y-5499681D01*
G01X14329124Y-5499681D01*
G01X14422596Y-5499681D02*
G01X14422596Y-5556831D01*
G01X14428438Y-5573849D01*
G01X14439868Y-5579691D01*
G01X14456886Y-5579691D01*
G01X14468316Y-5573849D01*
G01X14485588Y-5556831D01*
G01X14485588Y-5499681D02*
G01X14485588Y-5579691D01*
G01X14533340Y-5499681D02*
G01X14533340Y-5579691D01*
G01X14533340Y-5522541D02*
G01X14550612Y-5505269D01*
G01X14562042Y-5499681D01*
G01X14579060Y-5499681D01*
G01X14590490Y-5505269D01*
G01X14596332Y-5522541D01*
G01X14596332Y-5579691D01*
G01X14712664Y-5459549D02*
G01X14712664Y-5579691D01*
G01X14712664Y-5516699D02*
G01X14701234Y-5505269D01*
G01X14689804Y-5499681D01*
G01X14672786Y-5499681D01*
G01X14661356Y-5505269D01*
G01X14649926Y-5516699D01*
G01X14644084Y-5533971D01*
G01X14644084Y-5545401D01*
G01X14649926Y-5562419D01*
G01X14661356Y-5573849D01*
G01X14672786Y-5579691D01*
G01X14689804Y-5579691D01*
G01X14701234Y-5573849D01*
G01X14712664Y-5562419D01*
G01X15603841Y-5459549D02*
G01X15649561Y-5579691D01*
G01X15695281Y-5459549D02*
G01X15649561Y-5579691D01*
G01X15743033Y-5459549D02*
G01X15748875Y-5465391D01*
G01X15754463Y-5459549D01*
G01X15748875Y-5453961D01*
G01X15743033Y-5459549D01*
G01X15748875Y-5499681D02*
G01X15748875Y-5579691D01*
G01X15870795Y-5499681D02*
G01X15870795Y-5579691D01*
G01X15870795Y-5516699D02*
G01X15859365Y-5505269D01*
G01X15847935Y-5499681D01*
G01X15830917Y-5499681D01*
G01X15819487Y-5505269D01*
G01X15808057Y-5516699D01*
G01X15802215Y-5533971D01*
G01X15802215Y-5545401D01*
G01X15808057Y-5562419D01*
G01X15819487Y-5573849D01*
G01X15830917Y-5579691D01*
G01X15847935Y-5579691D01*
G01X15859365Y-5573849D01*
G01X15870795Y-5562419D01*
G01X19232521Y-5459549D02*
G01X19232521Y-5579691D01*
G01X19192389Y-5459549D02*
G01X19272399Y-5459549D01*
G01X19348853Y-5499681D02*
G01X19337423Y-5505269D01*
G01X19325993Y-5516699D01*
G01X19320151Y-5533971D01*
G01X19320151Y-5545401D01*
G01X19325993Y-5562419D01*
G01X19337423Y-5573849D01*
G01X19348853Y-5579691D01*
G01X19365871Y-5579691D01*
G01X19377301Y-5573849D01*
G01X19388731Y-5562419D01*
G01X19394573Y-5545401D01*
G01X19394573Y-5533971D01*
G01X19388731Y-5516699D01*
G01X19377301Y-5505269D01*
G01X19365871Y-5499681D01*
G01X19348853Y-5499681D01*
G01X19442325Y-5499681D02*
G01X19442325Y-5619569D01*
G01X19442325Y-5516699D02*
G01X19453755Y-5505269D01*
G01X19465185Y-5499681D01*
G01X19482457Y-5499681D01*
G01X19493887Y-5505269D01*
G01X19505317Y-5516699D01*
G01X19510905Y-5533971D01*
G01X19510905Y-5545401D01*
G01X19505317Y-5562419D01*
G01X19493887Y-5573849D01*
G01X19482457Y-5579691D01*
G01X19465185Y-5579691D01*
G01X19453755Y-5573849D01*
G01X19442325Y-5562419D01*
G01X19686673Y-5459549D02*
G01X19686673Y-5579691D01*
G01X19686673Y-5579691D02*
G01X19755253Y-5579691D01*
G01X19871585Y-5499681D02*
G01X19871585Y-5579691D01*
G01X19871585Y-5516699D02*
G01X19860155Y-5505269D01*
G01X19848725Y-5499681D01*
G01X19831707Y-5499681D01*
G01X19820277Y-5505269D01*
G01X19808847Y-5516699D01*
G01X19803005Y-5533971D01*
G01X19803005Y-5545401D01*
G01X19808847Y-5562419D01*
G01X19820277Y-5573849D01*
G01X19831707Y-5579691D01*
G01X19848725Y-5579691D01*
G01X19860155Y-5573849D01*
G01X19871585Y-5562419D01*
G01X19925179Y-5499681D02*
G01X19959469Y-5579691D01*
G01X19993759Y-5499681D02*
G01X19959469Y-5579691D01*
G01X19948039Y-5602551D01*
G01X19936609Y-5613981D01*
G01X19925179Y-5619569D01*
G01X19919337Y-5619569D01*
G01X20041511Y-5533971D02*
G01X20110091Y-5533971D01*
G01X20110091Y-5522541D01*
G01X20104503Y-5511111D01*
G01X20098661Y-5505269D01*
G01X20087231Y-5499681D01*
G01X20070213Y-5499681D01*
G01X20058783Y-5505269D01*
G01X20047353Y-5516699D01*
G01X20041511Y-5533971D01*
G01X20041511Y-5545401D01*
G01X20047353Y-5562419D01*
G01X20058783Y-5573849D01*
G01X20070213Y-5579691D01*
G01X20087231Y-5579691D01*
G01X20098661Y-5573849D01*
G01X20110091Y-5562419D01*
G01X20157843Y-5499681D02*
G01X20157843Y-5579691D01*
G01X20157843Y-5533971D02*
G01X20163685Y-5516699D01*
G01X20175115Y-5505269D01*
G01X20186545Y-5499681D01*
G01X20203563Y-5499681D01*
G01X20251315Y-5528129D02*
G01X20354185Y-5528129D01*
G01X20401937Y-5459549D02*
G01X20401937Y-5579691D01*
G01X20401937Y-5459549D02*
G01X20453499Y-5459549D01*
G01X20470517Y-5465391D01*
G01X20476359Y-5470979D01*
G01X20481947Y-5482409D01*
G01X20481947Y-5493839D01*
G01X20476359Y-5505269D01*
G01X20470517Y-5511111D01*
G01X20453499Y-5516699D01*
G01X20401937Y-5516699D02*
G01X20453499Y-5516699D01*
G01X20470517Y-5522541D01*
G01X20476359Y-5528129D01*
G01X20481947Y-5539559D01*
G01X20481947Y-5556831D01*
G01X20476359Y-5568261D01*
G01X20470517Y-5573849D01*
G01X20453499Y-5579691D01*
G01X20401937Y-5579691D01*
G01X20558401Y-5499681D02*
G01X20546971Y-5505269D01*
G01X20535541Y-5516699D01*
G01X20529699Y-5533971D01*
G01X20529699Y-5545401D01*
G01X20535541Y-5562419D01*
G01X20546971Y-5573849D01*
G01X20558401Y-5579691D01*
G01X20575419Y-5579691D01*
G01X20586849Y-5573849D01*
G01X20598279Y-5562419D01*
G01X20604121Y-5545401D01*
G01X20604121Y-5533971D01*
G01X20598279Y-5516699D01*
G01X20586849Y-5505269D01*
G01X20575419Y-5499681D01*
G01X20558401Y-5499681D01*
G01X20669145Y-5459549D02*
G01X20669145Y-5556831D01*
G01X20674733Y-5573849D01*
G01X20686163Y-5579691D01*
G01X20697593Y-5579691D01*
G01X20651873Y-5499681D02*
G01X20692005Y-5499681D01*
G01X20762617Y-5459549D02*
G01X20762617Y-5556831D01*
G01X20768205Y-5573849D01*
G01X20779635Y-5579691D01*
G01X20791065Y-5579691D01*
G01X20745345Y-5499681D02*
G01X20785477Y-5499681D01*
G01X20867519Y-5499681D02*
G01X20856089Y-5505269D01*
G01X20844659Y-5516699D01*
G01X20838817Y-5533971D01*
G01X20838817Y-5545401D01*
G01X20844659Y-5562419D01*
G01X20856089Y-5573849D01*
G01X20867519Y-5579691D01*
G01X20884537Y-5579691D01*
G01X20895967Y-5573849D01*
G01X20907397Y-5562419D01*
G01X20913239Y-5545401D01*
G01X20913239Y-5533971D01*
G01X20907397Y-5516699D01*
G01X20895967Y-5505269D01*
G01X20884537Y-5499681D01*
G01X20867519Y-5499681D01*
G01X20960991Y-5499681D02*
G01X20960991Y-5579691D01*
G01X20960991Y-5522541D02*
G01X20978263Y-5505269D01*
G01X20989693Y-5499681D01*
G01X21006711Y-5499681D01*
G01X21018141Y-5505269D01*
G01X21023983Y-5522541D01*
G01X21023983Y-5579691D01*
G01X21023983Y-5522541D02*
G01X21041001Y-5505269D01*
G01X21052431Y-5499681D01*
G01X21069703Y-5499681D01*
G01X21081133Y-5505269D01*
G01X21086721Y-5522541D01*
G01X21086721Y-5579691D01*
G01X21262489Y-5459549D02*
G01X21262489Y-5579691D01*
G01X21262489Y-5579691D02*
G01X21331069Y-5579691D01*
G01X21447401Y-5499681D02*
G01X21447401Y-5579691D01*
G01X21447401Y-5516699D02*
G01X21435971Y-5505269D01*
G01X21424541Y-5499681D01*
G01X21407523Y-5499681D01*
G01X21396093Y-5505269D01*
G01X21384663Y-5516699D01*
G01X21378821Y-5533971D01*
G01X21378821Y-5545401D01*
G01X21384663Y-5562419D01*
G01X21396093Y-5573849D01*
G01X21407523Y-5579691D01*
G01X21424541Y-5579691D01*
G01X21435971Y-5573849D01*
G01X21447401Y-5562419D01*
G01X21500995Y-5499681D02*
G01X21535285Y-5579691D01*
G01X21569575Y-5499681D02*
G01X21535285Y-5579691D01*
G01X21523855Y-5602551D01*
G01X21512425Y-5613981D01*
G01X21500995Y-5619569D01*
G01X21495153Y-5619569D01*
G01X21617327Y-5533971D02*
G01X21685907Y-5533971D01*
G01X21685907Y-5522541D01*
G01X21680319Y-5511111D01*
G01X21674477Y-5505269D01*
G01X21663047Y-5499681D01*
G01X21646029Y-5499681D01*
G01X21634599Y-5505269D01*
G01X21623169Y-5516699D01*
G01X21617327Y-5533971D01*
G01X21617327Y-5545401D01*
G01X21623169Y-5562419D01*
G01X21634599Y-5573849D01*
G01X21646029Y-5579691D01*
G01X21663047Y-5579691D01*
G01X21674477Y-5573849D01*
G01X21685907Y-5562419D01*
G01X21733659Y-5499681D02*
G01X21733659Y-5579691D01*
G01X21733659Y-5533971D02*
G01X21739501Y-5516699D01*
G01X21750931Y-5505269D01*
G01X21762361Y-5499681D01*
G01X21779379Y-5499681D01*

G04 Image Start*
G36*
G01X6163786Y-4802414D02*
G01X6328886Y-4967514D01*
G01X6163786Y-5132614D01*
G01X5998686Y-4967514D01*
G01X6034601Y-4967514D01*
G01X6163786Y-5096699D01*
G01X6292970Y-4967514D01*
G01X6163786Y-4838330D01*
G01X6163786Y-4838330D01*
G01X6034601Y-4967514D01*
G01X5998686Y-4967514D01*
G01X6163786Y-4802414D01*
G37*
G36*
G01X6295663Y-2737304D02*
G01X6190049Y-2725823D01*
G01X6147174Y-2823029D01*
G01X6104299Y-2725823D01*
G01X5998686Y-2737304D01*
G01X6061449Y-2651579D01*
G01X6021727Y-2597324D01*
G01X6053220Y-2597324D01*
G01X6092920Y-2651579D01*
G01X6053220Y-2705833D01*
G01X6120047Y-2698569D01*
G01X6120047Y-2698569D01*
G01X6147174Y-2760062D01*
G01X6174301Y-2698569D01*
G01X6241129Y-2705833D01*
G01X6201429Y-2651579D01*
G01X6241103Y-2597350D01*
G01X6174276Y-2604614D01*
G01X6147174Y-2543095D01*
G01X6120047Y-2604589D01*
G01X6053220Y-2597324D01*
G01X6021727Y-2597324D01*
G01X5998686Y-2565854D01*
G01X6104324Y-2577334D01*
G01X6147174Y-2480129D01*
G01X6190049Y-2577334D01*
G01X6295663Y-2565854D01*
G01X6232899Y-2651579D01*
G01X6295663Y-2737304D01*
G37*
G36*
G01X6166669Y-1622999D02*
G01X6158929Y-1623587D01*
G01X6151086Y-1623786D01*
G01X6143243Y-1623587D01*
G01X6135502Y-1622999D01*
G01X6127875Y-1622030D01*
G01X6120370Y-1620690D01*
G01X6105764Y-1616935D01*
G01X6091762Y-1611810D01*
G01X6078440Y-1605393D01*
G01X6065874Y-1597760D01*
G01X6054142Y-1588987D01*
G01X6043320Y-1579152D01*
G01X6033484Y-1568329D01*
G01X6024711Y-1556597D01*
G01X6017078Y-1544032D01*
G01X6010661Y-1530710D01*
G01X6005537Y-1516708D01*
G01X6001782Y-1502102D01*
G01X6000442Y-1494596D01*
G01X5999472Y-1486969D01*
G01X5998884Y-1479229D01*
G01X5998686Y-1471386D01*
G01X6024086Y-1471386D01*
G01X6024743Y-1484352D01*
G01X6026670Y-1496948D01*
G01X6029805Y-1509110D01*
G01X6034082Y-1520772D01*
G01X6039437Y-1531872D01*
G01X6045805Y-1542343D01*
G01X6053123Y-1552123D01*
G01X6061325Y-1561146D01*
G01X6070349Y-1569349D01*
G01X6080128Y-1576666D01*
G01X6090600Y-1583035D01*
G01X6101699Y-1588390D01*
G01X6113362Y-1592666D01*
G01X6125523Y-1595801D01*
G01X6125523Y-1595801D01*
G01X6138119Y-1597729D01*
G01X6151086Y-1598386D01*
G01X6164052Y-1597729D01*
G01X6176648Y-1595801D01*
G01X6188810Y-1592666D01*
G01X6200472Y-1588390D01*
G01X6211572Y-1583035D01*
G01X6222043Y-1576666D01*
G01X6231823Y-1569349D01*
G01X6240846Y-1561146D01*
G01X6249049Y-1552123D01*
G01X6256366Y-1542343D01*
G01X6262735Y-1531872D01*
G01X6268090Y-1520772D01*
G01X6272366Y-1509110D01*
G01X6275501Y-1496948D01*
G01X6277429Y-1484352D01*
G01X6278086Y-1471386D01*
G01X6277429Y-1458419D01*
G01X6275501Y-1445823D01*
G01X6272366Y-1433662D01*
G01X6268090Y-1421999D01*
G01X6262735Y-1410900D01*
G01X6256366Y-1400428D01*
G01X6249049Y-1390649D01*
G01X6240846Y-1381625D01*
G01X6231823Y-1373423D01*
G01X6222043Y-1366105D01*
G01X6211572Y-1359737D01*
G01X6200472Y-1354382D01*
G01X6188810Y-1350105D01*
G01X6176648Y-1346971D01*
G01X6164052Y-1345043D01*
G01X6151086Y-1344386D01*
G01X6138119Y-1345043D01*
G01X6125523Y-1346971D01*
G01X6113362Y-1350105D01*
G01X6101699Y-1354382D01*
G01X6090600Y-1359737D01*
G01X6080128Y-1366105D01*
G01X6070349Y-1373423D01*
G01X6061325Y-1381625D01*
G01X6053123Y-1390649D01*
G01X6045805Y-1400428D01*
G01X6039437Y-1410900D01*
G01X6034082Y-1421999D01*
G01X6029805Y-1433662D01*
G01X6026670Y-1445823D01*
G01X6024743Y-1458419D01*
G01X6024086Y-1471386D01*
G01X5998686Y-1471386D01*
G01X5998884Y-1463543D01*
G01X5999472Y-1455802D01*
G01X6000442Y-1448175D01*
G01X6001782Y-1440670D01*
G01X6005537Y-1426064D01*
G01X6010661Y-1412062D01*
G01X6017078Y-1398740D01*
G01X6024711Y-1386174D01*
G01X6033484Y-1374442D01*
G01X6043320Y-1363620D01*
G01X6054142Y-1353784D01*
G01X6065874Y-1345011D01*
G01X6078440Y-1337378D01*
G01X6091762Y-1330961D01*
G01X6105764Y-1325837D01*
G01X6120370Y-1322082D01*
G01X6127875Y-1320742D01*
G01X6135502Y-1319772D01*
G01X6143243Y-1319184D01*
G01X6151086Y-1318986D01*
G01X6158929Y-1319184D01*
G01X6166669Y-1319772D01*
G01X6174296Y-1320742D01*
G01X6181802Y-1322082D01*
G01X6196408Y-1325837D01*
G01X6210410Y-1330961D01*
G01X6223732Y-1337378D01*
G01X6236297Y-1345011D01*
G01X6248029Y-1353784D01*
G01X6258852Y-1363620D01*
G01X6268687Y-1374442D01*
G01X6277460Y-1386174D01*
G01X6285093Y-1398740D01*
G01X6291510Y-1412062D01*
G01X6296635Y-1426064D01*
G01X6300390Y-1440670D01*
G01X6301730Y-1448175D01*
G01X6302699Y-1455802D01*
G01X6303287Y-1463543D01*
G01X6303486Y-1471386D01*
G01X6303287Y-1479229D01*
G01X6302699Y-1486969D01*
G01X6301730Y-1494596D01*
G01X6300390Y-1502102D01*
G01X6296635Y-1516708D01*
G01X6291510Y-1530710D01*
G01X6285093Y-1544032D01*
G01X6277460Y-1556597D01*
G01X6268687Y-1568329D01*
G01X6258852Y-1579152D01*
G01X6248029Y-1588987D01*
G01X6236297Y-1597760D01*
G01X6223732Y-1605393D01*
G01X6210410Y-1611810D01*
G01X6196408Y-1616935D01*
G01X6181802Y-1620690D01*
G01X6174296Y-1622030D01*
G01X6166669Y-1622999D01*
G37*
G36*
G01X6303486Y-3862937D02*
G01X6220377Y-3862937D01*
G01X6220377Y-3946071D01*
G01X6081820Y-3946071D01*
G01X6081820Y-3862963D01*
G01X5998686Y-3862963D01*
G01X5998686Y-3749806D01*
G01X6024086Y-3749806D01*
G01X6024086Y-3837537D01*
G01X6107220Y-3837537D01*
G01X6107220Y-3920671D01*
G01X6107220Y-3920671D01*
G01X6194952Y-3920671D01*
G01X6194952Y-3837563D01*
G01X6278086Y-3837563D01*
G01X6278086Y-3749806D01*
G01X6194952Y-3749806D01*
G01X6194952Y-3666671D01*
G01X6107220Y-3666671D01*
G01X6107220Y-3749806D01*
G01X6024086Y-3749806D01*
G01X5998686Y-3749806D01*
G01X5998686Y-3724406D01*
G01X6081820Y-3724406D01*
G01X6081820Y-3641271D01*
G01X6220352Y-3641271D01*
G01X6220352Y-3724406D01*
G01X6303486Y-3724406D01*
G01X6303486Y-3862937D01*
G37*
G36*
G01X6303486Y-3060700D02*
G01X6233458Y-3213100D01*
G01X6303486Y-3365500D01*
G01X6151086Y-3295472D01*
G01X5998686Y-3365500D01*
G01X6022448Y-3313786D01*
G01X6050400Y-3313786D01*
G01X6140469Y-3272384D01*
G01X6151086Y-3267507D01*
G01X6161703Y-3272384D01*
G01X6251771Y-3313786D01*
G01X6210369Y-3223717D01*
G01X6205493Y-3213100D01*
G01X6210369Y-3202483D01*
G01X6251771Y-3112414D01*
G01X6161703Y-3153816D01*
G01X6151086Y-3158693D01*
G01X6140469Y-3153816D01*
G01X6050400Y-3112414D01*
G01X6091802Y-3202483D01*
G01X6096679Y-3213100D01*
G01X6096679Y-3213100D01*
G01X6091802Y-3223717D01*
G01X6050400Y-3313786D01*
G01X6022448Y-3313786D01*
G01X6068714Y-3213100D01*
G01X5998686Y-3060700D01*
G01X6151086Y-3130728D01*
G01X6303486Y-3060700D01*
G37*
G36*
G01X5998686Y-1899557D02*
G01X6303486Y-1899557D01*
G01X6151086Y-2163514D01*
G01X6013351Y-1924957D01*
G01X6042679Y-1924957D01*
G01X6151086Y-2112714D01*
G01X6259493Y-1924957D01*
G01X6259493Y-1924957D01*
G01X6042679Y-1924957D01*
G01X6013351Y-1924957D01*
G01X5998686Y-1899557D01*
G37*
G36*
G01X6278086Y-4501243D02*
G01X6176486Y-4501243D01*
G01X6138386Y-4425043D01*
G01X6100286Y-4501243D01*
G01X5998686Y-4501243D01*
G01X5998686Y-4475843D01*
G01X6024086Y-4475843D01*
G01X6084589Y-4475843D01*
G01X6115653Y-4413689D01*
G01X6138386Y-4368248D01*
G01X6161119Y-4413689D01*
G01X6192183Y-4475843D01*
G01X6252686Y-4475843D01*
G01X6252686Y-4415340D01*
G01X6190532Y-4384250D01*
G01X6145091Y-4361543D01*
G01X6190532Y-4338835D01*
G01X6252686Y-4307746D01*
G01X6252686Y-4247243D01*
G01X6192183Y-4247243D01*
G01X6161119Y-4309397D01*
G01X6138386Y-4354837D01*
G01X6115653Y-4309397D01*
G01X6084589Y-4247243D01*
G01X6024086Y-4247243D01*
G01X6024086Y-4307746D01*
G01X6086240Y-4338835D01*
G01X6131680Y-4361543D01*
G01X6086240Y-4384250D01*
G01X6024086Y-4415340D01*
G01X6024086Y-4475843D01*
G01X6024086Y-4475843D01*
G01X5998686Y-4475843D01*
G01X5998686Y-4399643D01*
G01X6074886Y-4361543D01*
G01X5998686Y-4323443D01*
G01X5998686Y-4221843D01*
G01X6100286Y-4221843D01*
G01X6138386Y-4298043D01*
G01X6176486Y-4221843D01*
G01X6278086Y-4221843D01*
G01X6278086Y-4323443D01*
G01X6201886Y-4361543D01*
G01X6278086Y-4399643D01*
G01X6278086Y-4501243D01*
G37*
G36*
G01X5998686Y-5382986D02*
G01X6278086Y-5382986D01*
G01X6278086Y-5662386D01*
G01X5998686Y-5662386D01*
G01X5998686Y-5408386D01*
G01X6024086Y-5408386D01*
G01X6024086Y-5636986D01*
G01X6252686Y-5636986D01*
G01X6252686Y-5408386D01*
G01X6252686Y-5408386D01*
G01X6024086Y-5408386D01*
G01X5998686Y-5408386D01*
G01X5998686Y-5382986D01*
G37*
G36*
G01X6049486Y-5433786D02*
G01X6227286Y-5433786D01*
G01X6227286Y-5611586D01*
G01X6049486Y-5611586D01*
G01X6049486Y-5586186D01*
G01X6074886Y-5586186D01*
G01X6201886Y-5586186D01*
G01X6201886Y-5459186D01*
G01X6074886Y-5459186D01*
G01X6074886Y-5586186D01*
G01X6074886Y-5586186D01*
G01X6049486Y-5586186D01*
G01X6049486Y-5433786D01*
G37*
G36*
G01X5998686Y-738414D02*
G01X6278086Y-738414D01*
G01X6278086Y-1017814D01*
G01X5998686Y-1017814D01*
G01X5998686Y-763814D01*
G01X6024086Y-763814D01*
G01X6024086Y-992414D01*
G01X6252686Y-992414D01*
G01X6252686Y-763814D01*
G01X6252686Y-763814D01*
G01X6024086Y-763814D01*
G01X5998686Y-763814D01*
G01X5998686Y-738414D01*
G37*

G04 PolygonModel Start*
G54D20*
G01X5708400Y-5818414D02*
G01X22370111Y-5818414D01*
G01X5708400Y-5237843D02*
G01X22370111Y-5237843D01*
G01X5708400Y-4657271D02*
G01X22370111Y-4657271D01*
G01X5708400Y-4076700D02*
G01X22370111Y-4076700D01*
G01X5708400Y-3496129D02*
G01X22370111Y-3496129D01*
G01X5708400Y-2915557D02*
G01X22370111Y-2915557D01*
G01X5708400Y-2334986D02*
G01X22370111Y-2334986D01*
G01X5708400Y-1754414D02*
G01X22370111Y-1754414D01*
G01X5708400Y-1173843D02*
G01X22370111Y-1173843D01*
G01X5708400Y-593271D02*
G01X22370111Y-593271D01*
G01X5708400Y-12700D02*
G01X22370111Y-12700D01*
G01X5708400Y-12700D02*
G01X5708400Y-5793014D01*
G01X7159829Y-12700D02*
G01X7159829Y-5793014D01*
G01X8573992Y-12700D02*
G01X8573992Y-5793014D01*
G01X12410807Y-12700D02*
G01X12410807Y-5793014D01*
G01X13872214Y-12700D02*
G01X13872214Y-5793014D01*
G01X15303395Y-12700D02*
G01X15303395Y-5793014D01*
G01X16972574Y-12700D02*
G01X16972574Y-5793014D01*
G01X18891943Y-12700D02*
G01X18891943Y-5793014D01*
G01X22370111Y-12700D02*
G01X22370111Y-5793014D01*

M02*

