G04 Layer: TopLayer*
G04 EasyEDA Pro v3.2.148, 2026-09-13 21:34:24*
G04 Gerber Generator version 0.3*
G04 Scale: 100 percent, Rotated: No, Reflected: No*
G04 Dimensions in millimeters*
G04 Leading zeros omitted, absolute positions, 4 integers and 5 decimals*
G04 Generated by one-click*
G04 Object Configs: Pad,Via,Track,Text,Image,Dimension,BoardOutline,BoardCutout,CopperFilled,SolidRegion,FPCStiffener,Line,PlaneZone,ComponentProperty,ComponentSilkscreen,TearDrop*
G04 Layer Configs: 1,2,3,4,5,6,7,8,9,10,11,13,14,56*
G04 Copper Areas: 156*
%FSLAX45Y45*%
%MOMM*%
%AMPolygonMacro1*4,1,5,-0.12499,0.72499,0.72499,0.72499,0.72499,-0.72499,-0.72499,-0.72499,-0.72499,0.12499,-0.12499,0.72499,0*%
%AMPolygonMacro2*4,1,8,0.64994,0.00001,0.65009,0.00001,0.65009,-0.29999,-0.64994,-0.29999,-0.64994,-0.00001,-0.65009,-0.00001,-0.65009,0.29999,0.64994,0.29999,0.64994,0.00001,0*%
%AMPolygonMacro3*4,1,8,-0.64999,-0.00001,-0.64999,0.00001,-0.64999,0.30001,0.64999,0.30001,0.64999,0.00001,0.64999,-0.00001,0.64999,-0.30001,-0.64999,-0.30001,-0.64999,-0.00001,0*%
%AMPolygonMacro4*4,1,8,0.64999,0.00001,0.64999,-0.00001,0.64999,-0.30001,-0.64999,-0.30001,-0.64999,-0.00001,-0.64999,0.00001,-0.64999,0.30001,0.64999,0.30001,0.64999,0.00001,0*%
%AMPolygonMacro5*4,1,8,0.64997,0.00004,0.65,0.00004,0.65,-0.29999,-0.64997,-0.29999,-0.64997,-0.00004,-0.65,-0.00004,-0.65,0.29999,0.64997,0.29999,0.64997,0.00004,0*%
%ADD10C,0.2032*%
%ADD11C,0.254*%
%ADD12C,1.524*%
%ADD13R,0.5X0.54*%
%ADD14R,0.54X0.5*%
%ADD15R,0.8X0.9*%
%ADD16R,1.41X1.35001*%
%ADD17R,0.9X0.8*%
%ADD18R,1.35001X1.41*%
%ADD19R,1.4976X1.72799*%
%ADD20R,1.48501X1.72799*%
%ADD21R,3.49999X1.0*%
%ADD22R,3.49999X1.5*%
%ADD23O,1.2X1.8*%
%ADD24R,1.2X0.95001*%
%ADD25R,0.95001X1.2*%
%ADD26R,0.6X0.4*%
%ADD27R,0.4X0.6*%
%ADD28R,1.4X4.19999*%
%ADD29R,0.8X0.8*%
%ADD30R,1.54501X0.997*%
%ADD31R,0.7X1.25001*%
%ADD32R,0.56566X0.54*%
%ADD33R,0.54X0.56566*%
%ADD34R,0.80648X0.86401*%
%ADD35R,1.05001X0.7*%
%ADD36C,1.9*%
%ADD37O,2.4X1.4*%
%ADD38R,0.8X0.4*%
%ADD39R,0.4X0.8*%
%ADD40R,0.7X0.7*%
%ADD41PolygonMacro1*%
%ADD42R,1.45001X1.45001*%
%ADD43R,0.48999X1.157*%
%ADD44R,0.48999X1.175*%
%ADD45R,1.157X0.48999*%
%ADD46R,1.175X0.48999*%
%ADD47O,1.8X0.58801*%
%ADD48R,1.3X0.3*%
%ADD49PolygonMacro2*%
%ADD50PolygonMacro3*%
%ADD51PolygonMacro4*%
%ADD52PolygonMacro5*%
%ADD53O,1.8X1.2*%
%ADD54O,2.0X1.2*%
%ADD55R,0.6X0.3*%
%ADD56C,0.61*%
G75*


G04 Copper Start*
G36*
G01X48514Y-1377245D02*
G01X48514Y-908755D01*
G01X55849Y-914218D01*
G01X64329Y-917645D01*
G01X73400Y-918813D01*
G01X423399Y-918813D01*
G01X434466Y-917060D01*
G01X444450Y-911973D01*
G01X452373Y-904050D01*
G01X457460Y-894066D01*
G01X459213Y-882999D01*
G01X459213Y-733000D01*
G01X457460Y-721932D01*
G01X452373Y-711949D01*
G01X444450Y-704025D01*
G01X434466Y-698938D01*
G01X423399Y-697186D01*
G01X73400Y-697186D01*
G01X64329Y-698353D01*
G01X55849Y-701781D01*
G01X48514Y-707244D01*
G01X48514Y-543560D01*
G01X3672586Y-543560D01*
G01X3672586Y-1887365D01*
G01X3658064Y-1875438D01*
G01X3641492Y-1866576D01*
G01X3623510Y-1861118D01*
G01X3604809Y-1859275D01*
G01X3544809Y-1859275D01*
G01X3526104Y-1861118D01*
G01X3508119Y-1866578D01*
G01X3491546Y-1875443D01*
G01X3477023Y-1887373D01*
G01X3465108Y-1901909D01*
G01X3456260Y-1918491D01*
G01X3450819Y-1936482D01*
G01X3448995Y-1955188D01*
G01X3450858Y-1973891D01*
G01X3456336Y-1991870D01*
G01X3465218Y-2008434D01*
G01X3477163Y-2022945D01*
G01X3491712Y-2034845D01*
G01X3508303Y-2043676D01*
G01X3526299Y-2049098D01*
G01X3526299Y-2534990D01*
G01X3413509Y-2647780D01*
G01X3405799Y-2657828D01*
G01X3400952Y-2669528D01*
G01X3399299Y-2682085D01*
G01X3399299Y-3011199D01*
G01X3390900Y-3013878D01*
G01X3383579Y-3011418D01*
G01X3375901Y-3010586D01*
G01X3319336Y-3010586D01*
G01X3308268Y-3012339D01*
G01X3298285Y-3017426D01*
G01X3290361Y-3025349D01*
G01X3285274Y-3035333D01*
G01X3283522Y-3046400D01*
G01X3283522Y-3100400D01*
G01X3285274Y-3111467D01*
G01X3290361Y-3121451D01*
G01X3298285Y-3129374D01*
G01X3308268Y-3134461D01*
G01X3319336Y-3136214D01*
G01X3375901Y-3136214D01*
G01X3383579Y-3135382D01*
G01X3390900Y-3132922D01*
G01X3398221Y-3135382D01*
G01X3405899Y-3136214D01*
G01X3462465Y-3136214D01*
G01X3473532Y-3134461D01*
G01X3483515Y-3129374D01*
G01X3491439Y-3121451D01*
G01X3496526Y-3111467D01*
G01X3498279Y-3100400D01*
G01X3498279Y-3046400D01*
G01X3496327Y-3034739D01*
G01X3496327Y-2902754D01*
G01X3511622Y-2909994D01*
G01X3527953Y-2914431D01*
G01X3544809Y-2915925D01*
G01X3604809Y-2915925D01*
G01X3623510Y-2914082D01*
G01X3641492Y-2908624D01*
G01X3658064Y-2899762D01*
G01X3672586Y-2887835D01*
G01X3672586Y-5856986D01*
G01X48514Y-5856986D01*
G01X48514Y-5651500D01*
G01X141986Y-5651500D01*
G01X143893Y-5672083D01*
G01X149550Y-5691964D01*
G01X158764Y-5710468D01*
G01X171221Y-5726963D01*
G01X186496Y-5740889D01*
G01X204071Y-5751771D01*
G01X223346Y-5759238D01*
G01X243665Y-5763036D01*
G01X264335Y-5763036D01*
G01X284654Y-5759238D01*
G01X303929Y-5751771D01*
G01X321504Y-5740889D01*
G01X336779Y-5726963D01*
G01X349236Y-5710468D01*
G01X358450Y-5691964D01*
G01X364107Y-5672083D01*
G01X366014Y-5651500D01*
G01X364107Y-5630917D01*
G01X358450Y-5611036D01*
G01X350514Y-5595099D01*
G01X2266386Y-5595099D01*
G01X2268227Y-5613792D01*
G01X2273680Y-5631766D01*
G01X2282534Y-5648331D01*
G01X2294449Y-5662850D01*
G01X2308969Y-5674766D01*
G01X2325534Y-5683620D01*
G01X2343508Y-5689072D01*
G01X2362200Y-5690913D01*
G01X2380892Y-5689072D01*
G01X2398866Y-5683620D01*
G01X2415431Y-5674766D01*
G01X2429951Y-5662850D01*
G01X2441866Y-5648331D01*
G01X2450720Y-5631766D01*
G01X2456173Y-5613792D01*
G01X2458014Y-5595099D01*
G01X2456173Y-5576407D01*
G01X2450720Y-5558433D01*
G01X2441866Y-5541868D01*
G01X2429951Y-5527349D01*
G01X2415431Y-5515433D01*
G01X2398866Y-5506579D01*
G01X2380892Y-5501126D01*
G01X2362200Y-5499285D01*
G01X2343508Y-5501126D01*
G01X2325534Y-5506579D01*
G01X2308969Y-5515433D01*
G01X2294449Y-5527349D01*
G01X2282534Y-5541868D01*
G01X2273680Y-5558433D01*
G01X2268227Y-5576407D01*
G01X2266386Y-5595099D01*
G01X2266386Y-5595099D01*
G01X350514Y-5595099D01*
G01X349236Y-5592532D01*
G01X336779Y-5576037D01*
G01X321504Y-5562111D01*
G01X303929Y-5551229D01*
G01X284654Y-5543762D01*
G01X264335Y-5539964D01*
G01X243665Y-5539964D01*
G01X223346Y-5543762D01*
G01X204071Y-5551229D01*
G01X186496Y-5562111D01*
G01X171221Y-5576037D01*
G01X158764Y-5592532D01*
G01X149550Y-5611036D01*
G01X143893Y-5630917D01*
G01X141986Y-5651500D01*
G01X141986Y-5651500D01*
G01X48514Y-5651500D01*
G01X48514Y-2152882D01*
G01X50685Y-2155200D01*
G01X102286Y-2206801D01*
G01X102286Y-2217864D01*
G01X103980Y-2228749D01*
G01X108902Y-2238604D01*
G01X116586Y-2246496D01*
G01X116586Y-3567253D01*
G01X117407Y-3576140D01*
G01X116882Y-3582248D01*
G01X116882Y-3681948D01*
G01X118635Y-3693016D01*
G01X123722Y-3702999D01*
G01X131645Y-3710923D01*
G01X141629Y-3716010D01*
G01X152696Y-3717762D01*
G01X307196Y-3717762D01*
G01X313901Y-3717129D01*
G01X321579Y-3727452D01*
G01X314544Y-3725199D01*
G01X307196Y-3724438D01*
G01X152696Y-3724438D01*
G01X141629Y-3726190D01*
G01X131645Y-3731277D01*
G01X123722Y-3739201D01*
G01X118635Y-3749184D01*
G01X116882Y-3760252D01*
G01X116882Y-3859952D01*
G01X118635Y-3871019D01*
G01X123722Y-3881003D01*
G01X131645Y-3888926D01*
G01X141629Y-3894013D01*
G01X152696Y-3895766D01*
G01X187245Y-3895766D01*
G01X186559Y-3910794D01*
G01X189279Y-3925591D01*
G01X195264Y-3939394D01*
G01X204206Y-3951492D01*
G01X204206Y-4306170D01*
G01X194041Y-4308749D01*
G01X185060Y-4314161D01*
G01X178031Y-4321943D01*
G01X173557Y-4331427D01*
G01X172022Y-4341800D01*
G01X172022Y-4395800D01*
G01X173774Y-4406867D01*
G01X178861Y-4416851D01*
G01X186785Y-4424774D01*
G01X196768Y-4429861D01*
G01X207836Y-4431614D01*
G01X264401Y-4431614D01*
G01X272079Y-4430782D01*
G01X279400Y-4428322D01*
G01X286721Y-4430782D01*
G01X294399Y-4431614D01*
G01X350965Y-4431614D01*
G01X362032Y-4429861D01*
G01X372015Y-4424774D01*
G01X379939Y-4416851D01*
G01X385026Y-4406867D01*
G01X386779Y-4395800D01*
G01X386779Y-4373311D01*
G01X442679Y-4317411D01*
G01X456716Y-4319543D01*
G01X470885Y-4318638D01*
G01X470885Y-4488066D01*
G01X358095Y-4600856D01*
G01X350385Y-4610904D01*
G01X345538Y-4622604D01*
G01X343885Y-4635161D01*
G01X343885Y-5001640D01*
G01X345538Y-5014196D01*
G01X350385Y-5025897D01*
G01X358095Y-5035945D01*
G01X534326Y-5212176D01*
G01X534326Y-5262900D01*
G01X536079Y-5273967D01*
G01X541166Y-5283951D01*
G01X549089Y-5291874D01*
G01X559073Y-5296961D01*
G01X570140Y-5298714D01*
G01X650787Y-5298714D01*
G01X660401Y-5297400D01*
G01X669309Y-5293553D01*
G01X676858Y-5287456D01*
G01X682493Y-5279556D01*
G01X685800Y-5270434D01*
G01X689107Y-5279556D01*
G01X694742Y-5287456D01*
G01X702291Y-5293553D01*
G01X711199Y-5297400D01*
G01X720813Y-5298714D01*
G01X801460Y-5298714D01*
G01X811508Y-5297276D01*
G01X820749Y-5293076D01*
G01X828440Y-5286453D01*
G01X833965Y-5277937D01*
G01X836878Y-5268214D01*
G01X889245Y-5268214D01*
G01X859584Y-5297875D01*
G01X851874Y-5307922D01*
G01X847027Y-5319623D01*
G01X845374Y-5332179D01*
G01X845374Y-5357579D01*
G01X847027Y-5370136D01*
G01X851874Y-5381836D01*
G01X859584Y-5391884D01*
G01X910384Y-5442684D01*
G01X920431Y-5450394D01*
G01X932132Y-5455240D01*
G01X944688Y-5456893D01*
G01X1122488Y-5456893D01*
G01X1135044Y-5455240D01*
G01X1146745Y-5450394D01*
G01X1156792Y-5442684D01*
G01X1331263Y-5268214D01*
G01X1451213Y-5268214D01*
G01X1459904Y-5274796D01*
G01X1469569Y-5279838D01*
G01X1479940Y-5283200D01*
G01X1465118Y-5288630D01*
G01X1452034Y-5297462D01*
G01X1441456Y-5309178D01*
G01X1434003Y-5323094D01*
G01X1430112Y-5338392D01*
G01X1430011Y-5354177D01*
G01X1433705Y-5369524D01*
G01X1440979Y-5383534D01*
G01X1451405Y-5395385D01*
G01X1464374Y-5404385D01*
G01X1479126Y-5410004D01*
G01X1494795Y-5411914D01*
G01X1615994Y-5411914D01*
G01X1631663Y-5410004D01*
G01X1646414Y-5404385D01*
G01X1659383Y-5395385D01*
G01X1669810Y-5383534D01*
G01X1677084Y-5369524D01*
G01X1678149Y-5365100D01*
G01X2026382Y-5365100D01*
G01X2026382Y-5425100D01*
G01X2028223Y-5443792D01*
G01X2033675Y-5461766D01*
G01X2042529Y-5478331D01*
G01X2054445Y-5492850D01*
G01X2068964Y-5504766D01*
G01X2085529Y-5513620D01*
G01X2103503Y-5519072D01*
G01X2122195Y-5520914D01*
G01X2140888Y-5519072D01*
G01X2158862Y-5513620D01*
G01X2175427Y-5504766D01*
G01X2189946Y-5492850D01*
G01X2201862Y-5478331D01*
G01X2210716Y-5461766D01*
G01X2216168Y-5443792D01*
G01X2218009Y-5425100D01*
G01X2218009Y-5365100D01*
G01X2216168Y-5346407D01*
G01X2210716Y-5328433D01*
G01X2201862Y-5311868D01*
G01X2189946Y-5297349D01*
G01X2175427Y-5285433D01*
G01X2158862Y-5276579D01*
G01X2140888Y-5271127D01*
G01X2122195Y-5269286D01*
G01X2103503Y-5271127D01*
G01X2085529Y-5276579D01*
G01X2068964Y-5285433D01*
G01X2054445Y-5297349D01*
G01X2042529Y-5311868D01*
G01X2033675Y-5328433D01*
G01X2028223Y-5346407D01*
G01X2026382Y-5365100D01*
G01X2026382Y-5365100D01*
G01X1678149Y-5365100D01*
G01X1680778Y-5354177D01*
G01X1680677Y-5338392D01*
G01X1676786Y-5323094D01*
G01X1669333Y-5309178D01*
G01X1658755Y-5297462D01*
G01X1645671Y-5288630D01*
G01X1630849Y-5283200D01*
G01X1641219Y-5279838D01*
G01X1650885Y-5274796D01*
G01X1659575Y-5268214D01*
G01X2206710Y-5268214D01*
G01X2506391Y-5567894D01*
G01X2506391Y-5625099D01*
G01X2508232Y-5643792D01*
G01X2513684Y-5661766D01*
G01X2522538Y-5678331D01*
G01X2534454Y-5692850D01*
G01X2548973Y-5704766D01*
G01X2565538Y-5713620D01*
G01X2583512Y-5719072D01*
G01X2602205Y-5720913D01*
G01X2620897Y-5719072D01*
G01X2638871Y-5713620D01*
G01X2655436Y-5704766D01*
G01X2669955Y-5692850D01*
G01X2681871Y-5678331D01*
G01X2690725Y-5661766D01*
G01X2693839Y-5651500D01*
G01X3355086Y-5651500D01*
G01X3356993Y-5672083D01*
G01X3362650Y-5691964D01*
G01X3371864Y-5710468D01*
G01X3384321Y-5726963D01*
G01X3399596Y-5740889D01*
G01X3417171Y-5751771D01*
G01X3436446Y-5759238D01*
G01X3456765Y-5763036D01*
G01X3477435Y-5763036D01*
G01X3497754Y-5759238D01*
G01X3517029Y-5751771D01*
G01X3534604Y-5740889D01*
G01X3549879Y-5726963D01*
G01X3562336Y-5710468D01*
G01X3571550Y-5691964D01*
G01X3577207Y-5672083D01*
G01X3579114Y-5651500D01*
G01X3577207Y-5630917D01*
G01X3571550Y-5611036D01*
G01X3562336Y-5592532D01*
G01X3549879Y-5576037D01*
G01X3534604Y-5562111D01*
G01X3517029Y-5551229D01*
G01X3497754Y-5543762D01*
G01X3477435Y-5539964D01*
G01X3456765Y-5539964D01*
G01X3436446Y-5543762D01*
G01X3417171Y-5551229D01*
G01X3399596Y-5562111D01*
G01X3384321Y-5576037D01*
G01X3371864Y-5592532D01*
G01X3362650Y-5611036D01*
G01X3356993Y-5630917D01*
G01X3355086Y-5651500D01*
G01X3355086Y-5651500D01*
G01X2693839Y-5651500D01*
G01X2696177Y-5643792D01*
G01X2698018Y-5625099D01*
G01X2698018Y-5565099D01*
G01X2696331Y-5547199D01*
G01X2691330Y-5529928D01*
G01X2683190Y-5513897D01*
G01X2672198Y-5499668D01*
G01X2658741Y-5487743D01*
G01X2643293Y-5478543D01*
G01X2626399Y-5472390D01*
G01X2608652Y-5469503D01*
G01X2590678Y-5469981D01*
G01X2573111Y-5473809D01*
G01X2556567Y-5480852D01*
G01X2262944Y-5187229D01*
G01X3273638Y-5187229D01*
G01X3273638Y-5206756D01*
G01X3277226Y-5225950D01*
G01X3284279Y-5244158D01*
G01X3294559Y-5260759D01*
G01X3307714Y-5275190D01*
G01X3323296Y-5286957D01*
G01X3340776Y-5295661D01*
G01X3359557Y-5301005D01*
G01X3379000Y-5302806D01*
G01X3479000Y-5302806D01*
G01X3498443Y-5301005D01*
G01X3517224Y-5295661D01*
G01X3534704Y-5286957D01*
G01X3550286Y-5275190D01*
G01X3563441Y-5260759D01*
G01X3573721Y-5244158D01*
G01X3580774Y-5225950D01*
G01X3584362Y-5206756D01*
G01X3584362Y-5187229D01*
G01X3580774Y-5168035D01*
G01X3573721Y-5149827D01*
G01X3563441Y-5133225D01*
G01X3550286Y-5118795D01*
G01X3534704Y-5107028D01*
G01X3517224Y-5098324D01*
G01X3498443Y-5092980D01*
G01X3479000Y-5091179D01*
G01X3479000Y-5091179D01*
G01X3379000Y-5091179D01*
G01X3359557Y-5092980D01*
G01X3340776Y-5098324D01*
G01X3323296Y-5107028D01*
G01X3307714Y-5118795D01*
G01X3294559Y-5133225D01*
G01X3284279Y-5149827D01*
G01X3277226Y-5168035D01*
G01X3273638Y-5187229D01*
G01X2262944Y-5187229D01*
G01X2261110Y-5185395D01*
G01X2251063Y-5177685D01*
G01X2239362Y-5172839D01*
G01X2226806Y-5171186D01*
G01X1659574Y-5171186D01*
G01X1650884Y-5164604D01*
G01X1641219Y-5159562D01*
G01X1630849Y-5156200D01*
G01X1641219Y-5152838D01*
G01X1650885Y-5147796D01*
G01X1659575Y-5141214D01*
G01X1833976Y-5141214D01*
G01X1846533Y-5139561D01*
G01X1858233Y-5134714D01*
G01X1868281Y-5127004D01*
G01X1909507Y-5085778D01*
G01X1932000Y-5085778D01*
G01X1943386Y-5083921D01*
G01X1953590Y-5078540D01*
G01X1961554Y-5070194D01*
G01X2184396Y-5070194D01*
G01X2196952Y-5068541D01*
G01X2208653Y-5063694D01*
G01X2218700Y-5055985D01*
G01X2267191Y-5007494D01*
G01X2271471Y-5025898D01*
G01X2279279Y-5043105D01*
G01X2290313Y-5058445D01*
G01X2304142Y-5071321D01*
G01X2320229Y-5081233D01*
G01X2337949Y-5087795D01*
G01X2356612Y-5090751D01*
G01X2375492Y-5089988D01*
G01X2393855Y-5085534D01*
G01X2410988Y-5077563D01*
G01X2426222Y-5066385D01*
G01X2438967Y-5052434D01*
G01X2448726Y-5036254D01*
G01X2455120Y-5018473D01*
G01X2457899Y-4999783D01*
G01X2456957Y-4980910D01*
G01X2452330Y-4962590D01*
G01X2444197Y-4945534D01*
G01X2432875Y-4930406D01*
G01X2418804Y-4917794D01*
G01X2506391Y-4917794D01*
G01X2506391Y-4925101D01*
G01X2508232Y-4943793D01*
G01X2513684Y-4961767D01*
G01X2522538Y-4978332D01*
G01X2534454Y-4992851D01*
G01X2548973Y-5004767D01*
G01X2565538Y-5013621D01*
G01X2583512Y-5019073D01*
G01X2602205Y-5020915D01*
G01X2620897Y-5019073D01*
G01X2638871Y-5013621D01*
G01X2655436Y-5004767D01*
G01X2669955Y-4992851D01*
G01X2681871Y-4978332D01*
G01X2690725Y-4961767D01*
G01X2696177Y-4943793D01*
G01X2698018Y-4925101D01*
G01X2698018Y-4871999D01*
G01X3298186Y-4871999D01*
G01X3300174Y-4894715D01*
G01X3306075Y-4916740D01*
G01X3315712Y-4937406D01*
G01X3328791Y-4956085D01*
G01X3344915Y-4972209D01*
G01X3363593Y-4985287D01*
G01X3384259Y-4994924D01*
G01X3406284Y-5000826D01*
G01X3429000Y-5002813D01*
G01X3451716Y-5000826D01*
G01X3473741Y-4994924D01*
G01X3494407Y-4985287D01*
G01X3513085Y-4972209D01*
G01X3529209Y-4956085D01*
G01X3542288Y-4937406D01*
G01X3551925Y-4916740D01*
G01X3557826Y-4894715D01*
G01X3559814Y-4871999D01*
G01X3559814Y-4871999D01*
G01X3557826Y-4849284D01*
G01X3551925Y-4827258D01*
G01X3542288Y-4806592D01*
G01X3529209Y-4787914D01*
G01X3513085Y-4771790D01*
G01X3494407Y-4758711D01*
G01X3473741Y-4749075D01*
G01X3451716Y-4743173D01*
G01X3429000Y-4741186D01*
G01X3406284Y-4743173D01*
G01X3384259Y-4749075D01*
G01X3363593Y-4758711D01*
G01X3344915Y-4771790D01*
G01X3328791Y-4787914D01*
G01X3315712Y-4806592D01*
G01X3306075Y-4827258D01*
G01X3300174Y-4849284D01*
G01X3298186Y-4871999D01*
G01X2698018Y-4871999D01*
G01X2698018Y-4865101D01*
G01X2696019Y-4845628D01*
G01X2690104Y-4826969D01*
G01X2680520Y-4809901D01*
G01X2667667Y-4795137D01*
G01X2652082Y-4783293D01*
G01X2634415Y-4774863D01*
G01X2615404Y-4770200D01*
G01X2595842Y-4769498D01*
G01X2576545Y-4772787D01*
G01X2558320Y-4779928D01*
G01X2541926Y-4790624D01*
G01X2528048Y-4804429D01*
G01X2517265Y-4820766D01*
G01X2336795Y-4820766D01*
G01X2324239Y-4822419D01*
G01X2312538Y-4827266D01*
G01X2302491Y-4834976D01*
G01X2164300Y-4973166D01*
G01X1966457Y-4973166D01*
G01X1967814Y-4963401D01*
G01X1967814Y-4906835D01*
G01X1966061Y-4895768D01*
G01X1960974Y-4885785D01*
G01X1953051Y-4877861D01*
G01X1943067Y-4872774D01*
G01X1932000Y-4871021D01*
G01X1878000Y-4871021D01*
G01X1866933Y-4872774D01*
G01X1856949Y-4877861D01*
G01X1849026Y-4885785D01*
G01X1843939Y-4895768D01*
G01X1842186Y-4906835D01*
G01X1842186Y-4917186D01*
G01X1659575Y-4917186D01*
G01X1646566Y-4908096D01*
G01X1631746Y-4902417D01*
G01X1615994Y-4900485D01*
G01X1558781Y-4900485D01*
G01X1421592Y-4763296D01*
G01X1423114Y-4757434D01*
G01X1423626Y-4751400D01*
G01X1423626Y-4732191D01*
G01X1552042Y-4603775D01*
G01X1559751Y-4593728D01*
G01X1564598Y-4582027D01*
G01X1566251Y-4569471D01*
G01X1566251Y-4535086D01*
G01X1591984Y-4535086D01*
G01X1603052Y-4533334D01*
G01X1613035Y-4528247D01*
G01X1620959Y-4520323D01*
G01X1626046Y-4510340D01*
G01X1627798Y-4499272D01*
G01X1627798Y-4371419D01*
G01X1653801Y-4345416D01*
G01X1661511Y-4335368D01*
G01X1666358Y-4323668D01*
G01X1668011Y-4311111D01*
G01X1668011Y-4299711D01*
G01X1676329Y-4288673D01*
G01X1682178Y-4276149D01*
G01X1685304Y-4262685D01*
G01X1685571Y-4248866D01*
G01X1682967Y-4235291D01*
G01X1698186Y-4250510D01*
G01X1698186Y-4497712D01*
G01X1699938Y-4508779D01*
G01X1705025Y-4518763D01*
G01X1712949Y-4526686D01*
G01X1722932Y-4531773D01*
G01X1734000Y-4533526D01*
G01X1873999Y-4533526D01*
G01X1884060Y-4532084D01*
G01X1922092Y-4570115D01*
G01X1932139Y-4577825D01*
G01X1943840Y-4582672D01*
G01X1956396Y-4584325D01*
G01X2362795Y-4584325D01*
G01X2375352Y-4582672D01*
G01X2387052Y-4577825D01*
G01X2394644Y-4572000D01*
G01X3298186Y-4572000D01*
G01X3300174Y-4594716D01*
G01X3306075Y-4616741D01*
G01X3315712Y-4637407D01*
G01X3328791Y-4656085D01*
G01X3344915Y-4672209D01*
G01X3363593Y-4685288D01*
G01X3384259Y-4694925D01*
G01X3406284Y-4700826D01*
G01X3429000Y-4702814D01*
G01X3451716Y-4700826D01*
G01X3473741Y-4694925D01*
G01X3494407Y-4685288D01*
G01X3513085Y-4672209D01*
G01X3529209Y-4656085D01*
G01X3542288Y-4637407D01*
G01X3551925Y-4616741D01*
G01X3557826Y-4594716D01*
G01X3559814Y-4572000D01*
G01X3559814Y-4572000D01*
G01X3557826Y-4549284D01*
G01X3551925Y-4527259D01*
G01X3542288Y-4506593D01*
G01X3529209Y-4487915D01*
G01X3513085Y-4471791D01*
G01X3494407Y-4458712D01*
G01X3473741Y-4449075D01*
G01X3451716Y-4443174D01*
G01X3429000Y-4441186D01*
G01X3406284Y-4443174D01*
G01X3384259Y-4449075D01*
G01X3363593Y-4458712D01*
G01X3344915Y-4471791D01*
G01X3328791Y-4487915D01*
G01X3315712Y-4506593D01*
G01X3306075Y-4527259D01*
G01X3300174Y-4549284D01*
G01X3298186Y-4572000D01*
G01X2394644Y-4572000D01*
G01X2397100Y-4570115D01*
G01X2510201Y-4457014D01*
G01X2522665Y-4457014D01*
G01X2533549Y-4455320D01*
G01X2543403Y-4450399D01*
G01X2551296Y-4442715D01*
G01X2695940Y-4442715D01*
G01X2699079Y-4452107D01*
G01X2704670Y-4460280D01*
G01X2712285Y-4466610D01*
G01X2721343Y-4470612D01*
G01X2731150Y-4471981D01*
G01X2821150Y-4471981D01*
G01X2832217Y-4470229D01*
G01X2842201Y-4465142D01*
G01X2850124Y-4457218D01*
G01X2855211Y-4447235D01*
G01X2856964Y-4436167D01*
G01X2856964Y-4379621D01*
G01X2964584Y-4272001D01*
G01X3298186Y-4272001D01*
G01X3300174Y-4294716D01*
G01X3306075Y-4316742D01*
G01X3315712Y-4337408D01*
G01X3328791Y-4356086D01*
G01X3344915Y-4372210D01*
G01X3363593Y-4385289D01*
G01X3384259Y-4394925D01*
G01X3406284Y-4400827D01*
G01X3429000Y-4402814D01*
G01X3451716Y-4400827D01*
G01X3473741Y-4394925D01*
G01X3494407Y-4385289D01*
G01X3513085Y-4372210D01*
G01X3529209Y-4356086D01*
G01X3542288Y-4337408D01*
G01X3551925Y-4316742D01*
G01X3557826Y-4294716D01*
G01X3559814Y-4272001D01*
G01X3559814Y-4272001D01*
G01X3557826Y-4249285D01*
G01X3551925Y-4227260D01*
G01X3542288Y-4206594D01*
G01X3529209Y-4187915D01*
G01X3513085Y-4171791D01*
G01X3494407Y-4158713D01*
G01X3473741Y-4149076D01*
G01X3451716Y-4143174D01*
G01X3429000Y-4141187D01*
G01X3406284Y-4143174D01*
G01X3384259Y-4149076D01*
G01X3363593Y-4158713D01*
G01X3344915Y-4171791D01*
G01X3328791Y-4187915D01*
G01X3315712Y-4206594D01*
G01X3306075Y-4227260D01*
G01X3300174Y-4249285D01*
G01X3298186Y-4272001D01*
G01X2964584Y-4272001D01*
G01X3033829Y-4202756D01*
G01X3041538Y-4192709D01*
G01X3046385Y-4181008D01*
G01X3048038Y-4168452D01*
G01X3048038Y-4101926D01*
G01X3067023Y-4101926D01*
G01X3078090Y-4100173D01*
G01X3088074Y-4095086D01*
G01X3095997Y-4087163D01*
G01X3101084Y-4077179D01*
G01X3102837Y-4066112D01*
G01X3102837Y-3937244D01*
G01X3273638Y-3937244D01*
G01X3273638Y-3956771D01*
G01X3277226Y-3975965D01*
G01X3284279Y-3994173D01*
G01X3294559Y-4010775D01*
G01X3307714Y-4025205D01*
G01X3323296Y-4036972D01*
G01X3340776Y-4045676D01*
G01X3359557Y-4051020D01*
G01X3379000Y-4052821D01*
G01X3479000Y-4052821D01*
G01X3498443Y-4051020D01*
G01X3517224Y-4045676D01*
G01X3534704Y-4036972D01*
G01X3550286Y-4025205D01*
G01X3563441Y-4010775D01*
G01X3573721Y-3994173D01*
G01X3580774Y-3975965D01*
G01X3584362Y-3956771D01*
G01X3584362Y-3937244D01*
G01X3580774Y-3918050D01*
G01X3573721Y-3899842D01*
G01X3563441Y-3883241D01*
G01X3550286Y-3868810D01*
G01X3534704Y-3857043D01*
G01X3517224Y-3848339D01*
G01X3498443Y-3842995D01*
G01X3479000Y-3841194D01*
G01X3479000Y-3841194D01*
G01X3379000Y-3841194D01*
G01X3359557Y-3842995D01*
G01X3340776Y-3848339D01*
G01X3323296Y-3857043D01*
G01X3307714Y-3868810D01*
G01X3294559Y-3883241D01*
G01X3284279Y-3899842D01*
G01X3277226Y-3918050D01*
G01X3273638Y-3937244D01*
G01X3102837Y-3937244D01*
G01X3102837Y-3925112D01*
G01X3100990Y-3913757D01*
G01X3095637Y-3903573D01*
G01X3087331Y-3895612D01*
G01X3095637Y-3887651D01*
G01X3100990Y-3877468D01*
G01X3102837Y-3866113D01*
G01X3102837Y-3725112D01*
G01X3101084Y-3714045D01*
G01X3095997Y-3704061D01*
G01X3088074Y-3696138D01*
G01X3078090Y-3691051D01*
G01X3067023Y-3689298D01*
G01X2932022Y-3689298D01*
G01X2920955Y-3691051D01*
G01X2910971Y-3696138D01*
G01X2903048Y-3704061D01*
G01X2897961Y-3714045D01*
G01X2896208Y-3725112D01*
G01X2896208Y-3866113D01*
G01X2898056Y-3877468D01*
G01X2903409Y-3887651D01*
G01X2911714Y-3895612D01*
G01X2903409Y-3903573D01*
G01X2898056Y-3913757D01*
G01X2896208Y-3925112D01*
G01X2896208Y-4066112D01*
G01X2897961Y-4077179D01*
G01X2903048Y-4087163D01*
G01X2910971Y-4095086D01*
G01X2920955Y-4100173D01*
G01X2932022Y-4101926D01*
G01X2951010Y-4101926D01*
G01X2951010Y-4148357D01*
G01X2856964Y-4242402D01*
G01X2856964Y-4216163D01*
G01X2855422Y-4205768D01*
G01X2850930Y-4196268D01*
G01X2843874Y-4188481D01*
G01X2834861Y-4183077D01*
G01X2824668Y-4180522D01*
G01X2824668Y-3929432D01*
G01X2823015Y-3916875D01*
G01X2818169Y-3905175D01*
G01X2810459Y-3895127D01*
G01X2748429Y-3833098D01*
G01X2739975Y-3826349D01*
G01X2730236Y-3821642D01*
G01X2722326Y-3813828D01*
G01X2712401Y-3808816D01*
G01X2701417Y-3807090D01*
G01X2691189Y-3807090D01*
G01X2691189Y-3611377D01*
G01X2693115Y-3604831D01*
G01X2693765Y-3598039D01*
G01X2693765Y-3544038D01*
G01X2692012Y-3532971D01*
G01X2686925Y-3522987D01*
G01X2679002Y-3515064D01*
G01X2669018Y-3509977D01*
G01X2657951Y-3508224D01*
G01X2601385Y-3508224D01*
G01X2593708Y-3509057D01*
G01X2586387Y-3511516D01*
G01X2579066Y-3509057D01*
G01X2571388Y-3508224D01*
G01X2514822Y-3508224D01*
G01X2503755Y-3509977D01*
G01X2493771Y-3515064D01*
G01X2485848Y-3522987D01*
G01X2480761Y-3532971D01*
G01X2479008Y-3544038D01*
G01X2479008Y-3598039D01*
G01X2480761Y-3609106D01*
G01X2485848Y-3619089D01*
G01X2493771Y-3627013D01*
G01X2503755Y-3632100D01*
G01X2514822Y-3633853D01*
G01X2571388Y-3633853D01*
G01X2579066Y-3633020D01*
G01X2586387Y-3630561D01*
G01X2594161Y-3633116D01*
G01X2594161Y-3807090D01*
G01X2583917Y-3807090D01*
G01X2572849Y-3808843D01*
G01X2562866Y-3813930D01*
G01X2554942Y-3821853D01*
G01X2549855Y-3831837D01*
G01X2548103Y-3842904D01*
G01X2548103Y-3864411D01*
G01X2516789Y-3833098D01*
G01X2508339Y-3826351D01*
G01X2498604Y-3821644D01*
G01X2490694Y-3813829D01*
G01X2480768Y-3808817D01*
G01X2469783Y-3807090D01*
G01X2354083Y-3807090D01*
G01X2343016Y-3808843D01*
G01X2333032Y-3813930D01*
G01X2325109Y-3821853D01*
G01X2320022Y-3831837D01*
G01X2318269Y-3842904D01*
G01X2318269Y-3891904D01*
G01X2319233Y-3900153D01*
G01X2322070Y-3907959D01*
G01X2326630Y-3914902D01*
G01X2321602Y-3922814D01*
G01X2309861Y-3915488D01*
G01X2296856Y-3910757D01*
G01X2283152Y-3908829D01*
G01X2162720Y-3788398D01*
G01X2152673Y-3780688D01*
G01X2140972Y-3775841D01*
G01X2128416Y-3774188D01*
G01X1976016Y-3774188D01*
G01X1963460Y-3775841D01*
G01X1951759Y-3780688D01*
G01X1941711Y-3788398D01*
G01X1922010Y-3808099D01*
G01X1922010Y-3767628D01*
G01X1958601Y-3731038D01*
G01X1966310Y-3720990D01*
G01X1971157Y-3709290D01*
G01X1972810Y-3696733D01*
G01X1972810Y-3564429D01*
G01X2182724Y-3354514D01*
G01X2231100Y-3354514D01*
G01X2242456Y-3352667D01*
G01X2252639Y-3347314D01*
G01X2260600Y-3339009D01*
G01X2268561Y-3347314D01*
G01X2278744Y-3352667D01*
G01X2290100Y-3354514D01*
G01X2431100Y-3354514D01*
G01X2442167Y-3352762D01*
G01X2452151Y-3347675D01*
G01X2460074Y-3339751D01*
G01X2465161Y-3329768D01*
G01X2466914Y-3318700D01*
G01X2466914Y-3296194D01*
G01X2788986Y-3296194D01*
G01X2788986Y-3356193D01*
G01X2790739Y-3367261D01*
G01X2795826Y-3377244D01*
G01X2803749Y-3385168D01*
G01X2813733Y-3390255D01*
G01X2824800Y-3392007D01*
G01X2864800Y-3392007D01*
G01X2864800Y-3392007D01*
G01X2875867Y-3390255D01*
G01X2885851Y-3385168D01*
G01X2893774Y-3377244D01*
G01X2898861Y-3367261D01*
G01X2900614Y-3356193D01*
G01X2900614Y-3296194D01*
G01X2898861Y-3285126D01*
G01X2893774Y-3275143D01*
G01X2885851Y-3267219D01*
G01X2875867Y-3262132D01*
G01X2864800Y-3260380D01*
G01X2824800Y-3260380D01*
G01X2813733Y-3262132D01*
G01X2803749Y-3267219D01*
G01X2795826Y-3275143D01*
G01X2790739Y-3285126D01*
G01X2788986Y-3296194D01*
G01X2466914Y-3296194D01*
G01X2466914Y-3183699D01*
G01X2465161Y-3172632D01*
G01X2460074Y-3162649D01*
G01X2452151Y-3154725D01*
G01X2442167Y-3149638D01*
G01X2431100Y-3147885D01*
G01X2290100Y-3147885D01*
G01X2278744Y-3149733D01*
G01X2268561Y-3155086D01*
G01X2260600Y-3163391D01*
G01X2252639Y-3155086D01*
G01X2242456Y-3149733D01*
G01X2231100Y-3147885D01*
G01X2090100Y-3147885D01*
G01X2079033Y-3149638D01*
G01X2069049Y-3154725D01*
G01X2061126Y-3162649D01*
G01X2056039Y-3172632D01*
G01X2054286Y-3183699D01*
G01X2054286Y-3318700D01*
G01X2055945Y-3329475D01*
G01X2060769Y-3339251D01*
G01X1956510Y-3443511D01*
G01X1956510Y-3381231D01*
G01X1954757Y-3370164D01*
G01X1949670Y-3360181D01*
G01X1941747Y-3352257D01*
G01X1931763Y-3347170D01*
G01X1920696Y-3345417D01*
G01X1855990Y-3345417D01*
G01X1833800Y-3323228D01*
G01X1833800Y-2837771D01*
G01X1842175Y-2834566D01*
G01X1849491Y-2829381D01*
G01X1855290Y-2822541D01*
G01X1863275Y-2831231D01*
G01X1873652Y-2836853D01*
G01X1885292Y-2838798D01*
G01X1965292Y-2838798D01*
G01X1976359Y-2837045D01*
G01X1986343Y-2831958D01*
G01X1994266Y-2824035D01*
G01X1999353Y-2814051D01*
G01X2001106Y-2802984D01*
G01X2001106Y-2712984D01*
G01X1999353Y-2701917D01*
G01X1994266Y-2691933D01*
G01X1986343Y-2684010D01*
G01X1976359Y-2678923D01*
G01X1965292Y-2677170D01*
G01X1885292Y-2677170D01*
G01X1873652Y-2679115D01*
G01X1863275Y-2684737D01*
G01X1855290Y-2693427D01*
G01X1849136Y-2686265D01*
G01X1841324Y-2680961D01*
G01X1832397Y-2677883D01*
G01X1838423Y-2671858D01*
G01X1853604Y-2669543D01*
G01X1867846Y-2663799D01*
G01X1880384Y-2654933D01*
G01X1890548Y-2643420D01*
G01X1897790Y-2629879D01*
G01X1901724Y-2615034D01*
G01X1902137Y-2599683D01*
G01X1899009Y-2584649D01*
G01X1892506Y-2570737D01*
G01X1882977Y-2558694D01*
G01X1870934Y-2549165D01*
G01X1857022Y-2542662D01*
G01X1841988Y-2539534D01*
G01X1826637Y-2539948D01*
G01X1811792Y-2543881D01*
G01X1798251Y-2551124D01*
G01X1786738Y-2561287D01*
G01X1777872Y-2573825D01*
G01X1772128Y-2588067D01*
G01X1769814Y-2603248D01*
G01X1734487Y-2638575D01*
G01X1704211Y-2608300D01*
G01X1694164Y-2600590D01*
G01X1682463Y-2595744D01*
G01X1669907Y-2594091D01*
G01X1544904Y-2594091D01*
G01X1544904Y-2583862D01*
G01X1543151Y-2572795D01*
G01X1538064Y-2562811D01*
G01X1530141Y-2554888D01*
G01X1520157Y-2549801D01*
G01X1509090Y-2548048D01*
G01X1504699Y-2548048D01*
G01X1490111Y-2533459D01*
G01X1503094Y-2528336D01*
G01X1514717Y-2520609D01*
G01X1524465Y-2510621D01*
G01X1531907Y-2498814D01*
G01X1536713Y-2485710D01*
G01X1538670Y-2471891D01*
G01X1670292Y-2340269D01*
G01X1721422Y-2340269D01*
G01X1721422Y-2389200D01*
G01X1723174Y-2400267D01*
G01X1728261Y-2410251D01*
G01X1736185Y-2418174D01*
G01X1746168Y-2423261D01*
G01X1757236Y-2425014D01*
G01X1813801Y-2425014D01*
G01X1821479Y-2424182D01*
G01X1828800Y-2421722D01*
G01X1836121Y-2424182D01*
G01X1843799Y-2425014D01*
G01X1900365Y-2425014D01*
G01X1911432Y-2423261D01*
G01X1921415Y-2418174D01*
G01X1929339Y-2410251D01*
G01X1934426Y-2400267D01*
G01X1936179Y-2389200D01*
G01X1936179Y-2335200D01*
G01X1934907Y-2325741D01*
G01X1931182Y-2316954D01*
G01X1925270Y-2309463D01*
G01X1917588Y-2303799D01*
G01X2005316Y-2303799D01*
G01X2017872Y-2302146D01*
G01X2029573Y-2297300D01*
G01X2039621Y-2289590D01*
G01X2244081Y-2085129D01*
G01X2244081Y-2110971D01*
G01X1912350Y-2442702D01*
G01X1899219Y-2449968D01*
G01X1888058Y-2460001D01*
G01X1879439Y-2472286D01*
G01X1873803Y-2486195D01*
G01X1871439Y-2501015D01*
G01X1872467Y-2515987D01*
G01X1876836Y-2530344D01*
G01X1884321Y-2543352D01*
G01X1894540Y-2554343D01*
G01X1906968Y-2562755D01*
G01X1920969Y-2568157D01*
G01X1935827Y-2570273D01*
G01X1950779Y-2568994D01*
G01X1965061Y-2564385D01*
G01X1977942Y-2556683D01*
G01X1988760Y-2546281D01*
G01X1996963Y-2533714D01*
G01X2002130Y-2519624D01*
G01X2003996Y-2504733D01*
G01X2002466Y-2489804D01*
G01X2300193Y-2192077D01*
G01X2374896Y-2192077D01*
G01X2385963Y-2190324D01*
G01X2395947Y-2185237D01*
G01X2403870Y-2177314D01*
G01X2408957Y-2167330D01*
G01X2410710Y-2156263D01*
G01X2410710Y-2049800D01*
G01X2462515Y-2049800D01*
G01X2475071Y-2048147D01*
G01X2486772Y-2043300D01*
G01X2496820Y-2035591D01*
G01X2801619Y-1730791D01*
G01X2809329Y-1720744D01*
G01X2814175Y-1709043D01*
G01X2815828Y-1696487D01*
G01X2815828Y-1694222D01*
G01X2827289Y-1696105D01*
G01X2836871Y-1696105D01*
G01X2838650Y-1711166D01*
G01X2843804Y-1725428D01*
G01X2852064Y-1738146D01*
G01X2862997Y-1748655D01*
G01X2876031Y-1756406D01*
G01X2890486Y-1760993D01*
G01X2905604Y-1762176D01*
G01X2920596Y-1759894D01*
G01X2934678Y-1754265D01*
G01X2947113Y-1745584D01*
G01X2957250Y-1734306D01*
G01X2964560Y-1721019D01*
G01X2968660Y-1706419D01*
G01X2969336Y-1691269D01*
G01X2978003Y-1694875D01*
G01X2987309Y-1696105D01*
G01X3027309Y-1696105D01*
G01X3038943Y-1694163D01*
G01X3049316Y-1688547D01*
G01X3057301Y-1679865D01*
G01X3065286Y-1688548D01*
G01X3075659Y-1694166D01*
G01X3087295Y-1696109D01*
G01X3157295Y-1696109D01*
G01X3168362Y-1694356D01*
G01X3178346Y-1689269D01*
G01X3186269Y-1681346D01*
G01X3191356Y-1671362D01*
G01X3193109Y-1660295D01*
G01X3193109Y-1590295D01*
G01X3191549Y-1579839D01*
G01X3187004Y-1570294D01*
G01X3189584Y-1565786D01*
G01X3246579Y-1622782D01*
G01X3246579Y-1873205D01*
G01X3230937Y-1865553D01*
G01X3214168Y-1860857D01*
G01X3196826Y-1859275D01*
G01X3116826Y-1859275D01*
G01X3098818Y-1860983D01*
G01X3081451Y-1866044D01*
G01X3065346Y-1874280D01*
G01X3051075Y-1885396D01*
G01X3039148Y-1898997D01*
G01X3029989Y-1914596D01*
G01X3023926Y-1931639D01*
G01X3021175Y-1949518D01*
G01X3021832Y-1967595D01*
G01X3025876Y-1985227D01*
G01X3033161Y-2001784D01*
G01X3014983Y-2001784D01*
G01X3003915Y-2003537D01*
G01X2993932Y-2008624D01*
G01X2986008Y-2016547D01*
G01X2980921Y-2026531D01*
G01X2979169Y-2037598D01*
G01X2979169Y-2097601D01*
G01X2979850Y-2104556D01*
G01X2973589Y-2108456D01*
G01X2967991Y-2113261D01*
G01X2840991Y-2240261D01*
G01X2833281Y-2250308D01*
G01X2828435Y-2262009D01*
G01X2826782Y-2274565D01*
G01X2826782Y-2329993D01*
G01X2769175Y-2272387D01*
G01X2769175Y-2249898D01*
G01X2767422Y-2238830D01*
G01X2762335Y-2228847D01*
G01X2754412Y-2220923D01*
G01X2744428Y-2215836D01*
G01X2733361Y-2214084D01*
G01X2676796Y-2214084D01*
G01X2669118Y-2214916D01*
G01X2661797Y-2217376D01*
G01X2654476Y-2214916D01*
G01X2646798Y-2214084D01*
G01X2590232Y-2214084D01*
G01X2579165Y-2215836D01*
G01X2569181Y-2220923D01*
G01X2561258Y-2228847D01*
G01X2556171Y-2238830D01*
G01X2554418Y-2249898D01*
G01X2554418Y-2303898D01*
G01X2556171Y-2314965D01*
G01X2561258Y-2324949D01*
G01X2569181Y-2332872D01*
G01X2579165Y-2337959D01*
G01X2590232Y-2339712D01*
G01X2646798Y-2339712D01*
G01X2654476Y-2338879D01*
G01X2661797Y-2336420D01*
G01X2669118Y-2338879D01*
G01X2676796Y-2339712D01*
G01X2699282Y-2339712D01*
G01X2741154Y-2381584D01*
G01X2736813Y-2392835D01*
G01X2734580Y-2404685D01*
G01X2734531Y-2416744D01*
G01X2736666Y-2428612D01*
G01X2726925Y-2431250D01*
G01X2717940Y-2435845D01*
G01X2710100Y-2442200D01*
G01X2684700Y-2467600D01*
G01X2677076Y-2477500D01*
G01X2672233Y-2489019D01*
G01X2670493Y-2501392D01*
G01X2517591Y-2501392D01*
G01X2430201Y-2414002D01*
G01X2421165Y-2406893D01*
G01X2410710Y-2402109D01*
G01X2410710Y-2376268D01*
G01X2408957Y-2365200D01*
G01X2403870Y-2355217D01*
G01X2395947Y-2347293D01*
G01X2385963Y-2342206D01*
G01X2374896Y-2340454D01*
G01X2279895Y-2340454D01*
G01X2268828Y-2342206D01*
G01X2258844Y-2347293D01*
G01X2250921Y-2355217D01*
G01X2245834Y-2365200D01*
G01X2244081Y-2376268D01*
G01X2244081Y-2496267D01*
G01X2245834Y-2507334D01*
G01X2250921Y-2517318D01*
G01X2258844Y-2525241D01*
G01X2268828Y-2530328D01*
G01X2279895Y-2532081D01*
G01X2293383Y-2532081D01*
G01X2293383Y-2630318D01*
G01X2274415Y-2649286D01*
G01X2257207Y-2649286D01*
G01X2246139Y-2651039D01*
G01X2236156Y-2656126D01*
G01X2228232Y-2664049D01*
G01X2223145Y-2674033D01*
G01X2221393Y-2685100D01*
G01X2221393Y-2725100D01*
G01X2223145Y-2736167D01*
G01X2228232Y-2746151D01*
G01X2236156Y-2754074D01*
G01X2246139Y-2759161D01*
G01X2257207Y-2760914D01*
G01X2317206Y-2760914D01*
G01X2328274Y-2759161D01*
G01X2338257Y-2754074D01*
G01X2346181Y-2746151D01*
G01X2351268Y-2736167D01*
G01X2353020Y-2725100D01*
G01X2353020Y-2707899D01*
G01X2371380Y-2689540D01*
G01X2371380Y-2725100D01*
G01X2373132Y-2736167D01*
G01X2378219Y-2746151D01*
G01X2386143Y-2754074D01*
G01X2396126Y-2759161D01*
G01X2407194Y-2760914D01*
G01X2467193Y-2760914D01*
G01X2478261Y-2759161D01*
G01X2488244Y-2754074D01*
G01X2496168Y-2746151D01*
G01X2501255Y-2736167D01*
G01X2503007Y-2725100D01*
G01X2503007Y-2685100D01*
G01X2502174Y-2677419D01*
G01X2713981Y-2677419D01*
G01X2712786Y-2686594D01*
G01X2712786Y-2746593D01*
G01X2714539Y-2757661D01*
G01X2719626Y-2767644D01*
G01X2727549Y-2775568D01*
G01X2737533Y-2780655D01*
G01X2748600Y-2782407D01*
G01X2788600Y-2782407D01*
G01X2799667Y-2780655D01*
G01X2809651Y-2775568D01*
G01X2817574Y-2767644D01*
G01X2822661Y-2757661D01*
G01X2824414Y-2746593D01*
G01X2824414Y-2686594D01*
G01X2823240Y-2677497D01*
G01X2979169Y-2677615D01*
G01X2979184Y-2707606D01*
G01X2979184Y-2737594D01*
G01X2980937Y-2748661D01*
G01X2986024Y-2758645D01*
G01X2993947Y-2766568D01*
G01X3003931Y-2771655D01*
G01X3014998Y-2773408D01*
G01X3033166Y-2773408D01*
G01X3025878Y-2789966D01*
G01X3021833Y-2807598D01*
G01X3021174Y-2825676D01*
G01X3023925Y-2843555D01*
G01X3029987Y-2860599D01*
G01X3039145Y-2876200D01*
G01X3051073Y-2889801D01*
G01X3065344Y-2900918D01*
G01X3081450Y-2909155D01*
G01X3098817Y-2914217D01*
G01X3116826Y-2915925D01*
G01X3163484Y-2915925D01*
G01X3097199Y-2982210D01*
G01X2990294Y-2982210D01*
G01X2977738Y-2983863D01*
G01X2966037Y-2988710D01*
G01X2955989Y-2996419D01*
G01X2842016Y-3110393D01*
G01X2824800Y-3110393D01*
G01X2813733Y-3112145D01*
G01X2803749Y-3117232D01*
G01X2795826Y-3125156D01*
G01X2790739Y-3135139D01*
G01X2788986Y-3146207D01*
G01X2788986Y-3206206D01*
G01X2790739Y-3217274D01*
G01X2795826Y-3227257D01*
G01X2803749Y-3235181D01*
G01X2813733Y-3240268D01*
G01X2824800Y-3242020D01*
G01X2864800Y-3242020D01*
G01X2875867Y-3240268D01*
G01X2875964Y-3240218D01*
G01X3001956Y-3240218D01*
G01X3001956Y-3294219D01*
G01X3003709Y-3305286D01*
G01X3008796Y-3315270D01*
G01X3016719Y-3323193D01*
G01X3026703Y-3328280D01*
G01X3037770Y-3330033D01*
G01X3094336Y-3330033D01*
G01X3102014Y-3329200D01*
G01X3109335Y-3326741D01*
G01X3116655Y-3329200D01*
G01X3124333Y-3330033D01*
G01X3180899Y-3330033D01*
G01X3191966Y-3328280D01*
G01X3201950Y-3323193D01*
G01X3209873Y-3315270D01*
G01X3214960Y-3305286D01*
G01X3216713Y-3294219D01*
G01X3216713Y-3240218D01*
G01X3214960Y-3229151D01*
G01X3209873Y-3219167D01*
G01X3201950Y-3211244D01*
G01X3191966Y-3206157D01*
G01X3180899Y-3204404D01*
G01X3130008Y-3204404D01*
G01X3130008Y-3197594D01*
G01X3139106Y-3185222D01*
G01X3145115Y-3171090D01*
G01X3147712Y-3155954D01*
G01X3146757Y-3140627D01*
G01X3142303Y-3125931D01*
G01X3134588Y-3112653D01*
G01X3124026Y-3101506D01*
G01X3111183Y-3093087D01*
G01X3096747Y-3087848D01*
G01X3081494Y-3086070D01*
G01X3066240Y-3087848D01*
G01X3051805Y-3093087D01*
G01X3038962Y-3101506D01*
G01X3028399Y-3112653D01*
G01X3020684Y-3125931D01*
G01X3016230Y-3140627D01*
G01X3015276Y-3155954D01*
G01X3017873Y-3171090D01*
G01X3023882Y-3185222D01*
G01X3032980Y-3197594D01*
G01X3032980Y-3204726D01*
G01X3032980Y-3204726D01*
G01X3023118Y-3207539D01*
G01X3014458Y-3213031D01*
G01X3007709Y-3220752D01*
G01X3003424Y-3230069D01*
G01X3001956Y-3240218D01*
G01X2875964Y-3240218D01*
G01X2885851Y-3235181D01*
G01X2893774Y-3227257D01*
G01X2898861Y-3217274D01*
G01X2900614Y-3206206D01*
G01X2900614Y-3189013D01*
G01X3010389Y-3079238D01*
G01X3117294Y-3079238D01*
G01X3129850Y-3077585D01*
G01X3141551Y-3072738D01*
G01X3151598Y-3065028D01*
G01X3329398Y-2887229D01*
G01X3337108Y-2877181D01*
G01X3341954Y-2865481D01*
G01X3343607Y-2852924D01*
G01X3343607Y-2577705D01*
G01X3341954Y-2565149D01*
G01X3337108Y-2553448D01*
G01X3329398Y-2543400D01*
G01X3235527Y-2449529D01*
G01X3240359Y-2437843D01*
G01X3242008Y-2425305D01*
G01X3242008Y-2390085D01*
G01X3240359Y-2377547D01*
G01X3235527Y-2365861D01*
G01X3329398Y-2271990D01*
G01X3337108Y-2261943D01*
G01X3341954Y-2250242D01*
G01X3343607Y-2237686D01*
G01X3343607Y-1602687D01*
G01X3341954Y-1590130D01*
G01X3337108Y-1578430D01*
G01X3329398Y-1568382D01*
G01X3193105Y-1432089D01*
G01X3193105Y-1430289D01*
G01X3191546Y-1419838D01*
G01X3187006Y-1410297D01*
G01X3191546Y-1400756D01*
G01X3193105Y-1390305D01*
G01X3193105Y-1350305D01*
G01X3191544Y-1339846D01*
G01X3186997Y-1330300D01*
G01X3191544Y-1320753D01*
G01X3193105Y-1310295D01*
G01X3193105Y-1270295D01*
G01X3191546Y-1259844D01*
G01X3187006Y-1250302D01*
G01X3191546Y-1240761D01*
G01X3193105Y-1230310D01*
G01X3193105Y-1190310D01*
G01X3191544Y-1179852D01*
G01X3186997Y-1170305D01*
G01X3191544Y-1160758D01*
G01X3193105Y-1150300D01*
G01X3193105Y-1110300D01*
G01X3191544Y-1099842D01*
G01X3186997Y-1090295D01*
G01X3191544Y-1080748D01*
G01X3193105Y-1070290D01*
G01X3193105Y-1030290D01*
G01X3191546Y-1019839D01*
G01X3187006Y-1010298D01*
G01X3191546Y-1000756D01*
G01X3193105Y-990305D01*
G01X3193105Y-950305D01*
G01X3191544Y-939847D01*
G01X3186997Y-930300D01*
G01X3191544Y-920754D01*
G01X3193105Y-910295D01*
G01X3193105Y-870295D01*
G01X3191546Y-859844D01*
G01X3187006Y-850303D01*
G01X3191546Y-840762D01*
G01X3193105Y-830311D01*
G01X3193105Y-790311D01*
G01X3191544Y-779852D01*
G01X3186997Y-770306D01*
G01X3191544Y-760759D01*
G01X3193105Y-750301D01*
G01X3193105Y-710301D01*
G01X3191546Y-699848D01*
G01X3187004Y-690306D01*
G01X3191549Y-680761D01*
G01X3193109Y-670305D01*
G01X3193109Y-600305D01*
G01X3191356Y-589238D01*
G01X3186269Y-579254D01*
G01X3178346Y-571331D01*
G01X3168362Y-566244D01*
G01X3157295Y-564491D01*
G01X3087295Y-564491D01*
G01X3075659Y-566434D01*
G01X3065286Y-572052D01*
G01X3057301Y-580735D01*
G01X3049316Y-572053D01*
G01X3038943Y-566437D01*
G01X3027309Y-564495D01*
G01X2987309Y-564495D01*
G01X2976851Y-566056D01*
G01X2967304Y-570603D01*
G01X2957758Y-566056D01*
G01X2947299Y-564495D01*
G01X2907299Y-564495D01*
G01X2896841Y-566056D01*
G01X2887294Y-570603D01*
G01X2877748Y-566056D01*
G01X2867289Y-564495D01*
G01X2827289Y-564495D01*
G01X2816838Y-566053D01*
G01X2807297Y-570594D01*
G01X2797756Y-566053D01*
G01X2787305Y-564495D01*
G01X2747305Y-564495D01*
G01X2736846Y-566056D01*
G01X2727300Y-570603D01*
G01X2717753Y-566056D01*
G01X2707295Y-564495D01*
G01X2667295Y-564495D01*
G01X2656844Y-566053D01*
G01X2647302Y-570594D01*
G01X2637761Y-566053D01*
G01X2627310Y-564495D01*
G01X2587310Y-564495D01*
G01X2576852Y-566056D01*
G01X2567305Y-570603D01*
G01X2557758Y-566056D01*
G01X2547300Y-564495D01*
G01X2507300Y-564495D01*
G01X2496842Y-566056D01*
G01X2487295Y-570603D01*
G01X2477748Y-566056D01*
G01X2467290Y-564495D01*
G01X2427290Y-564495D01*
G01X2416839Y-566053D01*
G01X2407298Y-570594D01*
G01X2397756Y-566053D01*
G01X2387305Y-564495D01*
G01X2347305Y-564495D01*
G01X2336847Y-566056D01*
G01X2327300Y-570603D01*
G01X2317754Y-566056D01*
G01X2307295Y-564495D01*
G01X2267295Y-564495D01*
G01X2256844Y-566053D01*
G01X2247303Y-570594D01*
G01X2237762Y-566053D01*
G01X2227311Y-564495D01*
G01X2187311Y-564495D01*
G01X2176852Y-566056D01*
G01X2167306Y-570603D01*
G01X2157759Y-566056D01*
G01X2147301Y-564495D01*
G01X2107301Y-564495D01*
G01X2096842Y-566056D01*
G01X2087296Y-570603D01*
G01X2077749Y-566056D01*
G01X2067291Y-564495D01*
G01X2027291Y-564495D01*
G01X2015657Y-566437D01*
G01X2005284Y-572053D01*
G01X1997299Y-580735D01*
G01X1989314Y-572052D01*
G01X1978941Y-566434D01*
G01X1967305Y-564491D01*
G01X1897305Y-564491D01*
G01X1886238Y-566244D01*
G01X1876254Y-571331D01*
G01X1868331Y-579254D01*
G01X1863244Y-589238D01*
G01X1861491Y-600305D01*
G01X1861491Y-670305D01*
G01X1863051Y-680761D01*
G01X1867596Y-690306D01*
G01X1863054Y-699848D01*
G01X1861495Y-710301D01*
G01X1861495Y-750301D01*
G01X1863056Y-760759D01*
G01X1867603Y-770306D01*
G01X1863056Y-779852D01*
G01X1861495Y-790311D01*
G01X1861495Y-830311D01*
G01X1863379Y-841774D01*
G01X1779612Y-841774D01*
G01X1717621Y-779784D01*
G01X1707574Y-772074D01*
G01X1695873Y-767227D01*
G01X1683317Y-765574D01*
G01X1645797Y-765574D01*
G01X1634179Y-766986D01*
G01X1623237Y-771139D01*
G01X1465492Y-613394D01*
G01X1455444Y-605684D01*
G01X1443743Y-600838D01*
G01X1431187Y-599185D01*
G01X1354987Y-599185D01*
G01X1342431Y-600838D01*
G01X1330730Y-605684D01*
G01X1320683Y-613394D01*
G01X1219083Y-714994D01*
G01X1211373Y-725042D01*
G01X1206527Y-736742D01*
G01X1204874Y-749299D01*
G01X1204874Y-800098D01*
G01X1206527Y-812655D01*
G01X1211373Y-824355D01*
G01X1219083Y-834403D01*
G01X1262154Y-877474D01*
G01X1257322Y-889160D01*
G01X1255673Y-901698D01*
G01X1255673Y-903984D01*
G01X643789Y-903984D01*
G01X631232Y-905637D01*
G01X619532Y-910484D01*
G01X609484Y-918194D01*
G01X431685Y-1095993D01*
G01X423975Y-1106041D01*
G01X419128Y-1117741D01*
G01X417475Y-1130298D01*
G01X417475Y-1367187D01*
G01X73400Y-1367187D01*
G01X64329Y-1368355D01*
G01X55849Y-1371782D01*
G01X48514Y-1377245D01*
G37*
G36*
G01X514503Y-1150393D02*
G01X607587Y-1057309D01*
G01X607587Y-1093000D01*
G01X609340Y-1104067D01*
G01X614427Y-1114051D01*
G01X622350Y-1121974D01*
G01X632334Y-1127061D01*
G01X643401Y-1128814D01*
G01X993400Y-1128814D01*
G01X997652Y-1128561D01*
G01X1186184Y-1317093D01*
G01X1186184Y-1836563D01*
G01X1179265Y-1832052D01*
G01X1171497Y-1829246D01*
G01X1163293Y-1828293D01*
G01X1058292Y-1828293D01*
G01X1046885Y-1830158D01*
G01X1036666Y-1835560D01*
G01X1028700Y-1843935D01*
G01X1020734Y-1835560D01*
G01X1010515Y-1830158D01*
G01X999108Y-1828293D01*
G01X934411Y-1828293D01*
G01X1076725Y-1685980D01*
G01X1091906Y-1683665D01*
G01X1106148Y-1677921D01*
G01X1118687Y-1669055D01*
G01X1128850Y-1657542D01*
G01X1136092Y-1644001D01*
G01X1140026Y-1629156D01*
G01X1140439Y-1613805D01*
G01X1137311Y-1598771D01*
G01X1130808Y-1584859D01*
G01X1121280Y-1572816D01*
G01X1109236Y-1563287D01*
G01X1095325Y-1556784D01*
G01X1080290Y-1553656D01*
G01X1064939Y-1554070D01*
G01X1050095Y-1558003D01*
G01X1036553Y-1565246D01*
G01X1025041Y-1575409D01*
G01X1016174Y-1587947D01*
G01X1010430Y-1602189D01*
G01X1008116Y-1617370D01*
G01X774894Y-1850592D01*
G01X612259Y-1850592D01*
G01X606876Y-1841507D01*
G01X599076Y-1834386D01*
G01X589539Y-1829850D01*
G01X579093Y-1828293D01*
G01X474092Y-1828293D01*
G01X462308Y-1830287D01*
G01X451836Y-1836048D01*
G01X443843Y-1844933D01*
G01X439219Y-1855954D01*
G01X432807Y-1859905D01*
G01X427084Y-1864802D01*
G01X238094Y-2053792D01*
G01X221152Y-2053792D01*
G01X213222Y-2045813D01*
G01X203209Y-2040688D01*
G01X192100Y-2038921D01*
G01X184773Y-2038921D01*
G01X500294Y-1723401D01*
G01X508003Y-1713354D01*
G01X512850Y-1701653D01*
G01X514503Y-1689097D01*
G01X514503Y-1293000D01*
G01X607587Y-1293000D01*
G01X609340Y-1304067D01*
G01X614427Y-1314051D01*
G01X622350Y-1321974D01*
G01X632334Y-1327061D01*
G01X643401Y-1328814D01*
G01X993400Y-1328814D01*
G01X1004467Y-1327061D01*
G01X1014451Y-1321974D01*
G01X1022374Y-1314051D01*
G01X1027461Y-1304067D01*
G01X1029214Y-1293000D01*
G01X1029214Y-1193000D01*
G01X1027461Y-1181933D01*
G01X1022374Y-1171949D01*
G01X1014451Y-1164026D01*
G01X1004467Y-1158939D01*
G01X993400Y-1157186D01*
G01X643401Y-1157186D01*
G01X643401Y-1157186D01*
G01X632334Y-1158939D01*
G01X622350Y-1164026D01*
G01X614427Y-1171949D01*
G01X609340Y-1181933D01*
G01X607587Y-1193000D01*
G01X607587Y-1293000D01*
G01X514503Y-1293000D01*
G01X514503Y-1150393D01*
G37*
G36*
G01X213614Y-2325953D02*
G01X218028Y-2334020D01*
G01X223884Y-2341109D01*
G01X443274Y-2560499D01*
G01X443274Y-2579700D01*
G01X445027Y-2590767D01*
G01X450114Y-2600751D01*
G01X458038Y-2608674D01*
G01X468021Y-2613761D01*
G01X479088Y-2615514D01*
G01X529088Y-2615514D01*
G01X537861Y-2614423D01*
G01X546100Y-2611216D01*
G01X554339Y-2614423D01*
G01X563112Y-2615514D01*
G01X613112Y-2615514D01*
G01X624179Y-2613761D01*
G01X634162Y-2608674D01*
G01X642086Y-2600751D01*
G01X647173Y-2590767D01*
G01X648926Y-2579700D01*
G01X648926Y-2525700D01*
G01X647173Y-2514633D01*
G01X642086Y-2504649D01*
G01X634162Y-2496726D01*
G01X624179Y-2491639D01*
G01X613112Y-2489886D01*
G01X563112Y-2489886D01*
G01X554339Y-2490977D01*
G01X546100Y-2494184D01*
G01X537861Y-2490977D01*
G01X529088Y-2489886D01*
G01X509879Y-2489886D01*
G01X306703Y-2286710D01*
G01X306703Y-2149093D01*
G01X438278Y-2149093D01*
G01X440031Y-2160160D01*
G01X445118Y-2170144D01*
G01X453041Y-2178067D01*
G01X463025Y-2183154D01*
G01X474092Y-2184907D01*
G01X579093Y-2184907D01*
G01X590160Y-2183154D01*
G01X600144Y-2178067D01*
G01X608067Y-2170144D01*
G01X613154Y-2160160D01*
G01X614907Y-2149093D01*
G01X614907Y-2079093D01*
G01X858293Y-2079093D01*
G01X858293Y-2149093D01*
G01X860046Y-2160160D01*
G01X865133Y-2170144D01*
G01X873056Y-2178067D01*
G01X883040Y-2183154D01*
G01X894107Y-2184907D01*
G01X999108Y-2184907D01*
G01X1010515Y-2183042D01*
G01X1020734Y-2177640D01*
G01X1028700Y-2169265D01*
G01X1036666Y-2177640D01*
G01X1046885Y-2183042D01*
G01X1058292Y-2184907D01*
G01X1163293Y-2184907D01*
G01X1174360Y-2183154D01*
G01X1184344Y-2178067D01*
G01X1192267Y-2170144D01*
G01X1197354Y-2160160D01*
G01X1199107Y-2149093D01*
G01X1199107Y-2079093D01*
G01X1197354Y-2068026D01*
G01X1192267Y-2058042D01*
G01X1184344Y-2050119D01*
G01X1174360Y-2045032D01*
G01X1163293Y-2043279D01*
G01X1058292Y-2043279D01*
G01X1046885Y-2045144D01*
G01X1036666Y-2050545D01*
G01X1028700Y-2058920D01*
G01X1020734Y-2050545D01*
G01X1010515Y-2045144D01*
G01X999108Y-2043279D01*
G01X999108Y-2043279D01*
G01X894107Y-2043279D01*
G01X883040Y-2045032D01*
G01X873056Y-2050119D01*
G01X865133Y-2058042D01*
G01X860046Y-2068026D01*
G01X858293Y-2079093D01*
G01X614907Y-2079093D01*
G01X613154Y-2068026D01*
G01X608067Y-2058042D01*
G01X600144Y-2050119D01*
G01X590160Y-2045032D01*
G01X579093Y-2043279D01*
G01X474092Y-2043279D01*
G01X463025Y-2045032D01*
G01X453041Y-2050119D01*
G01X445118Y-2058042D01*
G01X440031Y-2068026D01*
G01X438278Y-2079093D01*
G01X438278Y-2149093D01*
G01X438278Y-2149093D01*
G01X306703Y-2149093D01*
G01X306703Y-2122401D01*
G01X461478Y-1967626D01*
G01X467681Y-1969343D01*
G01X474092Y-1969921D01*
G01X579093Y-1969921D01*
G01X589539Y-1968364D01*
G01X599077Y-1963827D01*
G01X606877Y-1956706D01*
G01X612260Y-1947620D01*
G01X794989Y-1947620D01*
G01X807545Y-1945967D01*
G01X819246Y-1941121D01*
G01X829294Y-1933411D01*
G01X858293Y-1904412D01*
G01X858293Y-1934107D01*
G01X860046Y-1945174D01*
G01X865133Y-1955158D01*
G01X873056Y-1963081D01*
G01X883040Y-1968168D01*
G01X894107Y-1969921D01*
G01X999108Y-1969921D01*
G01X1010515Y-1968056D01*
G01X1020734Y-1962655D01*
G01X1028700Y-1954280D01*
G01X1036666Y-1962655D01*
G01X1046885Y-1968056D01*
G01X1058292Y-1969921D01*
G01X1163293Y-1969921D01*
G01X1171497Y-1968969D01*
G01X1179265Y-1966162D01*
G01X1186184Y-1961651D01*
G01X1186184Y-1982796D01*
G01X1187837Y-1995352D01*
G01X1192683Y-2007053D01*
G01X1200393Y-2017101D01*
G01X1371624Y-2188332D01*
G01X1372619Y-2197669D01*
G01X1374922Y-2206772D01*
G01X1090918Y-2206772D01*
G01X1078361Y-2208425D01*
G01X1066661Y-2213271D01*
G01X1056613Y-2220981D01*
G01X243815Y-3033779D01*
G01X236105Y-3043827D01*
G01X231259Y-3055528D01*
G01X229605Y-3068084D01*
G01X229605Y-3499883D01*
G01X231545Y-3513464D01*
G01X237209Y-3525959D01*
G01X238133Y-3536333D01*
G01X240669Y-3546434D01*
G01X213614Y-3546434D01*
G01X213614Y-2325953D01*
G37*
G36*
G01X616260Y-2798553D02*
G01X614153Y-2805374D01*
G01X613442Y-2812477D01*
G01X613442Y-2907479D01*
G01X615195Y-2918546D01*
G01X620282Y-2928530D01*
G01X628205Y-2936453D01*
G01X638189Y-2941540D01*
G01X649256Y-2943293D01*
G01X723968Y-2943293D01*
G01X758184Y-2977509D01*
G01X758184Y-3105814D01*
G01X749421Y-3117604D01*
G01X743469Y-3131034D01*
G01X740620Y-3145444D01*
G01X741013Y-3160129D01*
G01X744629Y-3174367D01*
G01X751291Y-3187459D01*
G01X760672Y-3198763D01*
G01X772311Y-3207725D01*
G01X785638Y-3213904D01*
G01X799998Y-3216998D01*
G01X814687Y-3216855D01*
G01X828984Y-3213481D01*
G01X828984Y-3532018D01*
G01X818090Y-3536706D01*
G01X809325Y-3544695D01*
G01X803649Y-3555109D01*
G01X801685Y-3566805D01*
G01X801685Y-3634389D01*
G01X670518Y-3634389D01*
G01X670518Y-3582248D01*
G01X668765Y-3571181D01*
G01X663678Y-3561197D01*
G01X655755Y-3553274D01*
G01X645771Y-3548187D01*
G01X634704Y-3546434D01*
G01X609937Y-3546434D01*
G01X664600Y-3491771D01*
G01X711799Y-3491771D01*
G01X722867Y-3490018D01*
G01X732850Y-3484931D01*
G01X740774Y-3477008D01*
G01X745861Y-3467024D01*
G01X747613Y-3455957D01*
G01X747613Y-3375957D01*
G01X745861Y-3364890D01*
G01X740774Y-3354906D01*
G01X732850Y-3346983D01*
G01X722867Y-3341896D01*
G01X711799Y-3340143D01*
G01X631800Y-3340143D01*
G01X622217Y-3341449D01*
G01X613333Y-3345271D01*
G01X605795Y-3351332D01*
G01X600154Y-3359188D01*
G01X596821Y-3368267D01*
G01X592157Y-3357324D01*
G01X584166Y-3348513D01*
G01X573730Y-3342804D01*
G01X562000Y-3340829D01*
G01X482001Y-3340829D01*
G01X470933Y-3342582D01*
G01X460950Y-3347669D01*
G01X453026Y-3355592D01*
G01X447939Y-3365576D01*
G01X446187Y-3376643D01*
G01X446187Y-3456643D01*
G01X447939Y-3467710D01*
G01X453026Y-3477694D01*
G01X460950Y-3485617D01*
G01X470933Y-3490704D01*
G01X482001Y-3492457D01*
G01X526696Y-3492457D01*
G01X524704Y-3494449D01*
G01X468599Y-3494449D01*
G01X456043Y-3496102D01*
G01X444342Y-3500949D01*
G01X434295Y-3508658D01*
G01X408895Y-3534058D01*
G01X401185Y-3544106D01*
G01X396338Y-3555807D01*
G01X394685Y-3568363D01*
G01X394685Y-3621078D01*
G01X384047Y-3617946D01*
G01X373036Y-3616630D01*
G01X354204Y-3597798D01*
G01X343010Y-3589447D01*
G01X343010Y-3582248D01*
G01X342833Y-3578687D01*
G01X353326Y-3569065D01*
G01X361523Y-3557425D01*
G01X367047Y-3544304D01*
G01X369643Y-3530306D01*
G01X369191Y-3516077D01*
G01X365713Y-3502272D01*
G01X359368Y-3489527D01*
G01X350449Y-3478431D01*
G01X339367Y-3469494D01*
G01X326633Y-3463128D01*
G01X326633Y-3088179D01*
G01X616260Y-2798553D01*
G37*
G36*
G01X491713Y-3724438D02*
G01X491713Y-3717762D01*
G01X574509Y-3717762D01*
G01X583180Y-3724438D01*
G01X491713Y-3724438D01*
G37*
G36*
G01X567913Y-4189919D02*
G01X582755Y-4192494D01*
G01X597795Y-4191654D01*
G01X612258Y-4187440D01*
G01X625396Y-4180072D01*
G01X636533Y-4169928D01*
G01X645093Y-4157532D01*
G01X650634Y-4143525D01*
G01X652872Y-4128628D01*
G01X874903Y-3906597D01*
G01X882182Y-3897280D01*
G01X893637Y-3894855D01*
G01X903698Y-3888865D01*
G01X911289Y-3879951D01*
G01X915599Y-3869064D01*
G01X918911Y-3878178D01*
G01X924547Y-3886070D01*
G01X932094Y-3892160D01*
G01X940997Y-3896002D01*
G01X950605Y-3897315D01*
G01X1030605Y-3897315D01*
G01X1041672Y-3895562D01*
G01X1051656Y-3890475D01*
G01X1059579Y-3882552D01*
G01X1064666Y-3872568D01*
G01X1066419Y-3861501D01*
G01X1066419Y-3781501D01*
G01X1064666Y-3770434D01*
G01X1059579Y-3760450D01*
G01X1051656Y-3752527D01*
G01X1041672Y-3747440D01*
G01X1030605Y-3745687D01*
G01X950605Y-3745687D01*
G01X940997Y-3747000D01*
G01X932094Y-3750842D01*
G01X924547Y-3756932D01*
G01X918911Y-3764824D01*
G01X915599Y-3773938D01*
G01X912287Y-3764824D01*
G01X906651Y-3756932D01*
G01X899104Y-3750842D01*
G01X890201Y-3747000D01*
G01X880593Y-3745687D01*
G01X800593Y-3745687D01*
G01X789526Y-3747440D01*
G01X779542Y-3752527D01*
G01X771619Y-3760450D01*
G01X766532Y-3770434D01*
G01X764779Y-3781501D01*
G01X764779Y-3861501D01*
G01X765588Y-3869072D01*
G01X767980Y-3876301D01*
G01X584262Y-4060019D01*
G01X576005Y-4060830D01*
G01X567913Y-4062665D01*
G01X567913Y-3949362D01*
G01X566260Y-3936806D01*
G01X561413Y-3925105D01*
G01X553704Y-3915058D01*
G01X534412Y-3895766D01*
G01X634704Y-3895766D01*
G01X645771Y-3894013D01*
G01X655755Y-3888926D01*
G01X663678Y-3881003D01*
G01X668765Y-3871019D01*
G01X670518Y-3859952D01*
G01X670518Y-3760252D01*
G01X668789Y-3749259D01*
G01X663770Y-3739328D01*
G01X655945Y-3731417D01*
G01X1079198Y-3731417D01*
G01X1091755Y-3729764D01*
G01X1103455Y-3724917D01*
G01X1113503Y-3717207D01*
G01X1234643Y-3596067D01*
G01X1227341Y-3609981D01*
G01X1223518Y-3625222D01*
G01X1223388Y-3640935D01*
G01X1226959Y-3656237D01*
G01X1234029Y-3670269D01*
G01X1244203Y-3682244D01*
G01X1256909Y-3691489D01*
G01X1271434Y-3697485D01*
G01X1286961Y-3699896D01*
G01X1407393Y-3820327D01*
G01X1417440Y-3828037D01*
G01X1429141Y-3832883D01*
G01X1441697Y-3834536D01*
G01X1808258Y-3834536D01*
G01X1803505Y-3843112D01*
G01X1800573Y-3852468D01*
G01X1799582Y-3862222D01*
G01X1799582Y-3924302D01*
G01X1801235Y-3936858D01*
G01X1806082Y-3948559D01*
G01X1813792Y-3958607D01*
G01X1820698Y-3965513D01*
G01X1807577Y-3973407D01*
G01X1796617Y-3984099D01*
G01X1788402Y-3997021D01*
G01X1783369Y-4011482D01*
G01X1781787Y-4026712D01*
G01X1783741Y-4041898D01*
G01X1734000Y-4041898D01*
G01X1722932Y-4043651D01*
G01X1712949Y-4048738D01*
G01X1705025Y-4056662D01*
G01X1699938Y-4066645D01*
G01X1698186Y-4077712D01*
G01X1698186Y-4137598D01*
G01X1356508Y-4137598D01*
G01X1343951Y-4139251D01*
G01X1332251Y-4144097D01*
G01X1322203Y-4151807D01*
G01X1277972Y-4196039D01*
G01X1261829Y-4198624D01*
G01X1246809Y-4205080D01*
G01X1233826Y-4215015D01*
G01X1223667Y-4227824D01*
G01X1216951Y-4242729D01*
G01X1214086Y-4258824D01*
G01X1215245Y-4275132D01*
G01X1220359Y-4290660D01*
G01X1124967Y-4290660D01*
G01X1113900Y-4292413D01*
G01X1103916Y-4297500D01*
G01X1095993Y-4305423D01*
G01X1090906Y-4315407D01*
G01X1089153Y-4326474D01*
G01X1089153Y-4499272D01*
G01X1090906Y-4510340D01*
G01X1095993Y-4520323D01*
G01X1103916Y-4528247D01*
G01X1113900Y-4533334D01*
G01X1124967Y-4535086D01*
G01X1273468Y-4535086D01*
G01X1284536Y-4533334D01*
G01X1294519Y-4528247D01*
G01X1302443Y-4520323D01*
G01X1307530Y-4510340D01*
G01X1309282Y-4499272D01*
G01X1309282Y-4326474D01*
G01X1309013Y-4322091D01*
G01X1321241Y-4314485D01*
G01X1331538Y-4304419D01*
G01X1339419Y-4292367D01*
G01X1344514Y-4278899D01*
G01X1346581Y-4264648D01*
G01X1376603Y-4234626D01*
G01X1556232Y-4234626D01*
G01X1553417Y-4248929D01*
G01X1553796Y-4263502D01*
G01X1557351Y-4277640D01*
G01X1563908Y-4290660D01*
G01X1443483Y-4290660D01*
G01X1432416Y-4292413D01*
G01X1422432Y-4297500D01*
G01X1414509Y-4305423D01*
G01X1409422Y-4315407D01*
G01X1407669Y-4326474D01*
G01X1407669Y-4499272D01*
G01X1409422Y-4510340D01*
G01X1414509Y-4520323D01*
G01X1422432Y-4528247D01*
G01X1432416Y-4533334D01*
G01X1443483Y-4535086D01*
G01X1469223Y-4535086D01*
G01X1469223Y-4549376D01*
G01X1357013Y-4661586D01*
G01X1337812Y-4661586D01*
G01X1329039Y-4662677D01*
G01X1320800Y-4665884D01*
G01X1312561Y-4662677D01*
G01X1303788Y-4661586D01*
G01X1253788Y-4661586D01*
G01X1242721Y-4663339D01*
G01X1232738Y-4668426D01*
G01X1224814Y-4676349D01*
G01X1219727Y-4686333D01*
G01X1217974Y-4697400D01*
G01X1217974Y-4751400D01*
G01X1219727Y-4762467D01*
G01X1224814Y-4772451D01*
G01X1232738Y-4780374D01*
G01X1242721Y-4785461D01*
G01X1253788Y-4787214D01*
G01X1303788Y-4787214D01*
G01X1309886Y-4786691D01*
G01X1315805Y-4785138D01*
G01X1320654Y-4797136D01*
G01X1328503Y-4807425D01*
G01X1444847Y-4923770D01*
G01X1437423Y-4934693D01*
G01X1432353Y-4946888D01*
G01X1429843Y-4959855D01*
G01X1212745Y-5176953D01*
G01X1207592Y-5170875D01*
G01X1155692Y-5118975D01*
G01X1159981Y-5105351D01*
G01X1161200Y-5091120D01*
G01X1159293Y-5076965D01*
G01X1154349Y-5063564D01*
G01X1146607Y-5051561D01*
G01X1136437Y-5041532D01*
G01X1124328Y-5033957D01*
G01X1110860Y-5029200D01*
G01X1125682Y-5023770D01*
G01X1138766Y-5014938D01*
G01X1149344Y-5003222D01*
G01X1156797Y-4989306D01*
G01X1160688Y-4974008D01*
G01X1160789Y-4958223D01*
G01X1157095Y-4942876D01*
G01X1149821Y-4928866D01*
G01X1139395Y-4917015D01*
G01X1126426Y-4908015D01*
G01X1111674Y-4902396D01*
G01X1096005Y-4900485D01*
G01X1032706Y-4900485D01*
G01X1028610Y-4891106D01*
G01X1022205Y-4883123D01*
G01X1013936Y-4877092D01*
G01X1004377Y-4873433D01*
G01X994195Y-4872399D01*
G01X984096Y-4874063D01*
G01X974784Y-4878309D01*
G01X966905Y-4884842D01*
G01X961008Y-4893207D01*
G01X957502Y-4902823D01*
G01X943036Y-4908748D01*
G01X930395Y-4917945D01*
G01X920305Y-4929887D01*
G01X913348Y-4943886D01*
G01X909923Y-4959139D01*
G01X910225Y-4974769D01*
G01X914239Y-4989878D01*
G01X921734Y-5003598D01*
G01X932278Y-5015139D01*
G01X945266Y-5023840D01*
G01X959951Y-5029200D01*
G01X949581Y-5032562D01*
G01X939916Y-5037604D01*
G01X931225Y-5044186D01*
G01X923223Y-5044186D01*
G01X685415Y-4806377D01*
G01X783991Y-4806377D01*
G01X795058Y-4804625D01*
G01X805042Y-4799538D01*
G01X812965Y-4791614D01*
G01X818052Y-4781631D01*
G01X819805Y-4770563D01*
G01X819805Y-4635562D01*
G01X818052Y-4624495D01*
G01X812965Y-4614512D01*
G01X805042Y-4606588D01*
G01X795058Y-4601501D01*
G01X783991Y-4599748D01*
G01X642991Y-4599748D01*
G01X631636Y-4601596D01*
G01X621452Y-4606949D01*
G01X613491Y-4615254D01*
G01X605530Y-4606949D01*
G01X595347Y-4601596D01*
G01X583992Y-4599748D01*
G01X496421Y-4599748D01*
G01X553704Y-4542466D01*
G01X561413Y-4532418D01*
G01X566260Y-4520717D01*
G01X567913Y-4508161D01*
G01X567913Y-4189919D01*
G37*
G36*
G01X1083562Y-3147238D02*
G01X1091272Y-3137191D01*
G01X1096119Y-3125490D01*
G01X1097772Y-3112934D01*
G01X1097772Y-2943293D01*
G01X1109260Y-2943293D01*
G01X1120327Y-2941540D01*
G01X1130311Y-2936453D01*
G01X1138234Y-2928530D01*
G01X1143321Y-2918546D01*
G01X1145074Y-2907479D01*
G01X1145074Y-2823480D01*
G01X1229243Y-2907649D01*
G01X1234285Y-2912040D01*
G01X1234285Y-2931195D01*
G01X1236038Y-2942262D01*
G01X1241125Y-2952246D01*
G01X1249048Y-2960169D01*
G01X1259032Y-2965256D01*
G01X1270099Y-2967009D01*
G01X1319098Y-2967009D01*
G01X1327348Y-2966046D01*
G01X1335154Y-2963209D01*
G01X1342097Y-2958649D01*
G01X1349039Y-2963209D01*
G01X1356845Y-2966046D01*
G01X1365095Y-2967009D01*
G01X1414094Y-2967009D01*
G01X1422344Y-2966046D01*
G01X1430150Y-2963209D01*
G01X1437093Y-2958649D01*
G01X1447243Y-2964625D01*
G01X1458783Y-2966985D01*
G01X1458783Y-3035312D01*
G01X1450410Y-3038517D01*
G01X1443096Y-3043702D01*
G01X1437298Y-3050540D01*
G01X1429313Y-3041851D01*
G01X1418936Y-3036228D01*
G01X1407296Y-3034284D01*
G01X1327296Y-3034284D01*
G01X1316229Y-3036037D01*
G01X1306245Y-3041124D01*
G01X1298322Y-3049047D01*
G01X1293235Y-3059031D01*
G01X1291482Y-3070098D01*
G01X1291482Y-3160098D01*
G01X1293235Y-3171165D01*
G01X1298322Y-3181149D01*
G01X1306245Y-3189072D01*
G01X1316229Y-3194159D01*
G01X1327296Y-3195912D01*
G01X1407296Y-3195912D01*
G01X1418936Y-3193967D01*
G01X1429313Y-3188345D01*
G01X1437298Y-3179655D01*
G01X1443096Y-3186494D01*
G01X1450410Y-3191679D01*
G01X1458783Y-3194884D01*
G01X1458783Y-3410273D01*
G01X1460436Y-3422830D01*
G01X1465283Y-3434530D01*
G01X1472992Y-3444578D01*
G01X1719886Y-3691471D01*
G01X1719886Y-3737508D01*
G01X1461792Y-3737508D01*
G01X1355570Y-3631286D01*
G01X1353335Y-3616399D01*
G01X1347800Y-3602399D01*
G01X1339250Y-3590008D01*
G01X1328126Y-3579865D01*
G01X1315000Y-3572493D01*
G01X1300550Y-3568270D01*
G01X1285520Y-3567416D01*
G01X1270684Y-3569975D01*
G01X1256808Y-3575813D01*
G01X1244606Y-3584630D01*
G01X1250471Y-3571955D01*
G01X1252482Y-3558133D01*
G01X1252482Y-3442134D01*
G01X1262250Y-3443492D01*
G01X1318816Y-3443492D01*
G01X1329883Y-3441739D01*
G01X1339867Y-3436652D01*
G01X1347790Y-3428729D01*
G01X1352877Y-3418745D01*
G01X1354630Y-3407678D01*
G01X1354630Y-3353678D01*
G01X1353176Y-3343576D01*
G01X1348931Y-3334294D01*
G01X1348931Y-3305293D01*
G01X1358030Y-3292922D01*
G01X1364038Y-3278790D01*
G01X1366635Y-3263654D01*
G01X1365681Y-3248327D01*
G01X1361227Y-3233631D01*
G01X1353512Y-3220353D01*
G01X1342949Y-3209205D01*
G01X1330106Y-3200787D01*
G01X1315671Y-3195548D01*
G01X1300417Y-3193770D01*
G01X1285164Y-3195548D01*
G01X1270729Y-3200787D01*
G01X1257885Y-3209205D01*
G01X1247323Y-3220353D01*
G01X1239608Y-3233631D01*
G01X1235154Y-3248327D01*
G01X1234200Y-3263654D01*
G01X1236797Y-3278790D01*
G01X1242805Y-3292922D01*
G01X1251903Y-3305293D01*
G01X1251903Y-3319391D01*
G01X1247252Y-3321156D01*
G01X1239931Y-3318696D01*
G01X1232253Y-3317864D01*
G01X1175687Y-3317864D01*
G01X1164620Y-3319617D01*
G01X1154636Y-3324704D01*
G01X1146713Y-3332627D01*
G01X1141626Y-3342611D01*
G01X1139873Y-3353678D01*
G01X1139873Y-3407678D01*
G01X1141731Y-3419062D01*
G01X1147110Y-3429265D01*
G01X1155454Y-3437229D01*
G01X1155454Y-3538038D01*
G01X1103325Y-3590167D01*
G01X1103325Y-3566805D01*
G01X1101572Y-3555738D01*
G01X1096485Y-3545754D01*
G01X1088562Y-3537831D01*
G01X1078578Y-3532744D01*
G01X1067511Y-3530991D01*
G01X1020295Y-3530991D01*
G01X974422Y-3485118D01*
G01X974422Y-3327859D01*
G01X1011993Y-3327859D01*
G01X1023060Y-3326106D01*
G01X1033044Y-3321019D01*
G01X1040967Y-3313096D01*
G01X1046054Y-3303112D01*
G01X1047807Y-3292045D01*
G01X1047807Y-3235479D01*
G01X1046974Y-3227801D01*
G01X1044515Y-3220480D01*
G01X1046974Y-3213159D01*
G01X1047807Y-3205482D01*
G01X1047807Y-3182994D01*
G01X1083562Y-3147238D01*
G37*
G36*
G01X1208470Y-2749658D02*
G01X1206663Y-2736447D01*
G01X1202250Y-2723864D01*
G01X1195408Y-2712419D01*
G01X1186415Y-2702574D01*
G01X1175634Y-2694727D01*
G01X1234285Y-2636076D01*
G01X1234285Y-2701362D01*
G01X1236038Y-2712429D01*
G01X1241125Y-2722413D01*
G01X1249048Y-2730336D01*
G01X1259032Y-2735423D01*
G01X1270099Y-2737176D01*
G01X1319098Y-2737176D01*
G01X1329738Y-2735559D01*
G01X1339417Y-2730854D01*
G01X1347262Y-2723486D01*
G01X1352563Y-2714120D01*
G01X1354842Y-2703602D01*
G01X1359883Y-2709705D01*
G01X1359883Y-2715295D01*
G01X1361536Y-2727851D01*
G01X1366383Y-2739552D01*
G01X1374093Y-2749599D01*
G01X1404175Y-2779682D01*
G01X1365095Y-2779682D01*
G01X1356845Y-2780645D01*
G01X1349039Y-2783482D01*
G01X1342097Y-2788042D01*
G01X1335154Y-2783482D01*
G01X1327348Y-2780645D01*
G01X1319098Y-2779682D01*
G01X1270099Y-2779682D01*
G01X1261793Y-2780658D01*
G01X1253939Y-2783535D01*
G01X1246967Y-2788155D01*
G01X1208470Y-2749658D01*
G37*
G36*
G01X1672512Y-1193783D02*
G01X1664802Y-1203831D01*
G01X1659956Y-1215531D01*
G01X1658303Y-1228088D01*
G01X1658303Y-1284477D01*
G01X1649783Y-1295853D01*
G01X1643884Y-1308783D01*
G01X1640875Y-1322673D01*
G01X1640894Y-1336886D01*
G01X1643942Y-1350767D01*
G01X1649878Y-1363681D01*
G01X1640114Y-1367238D01*
G01X1631875Y-1364031D01*
G01X1623102Y-1362940D01*
G01X1573102Y-1362940D01*
G01X1562216Y-1364634D01*
G01X1552361Y-1369557D01*
G01X1544468Y-1377243D01*
G01X1448635Y-1377243D01*
G01X1442935Y-1369923D01*
G01X1435546Y-1364312D01*
G01X1426964Y-1360788D01*
G01X1417765Y-1359586D01*
G01X1361199Y-1359586D01*
G01X1353521Y-1360418D01*
G01X1346200Y-1362878D01*
G01X1338879Y-1360418D01*
G01X1331201Y-1359586D01*
G01X1326031Y-1359586D01*
G01X1326031Y-1243914D01*
G01X1341888Y-1243914D01*
G01X1350661Y-1242823D01*
G01X1358900Y-1239616D01*
G01X1367139Y-1242823D01*
G01X1375912Y-1243914D01*
G01X1425912Y-1243914D01*
G01X1436979Y-1242161D01*
G01X1446962Y-1237074D01*
G01X1454886Y-1229151D01*
G01X1459973Y-1219167D01*
G01X1461726Y-1208100D01*
G01X1461726Y-1154100D01*
G01X1459973Y-1143033D01*
G01X1454886Y-1133049D01*
G01X1446962Y-1125126D01*
G01X1436979Y-1120039D01*
G01X1425912Y-1118286D01*
G01X1375912Y-1118286D01*
G01X1367139Y-1119377D01*
G01X1358900Y-1122584D01*
G01X1352701Y-1119957D01*
G01X1352701Y-1089937D01*
G01X1363212Y-1091514D01*
G01X1413212Y-1091514D01*
G01X1424279Y-1089761D01*
G01X1434262Y-1084674D01*
G01X1442186Y-1076751D01*
G01X1447273Y-1066767D01*
G01X1449026Y-1055700D01*
G01X1449026Y-1001700D01*
G01X1447273Y-990633D01*
G01X1442186Y-980649D01*
G01X1434262Y-972726D01*
G01X1424279Y-967639D01*
G01X1413212Y-965886D01*
G01X1363212Y-965886D01*
G01X1352701Y-967463D01*
G01X1352701Y-921793D01*
G01X1363892Y-910603D01*
G01X1371602Y-900555D01*
G01X1376448Y-888855D01*
G01X1378101Y-876298D01*
G01X1376448Y-863742D01*
G01X1371602Y-852041D01*
G01X1363892Y-841994D01*
G01X1301901Y-780003D01*
G01X1301901Y-769394D01*
G01X1375082Y-696213D01*
G01X1411092Y-696213D01*
G01X1540011Y-825132D01*
G01X1530959Y-828481D01*
G01X1523130Y-834126D01*
G01X1517093Y-841656D01*
G01X1513286Y-850525D01*
G01X1511986Y-860088D01*
G01X1511986Y-910088D01*
G01X1513077Y-918861D01*
G01X1516284Y-927100D01*
G01X1513077Y-935339D01*
G01X1511986Y-944112D01*
G01X1511986Y-994112D01*
G01X1513739Y-1005179D01*
G01X1518826Y-1015162D01*
G01X1526749Y-1023086D01*
G01X1536733Y-1028173D01*
G01X1547800Y-1029926D01*
G01X1601800Y-1029926D01*
G01X1612867Y-1028173D01*
G01X1622851Y-1023086D01*
G01X1630774Y-1015162D01*
G01X1635861Y-1005179D01*
G01X1637614Y-994112D01*
G01X1637614Y-985275D01*
G01X1642646Y-995400D01*
G01X1650583Y-1003452D01*
G01X1660635Y-1008629D01*
G01X1671800Y-1010413D01*
G01X1731800Y-1010413D01*
G01X1742867Y-1008660D01*
G01X1752851Y-1003573D01*
G01X1760774Y-995650D01*
G01X1765861Y-985666D01*
G01X1767614Y-974599D01*
G01X1767614Y-944599D01*
G01X1767142Y-938802D01*
G01X1863393Y-938802D01*
G01X1861495Y-950305D01*
G01X1861495Y-990305D01*
G01X1862398Y-998299D01*
G01X1865063Y-1005889D01*
G01X1857218Y-1010251D01*
G01X1850312Y-1015983D01*
G01X1672512Y-1193783D01*
G37*
G36*
G01X1669921Y-1553001D02*
G01X1697607Y-1553001D01*
G01X1710164Y-1551348D01*
G01X1721864Y-1546501D01*
G01X1731912Y-1538792D01*
G01X1864983Y-1405721D01*
G01X1867594Y-1410297D01*
G01X1863054Y-1419838D01*
G01X1861495Y-1430289D01*
G01X1861495Y-1470289D01*
G01X1863056Y-1480748D01*
G01X1867603Y-1490294D01*
G01X1863056Y-1499841D01*
G01X1861495Y-1510299D01*
G01X1861495Y-1550299D01*
G01X1863054Y-1560752D01*
G01X1867596Y-1570294D01*
G01X1863051Y-1579839D01*
G01X1861491Y-1590295D01*
G01X1861491Y-1660295D01*
G01X1863244Y-1671362D01*
G01X1868331Y-1681346D01*
G01X1876254Y-1689269D01*
G01X1886238Y-1694356D01*
G01X1897305Y-1696109D01*
G01X1967305Y-1696109D01*
G01X1978941Y-1694166D01*
G01X1989314Y-1688548D01*
G01X1997299Y-1679865D01*
G01X2005284Y-1688547D01*
G01X2015657Y-1694163D01*
G01X2027291Y-1696105D01*
G01X2067291Y-1696105D01*
G01X2077749Y-1694544D01*
G01X2087296Y-1689997D01*
G01X2096842Y-1694544D01*
G01X2107301Y-1696105D01*
G01X2147301Y-1696105D01*
G01X2157759Y-1694544D01*
G01X2167306Y-1689997D01*
G01X2176852Y-1694544D01*
G01X2187311Y-1696105D01*
G01X2227311Y-1696105D01*
G01X2237762Y-1694547D01*
G01X2247303Y-1690006D01*
G01X2256844Y-1694547D01*
G01X2267295Y-1696105D01*
G01X2307295Y-1696105D01*
G01X2317754Y-1694544D01*
G01X2327300Y-1689997D01*
G01X2336847Y-1694544D01*
G01X2347305Y-1696105D01*
G01X2387305Y-1696105D01*
G01X2397756Y-1694547D01*
G01X2407298Y-1690006D01*
G01X2411800Y-1692582D01*
G01X1991570Y-2112813D01*
G01X1975515Y-2115373D01*
G01X1960565Y-2121763D01*
G01X1947620Y-2131597D01*
G01X1937456Y-2144287D01*
G01X1930686Y-2159067D01*
G01X1927715Y-2175051D01*
G01X1928723Y-2191278D01*
G01X1933648Y-2206772D01*
G01X1500873Y-2206772D01*
G01X1503455Y-2195979D01*
G01X1504202Y-2184907D01*
G01X1583308Y-2184907D01*
G01X1594375Y-2183154D01*
G01X1604359Y-2178067D01*
G01X1612282Y-2170144D01*
G01X1617369Y-2160160D01*
G01X1619122Y-2149093D01*
G01X1619122Y-2094380D01*
G01X1655712Y-2057790D01*
G01X1663422Y-2047742D01*
G01X1668268Y-2036042D01*
G01X1669921Y-2023485D01*
G01X1669921Y-1553001D01*
G37*
G36*
G01X2827289Y-716123D02*
G01X2867289Y-716123D01*
G01X2877748Y-714561D01*
G01X2887294Y-710014D01*
G01X2896841Y-714561D01*
G01X2907299Y-716123D01*
G01X2947299Y-716123D01*
G01X2957758Y-714561D01*
G01X2967304Y-710014D01*
G01X2976851Y-714561D01*
G01X2987309Y-716123D01*
G01X3027309Y-716123D01*
G01X3034542Y-715385D01*
G01X3041477Y-713201D01*
G01X3041477Y-750301D01*
G01X3043038Y-760759D01*
G01X3047585Y-770306D01*
G01X3043038Y-779852D01*
G01X3041477Y-790311D01*
G01X3041477Y-830311D01*
G01X3043036Y-840762D01*
G01X3047577Y-850303D01*
G01X3043036Y-859844D01*
G01X3041477Y-870295D01*
G01X3041477Y-910295D01*
G01X3043038Y-920754D01*
G01X3047585Y-930300D01*
G01X3043038Y-939847D01*
G01X3041477Y-950305D01*
G01X3041477Y-990305D01*
G01X3043036Y-1000756D01*
G01X3047577Y-1010298D01*
G01X3043036Y-1019839D01*
G01X3041477Y-1030290D01*
G01X3041477Y-1070290D01*
G01X3043038Y-1080748D01*
G01X3047585Y-1090295D01*
G01X3043038Y-1099842D01*
G01X3041477Y-1110300D01*
G01X3041477Y-1150300D01*
G01X3043038Y-1160758D01*
G01X3047585Y-1170305D01*
G01X3043038Y-1179852D01*
G01X3041477Y-1190310D01*
G01X3041477Y-1230310D01*
G01X3043036Y-1240761D01*
G01X3047577Y-1250302D01*
G01X3043036Y-1259844D01*
G01X3041477Y-1270295D01*
G01X3041477Y-1310295D01*
G01X3042384Y-1318300D01*
G01X3045057Y-1325901D01*
G01X3038518Y-1329397D01*
G01X3023668Y-1331236D01*
G01X3009608Y-1336359D01*
G01X2997055Y-1344503D01*
G01X2986648Y-1355255D01*
G01X2978915Y-1368066D01*
G01X2974253Y-1382285D01*
G01X2972896Y-1397187D01*
G01X2974916Y-1412014D01*
G01X2980209Y-1426010D01*
G01X2988505Y-1438464D01*
G01X2999381Y-1448740D01*
G01X3012286Y-1456316D01*
G01X3026560Y-1460806D01*
G01X3041477Y-1461982D01*
G01X3041477Y-1470289D01*
G01X3043038Y-1480748D01*
G01X3047585Y-1490294D01*
G01X3043038Y-1499841D01*
G01X3041477Y-1510299D01*
G01X3041477Y-1547399D01*
G01X3034542Y-1545215D01*
G01X3027309Y-1544477D01*
G01X2987309Y-1544477D01*
G01X2976851Y-1546039D01*
G01X2967304Y-1550586D01*
G01X2957758Y-1546039D01*
G01X2947299Y-1544477D01*
G01X2907299Y-1544477D01*
G01X2896841Y-1546039D01*
G01X2887294Y-1550586D01*
G01X2877748Y-1546039D01*
G01X2867289Y-1544477D01*
G01X2827289Y-1544477D01*
G01X2816838Y-1546036D01*
G01X2807297Y-1550577D01*
G01X2797756Y-1546036D01*
G01X2787305Y-1544477D01*
G01X2747305Y-1544477D01*
G01X2736846Y-1546039D01*
G01X2727300Y-1550586D01*
G01X2717753Y-1546039D01*
G01X2707295Y-1544477D01*
G01X2667295Y-1544477D01*
G01X2656844Y-1546036D01*
G01X2647302Y-1550577D01*
G01X2637761Y-1546036D01*
G01X2627310Y-1544477D01*
G01X2587310Y-1544477D01*
G01X2576852Y-1546039D01*
G01X2567305Y-1550586D01*
G01X2557758Y-1546039D01*
G01X2547300Y-1544477D01*
G01X2507300Y-1544477D01*
G01X2496842Y-1546039D01*
G01X2487295Y-1550586D01*
G01X2477748Y-1546039D01*
G01X2467290Y-1544477D01*
G01X2427290Y-1544477D01*
G01X2416839Y-1546036D01*
G01X2407298Y-1550577D01*
G01X2397756Y-1546036D01*
G01X2387305Y-1544477D01*
G01X2347305Y-1544477D01*
G01X2336847Y-1546039D01*
G01X2327300Y-1550586D01*
G01X2317754Y-1546039D01*
G01X2307295Y-1544477D01*
G01X2267295Y-1544477D01*
G01X2256844Y-1546036D01*
G01X2247303Y-1550577D01*
G01X2237762Y-1546036D01*
G01X2227311Y-1544477D01*
G01X2187311Y-1544477D01*
G01X2176852Y-1546039D01*
G01X2167306Y-1550586D01*
G01X2157759Y-1546039D01*
G01X2147301Y-1544477D01*
G01X2107301Y-1544477D01*
G01X2096842Y-1546039D01*
G01X2087296Y-1550586D01*
G01X2077749Y-1546039D01*
G01X2067291Y-1544477D01*
G01X2027291Y-1544477D01*
G01X2020058Y-1545215D01*
G01X2013123Y-1547399D01*
G01X2013123Y-1510299D01*
G01X2011562Y-1499841D01*
G01X2007015Y-1490294D01*
G01X2011562Y-1480748D01*
G01X2013123Y-1470289D01*
G01X2013123Y-1430289D01*
G01X2011564Y-1419838D01*
G01X2007023Y-1410297D01*
G01X2011564Y-1400756D01*
G01X2013123Y-1390305D01*
G01X2013123Y-1350305D01*
G01X2011562Y-1339846D01*
G01X2007015Y-1330300D01*
G01X2011562Y-1320753D01*
G01X2013123Y-1310295D01*
G01X2013123Y-1270295D01*
G01X2011564Y-1259844D01*
G01X2007023Y-1250302D01*
G01X2011564Y-1240761D01*
G01X2013123Y-1230310D01*
G01X2013123Y-1190310D01*
G01X2011562Y-1179852D01*
G01X2007015Y-1170305D01*
G01X2011562Y-1160758D01*
G01X2013123Y-1150300D01*
G01X2013123Y-1110300D01*
G01X2011562Y-1099842D01*
G01X2007015Y-1090295D01*
G01X2011562Y-1080748D01*
G01X2013123Y-1070290D01*
G01X2013123Y-1030290D01*
G01X2011564Y-1019839D01*
G01X2007023Y-1010298D01*
G01X2011564Y-1000756D01*
G01X2013123Y-990305D01*
G01X2013123Y-950305D01*
G01X2011562Y-939847D01*
G01X2007015Y-930300D01*
G01X2011562Y-920754D01*
G01X2011629Y-920305D01*
G01X2221474Y-920305D01*
G01X2221474Y-1005304D01*
G01X2222812Y-1015001D01*
G01X2226725Y-1023974D01*
G01X2232923Y-1031552D01*
G01X2226726Y-1039130D01*
G01X2222813Y-1048103D01*
G01X2221475Y-1057800D01*
G01X2221475Y-1202800D01*
G01X2222814Y-1212501D01*
G01X2226730Y-1221476D01*
G01X2232931Y-1229055D01*
G01X2226730Y-1236634D01*
G01X2222814Y-1245609D01*
G01X2221475Y-1255310D01*
G01X2221475Y-1255310D01*
G01X2221475Y-1400311D01*
G01X2223228Y-1411378D01*
G01X2228315Y-1421362D01*
G01X2236238Y-1429285D01*
G01X2246222Y-1434372D01*
G01X2257289Y-1436125D01*
G01X2402290Y-1436125D01*
G01X2411991Y-1434786D01*
G01X2420966Y-1430870D01*
G01X2428545Y-1424669D01*
G01X2436124Y-1430870D01*
G01X2445099Y-1434786D01*
G01X2454800Y-1436125D01*
G01X2599800Y-1436125D01*
G01X2609495Y-1434788D01*
G01X2618466Y-1430877D01*
G01X2626043Y-1424683D01*
G01X2633619Y-1430877D01*
G01X2642590Y-1434788D01*
G01X2652285Y-1436125D01*
G01X2797285Y-1436125D01*
G01X2808353Y-1434372D01*
G01X2818336Y-1429285D01*
G01X2826260Y-1421362D01*
G01X2831347Y-1411378D01*
G01X2833099Y-1400311D01*
G01X2833099Y-1255310D01*
G01X2831761Y-1245609D01*
G01X2827845Y-1236634D01*
G01X2821644Y-1229055D01*
G01X2827845Y-1221476D01*
G01X2831761Y-1212501D01*
G01X2833099Y-1202800D01*
G01X2833099Y-1057800D01*
G01X2831762Y-1048105D01*
G01X2827851Y-1039134D01*
G01X2821658Y-1031557D01*
G01X2827851Y-1023981D01*
G01X2831762Y-1015010D01*
G01X2833099Y-1005315D01*
G01X2833099Y-860315D01*
G01X2831347Y-849247D01*
G01X2826260Y-839264D01*
G01X2818336Y-831340D01*
G01X2808353Y-826253D01*
G01X2797285Y-824501D01*
G01X2652285Y-824501D01*
G01X2642590Y-825838D01*
G01X2633619Y-829749D01*
G01X2626043Y-835942D01*
G01X2618466Y-829749D01*
G01X2609495Y-825838D01*
G01X2599800Y-824501D01*
G01X2454800Y-824501D01*
G01X2445100Y-825839D01*
G01X2436126Y-829754D01*
G01X2428547Y-835954D01*
G01X2420967Y-829750D01*
G01X2411990Y-825831D01*
G01X2402286Y-824492D01*
G01X2317288Y-824492D01*
G01X2308018Y-825712D01*
G01X2299381Y-829290D01*
G01X2291963Y-834981D01*
G01X2231964Y-894981D01*
G01X2226272Y-902398D01*
G01X2222694Y-911036D01*
G01X2221474Y-920305D01*
G01X2011629Y-920305D01*
G01X2013123Y-910295D01*
G01X2013123Y-870295D01*
G01X2011564Y-859844D01*
G01X2007023Y-850303D01*
G01X2011564Y-840762D01*
G01X2013123Y-830311D01*
G01X2013123Y-790311D01*
G01X2011562Y-779852D01*
G01X2007015Y-770306D01*
G01X2011562Y-760759D01*
G01X2013123Y-750301D01*
G01X2013123Y-713201D01*
G01X2020058Y-715385D01*
G01X2027291Y-716123D01*
G01X2067291Y-716123D01*
G01X2077749Y-714561D01*
G01X2087296Y-710014D01*
G01X2096842Y-714561D01*
G01X2107301Y-716123D01*
G01X2147301Y-716123D01*
G01X2157759Y-714561D01*
G01X2167306Y-710014D01*
G01X2176852Y-714561D01*
G01X2187311Y-716123D01*
G01X2227311Y-716123D01*
G01X2237762Y-714564D01*
G01X2247303Y-710023D01*
G01X2256844Y-714564D01*
G01X2267295Y-716123D01*
G01X2307295Y-716123D01*
G01X2317754Y-714561D01*
G01X2327300Y-710014D01*
G01X2336847Y-714561D01*
G01X2347305Y-716123D01*
G01X2387305Y-716123D01*
G01X2397756Y-714564D01*
G01X2407298Y-710023D01*
G01X2416839Y-714564D01*
G01X2427290Y-716123D01*
G01X2467290Y-716123D01*
G01X2477748Y-714561D01*
G01X2487295Y-710014D01*
G01X2496842Y-714561D01*
G01X2507300Y-716123D01*
G01X2547300Y-716123D01*
G01X2557758Y-714561D01*
G01X2567305Y-710014D01*
G01X2576852Y-714561D01*
G01X2587310Y-716123D01*
G01X2627310Y-716123D01*
G01X2637761Y-714564D01*
G01X2647302Y-710023D01*
G01X2656844Y-714564D01*
G01X2667295Y-716123D01*
G01X2707295Y-716123D01*
G01X2717753Y-714561D01*
G01X2727300Y-710014D01*
G01X2736846Y-714561D01*
G01X2747305Y-716123D01*
G01X2787305Y-716123D01*
G01X2797756Y-714564D01*
G01X2807297Y-710023D01*
G01X2816838Y-714564D01*
G01X2827289Y-716123D01*
G37*
G36*
G01X2505597Y-4067708D02*
G01X2505597Y-4032896D01*
G01X2504634Y-4024647D01*
G01X2501796Y-4016841D01*
G01X2497237Y-4009898D01*
G01X2501796Y-4002955D01*
G01X2504634Y-3995149D01*
G01X2505597Y-3986900D01*
G01X2505597Y-3959123D01*
G01X2549780Y-4003307D01*
G01X2557011Y-4009259D01*
G01X2552159Y-4016341D01*
G01X2549131Y-4024374D01*
G01X2548103Y-4032896D01*
G01X2548103Y-4067708D01*
G01X2505597Y-4067708D01*
G37*
G54D10*
G01X48514Y-1377245D02*
G01X48514Y-908755D01*
G03X73400Y-918813I24886J25756D01*
G01X423399Y-918813D01*
G03X459213Y-882999I0J35814D01*
G01X459213Y-733000D01*
G03X423399Y-697186I-35814J0D01*
G01X73400Y-697186D01*
G03X48514Y-707244I0J-35814D01*
G01X48514Y-543560D01*
G01X3672586Y-543560D01*
G01X3672586Y-1887365D01*
G03X3604809Y-1859275I-67777J-67724D01*
G01X3544809Y-1859275D01*
G03X3526299Y-2049098I0J-95814D01*
G01X3526299Y-2534990D01*
G01X3413509Y-2647780D01*
G03X3399299Y-2682085I34305J-34305D01*
G01X3399299Y-3011199D01*
G03X3390900Y-3013878I6600J-35201D01*
G03X3375901Y-3010586I-14999J-32522D01*
G01X3319336Y-3010586D01*
G03X3283522Y-3046400I0J-35814D01*
G01X3283522Y-3100400D01*
G03X3319336Y-3136214I35814J0D01*
G01X3375901Y-3136214D01*
G03X3390900Y-3132922I0J35814D01*
G03X3405899Y-3136214I14999J32522D01*
G01X3462465Y-3136214D01*
G03X3498279Y-3100400I0J35814D01*
G01X3498279Y-3046400D01*
G03X3496327Y-3034739I-35814J0D01*
G01X3496327Y-2902754D01*
G03X3544809Y-2915925I48482J82643D01*
G01X3604809Y-2915925D01*
G03X3672586Y-2887835I0J95814D01*
G01X3672586Y-5856986D01*
G01X48514Y-5856986D01*
G01X48514Y-2152882D01*
G03X50685Y-2155200I36476J31986D01*
G01X102286Y-2206801D01*
G01X102286Y-2217864D01*
G03X116586Y-2246496I35814J0D01*
G01X116586Y-3567253D01*
G03X117407Y-3576140I48514J0D01*
G03X116882Y-3582248I35289J-6108D01*
G01X116882Y-3681948D01*
G03X152696Y-3717762I35814J0D01*
G01X307196Y-3717762D01*
G03X313901Y-3717129I0J35814D01*
G03X321579Y-3727452I56799J34227D01*
G03X307196Y-3724438I-14382J-32799D01*
G01X152696Y-3724438D01*
G03X116882Y-3760252I0J-35814D01*
G01X116882Y-3859952D01*
G03X152696Y-3895766I35814J0D01*
G01X187245Y-3895766D01*
G03X204206Y-3951492I65475J-10517D01*
G01X204206Y-4306170D01*
G03X172022Y-4341800I3630J-35630D01*
G01X172022Y-4395800D01*
G03X207836Y-4431614I35814J0D01*
G01X264401Y-4431614D01*
G03X279400Y-4428322I0J35814D01*
G03X294399Y-4431614I14999J32522D01*
G01X350965Y-4431614D01*
G03X386779Y-4395800I0J35814D01*
G01X386779Y-4373311D01*
G01X442679Y-4317411D01*
G03X470885Y-4318638I16920J64119D01*
G01X470885Y-4488066D01*
G01X358095Y-4600856D01*
G03X343885Y-4635161I34305J-34305D01*
G01X343885Y-5001640D01*
G03X358095Y-5035945I48514J0D01*
G01X534326Y-5212176D01*
G01X534326Y-5262900D01*
G03X570140Y-5298714I35814J0D01*
G01X650787Y-5298714D01*
G03X685800Y-5270434I0J35814D01*
G03X720813Y-5298714I35013J7534D01*
G01X801460Y-5298714D01*
G03X836878Y-5268214I0J35814D01*
G01X889245Y-5268214D01*
G01X859584Y-5297875D01*
G03X845374Y-5332179I34305J-34305D01*
G01X845374Y-5357579D01*
G03X859584Y-5391884I48514J0D01*
G01X910384Y-5442684D01*
G03X944688Y-5456893I34305J34305D01*
G01X1122488Y-5456893D01*
G03X1156792Y-5442684I0J48514D01*
G01X1331263Y-5268214D01*
G01X1451213Y-5268214D01*
G03X1479940Y-5283200I43582J48514D01*
G03X1494795Y-5411914I14855J-63500D01*
G01X1615994Y-5411914D01*
G03X1630849Y-5283200I0J65215D01*
G03X1659575Y-5268214I-14855J63500D01*
G01X2206710Y-5268214D01*
G01X2506391Y-5567894D01*
G01X2506391Y-5625099D01*
G03X2698018Y-5625099I95814J0D01*
G01X2698018Y-5565099D01*
G03X2556567Y-5480852I-95814J0D01*
G01X2261110Y-5185395D01*
G03X2226806Y-5171186I-34305J-34305D01*
G01X1659574Y-5171186D01*
G03X1630849Y-5156200I-43581J-48514D01*
G03X1659575Y-5141214I-14855J63500D01*
G01X1833976Y-5141214D01*
G03X1868281Y-5127004I0J48514D01*
G01X1909507Y-5085778D01*
G01X1932000Y-5085778D01*
G03X1961554Y-5070194I0J35814D01*
G01X2184396Y-5070194D01*
G03X2218700Y-5055985I0J48514D01*
G01X2267191Y-5007494D01*
G03X2410988Y-5077563I95009J12393D01*
G03X2418804Y-4917794I-48788J82463D01*
G01X2506391Y-4917794D01*
G01X2506391Y-4925101D01*
G03X2698018Y-4925101I95814J0D01*
G01X2698018Y-4865101D01*
G03X2517265Y-4820766I-95814J0D01*
G01X2336795Y-4820766D01*
G03X2302491Y-4834976I0J-48514D01*
G01X2164300Y-4973166D01*
G01X1966457Y-4973166D01*
G03X1967814Y-4963401I-34457J9765D01*
G01X1967814Y-4906835D01*
G03X1932000Y-4871021I-35814J0D01*
G01X1878000Y-4871021D01*
G03X1842186Y-4906835I0J-35814D01*
G01X1842186Y-4917186D01*
G01X1659575Y-4917186D01*
G03X1615994Y-4900485I-43581J-48514D01*
G01X1558781Y-4900485D01*
G01X1421592Y-4763296D01*
G03X1423626Y-4751400I-33781J11896D01*
G01X1423626Y-4732191D01*
G01X1552042Y-4603775D01*
G03X1566251Y-4569471I-34305J34305D01*
G01X1566251Y-4535086D01*
G01X1591984Y-4535086D01*
G03X1627798Y-4499272I0J35814D01*
G01X1627798Y-4371419D01*
G01X1653801Y-4345416D01*
G03X1668011Y-4311111I-34305J34305D01*
G01X1668011Y-4299711D01*
G03X1682967Y-4235291I-48514J45210D01*
G01X1698186Y-4250510D01*
G01X1698186Y-4497712D01*
G03X1734000Y-4533526I35814J0D01*
G01X1873999Y-4533526D01*
G03X1884060Y-4532084I0J35814D01*
G01X1922092Y-4570115D01*
G03X1956396Y-4584325I34305J34305D01*
G01X2362795Y-4584325D01*
G03X2397100Y-4570115I0J48514D01*
G01X2510201Y-4457014D01*
G01X2522665Y-4457014D01*
G03X2551296Y-4442715I0J35814D01*
G01X2695940Y-4442715D01*
G03X2731150Y-4471981I35210J6548D01*
G01X2821150Y-4471981D01*
G03X2856964Y-4436167I0J35814D01*
G01X2856964Y-4379621D01*
G01X3033829Y-4202756D01*
G03X3048038Y-4168452I-34305J34305D01*
G01X3048038Y-4101926D01*
G01X3067023Y-4101926D01*
G03X3102837Y-4066112I0J35814D01*
G01X3102837Y-3925112D01*
G03X3087331Y-3895612I-35814J0D01*
G03X3102837Y-3866113I-20308J29500D01*
G01X3102837Y-3725112D01*
G03X3067023Y-3689298I-35814J0D01*
G01X2932022Y-3689298D01*
G03X2896208Y-3725112I0J-35814D01*
G01X2896208Y-3866113D01*
G03X2911714Y-3895612I35814J0D01*
G03X2896208Y-3925112I20308J-29500D01*
G01X2896208Y-4066112D01*
G03X2932022Y-4101926I35814J0D01*
G01X2951010Y-4101926D01*
G01X2951010Y-4148357D01*
G01X2856964Y-4242402D01*
G01X2856964Y-4216163D01*
G03X2824668Y-4180522I-35814J0D01*
G01X2824668Y-3929432D01*
G03X2810459Y-3895127I-48514J0D01*
G01X2748429Y-3833098D01*
G03X2730236Y-3821642I-34305J-34305D01*
G03X2701417Y-3807090I-28819J-21263D01*
G01X2691189Y-3807090D01*
G01X2691189Y-3611377D01*
G03X2693765Y-3598039I-33237J13338D01*
G01X2693765Y-3544038D01*
G03X2657951Y-3508224I-35814J0D01*
G01X2601385Y-3508224D01*
G03X2586387Y-3511516I0J-35814D01*
G03X2571388Y-3508224I-14999J-32522D01*
G01X2514822Y-3508224D01*
G03X2479008Y-3544038I0J-35814D01*
G01X2479008Y-3598039D01*
G03X2514822Y-3633853I35814J0D01*
G01X2571388Y-3633853D01*
G03X2586387Y-3630561I0J35814D01*
G03X2594161Y-3633116I14999J32522D01*
G01X2594161Y-3807090D01*
G01X2583917Y-3807090D01*
G03X2548103Y-3842904I0J-35814D01*
G01X2548103Y-3864411D01*
G01X2516789Y-3833098D01*
G03X2498604Y-3821644I-34305J-34305D01*
G03X2469783Y-3807090I-28821J-21260D01*
G01X2354083Y-3807090D01*
G03X2318269Y-3842904I0J-35814D01*
G01X2318269Y-3891904D01*
G03X2326630Y-3914902I35814J0D01*
G03X2321602Y-3922814I27454J-22998D01*
G03X2283152Y-3908829I-40786J-52288D01*
G01X2162720Y-3788398D01*
G03X2128416Y-3774188I-34305J-34305D01*
G01X1976016Y-3774188D01*
G03X1941711Y-3788398I0J-48514D01*
G01X1922010Y-3808099D01*
G01X1922010Y-3767628D01*
G01X1958601Y-3731038D01*
G03X1972810Y-3696733I-34305J34305D01*
G01X1972810Y-3564429D01*
G01X2182724Y-3354514D01*
G01X2231100Y-3354514D01*
G03X2260600Y-3339009I0J35814D01*
G03X2290100Y-3354514I29500J20308D01*
G01X2431100Y-3354514D01*
G03X2466914Y-3318700I0J35814D01*
G01X2466914Y-3183699D01*
G03X2431100Y-3147885I-35814J0D01*
G01X2290100Y-3147885D01*
G03X2260600Y-3163391I0J-35814D01*
G03X2231100Y-3147885I-29500J-20308D01*
G01X2090100Y-3147885D01*
G03X2054286Y-3183699I0J-35814D01*
G01X2054286Y-3318700D01*
G03X2060769Y-3339251I35814J0D01*
G01X1956510Y-3443511D01*
G01X1956510Y-3381231D01*
G03X1920696Y-3345417I-35814J0D01*
G01X1855990Y-3345417D01*
G01X1833800Y-3323228D01*
G01X1833800Y-2837771D01*
G03X1855290Y-2822541I-8513J34787D01*
G03X1885292Y-2838798I30002J19557D01*
G01X1965292Y-2838798D01*
G03X2001106Y-2802984I0J35814D01*
G01X2001106Y-2712984D01*
G03X1965292Y-2677170I-35814J0D01*
G01X1885292Y-2677170D01*
G03X1855290Y-2693427I0J-35814D01*
G03X1832397Y-2677883I-30002J-19557D01*
G01X1838423Y-2671858D01*
G03X1882977Y-2558694I-2336J66273D01*
G03X1769814Y-2603248I-46891J-46891D01*
G01X1734487Y-2638575D01*
G01X1704211Y-2608300D01*
G03X1669907Y-2594091I-34305J-34305D01*
G01X1544904Y-2594091D01*
G01X1544904Y-2583862D01*
G03X1509090Y-2548048I-35814J0D01*
G01X1504699Y-2548048D01*
G01X1490111Y-2533459D01*
G03X1538670Y-2471891I-17714J63904D01*
G01X1670292Y-2340269D01*
G01X1721422Y-2340269D01*
G01X1721422Y-2389200D01*
G03X1757236Y-2425014I35814J0D01*
G01X1813801Y-2425014D01*
G03X1828800Y-2421722I0J35814D01*
G03X1843799Y-2425014I14999J32522D01*
G01X1900365Y-2425014D01*
G03X1936179Y-2389200I0J35814D01*
G01X1936179Y-2335200D01*
G03X1917588Y-2303799I-35814J0D01*
G01X2005316Y-2303799D01*
G03X2039621Y-2289590I0J48514D01*
G01X2244081Y-2085129D01*
G01X2244081Y-2110971D01*
G01X1912350Y-2442702D01*
G03X1906968Y-2562755I25336J-61283D01*
G03X2002466Y-2489804I30718J58770D01*
G01X2300193Y-2192077D01*
G01X2374896Y-2192077D01*
G03X2410710Y-2156263I0J35814D01*
G01X2410710Y-2049800D01*
G01X2462515Y-2049800D01*
G03X2496820Y-2035591I0J48514D01*
G01X2801619Y-1730791D01*
G03X2815828Y-1696487I-34305J34305D01*
G01X2815828Y-1694222D01*
G03X2827289Y-1696105I11461J33931D01*
G01X2836871Y-1696105D01*
G03X2905604Y-1762176I66314J199D01*
G03X2969336Y-1691269I-2419J66270D01*
G03X2987309Y-1696105I17973J30978D01*
G01X3027309Y-1696105D01*
G03X3057301Y-1679865I0J35814D01*
G03X3087295Y-1696109I29994J19570D01*
G01X3157295Y-1696109D01*
G03X3193109Y-1660295I0J35814D01*
G01X3193109Y-1590295D01*
G03X3187004Y-1570294I-35814J0D01*
G03X3189584Y-1565786I-29713J19995D01*
G01X3246579Y-1622782D01*
G01X3246579Y-1873205D01*
G03X3196826Y-1859275I-49753J-81884D01*
G01X3116826Y-1859275D01*
G03X3033161Y-2001784I0J-95814D01*
G01X3014983Y-2001784D01*
G03X2979169Y-2037598I0J-35814D01*
G01X2979169Y-2097601D01*
G03X2979850Y-2104556I35814J0D01*
G03X2967991Y-2113261I22445J-43010D01*
G01X2840991Y-2240261D01*
G03X2826782Y-2274565I34305J-34305D01*
G01X2826782Y-2329993D01*
G01X2769175Y-2272387D01*
G01X2769175Y-2249898D01*
G03X2733361Y-2214084I-35814J0D01*
G01X2676796Y-2214084D01*
G03X2661797Y-2217376I0J-35814D01*
G03X2646798Y-2214084I-14999J-32522D01*
G01X2590232Y-2214084D01*
G03X2554418Y-2249898I0J-35814D01*
G01X2554418Y-2303898D01*
G03X2590232Y-2339712I35814J0D01*
G01X2646798Y-2339712D01*
G03X2661797Y-2336420I0J35814D01*
G03X2676796Y-2339712I14999J32522D01*
G01X2699282Y-2339712D01*
G01X2741154Y-2381584D01*
G03X2734580Y-2404685I59440J-29401D01*
G03X2736666Y-2428612I66014J-6300D01*
G03X2710100Y-2442200I7738J-47893D01*
G01X2684700Y-2467600D01*
G03X2670493Y-2501392I34305J-34305D01*
G01X2517591Y-2501392D01*
G01X2430201Y-2414002D01*
G03X2410710Y-2402109I-34305J-34305D01*
G01X2410710Y-2376268D01*
G03X2374896Y-2340454I-35814J0D01*
G01X2279895Y-2340454D01*
G03X2244081Y-2376268I0J-35814D01*
G01X2244081Y-2496267D01*
G03X2279895Y-2532081I35814J0D01*
G01X2293383Y-2532081D01*
G01X2293383Y-2630318D01*
G01X2274415Y-2649286D01*
G01X2257207Y-2649286D01*
G03X2221393Y-2685100I0J-35814D01*
G01X2221393Y-2725100D01*
G03X2257207Y-2760914I35814J0D01*
G01X2317206Y-2760914D01*
G03X2353020Y-2725100I0J35814D01*
G01X2353020Y-2707899D01*
G01X2371380Y-2689540D01*
G01X2371380Y-2725100D01*
G03X2407194Y-2760914I35814J0D01*
G01X2467193Y-2760914D01*
G03X2503007Y-2725100I0J35814D01*
G01X2503007Y-2685100D01*
G03X2502174Y-2677419I-35814J0D01*
G01X2713981Y-2677419D01*
G03X2712786Y-2686594I34619J-9175D01*
G01X2712786Y-2746593D01*
G03X2748600Y-2782407I35814J0D01*
G01X2788600Y-2782407D01*
G03X2824414Y-2746593I0J35814D01*
G01X2824414Y-2686594D01*
G03X2823240Y-2677497I-35814J0D01*
G01X2979169Y-2677615D01*
G01X2979184Y-2707606D01*
G01X2979184Y-2737594D01*
G03X3014998Y-2773408I35814J0D01*
G01X3033166Y-2773408D01*
G03X3116826Y-2915925I83661J-46703D01*
G01X3163484Y-2915925D01*
G01X3097199Y-2982210D01*
G01X2990294Y-2982210D01*
G03X2955989Y-2996419I0J-48514D01*
G01X2842016Y-3110393D01*
G01X2824800Y-3110393D01*
G03X2788986Y-3146207I0J-35814D01*
G01X2788986Y-3206206D01*
G03X2824800Y-3242020I35814J0D01*
G01X2864800Y-3242020D01*
G03X2900614Y-3206206I0J35814D01*
G01X2900614Y-3189013D01*
G01X3010389Y-3079238D01*
G01X3117294Y-3079238D01*
G03X3151598Y-3065028I0J48514D01*
G01X3329398Y-2887229D01*
G03X3343607Y-2852924I-34305J34305D01*
G01X3343607Y-2577705D01*
G03X3329398Y-2543400I-48514J0D01*
G01X3235527Y-2449529D01*
G03X3242008Y-2425305I-42033J24224D01*
G01X3242008Y-2390085D01*
G03X3235527Y-2365861I-48514J0D01*
G01X3329398Y-2271990D01*
G03X3343607Y-2237686I-34305J34305D01*
G01X3343607Y-1602687D01*
G03X3329398Y-1568382I-48514J0D01*
G01X3193105Y-1432089D01*
G01X3193105Y-1430289D01*
G03X3187006Y-1410297I-35814J0D01*
G03X3193105Y-1390305I-29714J19992D01*
G01X3193105Y-1350305D01*
G03X3186997Y-1330300I-35814J0D01*
G03X3193105Y-1310295I-29706J20005D01*
G01X3193105Y-1270295D01*
G03X3187006Y-1250302I-35814J0D01*
G03X3193105Y-1230310I-29714J19992D01*
G01X3193105Y-1190310D01*
G03X3186997Y-1170305I-35814J0D01*
G03X3193105Y-1150300I-29706J20005D01*
G01X3193105Y-1110300D01*
G03X3186997Y-1090295I-35814J0D01*
G03X3193105Y-1070290I-29706J20005D01*
G01X3193105Y-1030290D01*
G03X3187006Y-1010298I-35814J0D01*
G03X3193105Y-990305I-29714J19992D01*
G01X3193105Y-950305D01*
G03X3186997Y-930300I-35814J0D01*
G03X3193105Y-910295I-29706J20005D01*
G01X3193105Y-870295D01*
G03X3187006Y-850303I-35814J0D01*
G03X3193105Y-830311I-29714J19992D01*
G01X3193105Y-790311D01*
G03X3186997Y-770306I-35814J0D01*
G03X3193105Y-750301I-29706J20005D01*
G01X3193105Y-710301D01*
G03X3187004Y-690306I-35814J0D01*
G03X3193109Y-670305I-29709J20001D01*
G01X3193109Y-600305D01*
G03X3157295Y-564491I-35814J0D01*
G01X3087295Y-564491D01*
G03X3057301Y-580735I0J-35814D01*
G03X3027309Y-564495I-29992J-19574D01*
G01X2987309Y-564495D01*
G03X2967304Y-570603I0J-35814D01*
G03X2947299Y-564495I-20005J-29706D01*
G01X2907299Y-564495D01*
G03X2887294Y-570603I0J-35814D01*
G03X2867289Y-564495I-20005J-29706D01*
G01X2827289Y-564495D01*
G03X2807297Y-570594I0J-35814D01*
G03X2787305Y-564495I-19992J-29714D01*
G01X2747305Y-564495D01*
G03X2727300Y-570603I0J-35814D01*
G03X2707295Y-564495I-20005J-29706D01*
G01X2667295Y-564495D01*
G03X2647302Y-570594I0J-35814D01*
G03X2627310Y-564495I-19992J-29714D01*
G01X2587310Y-564495D01*
G03X2567305Y-570603I0J-35814D01*
G03X2547300Y-564495I-20005J-29706D01*
G01X2507300Y-564495D01*
G03X2487295Y-570603I0J-35814D01*
G03X2467290Y-564495I-20005J-29706D01*
G01X2427290Y-564495D01*
G03X2407298Y-570594I0J-35814D01*
G03X2387305Y-564495I-19992J-29714D01*
G01X2347305Y-564495D01*
G03X2327300Y-570603I0J-35814D01*
G03X2307295Y-564495I-20005J-29706D01*
G01X2267295Y-564495D01*
G03X2247303Y-570594I0J-35814D01*
G03X2227311Y-564495I-19992J-29714D01*
G01X2187311Y-564495D01*
G03X2167306Y-570603I0J-35814D01*
G03X2147301Y-564495I-20005J-29706D01*
G01X2107301Y-564495D01*
G03X2087296Y-570603I0J-35814D01*
G03X2067291Y-564495I-20005J-29706D01*
G01X2027291Y-564495D01*
G03X1997299Y-580735I0J-35814D01*
G03X1967305Y-564491I-29994J-19570D01*
G01X1897305Y-564491D01*
G03X1861491Y-600305I0J-35814D01*
G01X1861491Y-670305D01*
G03X1867596Y-690306I35814J0D01*
G03X1861495Y-710301I29713J-19995D01*
G01X1861495Y-750301D01*
G03X1867603Y-770306I35814J0D01*
G03X1861495Y-790311I29706J-20005D01*
G01X1861495Y-830311D01*
G03X1863379Y-841774I35814J0D01*
G01X1779612Y-841774D01*
G01X1717621Y-779784D01*
G03X1683317Y-765574I-34305J-34305D01*
G01X1645797Y-765574D01*
G03X1623237Y-771139I0J-48514D01*
G01X1465492Y-613394D01*
G03X1431187Y-599185I-34305J-34305D01*
G01X1354987Y-599185D01*
G03X1320683Y-613394I0J-48514D01*
G01X1219083Y-714994D01*
G03X1204874Y-749299I34305J-34305D01*
G01X1204874Y-800098D01*
G03X1219083Y-834403I48514J0D01*
G01X1262154Y-877474D01*
G03X1255673Y-901698I42033J-24224D01*
G01X1255673Y-903984D01*
G01X643789Y-903984D01*
G03X609484Y-918194I0J-48514D01*
G01X431685Y-1095993D01*
G03X417475Y-1130298I34305J-34305D01*
G01X417475Y-1367187D01*
G01X73400Y-1367187D01*
G03X48514Y-1377245I0J-35814D01*
G01X141986Y-5651500D02*
G03X366014Y-5651500I112014J0D01*
G03X141986Y-5651500I-112014J0D01*
G01X2026382Y-5365100D02*
G01X2026382Y-5425100D01*
G03X2218009Y-5425100I95814J0D01*
G01X2218009Y-5365100D01*
G03X2026382Y-5365100I-95814J0D01*
G01X2266386Y-5595099D02*
G03X2458014Y-5595099I95814J0D01*
G03X2266386Y-5595099I-95814J0D01*
G01X2864800Y-3392007D02*
G03X2900614Y-3356193I0J35814D01*
G01X2900614Y-3296194D01*
G03X2864800Y-3260380I-35814J0D01*
G01X2824800Y-3260380D01*
G03X2788986Y-3296194I0J-35814D01*
G01X2788986Y-3356193D01*
G03X2824800Y-3392007I35814J0D01*
G01X2864800Y-3392007D01*
G01X3032980Y-3204726D02*
G03X3001956Y-3240218I4790J-35492D01*
G01X3001956Y-3294219D01*
G03X3037770Y-3330033I35814J0D01*
G01X3094336Y-3330033D01*
G03X3109335Y-3326741I0J35814D01*
G03X3124333Y-3330033I14999J32522D01*
G01X3180899Y-3330033D01*
G03X3216713Y-3294219I0J35814D01*
G01X3216713Y-3240218D01*
G03X3180899Y-3204404I-35814J0D01*
G01X3130008Y-3204404D01*
G01X3130008Y-3197594D01*
G03X3081494Y-3086070I-48514J45210D01*
G03X3032980Y-3197594I0J-66314D01*
G01X3032980Y-3204726D01*
G01X3479000Y-3841194D02*
G01X3379000Y-3841194D01*
G03X3379000Y-4052821I0J-105814D01*
G01X3479000Y-4052821D01*
G03X3479000Y-3841194I0J105814D01*
G01X3479000Y-5091179D02*
G01X3379000Y-5091179D01*
G03X3379000Y-5302806I0J-105814D01*
G01X3479000Y-5302806D01*
G03X3479000Y-5091179I0J105814D01*
G01X3559814Y-4871999D02*
G03X3298186Y-4871999I-130814J0D01*
G03X3559814Y-4871999I130814J0D01*
G01X3559814Y-4272001D02*
G03X3298186Y-4272001I-130814J0D01*
G03X3559814Y-4272001I130814J0D01*
G01X3559814Y-4572000D02*
G03X3298186Y-4572000I-130814J0D01*
G03X3559814Y-4572000I130814J0D01*
G01X3355086Y-5651500D02*
G03X3579114Y-5651500I112014J0D01*
G03X3355086Y-5651500I-112014J0D01*
G01X514503Y-1150393D02*
G01X607587Y-1057309D01*
G01X607587Y-1093000D01*
G03X643401Y-1128814I35814J0D01*
G01X993400Y-1128814D01*
G03X997652Y-1128561I0J35814D01*
G01X1186184Y-1317093D01*
G01X1186184Y-1836563D01*
G03X1163293Y-1828293I-22890J-27544D01*
G01X1058292Y-1828293D01*
G03X1028700Y-1843935I0J-35814D01*
G03X999108Y-1828293I-29592J-20173D01*
G01X934411Y-1828293D01*
G01X1076725Y-1685980D01*
G03X1121280Y-1572816I-2336J66273D01*
G03X1008116Y-1617370I-46891J-46891D01*
G01X774894Y-1850592D01*
G01X612259Y-1850592D01*
G03X579093Y-1828293I-33166J-13515D01*
G01X474092Y-1828293D01*
G03X439219Y-1855954I0J-35814D01*
G03X427084Y-1864802I22170J-43152D01*
G01X238094Y-2053792D01*
G01X221152Y-2053792D01*
G03X192100Y-2038921I-29052J-20944D01*
G01X184773Y-2038921D01*
G01X500294Y-1723401D01*
G03X514503Y-1689097I-34305J34305D01*
G01X514503Y-1150393D01*
G01X643401Y-1157186D02*
G03X607587Y-1193000I0J-35814D01*
G01X607587Y-1293000D01*
G03X643401Y-1328814I35814J0D01*
G01X993400Y-1328814D01*
G03X1029214Y-1293000I0J35814D01*
G01X1029214Y-1193000D01*
G03X993400Y-1157186I-35814J0D01*
G01X643401Y-1157186D01*
G01X213614Y-2325953D02*
G03X223884Y-2341109I44575J19148D01*
G01X443274Y-2560499D01*
G01X443274Y-2579700D01*
G03X479088Y-2615514I35814J0D01*
G01X529088Y-2615514D01*
G03X546100Y-2611216I0J35814D01*
G03X563112Y-2615514I17012J31516D01*
G01X613112Y-2615514D01*
G03X648926Y-2579700I0J35814D01*
G01X648926Y-2525700D01*
G03X613112Y-2489886I-35814J0D01*
G01X563112Y-2489886D01*
G03X546100Y-2494184I0J-35814D01*
G03X529088Y-2489886I-17012J-31516D01*
G01X509879Y-2489886D01*
G01X306703Y-2286710D01*
G01X306703Y-2122401D01*
G01X461478Y-1967626D01*
G03X474092Y-1969921I12615J33519D01*
G01X579093Y-1969921D01*
G03X612260Y-1947620I0J35814D01*
G01X794989Y-1947620D01*
G03X829294Y-1933411I0J48514D01*
G01X858293Y-1904412D01*
G01X858293Y-1934107D01*
G03X894107Y-1969921I35814J0D01*
G01X999108Y-1969921D01*
G03X1028700Y-1954280I0J35814D01*
G03X1058292Y-1969921I29592J20173D01*
G01X1163293Y-1969921D01*
G03X1186184Y-1961651I0J35814D01*
G01X1186184Y-1982796D01*
G03X1200393Y-2017101I48514J0D01*
G01X1371624Y-2188332D01*
G03X1374922Y-2206772I66273J2336D01*
G01X1090918Y-2206772D01*
G03X1056613Y-2220981I0J-48514D01*
G01X243815Y-3033779D01*
G03X229605Y-3068084I34305J-34305D01*
G01X229605Y-3499883D01*
G03X237209Y-3525959I48514J0D01*
G03X240669Y-3546434I66310J676D01*
G01X213614Y-3546434D01*
G01X213614Y-2325953D01*
G01X438278Y-2149093D02*
G03X474092Y-2184907I35814J0D01*
G01X579093Y-2184907D01*
G03X614907Y-2149093I0J35814D01*
G01X614907Y-2079093D01*
G03X579093Y-2043279I-35814J0D01*
G01X474092Y-2043279D01*
G03X438278Y-2079093I0J-35814D01*
G01X438278Y-2149093D01*
G01X999108Y-2043279D02*
G01X894107Y-2043279D01*
G03X858293Y-2079093I0J-35814D01*
G01X858293Y-2149093D01*
G03X894107Y-2184907I35814J0D01*
G01X999108Y-2184907D01*
G03X1028700Y-2169265I0J35814D01*
G03X1058292Y-2184907I29592J20173D01*
G01X1163293Y-2184907D01*
G03X1199107Y-2149093I0J35814D01*
G01X1199107Y-2079093D01*
G03X1163293Y-2043279I-35814J0D01*
G01X1058292Y-2043279D01*
G03X1028700Y-2058920I0J-35814D01*
G03X999108Y-2043279I-29592J-20173D01*
G01X616260Y-2798553D02*
G03X613442Y-2812477I32996J-13925D01*
G01X613442Y-2907479D01*
G03X649256Y-2943293I35814J0D01*
G01X723968Y-2943293D01*
G01X758184Y-2977509D01*
G01X758184Y-3105814D01*
G03X751291Y-3187459I48514J-45210D01*
G03X828984Y-3213481I55408J36435D01*
G01X828984Y-3532018D01*
G03X801685Y-3566805I8515J-34787D01*
G01X801685Y-3634389D01*
G01X670518Y-3634389D01*
G01X670518Y-3582248D01*
G03X634704Y-3546434I-35814J0D01*
G01X609937Y-3546434D01*
G01X664600Y-3491771D01*
G01X711799Y-3491771D01*
G03X747613Y-3455957I0J35814D01*
G01X747613Y-3375957D01*
G03X711799Y-3340143I-35814J0D01*
G01X631800Y-3340143D01*
G03X596821Y-3368267I0J-35814D01*
G03X562000Y-3340829I-34821J-8376D01*
G01X482001Y-3340829D01*
G03X446187Y-3376643I0J-35814D01*
G01X446187Y-3456643D01*
G03X482001Y-3492457I35814J0D01*
G01X526696Y-3492457D01*
G01X524704Y-3494449D01*
G01X468599Y-3494449D01*
G03X434295Y-3508658I0J-48514D01*
G01X408895Y-3534058D01*
G03X394685Y-3568363I34305J-34305D01*
G01X394685Y-3621078D01*
G03X373036Y-3616630I-23985J-61824D01*
G01X354204Y-3597798D01*
G03X343010Y-3589447I-34305J-34305D01*
G01X343010Y-3582248D01*
G03X342833Y-3578687I-35814J0D01*
G03X369191Y-3516077I-39314J53404D01*
G03X326633Y-3463128I-65672J-9206D01*
G01X326633Y-3088179D01*
G01X616260Y-2798553D01*
G01X491713Y-3724438D02*
G01X491713Y-3717762D01*
G01X574509Y-3717762D01*
G03X583180Y-3724438I33740J34860D01*
G01X491713Y-3724438D01*
G01X567913Y-4189919D02*
G03X652872Y-4128628I18686J63627D01*
G01X874903Y-3906597D01*
G03X882182Y-3897280I-34305J34305D01*
G03X915599Y-3869064I-1590J35779D01*
G03X950605Y-3897315I35006J7563D01*
G01X1030605Y-3897315D01*
G03X1066419Y-3861501I0J35814D01*
G01X1066419Y-3781501D01*
G03X1030605Y-3745687I-35814J0D01*
G01X950605Y-3745687D01*
G03X915599Y-3773938I0J-35814D01*
G03X880593Y-3745687I-35006J-7563D01*
G01X800593Y-3745687D01*
G03X764779Y-3781501I0J-35814D01*
G01X764779Y-3861501D01*
G03X767980Y-3876301I35814J0D01*
G01X584262Y-4060019D01*
G03X567913Y-4062665I2336J-66273D01*
G01X567913Y-3949362D01*
G03X553704Y-3915058I-48514J0D01*
G01X534412Y-3895766D01*
G01X634704Y-3895766D01*
G03X670518Y-3859952I0J35814D01*
G01X670518Y-3760252D01*
G03X655945Y-3731417I-35814J0D01*
G01X1079198Y-3731417D01*
G03X1113503Y-3717207I0J48514D01*
G01X1234643Y-3596067D01*
G03X1286961Y-3699896I54655J-37556D01*
G01X1407393Y-3820327D01*
G03X1441697Y-3834536I34305J34305D01*
G01X1808258Y-3834536D01*
G03X1799582Y-3862222I39838J-27686D01*
G01X1799582Y-3924302D01*
G03X1813792Y-3958607I48514J0D01*
G01X1820698Y-3965513D01*
G03X1783741Y-4041898I27399J-60389D01*
G01X1734000Y-4041898D01*
G03X1698186Y-4077712I0J-35814D01*
G01X1698186Y-4137598D01*
G01X1356508Y-4137598D01*
G03X1322203Y-4151807I0J-48514D01*
G01X1277972Y-4196039D01*
G03X1220359Y-4290660I2336J-66273D01*
G01X1124967Y-4290660D01*
G03X1089153Y-4326474I0J-35814D01*
G01X1089153Y-4499272D01*
G03X1124967Y-4535086I35814J0D01*
G01X1273468Y-4535086D01*
G03X1309282Y-4499272I0J35814D01*
G01X1309282Y-4326474D01*
G03X1309013Y-4322091I-35814J0D01*
G03X1346581Y-4264648I-28705J59779D01*
G01X1376603Y-4234626D01*
G01X1556232Y-4234626D01*
G03X1563908Y-4290660I63265J-19876D01*
G01X1443483Y-4290660D01*
G03X1407669Y-4326474I0J-35814D01*
G01X1407669Y-4499272D01*
G03X1443483Y-4535086I35814J0D01*
G01X1469223Y-4535086D01*
G01X1469223Y-4549376D01*
G01X1357013Y-4661586D01*
G01X1337812Y-4661586D01*
G03X1320800Y-4665884I0J-35814D01*
G03X1303788Y-4661586I-17012J-31516D01*
G01X1253788Y-4661586D01*
G03X1217974Y-4697400I0J-35814D01*
G01X1217974Y-4751400D01*
G03X1253788Y-4787214I35814J0D01*
G01X1303788Y-4787214D01*
G03X1315805Y-4785138I0J35814D01*
G03X1328503Y-4807425I47002J12017D01*
G01X1444847Y-4923770D01*
G03X1429843Y-4959855I49948J-41930D01*
G01X1212745Y-5176953D01*
G03X1207592Y-5170875I-39457J-28226D01*
G01X1155692Y-5118975D01*
G03X1110860Y-5029200I-59687J26275D01*
G03X1096005Y-4900485I-14855J63500D01*
G01X1032706Y-4900485D01*
G03X994195Y-4872399I-37305J-10706D01*
G03X957502Y-4902823I1206J-38792D01*
G03X959951Y-5029200I17304J-62877D01*
G03X931225Y-5044186I14855J-63500D01*
G01X923223Y-5044186D01*
G01X685415Y-4806377D01*
G01X783991Y-4806377D01*
G03X819805Y-4770563I0J35814D01*
G01X819805Y-4635562D01*
G03X783991Y-4599748I-35814J0D01*
G01X642991Y-4599748D01*
G03X613491Y-4615254I0J-35814D01*
G03X583992Y-4599748I-29500J-20308D01*
G01X496421Y-4599748D01*
G01X553704Y-4542466D01*
G03X567913Y-4508161I-34305J34305D01*
G01X567913Y-4189919D01*
G01X1083562Y-3147238D02*
G03X1097772Y-3112934I-34305J34305D01*
G01X1097772Y-2943293D01*
G01X1109260Y-2943293D01*
G03X1145074Y-2907479I0J35814D01*
G01X1145074Y-2823480D01*
G01X1229243Y-2907649D01*
G03X1234285Y-2912040I34305J34305D01*
G01X1234285Y-2931195D01*
G03X1270099Y-2967009I35814J0D01*
G01X1319098Y-2967009D01*
G03X1342097Y-2958649I0J35814D01*
G03X1365095Y-2967009I22998J27454D01*
G01X1414094Y-2967009D01*
G03X1437093Y-2958649I0J35814D01*
G03X1458783Y-2966985I22998J27454D01*
G01X1458783Y-3035312D01*
G03X1437298Y-3050540I8518J-34786D01*
G03X1407296Y-3034284I-30002J-19557D01*
G01X1327296Y-3034284D01*
G03X1291482Y-3070098I0J-35814D01*
G01X1291482Y-3160098D01*
G03X1327296Y-3195912I35814J0D01*
G01X1407296Y-3195912D01*
G03X1437298Y-3179655I0J35814D01*
G03X1458783Y-3194884I30002J19557D01*
G01X1458783Y-3410273D01*
G03X1472992Y-3444578I48514J0D01*
G01X1719886Y-3691471D01*
G01X1719886Y-3737508D01*
G01X1461792Y-3737508D01*
G01X1355570Y-3631286D01*
G03X1244606Y-3584630I-66273J-2336D01*
G03X1252482Y-3558133I-40639J26497D01*
G01X1252482Y-3442134D01*
G03X1262250Y-3443492I9769J34456D01*
G01X1318816Y-3443492D01*
G03X1354630Y-3407678I0J35814D01*
G01X1354630Y-3353678D01*
G03X1348931Y-3334294I-35814J0D01*
G01X1348931Y-3305293D01*
G03X1300417Y-3193770I-48514J45210D01*
G03X1251903Y-3305293I0J-66314D01*
G01X1251903Y-3319391D01*
G03X1247252Y-3321156I10347J-34287D01*
G03X1232253Y-3317864I-14999J-32522D01*
G01X1175687Y-3317864D01*
G03X1139873Y-3353678I0J-35814D01*
G01X1139873Y-3407678D01*
G03X1155454Y-3437229I35814J0D01*
G01X1155454Y-3538038D01*
G01X1103325Y-3590167D01*
G01X1103325Y-3566805D01*
G03X1067511Y-3530991I-35814J0D01*
G01X1020295Y-3530991D01*
G01X974422Y-3485118D01*
G01X974422Y-3327859D01*
G01X1011993Y-3327859D01*
G03X1047807Y-3292045I0J35814D01*
G01X1047807Y-3235479D01*
G03X1044515Y-3220480I-35814J0D01*
G03X1047807Y-3205482I-32522J14999D01*
G01X1047807Y-3182994D01*
G01X1083562Y-3147238D01*
G01X1208470Y-2749658D02*
G03X1175634Y-2694727I-66273J-2336D01*
G01X1234285Y-2636076D01*
G01X1234285Y-2701362D01*
G03X1270099Y-2737176I35814J0D01*
G01X1319098Y-2737176D01*
G03X1354842Y-2703602I0J35814D01*
G03X1359883Y-2709705I53555J39107D01*
G01X1359883Y-2715295D01*
G03X1374093Y-2749599I48514J0D01*
G01X1404175Y-2779682D01*
G01X1365095Y-2779682D01*
G03X1342097Y-2788042I0J-35814D01*
G03X1319098Y-2779682I-22998J-27454D01*
G01X1270099Y-2779682D01*
G03X1246967Y-2788155I0J-35814D01*
G01X1208470Y-2749658D01*
G01X1672512Y-1193783D02*
G03X1658303Y-1228088I34305J-34305D01*
G01X1658303Y-1284477D01*
G03X1649878Y-1363681I48514J-45210D01*
G03X1640114Y-1367238I7247J-35073D01*
G03X1623102Y-1362940I-17012J-31516D01*
G01X1573102Y-1362940D01*
G03X1544468Y-1377243I0J-35814D01*
G01X1448635Y-1377243D01*
G03X1417765Y-1359586I-30870J-18157D01*
G01X1361199Y-1359586D01*
G03X1346200Y-1362878I0J-35814D01*
G03X1331201Y-1359586I-14999J-32522D01*
G01X1326031Y-1359586D01*
G01X1326031Y-1243914D01*
G01X1341888Y-1243914D01*
G03X1358900Y-1239616I0J35814D01*
G03X1375912Y-1243914I17012J31516D01*
G01X1425912Y-1243914D01*
G03X1461726Y-1208100I0J35814D01*
G01X1461726Y-1154100D01*
G03X1425912Y-1118286I-35814J0D01*
G01X1375912Y-1118286D01*
G03X1358900Y-1122584I0J-35814D01*
G03X1352701Y-1119957I-17012J-31516D01*
G01X1352701Y-1089937D01*
G03X1363212Y-1091514I10510J34237D01*
G01X1413212Y-1091514D01*
G03X1449026Y-1055700I0J35814D01*
G01X1449026Y-1001700D01*
G03X1413212Y-965886I-35814J0D01*
G01X1363212Y-965886D01*
G03X1352701Y-967463I0J-35814D01*
G01X1352701Y-921793D01*
G01X1363892Y-910603D01*
G03X1363892Y-841994I-34305J34305D01*
G01X1301901Y-780003D01*
G01X1301901Y-769394D01*
G01X1375082Y-696213D01*
G01X1411092Y-696213D01*
G01X1540011Y-825132D01*
G03X1511986Y-860088I7789J-34957D01*
G01X1511986Y-910088D01*
G03X1516284Y-927100I35814J0D01*
G03X1511986Y-944112I31516J-17012D01*
G01X1511986Y-994112D01*
G03X1547800Y-1029926I35814J0D01*
G01X1601800Y-1029926D01*
G03X1637614Y-994112I0J35814D01*
G01X1637614Y-985275D01*
G03X1671800Y-1010413I34186J10676D01*
G01X1731800Y-1010413D01*
G03X1767614Y-974599I0J35814D01*
G01X1767614Y-944599D01*
G03X1767142Y-938802I-35814J0D01*
G01X1863393Y-938802D01*
G03X1861495Y-950305I33916J-11503D01*
G01X1861495Y-990305D01*
G03X1865063Y-1005889I35814J0D01*
G03X1850312Y-1015983I19553J-44399D01*
G01X1672512Y-1193783D01*
G01X1669921Y-1553001D02*
G01X1697607Y-1553001D01*
G03X1731912Y-1538792I0J48514D01*
G01X1864983Y-1405721D01*
G03X1867594Y-1410297I32326J15416D01*
G03X1861495Y-1430289I29714J-19992D01*
G01X1861495Y-1470289D01*
G03X1867603Y-1490294I35814J0D01*
G03X1861495Y-1510299I29706J-20005D01*
G01X1861495Y-1550299D01*
G03X1867596Y-1570294I35814J0D01*
G03X1861491Y-1590295I29709J-20001D01*
G01X1861491Y-1660295D01*
G03X1897305Y-1696109I35814J0D01*
G01X1967305Y-1696109D01*
G03X1997299Y-1679865I0J35814D01*
G03X2027291Y-1696105I29992J19574D01*
G01X2067291Y-1696105D01*
G03X2087296Y-1689997I0J35814D01*
G03X2107301Y-1696105I20005J29706D01*
G01X2147301Y-1696105D01*
G03X2167306Y-1689997I0J35814D01*
G03X2187311Y-1696105I20005J29706D01*
G01X2227311Y-1696105D01*
G03X2247303Y-1690006I0J35814D01*
G03X2267295Y-1696105I19992J29714D01*
G01X2307295Y-1696105D01*
G03X2327300Y-1689997I0J35814D01*
G03X2347305Y-1696105I20005J29706D01*
G01X2387305Y-1696105D01*
G03X2407298Y-1690006I0J35814D01*
G03X2411800Y-1692582I19992J29714D01*
G01X1991570Y-2112813D01*
G03X1937456Y-2144287I2336J-66273D01*
G03X1933648Y-2206772I56450J-34799D01*
G01X1500873Y-2206772D01*
G03X1504202Y-2184907I-62975J20776D01*
G01X1583308Y-2184907D01*
G03X1619122Y-2149093I0J35814D01*
G01X1619122Y-2094380D01*
G01X1655712Y-2057790D01*
G03X1669921Y-2023485I-34305J34305D01*
G01X1669921Y-1553001D01*
G01X2827289Y-716123D02*
G01X2867289Y-716123D01*
G03X2887294Y-710014I0J35814D01*
G03X2907299Y-716123I20005J29706D01*
G01X2947299Y-716123D01*
G03X2967304Y-710014I0J35814D01*
G03X2987309Y-716123I20005J29706D01*
G01X3027309Y-716123D01*
G03X3041477Y-713201I0J35814D01*
G01X3041477Y-750301D01*
G03X3047585Y-770306I35814J0D01*
G03X3041477Y-790311I29706J-20005D01*
G01X3041477Y-830311D01*
G03X3047577Y-850303I35814J0D01*
G03X3041477Y-870295I29714J-19992D01*
G01X3041477Y-910295D01*
G03X3047585Y-930300I35814J0D01*
G03X3041477Y-950305I29706J-20005D01*
G01X3041477Y-990305D01*
G03X3047577Y-1010298I35814J0D01*
G03X3041477Y-1030290I29714J-19992D01*
G01X3041477Y-1070290D01*
G03X3047585Y-1090295I35814J0D01*
G03X3041477Y-1110300I29706J-20005D01*
G01X3041477Y-1150300D01*
G03X3047585Y-1170305I35814J0D01*
G03X3041477Y-1190310I29706J-20005D01*
G01X3041477Y-1230310D01*
G03X3047577Y-1250302I35814J0D01*
G03X3041477Y-1270295I29714J-19992D01*
G01X3041477Y-1310295D01*
G03X3045057Y-1325901I35814J0D01*
G03X3038518Y-1329397I19537J-44406D01*
G03X2972896Y-1397187I676J-66310D01*
G03X3041477Y-1461982I66297J1480D01*
G01X3041477Y-1470289D01*
G03X3047585Y-1490294I35814J0D01*
G03X3041477Y-1510299I29706J-20005D01*
G01X3041477Y-1547399D01*
G03X3027309Y-1544477I-14168J-32892D01*
G01X2987309Y-1544477D01*
G03X2967304Y-1550586I0J-35814D01*
G03X2947299Y-1544477I-20005J-29706D01*
G01X2907299Y-1544477D01*
G03X2887294Y-1550586I0J-35814D01*
G03X2867289Y-1544477I-20005J-29706D01*
G01X2827289Y-1544477D01*
G03X2807297Y-1550577I0J-35814D01*
G03X2787305Y-1544477I-19992J-29714D01*
G01X2747305Y-1544477D01*
G03X2727300Y-1550586I0J-35814D01*
G03X2707295Y-1544477I-20005J-29706D01*
G01X2667295Y-1544477D01*
G03X2647302Y-1550577I0J-35814D01*
G03X2627310Y-1544477I-19992J-29714D01*
G01X2587310Y-1544477D01*
G03X2567305Y-1550586I0J-35814D01*
G03X2547300Y-1544477I-20005J-29706D01*
G01X2507300Y-1544477D01*
G03X2487295Y-1550586I0J-35814D01*
G03X2467290Y-1544477I-20005J-29706D01*
G01X2427290Y-1544477D01*
G03X2407298Y-1550577I0J-35814D01*
G03X2387305Y-1544477I-19992J-29714D01*
G01X2347305Y-1544477D01*
G03X2327300Y-1550586I0J-35814D01*
G03X2307295Y-1544477I-20005J-29706D01*
G01X2267295Y-1544477D01*
G03X2247303Y-1550577I0J-35814D01*
G03X2227311Y-1544477I-19992J-29714D01*
G01X2187311Y-1544477D01*
G03X2167306Y-1550586I0J-35814D01*
G03X2147301Y-1544477I-20005J-29706D01*
G01X2107301Y-1544477D01*
G03X2087296Y-1550586I0J-35814D01*
G03X2067291Y-1544477I-20005J-29706D01*
G01X2027291Y-1544477D01*
G03X2013123Y-1547399I0J-35814D01*
G01X2013123Y-1510299D01*
G03X2007015Y-1490294I-35814J0D01*
G03X2013123Y-1470289I-29706J20005D01*
G01X2013123Y-1430289D01*
G03X2007023Y-1410297I-35814J0D01*
G03X2013123Y-1390305I-29714J19992D01*
G01X2013123Y-1350305D01*
G03X2007015Y-1330300I-35814J0D01*
G03X2013123Y-1310295I-29706J20005D01*
G01X2013123Y-1270295D01*
G03X2007023Y-1250302I-35814J0D01*
G03X2013123Y-1230310I-29714J19992D01*
G01X2013123Y-1190310D01*
G03X2007015Y-1170305I-35814J0D01*
G03X2013123Y-1150300I-29706J20005D01*
G01X2013123Y-1110300D01*
G03X2007015Y-1090295I-35814J0D01*
G03X2013123Y-1070290I-29706J20005D01*
G01X2013123Y-1030290D01*
G03X2007023Y-1010298I-35814J0D01*
G03X2013123Y-990305I-29714J19992D01*
G01X2013123Y-950305D01*
G03X2007015Y-930300I-35814J0D01*
G03X2013123Y-910295I-29706J20005D01*
G01X2013123Y-870295D01*
G03X2007023Y-850303I-35814J0D01*
G03X2013123Y-830311I-29714J19992D01*
G01X2013123Y-790311D01*
G03X2007015Y-770306I-35814J0D01*
G03X2013123Y-750301I-29706J20005D01*
G01X2013123Y-713201D01*
G03X2027291Y-716123I14168J32892D01*
G01X2067291Y-716123D01*
G03X2087296Y-710014I0J35814D01*
G03X2107301Y-716123I20005J29706D01*
G01X2147301Y-716123D01*
G03X2167306Y-710014I0J35814D01*
G03X2187311Y-716123I20005J29706D01*
G01X2227311Y-716123D01*
G03X2247303Y-710023I0J35814D01*
G03X2267295Y-716123I19992J29714D01*
G01X2307295Y-716123D01*
G03X2327300Y-710014I0J35814D01*
G03X2347305Y-716123I20005J29706D01*
G01X2387305Y-716123D01*
G03X2407298Y-710023I0J35814D01*
G03X2427290Y-716123I19992J29714D01*
G01X2467290Y-716123D01*
G03X2487295Y-710014I0J35814D01*
G03X2507300Y-716123I20005J29706D01*
G01X2547300Y-716123D01*
G03X2567305Y-710014I0J35814D01*
G03X2587310Y-716123I20005J29706D01*
G01X2627310Y-716123D01*
G03X2647302Y-710023I0J35814D01*
G03X2667295Y-716123I19992J29714D01*
G01X2707295Y-716123D01*
G03X2727300Y-710014I0J35814D01*
G03X2747305Y-716123I20005J29706D01*
G01X2787305Y-716123D01*
G03X2807297Y-710023I0J35814D01*
G03X2827289Y-716123I19992J29714D01*
G01X2221475Y-1255310D02*
G01X2221475Y-1400311D01*
G03X2257289Y-1436125I35814J0D01*
G01X2402290Y-1436125D01*
G03X2428545Y-1424669I0J35814D01*
G03X2454800Y-1436125I26255J24358D01*
G01X2599800Y-1436125D01*
G03X2626043Y-1424683I0J35814D01*
G03X2652285Y-1436125I26242J24372D01*
G01X2797285Y-1436125D01*
G03X2833099Y-1400311I0J35814D01*
G01X2833099Y-1255310D01*
G03X2821644Y-1229055I-35814J0D01*
G03X2833099Y-1202800I-24358J26255D01*
G01X2833099Y-1057800D01*
G03X2821658Y-1031557I-35814J0D01*
G03X2833099Y-1005315I-24372J26242D01*
G01X2833099Y-860315D01*
G03X2797285Y-824501I-35814J0D01*
G01X2652285Y-824501D01*
G03X2626043Y-835942I0J-35814D01*
G03X2599800Y-824501I-26242J-24372D01*
G01X2454800Y-824501D01*
G03X2428547Y-835954I0J-35814D01*
G03X2402286Y-824492I-26261J-24352D01*
G01X2317288Y-824492D01*
G03X2291963Y-834981I0J-35814D01*
G01X2231964Y-894981D01*
G03X2221474Y-920305I25324J-25324D01*
G01X2221474Y-1005304D01*
G03X2232923Y-1031552I35814J0D01*
G03X2221475Y-1057800I24367J-26247D01*
G01X2221475Y-1202800D01*
G03X2232931Y-1229055I35814J0D01*
G03X2221475Y-1255310I24358J-26255D01*
G01X2505597Y-4067708D02*
G01X2505597Y-4032896D01*
G03X2497237Y-4009898I-35814J0D01*
G03X2505597Y-3986900I-27454J22998D01*
G01X2505597Y-3959123D01*
G01X2549780Y-4003307D01*
G03X2557011Y-4009259I34305J34305D01*
G03X2548103Y-4032896I26906J-23637D01*
G01X2548103Y-4067708D01*
G01X2505597Y-4067708D01*
G54D11*
G01X522000Y-3416643D02*
G01X522000Y-3482297D01*
G01X522000Y-3416643D02*
G01X522000Y-3350989D01*
G01X522000Y-3416643D02*
G01X456347Y-3416643D01*
G01X557454Y-3810102D02*
G01X660358Y-3810102D01*
G01X557454Y-3810102D02*
G01X557454Y-3734598D01*
G01X557454Y-3810102D02*
G01X557454Y-3885606D01*
G01X588112Y-2552700D02*
G01X638766Y-2552700D01*
G01X588112Y-2552700D02*
G01X588112Y-2500046D01*
G01X588112Y-2552700D02*
G01X588112Y-2605354D01*
G01X713491Y-4703063D02*
G01X809645Y-4703063D01*
G01X713491Y-4703063D02*
G01X713491Y-4609908D01*
G01X713491Y-4703063D02*
G01X713491Y-4796217D01*
G01X818401Y-1243000D02*
G01X818401Y-1167346D01*
G01X818401Y-1243000D02*
G01X818401Y-1318654D01*
G01X818401Y-1243000D02*
G01X1019054Y-1243000D01*
G01X818401Y-1243000D02*
G01X617747Y-1243000D01*
G01X946607Y-2114093D02*
G01X868453Y-2114093D01*
G01X946607Y-2114093D02*
G01X946607Y-2053439D01*
G01X946607Y-2114093D02*
G01X946607Y-2174747D01*
G01X984993Y-3263762D02*
G01X984993Y-3317699D01*
G01X984993Y-3263762D02*
G01X1037647Y-3263762D01*
G01X990605Y-3821501D02*
G01X1056259Y-3821501D01*
G01X990605Y-3821501D02*
G01X990605Y-3887155D01*
G01X990605Y-3821501D02*
G01X990605Y-3755847D01*
G01X1035406Y-4965700D02*
G01X1151059Y-4965700D01*
G01X1035406Y-4965700D02*
G01X919752Y-4965700D01*
G01X1110793Y-1899107D02*
G01X1110793Y-1959761D01*
G01X1110793Y-1899107D02*
G01X1110793Y-1838453D01*
G01X1199218Y-4412873D02*
G01X1099313Y-4412873D01*
G01X1199218Y-4412873D02*
G01X1299122Y-4412873D01*
G01X1199218Y-4412873D02*
G01X1199218Y-4300820D01*
G01X1199218Y-4412873D02*
G01X1199218Y-4524926D01*
G01X1278788Y-4724400D02*
G01X1228134Y-4724400D01*
G01X1278788Y-4724400D02*
G01X1278788Y-4671746D01*
G01X1278788Y-4724400D02*
G01X1278788Y-4777054D01*
G01X1367296Y-3115098D02*
G01X1301642Y-3115098D01*
G01X1367296Y-3115098D02*
G01X1367296Y-3185752D01*
G01X1367296Y-3115098D02*
G01X1367296Y-3044444D01*
G01X1388212Y-1028700D02*
G01X1438866Y-1028700D01*
G01X1388212Y-1028700D02*
G01X1388212Y-1081354D01*
G01X1388212Y-1028700D02*
G01X1388212Y-976046D01*
G01X1389595Y-2873346D02*
G01X1389595Y-2789842D01*
G01X1389595Y-2873346D02*
G01X1389595Y-2956849D01*
G01X1400912Y-1181100D02*
G01X1451566Y-1181100D01*
G01X1400912Y-1181100D02*
G01X1400912Y-1233754D01*
G01X1400912Y-1181100D02*
G01X1400912Y-1128446D01*
G01X1785518Y-2362200D02*
G01X1731582Y-2362200D01*
G01X1785518Y-2362200D02*
G01X1785518Y-2414854D01*
G01X1925292Y-2757984D02*
G01X1990946Y-2757984D01*
G01X1925292Y-2757984D02*
G01X1925292Y-2828638D01*
G01X1925292Y-2757984D02*
G01X1925292Y-2687330D01*
G01X1932305Y-1625295D02*
G01X1871651Y-1625295D01*
G01X1932305Y-1625295D02*
G01X1932305Y-1685949D01*
G01X1932305Y-635305D02*
G01X1871651Y-635305D01*
G01X1932305Y-635305D02*
G01X1932305Y-574651D01*
G01X1937309Y-1530299D02*
G01X1871655Y-1530299D01*
G01X1937309Y-1530299D02*
G01X2002963Y-1530299D01*
G01X1937309Y-730301D02*
G01X1871655Y-730301D01*
G01X1937309Y-730301D02*
G01X2002963Y-730301D01*
G01X1937309Y-810311D02*
G01X1871655Y-810311D01*
G01X1937309Y-810311D02*
G01X2002963Y-810311D01*
G01X2047291Y-640309D02*
G01X2047291Y-574655D01*
G01X2047291Y-640309D02*
G01X2047291Y-705963D01*
G01X2127301Y-640309D02*
G01X2127301Y-574655D01*
G01X2127301Y-640309D02*
G01X2127301Y-705963D01*
G01X2207311Y-640309D02*
G01X2207311Y-574655D01*
G01X2207311Y-640309D02*
G01X2207311Y-705963D01*
G01X2207311Y-1620291D02*
G01X2207311Y-1685945D01*
G01X2207311Y-1620291D02*
G01X2207311Y-1554637D01*
G01X2287295Y-640309D02*
G01X2287295Y-574655D01*
G01X2287295Y-640309D02*
G01X2287295Y-705963D01*
G01X2329790Y-932790D02*
G01X2231634Y-932790D01*
G01X2329790Y-932790D02*
G01X2329790Y-834652D01*
G01X2329790Y-1327810D02*
G01X2231635Y-1327810D01*
G01X2329790Y-1327810D02*
G01X2329790Y-1425965D01*
G01X2329790Y-1130300D02*
G01X2231635Y-1130300D01*
G01X2360600Y-3251200D02*
G01X2456754Y-3251200D01*
G01X2360600Y-3251200D02*
G01X2360600Y-3158045D01*
G01X2360600Y-3251200D02*
G01X2360600Y-3344354D01*
G01X2367305Y-640309D02*
G01X2367305Y-574655D01*
G01X2367305Y-640309D02*
G01X2367305Y-705963D01*
G01X2411933Y-3962400D02*
G01X2495437Y-3962400D01*
G01X2437194Y-2705100D02*
G01X2492847Y-2705100D01*
G01X2437194Y-2705100D02*
G01X2381540Y-2705100D01*
G01X2437194Y-2705100D02*
G01X2437194Y-2750754D01*
G01X2447290Y-640309D02*
G01X2447290Y-574655D01*
G01X2447290Y-640309D02*
G01X2447290Y-705963D01*
G01X2527300Y-640309D02*
G01X2527300Y-574655D01*
G01X2527300Y-640309D02*
G01X2527300Y-705963D01*
G01X2527300Y-932815D02*
G01X2527300Y-834661D01*
G01X2527300Y-1327810D02*
G01X2527300Y-1425965D01*
G01X2543105Y-3571038D02*
G01X2489168Y-3571038D01*
G01X2543105Y-3571038D02*
G01X2543105Y-3518384D01*
G01X2543105Y-3571038D02*
G01X2543105Y-3623693D01*
G01X2607310Y-640309D02*
G01X2607310Y-574655D01*
G01X2607310Y-640309D02*
G01X2607310Y-705963D01*
G01X2618515Y-2276898D02*
G01X2564578Y-2276898D01*
G01X2618515Y-2276898D02*
G01X2618515Y-2329552D01*
G01X2618515Y-2276898D02*
G01X2618515Y-2224244D01*
G01X2687295Y-640309D02*
G01X2687295Y-574655D01*
G01X2687295Y-640309D02*
G01X2687295Y-705963D01*
G01X2724785Y-1327810D02*
G01X2822939Y-1327810D01*
G01X2724785Y-1327810D02*
G01X2724785Y-1425965D01*
G01X2724785Y-1130300D02*
G01X2822939Y-1130300D01*
G01X2724785Y-932815D02*
G01X2822939Y-932815D01*
G01X2724785Y-932815D02*
G01X2724785Y-834661D01*
G01X2767305Y-640309D02*
G01X2767305Y-574655D01*
G01X2767305Y-640309D02*
G01X2767305Y-705963D01*
G01X2768600Y-2716593D02*
G01X2768600Y-2772247D01*
G01X2768600Y-2716593D02*
G01X2722946Y-2716593D01*
G01X2768600Y-2716593D02*
G01X2814254Y-2716593D01*
G01X2844800Y-3326193D02*
G01X2844800Y-3381847D01*
G01X2844800Y-3326193D02*
G01X2844800Y-3270540D01*
G01X2844800Y-3326193D02*
G01X2799146Y-3326193D01*
G01X2844800Y-3326193D02*
G01X2890454Y-3326193D01*
G01X2847289Y-640309D02*
G01X2847289Y-574655D01*
G01X2847289Y-640309D02*
G01X2847289Y-705963D01*
G01X2927299Y-640309D02*
G01X2927299Y-574655D01*
G01X2927299Y-640309D02*
G01X2927299Y-705963D01*
G01X2999523Y-3795612D02*
G01X2999523Y-3699458D01*
G01X2999523Y-3795612D02*
G01X2906368Y-3795612D01*
G01X2999523Y-3795612D02*
G01X3092677Y-3795612D01*
G01X3007309Y-640309D02*
G01X3007309Y-574655D01*
G01X3007309Y-640309D02*
G01X3007309Y-705963D01*
G01X3079991Y-2067585D02*
G01X2989329Y-2067585D01*
G01X3079991Y-2707589D02*
G01X2989329Y-2707589D01*
G01X3122295Y-1625295D02*
G01X3182949Y-1625295D01*
G01X3122295Y-1625295D02*
G01X3122295Y-1685949D01*
G01X3122295Y-635305D02*
G01X3182949Y-635305D01*
G01X3122295Y-635305D02*
G01X3122295Y-574651D01*
G01X3152616Y-3267219D02*
G01X3206553Y-3267219D01*
G01X3152616Y-3267219D02*
G01X3152616Y-3319873D01*
G01X3152616Y-3267219D02*
G01X3152616Y-3214564D01*
G01X3347618Y-3073400D02*
G01X3293682Y-3073400D01*
G01X3347618Y-3073400D02*
G01X3347618Y-3126054D01*
G01X3347618Y-3073400D02*
G01X3347618Y-3020746D01*
G01X1701800Y-959599D02*
G01X1701800Y-1000253D01*
G01X1701800Y-959599D02*
G01X1757454Y-959599D01*
G01X1574800Y-969112D02*
G01X1574800Y-1019766D01*
G01X1574800Y-969112D02*
G01X1522146Y-969112D01*
G01X3429000Y-4871999D02*
G01X3549654Y-4871999D01*
G01X3429000Y-4871999D02*
G01X3308346Y-4871999D01*
G01X3429000Y-4871999D02*
G01X3429000Y-4992653D01*
G01X3429000Y-4871999D02*
G01X3429000Y-4751346D01*
G04 Copper End*

G04 PolygonModel Start*
G36*
G01X995401Y-4914189D02*
G02X995401Y-4908194I0J2997D01*
G02X995401Y-4914189I0J-2997D01*
G37*
G36*
G01X1671803Y-880097D02*
G02X1671803Y-874103I0J2997D01*
G02X1671803Y-880097I0J-2997D01*
G37*

G04 Pad Start*
G54D12*
G01X254000Y-254000D03*
G01X3467100Y-254000D03*
G01X3467100Y-5651500D03*
G01X254000Y-5651500D03*
G54D13*
G01X1304188Y-1028700D03*
G01X1388212Y-1028700D03*
G54D14*
G01X1574800Y-885088D03*
G01X1574800Y-969112D03*
G54D13*
G01X1316888Y-1181100D03*
G01X1400912Y-1181100D03*
G01X1598102Y-1425754D03*
G01X1682125Y-1425754D03*
G54D15*
G01X1785287Y-2757984D03*
G01X1925292Y-2757984D03*
G01X1367296Y-3115098D03*
G01X1507301Y-3115098D03*
G54D13*
G01X588112Y-2552700D03*
G01X504088Y-2552700D03*
G54D16*
G01X2360600Y-3251200D03*
G01X2160600Y-3251200D03*
G54D17*
G01X2776150Y-4256163D03*
G01X2776150Y-4396167D03*
G54D18*
G01X2999523Y-3795612D03*
G01X2999523Y-3995612D03*
G54D13*
G01X1362812Y-4724400D03*
G01X1278788Y-4724400D03*
G54D16*
G01X713491Y-4703063D03*
G01X513491Y-4703063D03*
G54D20*
G01X1517734Y-4412873D03*
G01X1199218Y-4412873D03*
G54D21*
G01X818401Y-1243000D03*
G01X818401Y-1043000D03*
G54D22*
G01X248399Y-1478001D03*
G01X248399Y-807999D03*
G54D23*
G01X2602205Y-5595099D03*
G01X2602205Y-4895101D03*
G01X2122195Y-5395100D03*
G54D24*
G01X1049260Y-2859978D03*
G01X709256Y-2859978D03*
G54D25*
G01X2327396Y-2436267D03*
G01X2327396Y-2096263D03*
G54D26*
G01X2287207Y-2705100D03*
G01X2437194Y-2705100D03*
G54D27*
G01X2768600Y-2566606D03*
G01X2768600Y-2716593D03*
G01X2844800Y-3176206D03*
G01X2844800Y-3326193D03*
G54D28*
G01X1803999Y-4287712D03*
G01X2084009Y-4287712D03*
G54D29*
G01X877499Y-3606805D03*
G01X1027511Y-3606805D03*
G54D30*
G01X229946Y-3632098D03*
G01X229946Y-3810102D03*
G01X557454Y-3810102D03*
G01X557454Y-3632098D03*
G54D29*
G01X990605Y-3821501D03*
G01X840593Y-3821501D03*
G01X522000Y-3416643D03*
G01X671800Y-3415957D03*
G54D31*
G01X1790700Y-3693668D03*
G01X1695704Y-3443732D03*
G01X1885696Y-3443732D03*
G54D32*
G01X1302918Y-1422400D03*
G01X1389482Y-1422400D03*
G54D33*
G01X984993Y-3177199D03*
G01X984993Y-3263762D03*
G54D32*
G01X3347618Y-3073400D03*
G01X3434182Y-3073400D03*
G01X3066053Y-3267219D03*
G01X3152616Y-3267219D03*
G01X1290533Y-3380678D03*
G01X1203970Y-3380678D03*
G01X2618515Y-2276898D03*
G01X2705078Y-2276898D03*
G01X322682Y-4368800D03*
G01X236118Y-4368800D03*
G54D33*
G01X165100Y-2189582D03*
G01X165100Y-2103018D03*
G54D32*
G01X2011782Y-3898900D03*
G01X1925218Y-3898900D03*
G01X2494382Y-4394200D03*
G01X2407818Y-4394200D03*
G01X2629668Y-3571038D03*
G01X2543105Y-3571038D03*
G54D34*
G01X761136Y-5219700D03*
G01X610464Y-5219700D03*
G54D33*
G01X1905000Y-4935118D03*
G01X1905000Y-5021682D03*
G54D32*
G01X1872082Y-2362200D03*
G01X1785518Y-2362200D03*
G01X970382Y-2565400D03*
G01X883818Y-2565400D03*
G54D35*
G01X526593Y-1899107D03*
G01X946607Y-1899107D03*
G01X526593Y-2114093D03*
G01X946607Y-2114093D03*
G01X1530807Y-2114093D03*
G01X1110793Y-2114093D03*
G01X1530807Y-1899107D03*
G01X1110793Y-1899107D03*
G54D36*
G01X3429000Y-4572000D03*
G01X3429000Y-4272001D03*
G01X3429000Y-4871999D03*
G54D37*
G01X3429000Y-3947008D03*
G01X3429000Y-5196992D03*
G54D38*
G01X1937309Y-730301D03*
G01X1937309Y-810311D03*
G01X1937309Y-890295D03*
G01X1937309Y-970305D03*
G01X1937309Y-1050290D03*
G01X1937309Y-1130300D03*
G01X1937309Y-1210310D03*
G01X1937309Y-1290295D03*
G01X1937309Y-1370305D03*
G01X1937309Y-1450289D03*
G01X1937309Y-1530299D03*
G54D39*
G01X2047291Y-1620291D03*
G01X2127301Y-1620291D03*
G01X2207311Y-1620291D03*
G01X2287295Y-1620291D03*
G01X2367305Y-1620291D03*
G01X2447290Y-1620291D03*
G01X2527300Y-1620291D03*
G01X2607310Y-1620291D03*
G01X2687295Y-1620291D03*
G01X2767305Y-1620291D03*
G01X2847289Y-1620291D03*
G01X2927299Y-1620291D03*
G01X3007309Y-1620291D03*
G54D38*
G01X3117291Y-1530299D03*
G01X3117291Y-1450289D03*
G01X3117291Y-1370305D03*
G01X3117291Y-1290295D03*
G01X3117291Y-1210310D03*
G01X3117291Y-1130300D03*
G01X3117291Y-1050290D03*
G01X3117291Y-970305D03*
G01X3117291Y-890295D03*
G01X3117291Y-810311D03*
G01X3117291Y-730301D03*
G54D39*
G01X3007309Y-640309D03*
G01X2927299Y-640309D03*
G01X2847289Y-640309D03*
G01X2767305Y-640309D03*
G01X2687295Y-640309D03*
G01X2607310Y-640309D03*
G01X2527300Y-640309D03*
G01X2447290Y-640309D03*
G01X2367305Y-640309D03*
G01X2287295Y-640309D03*
G01X2207311Y-640309D03*
G01X2127301Y-640309D03*
G01X2047291Y-640309D03*
G54D40*
G01X3122295Y-635305D03*
G01X3122295Y-1625295D03*
G01X1932305Y-1625295D03*
G01X1932305Y-635305D03*
G54D41*
G01X2329787Y-932805D03*
G54D42*
G01X2724785Y-1327810D03*
G01X2527300Y-1327810D03*
G01X2329790Y-1327810D03*
G01X2329790Y-1130300D03*
G01X2527300Y-932815D03*
G01X2724785Y-932815D03*
G01X2724785Y-1130300D03*
G01X2527300Y-1130300D03*
G54D43*
G01X1294599Y-2873346D03*
G01X1389595Y-2873346D03*
G01X1484591Y-2873346D03*
G54D44*
G01X1484591Y-2642612D03*
G01X1294599Y-2642612D03*
G54D45*
G01X2411933Y-3867404D03*
G01X2411933Y-3962400D03*
G01X2411933Y-4057396D03*
G54D46*
G01X2642667Y-4057396D03*
G01X2642667Y-3867404D03*
G54D47*
G01X1555394Y-5346700D03*
G01X1555394Y-5219700D03*
G01X1555394Y-5092700D03*
G01X1555394Y-4965700D03*
G01X1035406Y-5346700D03*
G01X1035406Y-5219700D03*
G01X1035406Y-5092700D03*
G01X1035406Y-4965700D03*
G54D48*
G01X3079991Y-2562606D03*
G01X3079991Y-2512593D03*
G01X3079991Y-2462606D03*
G01X3079991Y-2412594D03*
G01X3079991Y-2362606D03*
G01X3079991Y-2312594D03*
G01X3079991Y-2262632D03*
G01X3079991Y-2212594D03*
G54D49*
G01X3079991Y-2707596D03*
G54D50*
G01X3079981Y-2067599D03*
G54D51*
G01X3079981Y-2147584D03*
G54D52*
G01X3079998Y-2627596D03*
G54D53*
G01X3574809Y-1955089D03*
G54D54*
G01X3156826Y-1955089D03*
G01X3156826Y-2820111D03*
G54D53*
G01X3574809Y-2820111D03*
G54D55*
G01X1701800Y-959599D03*
G01X1701800Y-894601D03*
G04 Pad End*

G04 Via Start*
G54D56*
G01X2193226Y-4133602D03*
G01X2294825Y-4057402D03*
G01X1142198Y-2751994D03*
G01X1040598Y-2650395D03*
G01X586599Y-4126292D03*
G01X459599Y-4253291D03*
G01X2952994Y-2563385D03*
G01X2800594Y-2410985D03*
G01X3208494Y-2237986D03*
G01X3081494Y-3152384D03*
G01X3039194Y-1395707D03*
G01X2978394Y-2312585D03*
G01X1370797Y-2571155D03*
G01X1472397Y-2469555D03*
G01X2711084Y-3969002D03*
G01X2280815Y-3975102D03*
G01X1074389Y-1619707D03*
G01X2903185Y-1695907D03*
G01X1706817Y-1329687D03*
G01X1300418Y-3260083D03*
G01X1848096Y-4025902D03*
G01X1619497Y-4254502D03*
G01X1289297Y-3633623D03*
G01X806698Y-3151024D03*
G01X1437897Y-2185996D03*
G01X1408397Y-2664495D03*
G01X1993906Y-2179086D03*
G01X933808Y-5169580D03*
G01X1836086Y-2605585D03*
G01X1937686Y-2503985D03*
G01X303519Y-3525283D03*
G01X252720Y-3906282D03*
G01X1082298Y-1242998D03*
G01X1336297Y-1268398D03*
G01X2031016Y-1192198D03*
G01X3072414Y-1700196D03*
G01X1849086Y-2859584D03*
G01X1428927Y-2988874D03*
G01X1087898Y-3242094D03*
G01X706899Y-3165894D03*
G01X370700Y-3682903D03*
G01X1280308Y-4262312D03*
G04 Via End*

G04 Track Start*
G54D11*
G01X2084016Y-4287712D02*
G01X2084016Y-4242811D01*
G01X2193226Y-4133602D01*
G01X2294825Y-4057402D02*
G01X2411935Y-4057402D01*
G01X1555387Y-5092700D02*
G01X1833976Y-5092700D01*
G01X1904996Y-5021680D01*
G01X2184396Y-5021680D01*
G01X2336795Y-4869280D01*
G01X2576385Y-4869280D01*
G01X2602205Y-4895100D01*
G01X1294597Y-2873344D02*
G01X1263547Y-2873344D01*
G01X1142198Y-2751994D01*
G01X1040598Y-2650395D02*
G01X1040598Y-2540005D01*
G01X989798Y-2489205D01*
G01X938998Y-2489205D01*
G01X888198Y-2540005D01*
G01X888198Y-2561025D01*
G01X883818Y-2565405D01*
G01X3574813Y-1955086D02*
G01X3574813Y-2555085D01*
G01X3447813Y-2682085D01*
G01X3447813Y-3059774D02*
G01X3434183Y-3073404D01*
G01X3447813Y-2818684D02*
G01X3573393Y-2818684D01*
G01X3574813Y-2820104D01*
G01X840598Y-3821492D02*
G01X840598Y-3872292D01*
G01X586599Y-4126292D01*
G01X459599Y-4253291D02*
G01X438189Y-4253291D01*
G01X322679Y-4368801D01*
G01X1555387Y-5219699D02*
G01X1311167Y-5219699D01*
G01X1122488Y-5408379D01*
G01X944688Y-5408379D01*
G01X893888Y-5357579D01*
G01X893888Y-5332179D01*
G01X944688Y-5281379D01*
G01X1122488Y-5281379D01*
G01X1173288Y-5230580D01*
G01X1173288Y-5205180D01*
G01X1071688Y-5103580D01*
G01X1046288Y-5103580D01*
G01X1035408Y-5092700D01*
G01X903128Y-5092700D01*
G01X513489Y-4703061D01*
G01X1555387Y-5219699D02*
G01X2226806Y-5219699D01*
G01X2602205Y-5595099D01*
G01X877498Y-3606813D02*
G01X877498Y-2667015D01*
G01X970378Y-2574135D01*
G01X970378Y-2565405D01*
G01X557449Y-3632103D02*
G01X608249Y-3682903D01*
G01X1079198Y-3682903D01*
G01X1203968Y-3558133D01*
G01X1203968Y-3380673D01*
G01X671799Y-3415963D02*
G01X544799Y-3542963D01*
G01X468599Y-3542963D01*
G01X443199Y-3568363D01*
G01X443199Y-3873162D01*
G01X519399Y-3949362D01*
G01X519399Y-4508161D01*
G01X392399Y-4635161D01*
G01X392399Y-5001640D01*
G01X610459Y-5219699D01*
G01X3079994Y-2512585D02*
G01X3003794Y-2512585D01*
G01X2952994Y-2563385D01*
G01X2800594Y-2410985D02*
G01X2800594Y-2372415D01*
G01X2705075Y-2276895D01*
G01X3079994Y-2147566D02*
G01X3002295Y-2147566D01*
G01X2875295Y-2274565D01*
G01X2875295Y-2422907D02*
G01X2799096Y-2499106D01*
G01X2735596Y-2499106D01*
G01X2722896Y-2511806D01*
G01X2722896Y-2524506D01*
G01X2697496Y-2549906D02*
G01X2697496Y-2600706D01*
G01X2722896Y-2626106D02*
G01X3078495Y-2626106D01*
G01X3079994Y-2627605D01*
G01X2697496Y-2549906D02*
G01X2497496Y-2549906D01*
G01X2395896Y-2448306D01*
G01X2341897Y-2448306D01*
G01X2327395Y-2436265D01*
G01X2341897Y-2448306D02*
G01X2341897Y-2650414D01*
G01X3079994Y-2212586D02*
G01X3183094Y-2212586D01*
G01X3208494Y-2237986D01*
G01X3081494Y-3152384D02*
G01X3081494Y-3251783D01*
G01X3066054Y-3267224D01*
G01X3117294Y-1370307D02*
G01X3064594Y-1370307D01*
G01X3039194Y-1395707D01*
G01X2978394Y-2312585D02*
G01X3079994Y-2312585D01*
G01X2978394Y-2312585D02*
G01X2978394Y-2388785D01*
G01X3002194Y-2412585D01*
G01X3079994Y-2412585D01*
G01X2978394Y-2388785D02*
G01X2800564Y-2566615D01*
G01X2768605Y-2566615D01*
G01X3117294Y-1450287D02*
G01X3142694Y-1450287D01*
G01X3295093Y-1602687D01*
G01X3295093Y-2237686D01*
G01X3168094Y-2364685D01*
G01X3082074Y-2364685D01*
G01X3079994Y-2362605D01*
G01X3168094Y-2364685D02*
G01X3193493Y-2390085D01*
G01X3193493Y-2425305D01*
G01X3156194Y-2462605D02*
G01X3079994Y-2462605D01*
G01X3168094Y-2450705D02*
G01X3295093Y-2577705D01*
G01X3295093Y-2852924D01*
G01X3117294Y-3030724D01*
G01X2990294Y-3030724D01*
G01X2844804Y-3176214D01*
G01X1530807Y-2114086D02*
G01X1621407Y-2023485D01*
G01X1621407Y-1449058D02*
G01X1598107Y-1425757D01*
G01X1392837Y-1425757D01*
G01X1389477Y-1422397D01*
G01X1621407Y-1504487D02*
G01X1697607Y-1504487D01*
G01X1900807Y-1301287D01*
G01X1926316Y-1301287D01*
G01X1937316Y-1290287D01*
G01X1294597Y-2642605D02*
G01X1299347Y-2642605D01*
G01X1370797Y-2571155D01*
G01X1472397Y-2469555D02*
G01X1650197Y-2291755D01*
G01X1827996Y-2291755D01*
G01X1872076Y-2335835D01*
G01X1872076Y-2362195D01*
G01X2411935Y-3867402D02*
G01X2482485Y-3867402D01*
G01X2584085Y-3969002D01*
G01X2711084Y-3969002D01*
G01X2642675Y-3867402D02*
G01X2642675Y-3584053D01*
G01X2629665Y-3571043D01*
G01X2642675Y-3867402D02*
G01X2714125Y-3867402D01*
G01X2776154Y-3929432D01*
G01X2776154Y-4256161D01*
G01X2522155Y-4256161D01*
G01X2420555Y-4357761D01*
G01X2420555Y-4381461D01*
G01X2407815Y-4394201D01*
G01X1925216Y-3898902D02*
G01X1925216Y-3873502D01*
G01X1976016Y-3822702D01*
G01X2128416Y-3822702D01*
G01X2280815Y-3975102D01*
G01X526589Y-1899106D02*
G01X461388Y-1899106D01*
G01X258189Y-2102306D01*
G01X165810Y-2102306D01*
G01X165100Y-2103016D01*
G01X258189Y-2102306D02*
G01X258189Y-2306805D01*
G01X504089Y-2552705D01*
G01X526589Y-1899106D02*
G01X794989Y-1899106D01*
G01X1074389Y-1619707D01*
G01X2903185Y-1695907D02*
G01X2903185Y-1644406D01*
G01X2927304Y-1620287D01*
G01X1937316Y-1050288D02*
G01X1884616Y-1050288D01*
G01X1706817Y-1228087D01*
G01X1706817Y-1329687D01*
G01X1300418Y-3260083D02*
G01X1300418Y-3370783D01*
G01X1290528Y-3380673D01*
G01X1695697Y-3443733D02*
G01X1695697Y-3468134D01*
G01X1771896Y-3544334D01*
G01X1924296Y-3544334D01*
G01X2160596Y-3308034D01*
G01X2160596Y-3251204D01*
G01X1924296Y-3544334D02*
G01X1924296Y-3696733D01*
G01X1873496Y-3747533D01*
G01X1873496Y-3836822D02*
G01X1848096Y-3862222D01*
G01X1848096Y-3924302D01*
G01X1898896Y-3975102D01*
G01X1949696Y-3975102D01*
G01X2011776Y-3913022D01*
G01X2011776Y-3898902D01*
G01X1898896Y-3975102D02*
G01X1848096Y-4025902D01*
G01X1619497Y-4254502D02*
G01X1619497Y-4311111D01*
G01X1517737Y-4412871D01*
G01X1517737Y-4569471D01*
G01X1362807Y-4724401D01*
G01X1362807Y-4773121D01*
G01X1555387Y-4965700D01*
G01X1874416Y-4965700D01*
G01X1904996Y-4935120D01*
G01X1555387Y-4965700D02*
G01X1492607Y-4965700D01*
G01X1111608Y-5346699D01*
G01X1035408Y-5346699D01*
G01X2011776Y-3913022D02*
G01X2062576Y-3913022D01*
G01X2265776Y-4116222D01*
G01X2583855Y-4116222D01*
G01X2642675Y-4057402D01*
G01X1873496Y-3786022D02*
G01X1441697Y-3786022D01*
G01X1289297Y-3633623D01*
G01X806698Y-3151024D02*
G01X806698Y-2957414D01*
G01X709259Y-2859974D01*
G01X818398Y-1042998D02*
G01X980698Y-1042998D01*
G01X1234698Y-1296997D01*
G01X1234698Y-1982796D01*
G01X1437897Y-2185996D01*
G01X1408397Y-2664495D02*
G01X1408397Y-2715295D01*
G01X1484597Y-2791495D01*
G01X1484597Y-2873344D01*
G01X1507297Y-2896044D01*
G01X1507297Y-3115094D01*
G01X1507297Y-3410273D01*
G01X1790696Y-3693673D01*
G01X2527305Y-1620287D02*
G01X2527305Y-1645687D01*
G01X1993906Y-2179086D01*
G01X933808Y-5169580D02*
G01X985288Y-5169580D01*
G01X1035408Y-5219699D01*
G01X761138Y-5219699D01*
G01X1885696Y-3443733D02*
G01X1785286Y-3343323D01*
G01X1785286Y-2757985D01*
G01X1669907Y-2642605D02*
G01X1484597Y-2642605D01*
G01X1484597Y-2596554D01*
G01X1382997Y-2494955D01*
G01X1306797Y-2494955D01*
G01X1049258Y-2752494D01*
G01X1049258Y-2859974D01*
G01X1049258Y-3112934D01*
G01X984988Y-3177204D01*
G01X976708Y-3177204D01*
G01X925908Y-3228003D01*
G01X925908Y-3505213D01*
G01X1027508Y-3606813D01*
G01X1734486Y-2707185D02*
G01X1836086Y-2605585D01*
G01X1937686Y-2503985D02*
G01X1937686Y-2485975D01*
G01X2327395Y-2096266D01*
G01X2767315Y-1620287D02*
G01X2767315Y-1696487D01*
G01X2462515Y-2001286D01*
G01X2259316Y-2001286D01*
G01X2005316Y-2255286D01*
G01X1090918Y-2255286D01*
G01X278119Y-3068084D01*
G01X278119Y-3499883D01*
G01X303519Y-3525283D01*
G01X252720Y-3906282D02*
G01X252720Y-4352201D01*
G01X236119Y-4368801D01*
G01X818398Y-1242998D02*
G01X1082298Y-1242998D01*
G01X1336297Y-1268398D02*
G01X1361697Y-1268398D01*
G01X1412497Y-1217598D01*
G01X1412497Y-1192688D01*
G01X1400907Y-1181098D01*
G01X1400907Y-1041398D01*
G01X1388207Y-1028698D01*
G01X1413607Y-733408D02*
G01X1404097Y-723898D01*
G01X1412497Y-1217598D02*
G01X1499367Y-1217598D01*
G01X1677167Y-1395397D01*
G01X1677167Y-1420797D01*
G01X1682127Y-1425757D01*
G01X2031016Y-1192198D02*
G01X2031016Y-1392197D01*
G01X2005616Y-1417597D01*
G01X2005616Y-1487397D01*
G01X1962716Y-1530297D01*
G01X1937316Y-1530297D01*
G01X1937316Y-1620287D01*
G01X1932306Y-1625297D01*
G01X2005616Y-1487397D02*
G01X2056416Y-1538197D01*
G01X2150626Y-1538197D01*
G01X2207316Y-1594887D01*
G01X2207316Y-1620287D01*
G01X2150626Y-1538197D02*
G01X2150626Y-1506977D01*
G01X2329795Y-1327807D01*
G01X2329795Y-1130298D01*
G01X2329795Y-932788D01*
G01X2329795Y-1327807D02*
G01X2527305Y-1327807D01*
G01X2724795Y-1327807D01*
G01X2724795Y-1130298D01*
G01X2724795Y-932808D01*
G01X2527305Y-932808D01*
G01X2724795Y-1130298D02*
G01X2527305Y-1130298D01*
G01X2527305Y-932808D02*
G01X2527305Y-640309D01*
G01X2607315Y-640309D01*
G01X2687295Y-640309D01*
G01X2527305Y-640309D02*
G01X2447295Y-640309D01*
G01X2367315Y-640309D01*
G01X2687295Y-640309D02*
G01X2767315Y-640309D01*
G01X2847294Y-640309D01*
G01X2927304Y-640309D01*
G01X3007314Y-640309D01*
G01X2367315Y-640309D02*
G01X2287295Y-640309D01*
G01X2207316Y-640309D01*
G01X2127306Y-640309D01*
G01X2047296Y-640309D01*
G01X3007314Y-640309D02*
G01X3117294Y-640309D01*
G01X3122304Y-635299D01*
G01X1937316Y-640309D02*
G01X1932306Y-635299D01*
G01X1945696Y-640309D02*
G01X1945696Y-721919D01*
G01X1937316Y-730299D01*
G01X1937316Y-810308D01*
G01X3072414Y-1700196D02*
G01X3072414Y-1675187D01*
G01X3003794Y-1768816D02*
G01X3003794Y-1991376D01*
G01X3079994Y-2067576D02*
G01X2799096Y-2067576D01*
G01X2621296Y-2245375D01*
G01X2621296Y-2270775D01*
G01X2618515Y-2276895D01*
G01X2621296Y-2270775D02*
G01X2341897Y-2270775D01*
G01X2240297Y-2372375D01*
G01X2240297Y-2651775D01*
G01X2214897Y-2677175D01*
G01X2214897Y-2727974D01*
G01X2240297Y-2753374D01*
G01X2341897Y-2753374D01*
G01X2367297Y-2727974D01*
G01X2757225Y-2727974D02*
G01X2768605Y-2716595D01*
G01X2443496Y-2727974D02*
G01X2443496Y-2711416D01*
G01X2437185Y-2705105D01*
G01X2214897Y-2727974D02*
G01X1955296Y-2727974D01*
G01X1925286Y-2757985D01*
G01X1925286Y-2605585D01*
G01X1785516Y-2465815D01*
G01X1785516Y-2362195D01*
G01X2794004Y-2716595D02*
G01X2794004Y-3224593D01*
G01X2819404Y-3249993D01*
G01X2870204Y-3249993D02*
G01X3048004Y-3072194D01*
G01X3346413Y-3072194D02*
G01X3347623Y-3073404D01*
G01X2844804Y-3249993D02*
G01X2844804Y-3326193D01*
G01X3149604Y-3072194D02*
G01X3149604Y-3264213D01*
G01X3152614Y-3267224D01*
G01X2667005Y-3503993D02*
G01X2590805Y-3503993D01*
G01X2543105Y-3551693D01*
G01X2543105Y-3571043D01*
G01X2590805Y-3503993D02*
G01X2590805Y-3481413D01*
G01X2360595Y-3251204D01*
G01X2543105Y-3571043D02*
G01X2314505Y-3799642D01*
G01X2314505Y-3901242D01*
G01X2375665Y-3962402D01*
G01X2411935Y-3962402D01*
G01X2692405Y-3478593D02*
G01X2692405Y-3488493D01*
G01X2999524Y-3795612D01*
G01X1925286Y-2757985D02*
G01X1925286Y-2783384D01*
G01X1849086Y-2859584D01*
G01X1428927Y-2988874D02*
G01X1428927Y-2912674D01*
G01X1389597Y-2873344D01*
G01X1428927Y-2988874D02*
G01X1428927Y-3053464D01*
G01X1367297Y-3115094D01*
G01X1291097Y-3191294D02*
G01X1265697Y-3191294D01*
G01X1214897Y-3242094D01*
G01X1006658Y-3242094D02*
G01X984988Y-3263763D01*
G01X706899Y-3165894D02*
G01X706899Y-3231744D01*
G01X521999Y-3416643D01*
G01X1316497Y-3165894D02*
G01X1367297Y-3216694D01*
G01X1367297Y-3445293D01*
G01X1037098Y-3775492D01*
G01X935498Y-3775492D02*
G01X910098Y-3750093D01*
G01X617459Y-3750093D01*
G01X557449Y-3810102D01*
G01X986298Y-3775492D02*
G01X986298Y-3817182D01*
G01X990608Y-3821492D01*
G01X1082298Y-1242998D02*
G01X1133098Y-1293798D01*
G01X1133098Y-1674797D01*
G01X1031498Y-1776396D01*
G01X588109Y-2397585D02*
G01X588109Y-2552705D01*
G01X904498Y-2081196D02*
G01X913718Y-2081196D01*
G01X946608Y-2114086D01*
G01X1031498Y-1903396D02*
G01X1106498Y-1903396D01*
G01X1110788Y-1899106D01*
G01X990608Y-3821492D02*
G01X990608Y-4204262D01*
G01X1199218Y-4412871D01*
G01X1199218Y-4644831D01*
G01X1278787Y-4724401D01*
G01X1276707Y-4724401D01*
G01X1035408Y-4965700D01*
G01X976128Y-4965700D01*
G01X713489Y-4703061D01*
G01X2999524Y-3795612D02*
G01X3304323Y-4100412D01*
G01X3304323Y-4747320D01*
G01X3429003Y-4872000D01*
G01X1329587Y-876298D02*
G01X1304187Y-901698D01*
G01X1304187Y-1028698D02*
G01X1304187Y-1168398D01*
G01X1316887Y-1181098D01*
G01X1277517Y-1220467D01*
G01X1277517Y-1396997D01*
G01X1302917Y-1422397D01*
G01X1329587Y-876298D02*
G01X1253387Y-800098D01*
G01X1253387Y-749298D01*
G01X1354987Y-647699D01*
G01X1431187Y-647699D01*
G01X1304187Y-952498D02*
G01X643789Y-952498D01*
G01X465989Y-1130298D01*
G01X465989Y-1689097D01*
G01X84990Y-2070096D01*
G01X84990Y-2120896D01*
G01X153670Y-2189576D01*
G01X165100Y-2189576D01*
G01X165100Y-3567253D01*
G01X229950Y-3632103D01*
G01X319900Y-3632103D01*
G01X370700Y-3682903D01*
G01X1280308Y-4262312D02*
G01X1356508Y-4186112D01*
G01X1702397Y-4186112D01*
G01X1803996Y-4287712D01*
G01X1803996Y-4383411D01*
G01X1956396Y-4535811D01*
G01X2362795Y-4535811D01*
G01X2489795Y-4408811D01*
G01X2489795Y-4398781D01*
G01X2494375Y-4394201D01*
G01X2773774Y-4394201D01*
G01X2776154Y-4396161D01*
G01X2773774Y-4394201D02*
G01X2999524Y-4168452D01*
G01X2999524Y-3995612D01*
G01X3447813Y-2682085D02*
G01X3447813Y-2818684D01*
G01X3447813Y-3059774D01*
G01X3193493Y-2425305D02*
G01X3168094Y-2450705D01*
G01X3156194Y-2462605D01*
G01X1621407Y-2023485D02*
G01X1621407Y-1504487D01*
G01X1621407Y-1449058D01*
G01X1873496Y-3747533D02*
G01X1873496Y-3786022D01*
G01X1873496Y-3836822D01*
G01X1785286Y-2757985D02*
G01X1734486Y-2707185D01*
G01X1669907Y-2642605D01*
G01X2047296Y-640309D02*
G01X1945696Y-640309D01*
G01X1937316Y-640309D01*
G01X2367297Y-2727974D02*
G01X2443496Y-2727974D01*
G01X2757225Y-2727974D01*
G01X2819404Y-3249993D02*
G01X2844804Y-3249993D01*
G01X2870204Y-3249993D01*
G01X3048004Y-3072194D02*
G01X3149604Y-3072194D01*
G01X3346413Y-3072194D01*
G01X2844804Y-3326193D02*
G01X2692405Y-3478593D01*
G01X2667005Y-3503993D01*
G01X1367297Y-3115094D02*
G01X1316497Y-3165894D01*
G01X1291097Y-3191294D01*
G01X1214897Y-3242094D02*
G01X1087898Y-3242094D01*
G01X1006658Y-3242094D01*
G01X1037098Y-3775492D02*
G01X986298Y-3775492D01*
G01X935498Y-3775492D01*
G01X1031498Y-1776396D02*
G01X1031498Y-1903396D01*
G01X1031498Y-1954196D01*
G01X904498Y-2081196D01*
G01X588109Y-2397585D01*
G01X1304187Y-901698D02*
G01X1304187Y-952498D01*
G01X1304187Y-1028698D01*
G01X1932306Y-635299D02*
G01X1881206Y-584199D01*
G01X1391397Y-584199D01*
G01X2697496Y-2600706D02*
G01X2719004Y-2622215D01*
G01X2722896Y-2626106D01*
G01X2722896Y-2524506D02*
G01X2719004Y-2528398D01*
G01X2697496Y-2549906D01*
G01X2875295Y-2274565D02*
G01X2875295Y-2421814D01*
G01X2875295Y-2422907D01*
G01X3072414Y-1700196D02*
G01X3020704Y-1751907D01*
G01X3003794Y-1768816D01*
G01X3003794Y-1991376D02*
G01X3020704Y-2008286D01*
G01X1388207Y-1028698D02*
G01X1388207Y-923193D01*
G01X1413607Y-897793D01*
G01X1413607Y-733408D01*
G01X3078694Y-2628905D02*
G01X3079994Y-2627605D01*
G01X2719004Y-2501905D02*
G01X2744404Y-2476505D01*
G01X2820604Y-2476505D01*
G01X2896804Y-2400305D02*
G01X2896804Y-2254556D01*
G01X2998404Y-2152956D01*
G01X3074604Y-2152956D01*
G01X3079994Y-2147566D01*
G01X1388207Y-1028698D02*
G01X1515207Y-1028698D01*
G01X1574797Y-969108D01*
G01X1692287Y-969108D01*
G01X1701797Y-959598D01*
G01X2527305Y-932808D02*
G01X2329795Y-932788D01*
G01X3070984Y-2716595D02*
G01X3079994Y-2707585D01*
G01X3020704Y-2008286D02*
G01X3079994Y-2067576D01*
G01X1759516Y-890288D02*
G01X1683317Y-814088D01*
G01X1645797Y-814088D01*
G01X2287205Y-2705105D02*
G01X2341897Y-2650414D01*
G01X2363405Y-2628905D01*
G01X2719004Y-2628905D01*
G01X3078694Y-2628905D01*
G01X2719004Y-2628905D02*
G01X2719004Y-2622215D01*
G01X2719004Y-2528398D01*
G01X2719004Y-2501905D01*
G01X2820604Y-2476505D02*
G01X2875295Y-2421814D01*
G01X2896804Y-2400305D01*
G01X2768605Y-2716595D02*
G01X2794004Y-2716595D01*
G01X3070984Y-2716595D01*
G01X3122304Y-1625297D02*
G01X3072414Y-1675187D01*
G01X3020704Y-1726896D01*
G01X3020704Y-1751907D01*
G01X3020704Y-2008286D01*
G01X1673777Y-890288D02*
G01X1759516Y-890288D01*
G01X1937316Y-890288D01*
G01X1645797Y-814088D02*
G01X1621687Y-838198D01*
G01X1574797Y-885088D01*
G01X1431187Y-647699D02*
G01X1621687Y-838198D01*
G01X1673777Y-890288D01*
G04 Track End*

M02*

