G04 Layer: TopPasteMaskLayer*
G04 EasyEDA Pro v3.2.148, 2026-09-13 21:34:24*
G04 Gerber Generator version 0.3*
G04 Scale: 100 percent, Rotated: No, Reflected: No*
G04 Dimensions in millimeters*
G04 Leading zeros omitted, absolute positions, 4 integers and 5 decimals*
G04 Generated by one-click*
G04 Object Configs: Pad,Via,Track,Text,Image,Dimension,BoardOutline,BoardCutout,CopperFilled,SolidRegion,FPCStiffener,Line,PlaneZone,ComponentProperty,ComponentSilkscreen,TearDrop*
G04 Layer Configs: 1,2,3,4,5,6,7,8,9,10,11,13,14,56*
G04 Copper Areas: 0*
%FSLAX45Y45*%
%MOMM*%
%AMPolygonMacro1*4,1,5,-0.12499,0.72499,0.72499,0.72499,0.72499,-0.72499,-0.72499,-0.72499,-0.72499,0.12499,-0.12499,0.72499,0*%
%ADD10R,0.5X0.54*%
%ADD11R,0.54X0.5*%
%ADD12R,0.8X0.9*%
%ADD13R,0.9X0.8*%
%ADD14R,3.49999X1.0*%
%ADD15R,3.5021X1.5*%
%ADD16R,3.49999X1.5*%
%ADD17R,1.2X0.95001*%
%ADD18R,0.95001X1.2*%
%ADD19R,0.6X0.4*%
%ADD20R,0.4X0.6*%
%ADD21R,1.4X4.19999*%
%ADD22R,0.8X0.8*%
%ADD23R,1.54501X0.997*%
%ADD24R,0.7X1.25001*%
%ADD25R,1.05001X0.7*%
%ADD26R,0.8X0.4*%
%ADD27R,0.4X0.8*%
%ADD28R,0.7X0.7*%
%ADD29PolygonMacro1*%
%ADD30R,1.45001X1.45001*%
%ADD31R,0.48999X1.157*%
%ADD32R,0.48999X1.175*%
%ADD33R,1.157X0.48999*%
%ADD34R,1.175X0.48999*%
%ADD35O,1.8X0.58801*%
%ADD36R,0.6X0.3*%
G75*


G04 PolygonModel Start*
G36*
G01X2090103Y-3315200D02*
G01X2090103Y-3187202D01*
G01X2095104Y-3182201D01*
G01X2210105Y-3182201D01*
G01X2215104Y-3187202D01*
G01X2215606Y-3228205D01*
G01X2170605Y-3228205D01*
G01X2170605Y-3273204D01*
G01X2214606Y-3273204D01*
G01X2215104Y-3315200D01*
G01X2210105Y-3320202D01*
G01X2095104Y-3320202D01*
G01X2090103Y-3315200D01*
G37*
G36*
G01X2431098Y-3187200D02*
G01X2431098Y-3315198D01*
G01X2426096Y-3320199D01*
G01X2311095Y-3320199D01*
G01X2306096Y-3315198D01*
G01X2305594Y-3274195D01*
G01X2350595Y-3274195D01*
G01X2350595Y-3229196D01*
G01X2306594Y-3229196D01*
G01X2306096Y-3187200D01*
G01X2311095Y-3182198D01*
G01X2426096Y-3182198D01*
G01X2431098Y-3187200D01*
G37*
G36*
G01X3063523Y-4066110D02*
G01X2935525Y-4066110D01*
G01X2930524Y-4061108D01*
G01X2930524Y-3946107D01*
G01X2935525Y-3941109D01*
G01X2976528Y-3940606D01*
G01X2976528Y-3985607D01*
G01X3021527Y-3985607D01*
G01X3021527Y-3941607D01*
G01X3063523Y-3941109D01*
G01X3068524Y-3946107D01*
G01X3068524Y-4061108D01*
G01X3063523Y-4066110D01*
G37*
G36*
G01X2935522Y-3725115D02*
G01X3063521Y-3725115D01*
G01X3068522Y-3730116D01*
G01X3068522Y-3845117D01*
G01X3063521Y-3850116D01*
G01X3022517Y-3850619D01*
G01X3022517Y-3805617D01*
G01X2977519Y-3805617D01*
G01X2977519Y-3849618D01*
G01X2935522Y-3850116D01*
G01X2930521Y-3845117D01*
G01X2930521Y-3730116D01*
G01X2935522Y-3725115D01*
G37*
G36*
G01X442994Y-4767063D02*
G01X442994Y-4639065D01*
G01X447995Y-4634064D01*
G01X562996Y-4634064D01*
G01X567995Y-4639065D01*
G01X568498Y-4680068D01*
G01X523497Y-4680068D01*
G01X523497Y-4725067D01*
G01X567497Y-4725067D01*
G01X567995Y-4767063D01*
G01X562996Y-4772065D01*
G01X447995Y-4772065D01*
G01X442994Y-4767063D01*
G37*
G36*
G01X783989Y-4639063D02*
G01X783989Y-4767061D01*
G01X778988Y-4772062D01*
G01X663986Y-4772062D01*
G01X658988Y-4767061D01*
G01X658485Y-4726058D01*
G01X703486Y-4726058D01*
G01X703486Y-4681059D01*
G01X659486Y-4681059D01*
G01X658988Y-4639063D01*
G01X663986Y-4634061D01*
G01X778988Y-4634061D01*
G01X783989Y-4639063D01*
G37*
G36*
G01X1443477Y-4489274D02*
G01X1443477Y-4452248D01*
G01X1453477Y-4442248D01*
G01X1483967Y-4442248D01*
G01X1493967Y-4432248D01*
G01X1493967Y-4393498D01*
G01X1483967Y-4383498D01*
G01X1453477Y-4383498D01*
G01X1443477Y-4373498D01*
G01X1443477Y-4336472D01*
G01X1453477Y-4326472D01*
G01X1581976Y-4326472D01*
G01X1591975Y-4336472D01*
G01X1591975Y-4489274D01*
G01X1581976Y-4499274D01*
G01X1453477Y-4499274D01*
G01X1443477Y-4489274D01*
G37*
G36*
G01X1273475Y-4489274D02*
G01X1263475Y-4499274D01*
G01X1134976Y-4499274D01*
G01X1124976Y-4489274D01*
G01X1124976Y-4336472D01*
G01X1134976Y-4326472D01*
G01X1263475Y-4326472D01*
G01X1273475Y-4336472D01*
G01X1273475Y-4373498D01*
G01X1263475Y-4383498D01*
G01X1232985Y-4383498D01*
G01X1222985Y-4393498D01*
G01X1222985Y-4432248D01*
G01X1232985Y-4442248D01*
G01X1263475Y-4442248D01*
G01X1273475Y-4452248D01*
G01X1273475Y-4489274D01*
G37*
G36*
G01X1332700Y-1399400D02*
G01X1332700Y-1445400D01*
G01X1328699Y-1449400D01*
G01X1278636Y-1449400D01*
G01X1274636Y-1445400D01*
G01X1274636Y-1399400D01*
G01X1278636Y-1395400D01*
G01X1328699Y-1395400D01*
G01X1332700Y-1399400D01*
G37*
G36*
G01X1359700Y-1399400D02*
G01X1363701Y-1395400D01*
G01X1413764Y-1395400D01*
G01X1417765Y-1399400D01*
G01X1417765Y-1445400D01*
G01X1413764Y-1449400D01*
G01X1363701Y-1449400D01*
G01X1359700Y-1445400D01*
G01X1359700Y-1399400D01*
G37*
G36*
G01X1007993Y-3206980D02*
G01X961993Y-3206980D01*
G01X957993Y-3202980D01*
G01X957993Y-3152916D01*
G01X961993Y-3148916D01*
G01X1007993Y-3148916D01*
G01X1011993Y-3152916D01*
G01X1011993Y-3202980D01*
G01X1007993Y-3206980D01*
G37*
G36*
G01X1007993Y-3233980D02*
G01X1011993Y-3237981D01*
G01X1011993Y-3288044D01*
G01X1007993Y-3292045D01*
G01X961993Y-3292045D01*
G01X957993Y-3288044D01*
G01X957993Y-3237981D01*
G01X961993Y-3233980D01*
G01X1007993Y-3233980D01*
G37*
G36*
G01X3377400Y-3050400D02*
G01X3377400Y-3096400D01*
G01X3373399Y-3100400D01*
G01X3323336Y-3100400D01*
G01X3319336Y-3096400D01*
G01X3319336Y-3050400D01*
G01X3323336Y-3046400D01*
G01X3373399Y-3046400D01*
G01X3377400Y-3050400D01*
G37*
G36*
G01X3404400Y-3050400D02*
G01X3408401Y-3046400D01*
G01X3458464Y-3046400D01*
G01X3462465Y-3050400D01*
G01X3462465Y-3096400D01*
G01X3458464Y-3100400D01*
G01X3408401Y-3100400D01*
G01X3404400Y-3096400D01*
G01X3404400Y-3050400D01*
G37*
G36*
G01X3095835Y-3244219D02*
G01X3095835Y-3290218D01*
G01X3091834Y-3294219D01*
G01X3041771Y-3294219D01*
G01X3037770Y-3290218D01*
G01X3037770Y-3244219D01*
G01X3041771Y-3240218D01*
G01X3091834Y-3240218D01*
G01X3095835Y-3244219D01*
G37*
G36*
G01X3122835Y-3244219D02*
G01X3126835Y-3240218D01*
G01X3176899Y-3240218D01*
G01X3180899Y-3244219D01*
G01X3180899Y-3290218D01*
G01X3176899Y-3294219D01*
G01X3126835Y-3294219D01*
G01X3122835Y-3290218D01*
G01X3122835Y-3244219D01*
G37*
G36*
G01X1260752Y-3403678D02*
G01X1260752Y-3357678D01*
G01X1264752Y-3353678D01*
G01X1314816Y-3353678D01*
G01X1318816Y-3357678D01*
G01X1318816Y-3403678D01*
G01X1314816Y-3407678D01*
G01X1264752Y-3407678D01*
G01X1260752Y-3403678D01*
G37*
G36*
G01X1233752Y-3403678D02*
G01X1229751Y-3407678D01*
G01X1179688Y-3407678D01*
G01X1175687Y-3403678D01*
G01X1175687Y-3357678D01*
G01X1179688Y-3353678D01*
G01X1229751Y-3353678D01*
G01X1233752Y-3357678D01*
G01X1233752Y-3403678D01*
G37*
G36*
G01X2648297Y-2253898D02*
G01X2648297Y-2299897D01*
G01X2644296Y-2303898D01*
G01X2594233Y-2303898D01*
G01X2590232Y-2299897D01*
G01X2590232Y-2253898D01*
G01X2594233Y-2249897D01*
G01X2644296Y-2249897D01*
G01X2648297Y-2253898D01*
G37*
G36*
G01X2675297Y-2253898D02*
G01X2679297Y-2249897D01*
G01X2729361Y-2249897D01*
G01X2733361Y-2253898D01*
G01X2733361Y-2299897D01*
G01X2729361Y-2303898D01*
G01X2679297Y-2303898D01*
G01X2675297Y-2299897D01*
G01X2675297Y-2253898D01*
G37*
G36*
G01X292900Y-4391800D02*
G01X292900Y-4345800D01*
G01X296901Y-4341800D01*
G01X346964Y-4341800D01*
G01X350965Y-4345800D01*
G01X350965Y-4391800D01*
G01X346964Y-4395800D01*
G01X296901Y-4395800D01*
G01X292900Y-4391800D01*
G37*
G36*
G01X265900Y-4391800D02*
G01X261899Y-4395800D01*
G01X211836Y-4395800D01*
G01X207836Y-4391800D01*
G01X207836Y-4345800D01*
G01X211836Y-4341800D01*
G01X261899Y-4341800D01*
G01X265900Y-4345800D01*
G01X265900Y-4391800D01*
G37*
G36*
G01X142100Y-2159800D02*
G01X188100Y-2159800D01*
G01X192100Y-2163801D01*
G01X192100Y-2213864D01*
G01X188100Y-2217864D01*
G01X142100Y-2217864D01*
G01X138100Y-2213864D01*
G01X138100Y-2163801D01*
G01X142100Y-2159800D01*
G37*
G36*
G01X142100Y-2132800D02*
G01X138100Y-2128799D01*
G01X138100Y-2078736D01*
G01X142100Y-2074735D01*
G01X188100Y-2074735D01*
G01X192100Y-2078736D01*
G01X192100Y-2128799D01*
G01X188100Y-2132800D01*
G01X142100Y-2132800D01*
G37*
G36*
G01X1982000Y-3921900D02*
G01X1982000Y-3875900D01*
G01X1986001Y-3871900D01*
G01X2036064Y-3871900D01*
G01X2040065Y-3875900D01*
G01X2040065Y-3921900D01*
G01X2036064Y-3925900D01*
G01X1986001Y-3925900D01*
G01X1982000Y-3921900D01*
G37*
G36*
G01X1955000Y-3921900D02*
G01X1950999Y-3925900D01*
G01X1900936Y-3925900D01*
G01X1896936Y-3921900D01*
G01X1896936Y-3875900D01*
G01X1900936Y-3871900D01*
G01X1950999Y-3871900D01*
G01X1955000Y-3875900D01*
G01X1955000Y-3921900D01*
G37*
G36*
G01X2464600Y-4417200D02*
G01X2464600Y-4371200D01*
G01X2468601Y-4367200D01*
G01X2518664Y-4367200D01*
G01X2522665Y-4371200D01*
G01X2522665Y-4417200D01*
G01X2518664Y-4421200D01*
G01X2468601Y-4421200D01*
G01X2464600Y-4417200D01*
G37*
G36*
G01X2437600Y-4417200D02*
G01X2433599Y-4421200D01*
G01X2383536Y-4421200D01*
G01X2379536Y-4417200D01*
G01X2379536Y-4371200D01*
G01X2383536Y-4367200D01*
G01X2433599Y-4367200D01*
G01X2437600Y-4371200D01*
G01X2437600Y-4417200D01*
G37*
G36*
G01X2599887Y-3594038D02*
G01X2599887Y-3548039D01*
G01X2603887Y-3544038D01*
G01X2653951Y-3544038D01*
G01X2657951Y-3548039D01*
G01X2657951Y-3594038D01*
G01X2653951Y-3598039D01*
G01X2603887Y-3598039D01*
G01X2599887Y-3594038D01*
G37*
G36*
G01X2572887Y-3594038D02*
G01X2568886Y-3598039D01*
G01X2518823Y-3598039D01*
G01X2514822Y-3594038D01*
G01X2514822Y-3548039D01*
G01X2518823Y-3544038D01*
G01X2568886Y-3544038D01*
G01X2572887Y-3548039D01*
G01X2572887Y-3594038D01*
G37*
G36*
G01X805302Y-5174701D02*
G01X810301Y-5179703D01*
G01X810301Y-5259702D01*
G01X805302Y-5264701D01*
G01X725302Y-5264701D01*
G01X720301Y-5259702D01*
G01X720301Y-5235499D01*
G01X757301Y-5235499D01*
G01X757301Y-5202499D01*
G01X720301Y-5202499D01*
G01X720301Y-5179703D01*
G01X725302Y-5174701D01*
G01X805302Y-5174701D01*
G37*
G36*
G01X566298Y-5264699D02*
G01X561299Y-5259697D01*
G01X561299Y-5179698D01*
G01X566298Y-5174699D01*
G01X646298Y-5174699D01*
G01X651299Y-5179698D01*
G01X651299Y-5203901D01*
G01X614299Y-5203901D01*
G01X614299Y-5236901D01*
G01X651299Y-5236901D01*
G01X651299Y-5259697D01*
G01X646298Y-5264699D01*
G01X566298Y-5264699D01*
G37*
G36*
G01X1928000Y-4964900D02*
G01X1882000Y-4964900D01*
G01X1878000Y-4960899D01*
G01X1878000Y-4910836D01*
G01X1882000Y-4906835D01*
G01X1928000Y-4906835D01*
G01X1932000Y-4910836D01*
G01X1932000Y-4960899D01*
G01X1928000Y-4964900D01*
G37*
G36*
G01X1928000Y-4991900D02*
G01X1932000Y-4995901D01*
G01X1932000Y-5045964D01*
G01X1928000Y-5049964D01*
G01X1882000Y-5049964D01*
G01X1878000Y-5045964D01*
G01X1878000Y-4995901D01*
G01X1882000Y-4991900D01*
G01X1928000Y-4991900D01*
G37*
G36*
G01X1842300Y-2385200D02*
G01X1842300Y-2339200D01*
G01X1846301Y-2335200D01*
G01X1896364Y-2335200D01*
G01X1900365Y-2339200D01*
G01X1900365Y-2385200D01*
G01X1896364Y-2389200D01*
G01X1846301Y-2389200D01*
G01X1842300Y-2385200D01*
G37*
G36*
G01X1815300Y-2385200D02*
G01X1811299Y-2389200D01*
G01X1761236Y-2389200D01*
G01X1757236Y-2385200D01*
G01X1757236Y-2339200D01*
G01X1761236Y-2335200D01*
G01X1811299Y-2335200D01*
G01X1815300Y-2339200D01*
G01X1815300Y-2385200D01*
G37*
G36*
G01X940600Y-2588400D02*
G01X940600Y-2542400D01*
G01X944601Y-2538400D01*
G01X994664Y-2538400D01*
G01X998665Y-2542400D01*
G01X998665Y-2588400D01*
G01X994664Y-2592400D01*
G01X944601Y-2592400D01*
G01X940600Y-2588400D01*
G37*
G36*
G01X913600Y-2588400D02*
G01X909599Y-2592400D01*
G01X859536Y-2592400D01*
G01X855536Y-2588400D01*
G01X855536Y-2542400D01*
G01X859536Y-2538400D01*
G01X909599Y-2538400D01*
G01X913600Y-2542400D01*
G01X913600Y-2588400D01*
G37*
G36*
G01X3145000Y-2037598D02*
G01X3145000Y-2067598D01*
G01X3145000Y-2067601D01*
G01X3145000Y-2097601D01*
G01X3015003Y-2097601D01*
G01X3015003Y-2067601D01*
G01X3015003Y-2067598D01*
G01X3015003Y-2037598D01*
G01X3145000Y-2037598D01*
G37*
G36*
G01X3144985Y-2447605D02*
G01X3144985Y-2477605D01*
G01X3014983Y-2477605D01*
G01X3014983Y-2447605D01*
G01X3144985Y-2447605D01*
G37*
G36*
G01X3144985Y-2677597D02*
G01X3144985Y-2707594D01*
G01X3145000Y-2707594D01*
G01X3145000Y-2737594D01*
G01X3014998Y-2737594D01*
G01X3014998Y-2707597D01*
G01X3014983Y-2707597D01*
G01X3014983Y-2677597D01*
G01X3144985Y-2677597D01*
G37*
G36*
G01X3144985Y-2347605D02*
G01X3144985Y-2377605D01*
G01X3014983Y-2377605D01*
G01X3014983Y-2347605D01*
G01X3144985Y-2347605D01*
G37*
G36*
G01X3144987Y-2197593D02*
G01X3144987Y-2227593D01*
G01X3014985Y-2227593D01*
G01X3014985Y-2197593D01*
G01X3144987Y-2197593D01*
G37*
G36*
G01X3014985Y-2527592D02*
G01X3014985Y-2497592D01*
G01X3144987Y-2497592D01*
G01X3144987Y-2527592D01*
G01X3014985Y-2527592D01*
G37*
G36*
G01X3144987Y-2247631D02*
G01X3144987Y-2277631D01*
G01X3014985Y-2277631D01*
G01X3014985Y-2247631D01*
G01X3144987Y-2247631D01*
G37*
G36*
G01X3144987Y-2297593D02*
G01X3144987Y-2327592D01*
G01X3014985Y-2327592D01*
G01X3014985Y-2297593D01*
G01X3144987Y-2297593D01*
G37*
G36*
G01X3144987Y-2547605D02*
G01X3144987Y-2577605D01*
G01X3014985Y-2577605D01*
G01X3014985Y-2547605D01*
G01X3144987Y-2547605D01*
G37*
G36*
G01X3144987Y-2397592D02*
G01X3144987Y-2427592D01*
G01X3014985Y-2427592D01*
G01X3014985Y-2397592D01*
G01X3144987Y-2397592D01*
G37*
G36*
G01X3144995Y-2597597D02*
G01X3144995Y-2627592D01*
G01X3144998Y-2627592D01*
G01X3144998Y-2657594D01*
G01X3015000Y-2657594D01*
G01X3015000Y-2627600D01*
G01X3014998Y-2627600D01*
G01X3014998Y-2597597D01*
G01X3144995Y-2597597D01*
G37*
G36*
G01X3056994Y-2815628D02*
G01X3057291Y-2812651D01*
G01X3057738Y-2809692D01*
G01X3058330Y-2806761D01*
G01X3059069Y-2803860D01*
G01X3059951Y-2801003D01*
G01X3060974Y-2798191D01*
G01X3062135Y-2795435D01*
G01X3063433Y-2792738D01*
G01X3064866Y-2790111D01*
G01X3066425Y-2787559D01*
G01X3068109Y-2785087D01*
G01X3069918Y-2782702D01*
G01X3071840Y-2780411D01*
G01X3073875Y-2778216D01*
G01X3076016Y-2776129D01*
G01X3078259Y-2774147D01*
G01X3080598Y-2772283D01*
G01X3083027Y-2770538D01*
G01X3085541Y-2768915D01*
G01X3088132Y-2767419D01*
G01X3090794Y-2766052D01*
G01X3093519Y-2764823D01*
G01X3096306Y-2763731D01*
G01X3099140Y-2762776D01*
G01X3102021Y-2761966D01*
G01X3104937Y-2761300D01*
G01X3107883Y-2760782D01*
G01X3110852Y-2760408D01*
G01X3113837Y-2760185D01*
G01X3116826Y-2760111D01*
G01X3196826Y-2760111D01*
G01X3199816Y-2760185D01*
G01X3202800Y-2760408D01*
G01X3205770Y-2760782D01*
G01X3208716Y-2761300D01*
G01X3211632Y-2761966D01*
G01X3214512Y-2762776D01*
G01X3217347Y-2763731D01*
G01X3220133Y-2764823D01*
G01X3222859Y-2766052D01*
G01X3225521Y-2767419D01*
G01X3228111Y-2768915D01*
G01X3230626Y-2770538D01*
G01X3233054Y-2772283D01*
G01X3235394Y-2774147D01*
G01X3237636Y-2776129D01*
G01X3239778Y-2778216D01*
G01X3241812Y-2780411D01*
G01X3243735Y-2782702D01*
G01X3245543Y-2785087D01*
G01X3247227Y-2787559D01*
G01X3248787Y-2790111D01*
G01X3250220Y-2792738D01*
G01X3251518Y-2795435D01*
G01X3252678Y-2798191D01*
G01X3253702Y-2801003D01*
G01X3254583Y-2803860D01*
G01X3255322Y-2806761D01*
G01X3255914Y-2809692D01*
G01X3256361Y-2812651D01*
G01X3256658Y-2815628D01*
G01X3256808Y-2818615D01*
G01X3256808Y-2821607D01*
G01X3256658Y-2824594D01*
G01X3256361Y-2827571D01*
G01X3255914Y-2830530D01*
G01X3255322Y-2833461D01*
G01X3254583Y-2836362D01*
G01X3253702Y-2839220D01*
G01X3252678Y-2842031D01*
G01X3251518Y-2844787D01*
G01X3250220Y-2847485D01*
G01X3248787Y-2850111D01*
G01X3247227Y-2852664D01*
G01X3245543Y-2855135D01*
G01X3243735Y-2857520D01*
G01X3241812Y-2859811D01*
G01X3239778Y-2862006D01*
G01X3237636Y-2864094D01*
G01X3235394Y-2866075D01*
G01X3233054Y-2867939D01*
G01X3230626Y-2869684D01*
G01X3228111Y-2871307D01*
G01X3225521Y-2872803D01*
G01X3222859Y-2874170D01*
G01X3220133Y-2875399D01*
G01X3217347Y-2876492D01*
G01X3214512Y-2877447D01*
G01X3211632Y-2878257D01*
G01X3208716Y-2878922D01*
G01X3205770Y-2879441D01*
G01X3202800Y-2879814D01*
G01X3199816Y-2880037D01*
G01X3196826Y-2880111D01*
G01X3116826Y-2880111D01*
G01X3113837Y-2880037D01*
G01X3110852Y-2879814D01*
G01X3107883Y-2879441D01*
G01X3104937Y-2878922D01*
G01X3102021Y-2878257D01*
G01X3099140Y-2877447D01*
G01X3096306Y-2876492D01*
G01X3093519Y-2875399D01*
G01X3090794Y-2874170D01*
G01X3088132Y-2872803D01*
G01X3085541Y-2871307D01*
G01X3083027Y-2869684D01*
G01X3080598Y-2867939D01*
G01X3078259Y-2866075D01*
G01X3076016Y-2864094D01*
G01X3073875Y-2862006D01*
G01X3071840Y-2859811D01*
G01X3069918Y-2857520D01*
G01X3068109Y-2855135D01*
G01X3066425Y-2852664D01*
G01X3064866Y-2850111D01*
G01X3063433Y-2847485D01*
G01X3062135Y-2844787D01*
G01X3060974Y-2842031D01*
G01X3059951Y-2839220D01*
G01X3059069Y-2836362D01*
G01X3058330Y-2833461D01*
G01X3057738Y-2830530D01*
G01X3057291Y-2827571D01*
G01X3056994Y-2824594D01*
G01X3056844Y-2821607D01*
G01X3056844Y-2818615D01*
G01X3056994Y-2815628D01*
G37*
G36*
G01X3056994Y-1950606D02*
G01X3057291Y-1947629D01*
G01X3057738Y-1944670D01*
G01X3058330Y-1941739D01*
G01X3059069Y-1938838D01*
G01X3059951Y-1935980D01*
G01X3060974Y-1933169D01*
G01X3062135Y-1930413D01*
G01X3063433Y-1927715D01*
G01X3064866Y-1925089D01*
G01X3066425Y-1922536D01*
G01X3068109Y-1920065D01*
G01X3069918Y-1917680D01*
G01X3071840Y-1915389D01*
G01X3073875Y-1913194D01*
G01X3076016Y-1911106D01*
G01X3078259Y-1909125D01*
G01X3080598Y-1907261D01*
G01X3083027Y-1905516D01*
G01X3085541Y-1903893D01*
G01X3088132Y-1902396D01*
G01X3090794Y-1901030D01*
G01X3093519Y-1899801D01*
G01X3096306Y-1898708D01*
G01X3099140Y-1897753D01*
G01X3102021Y-1896943D01*
G01X3104937Y-1896278D01*
G01X3107883Y-1895759D01*
G01X3110852Y-1895386D01*
G01X3113837Y-1895163D01*
G01X3116826Y-1895089D01*
G01X3196826Y-1895089D01*
G01X3199816Y-1895163D01*
G01X3202800Y-1895386D01*
G01X3205770Y-1895759D01*
G01X3208716Y-1896278D01*
G01X3211632Y-1896943D01*
G01X3214512Y-1897753D01*
G01X3217347Y-1898708D01*
G01X3220133Y-1899801D01*
G01X3222859Y-1901030D01*
G01X3225521Y-1902396D01*
G01X3228111Y-1903893D01*
G01X3230626Y-1905516D01*
G01X3233054Y-1907261D01*
G01X3235394Y-1909125D01*
G01X3237636Y-1911106D01*
G01X3239778Y-1913194D01*
G01X3241812Y-1915389D01*
G01X3243735Y-1917680D01*
G01X3245543Y-1920065D01*
G01X3247227Y-1922536D01*
G01X3248787Y-1925089D01*
G01X3250220Y-1927715D01*
G01X3251518Y-1930413D01*
G01X3252678Y-1933169D01*
G01X3253702Y-1935980D01*
G01X3254583Y-1938838D01*
G01X3255322Y-1941739D01*
G01X3255914Y-1944670D01*
G01X3256361Y-1947629D01*
G01X3256658Y-1950606D01*
G01X3256808Y-1953593D01*
G01X3256808Y-1956585D01*
G01X3256658Y-1959572D01*
G01X3256361Y-1962549D01*
G01X3255914Y-1965508D01*
G01X3255322Y-1968439D01*
G01X3254583Y-1971340D01*
G01X3253702Y-1974197D01*
G01X3252678Y-1977009D01*
G01X3251518Y-1979765D01*
G01X3250220Y-1982462D01*
G01X3248787Y-1985089D01*
G01X3247227Y-1987641D01*
G01X3245543Y-1990113D01*
G01X3243735Y-1992498D01*
G01X3241812Y-1994789D01*
G01X3239778Y-1996984D01*
G01X3237636Y-1999071D01*
G01X3235394Y-2001053D01*
G01X3233054Y-2002917D01*
G01X3230626Y-2004662D01*
G01X3228111Y-2006285D01*
G01X3225521Y-2007781D01*
G01X3222859Y-2009148D01*
G01X3220133Y-2010377D01*
G01X3217347Y-2011469D01*
G01X3214512Y-2012424D01*
G01X3211632Y-2013234D01*
G01X3208716Y-2013900D01*
G01X3205770Y-2014418D01*
G01X3202800Y-2014791D01*
G01X3199816Y-2015015D01*
G01X3196826Y-2015089D01*
G01X3116826Y-2015089D01*
G01X3113837Y-2015015D01*
G01X3110852Y-2014791D01*
G01X3107883Y-2014418D01*
G01X3104937Y-2013900D01*
G01X3102021Y-2013234D01*
G01X3099140Y-2012424D01*
G01X3096306Y-2011469D01*
G01X3093519Y-2010377D01*
G01X3090794Y-2009148D01*
G01X3088132Y-2007781D01*
G01X3085541Y-2006285D01*
G01X3083027Y-2004662D01*
G01X3080598Y-2002917D01*
G01X3078259Y-2001053D01*
G01X3076016Y-1999071D01*
G01X3073875Y-1996984D01*
G01X3071840Y-1994789D01*
G01X3069918Y-1992498D01*
G01X3068109Y-1990113D01*
G01X3066425Y-1987641D01*
G01X3064866Y-1985089D01*
G01X3063433Y-1982462D01*
G01X3062135Y-1979765D01*
G01X3060974Y-1977009D01*
G01X3059951Y-1974197D01*
G01X3059069Y-1971340D01*
G01X3058330Y-1968439D01*
G01X3057738Y-1965508D01*
G01X3057291Y-1962549D01*
G01X3056994Y-1959572D01*
G01X3056844Y-1956585D01*
G01X3056844Y-1953593D01*
G01X3056994Y-1950606D01*
G37*
G36*
G01X3484834Y-2821607D02*
G01X3484834Y-2818615D01*
G01X3484984Y-2815628D01*
G01X3485281Y-2812651D01*
G01X3485728Y-2809692D01*
G01X3486320Y-2806761D01*
G01X3487059Y-2803860D01*
G01X3487941Y-2801003D01*
G01X3488964Y-2798191D01*
G01X3490125Y-2795435D01*
G01X3491423Y-2792738D01*
G01X3492856Y-2790111D01*
G01X3494415Y-2787559D01*
G01X3496099Y-2785087D01*
G01X3497908Y-2782702D01*
G01X3499830Y-2780411D01*
G01X3501865Y-2778216D01*
G01X3504006Y-2776129D01*
G01X3506249Y-2774147D01*
G01X3508588Y-2772283D01*
G01X3511017Y-2770538D01*
G01X3513531Y-2768915D01*
G01X3516122Y-2767419D01*
G01X3518784Y-2766052D01*
G01X3521509Y-2764823D01*
G01X3524296Y-2763731D01*
G01X3527130Y-2762776D01*
G01X3530011Y-2761966D01*
G01X3532927Y-2761300D01*
G01X3535873Y-2760782D01*
G01X3538842Y-2760408D01*
G01X3541827Y-2760185D01*
G01X3544816Y-2760111D01*
G01X3604816Y-2760111D01*
G01X3607806Y-2760185D01*
G01X3610790Y-2760408D01*
G01X3613760Y-2760782D01*
G01X3616706Y-2761300D01*
G01X3619622Y-2761966D01*
G01X3622502Y-2762776D01*
G01X3625337Y-2763731D01*
G01X3628123Y-2764823D01*
G01X3630849Y-2766052D01*
G01X3633511Y-2767419D01*
G01X3636101Y-2768915D01*
G01X3638616Y-2770538D01*
G01X3641044Y-2772283D01*
G01X3643384Y-2774147D01*
G01X3645626Y-2776129D01*
G01X3647768Y-2778216D01*
G01X3649802Y-2780411D01*
G01X3651725Y-2782702D01*
G01X3653533Y-2785087D01*
G01X3655217Y-2787559D01*
G01X3656777Y-2790111D01*
G01X3658210Y-2792738D01*
G01X3659508Y-2795435D01*
G01X3660668Y-2798191D01*
G01X3661692Y-2801003D01*
G01X3662573Y-2803860D01*
G01X3663312Y-2806761D01*
G01X3663904Y-2809692D01*
G01X3664351Y-2812651D01*
G01X3664649Y-2815628D01*
G01X3664798Y-2818615D01*
G01X3664798Y-2821607D01*
G01X3664649Y-2824594D01*
G01X3664351Y-2827571D01*
G01X3663904Y-2830530D01*
G01X3663312Y-2833461D01*
G01X3662573Y-2836362D01*
G01X3661692Y-2839220D01*
G01X3660668Y-2842031D01*
G01X3659508Y-2844787D01*
G01X3658210Y-2847485D01*
G01X3656777Y-2850111D01*
G01X3655217Y-2852664D01*
G01X3653533Y-2855135D01*
G01X3651725Y-2857520D01*
G01X3649802Y-2859811D01*
G01X3647768Y-2862006D01*
G01X3645626Y-2864094D01*
G01X3643384Y-2866075D01*
G01X3641044Y-2867939D01*
G01X3638616Y-2869684D01*
G01X3636101Y-2871307D01*
G01X3633511Y-2872803D01*
G01X3630849Y-2874170D01*
G01X3628123Y-2875399D01*
G01X3625337Y-2876492D01*
G01X3622502Y-2877447D01*
G01X3619622Y-2878257D01*
G01X3616706Y-2878922D01*
G01X3613760Y-2879441D01*
G01X3610790Y-2879814D01*
G01X3607806Y-2880037D01*
G01X3604816Y-2880111D01*
G01X3544816Y-2880111D01*
G01X3541827Y-2880037D01*
G01X3538842Y-2879814D01*
G01X3535873Y-2879441D01*
G01X3532927Y-2878922D01*
G01X3530011Y-2878257D01*
G01X3527130Y-2877447D01*
G01X3524296Y-2876492D01*
G01X3521509Y-2875399D01*
G01X3518784Y-2874170D01*
G01X3516122Y-2872803D01*
G01X3513531Y-2871307D01*
G01X3511017Y-2869684D01*
G01X3508588Y-2867939D01*
G01X3506249Y-2866075D01*
G01X3504006Y-2864094D01*
G01X3501865Y-2862006D01*
G01X3499830Y-2859811D01*
G01X3497908Y-2857520D01*
G01X3496099Y-2855135D01*
G01X3494415Y-2852664D01*
G01X3492856Y-2850111D01*
G01X3491423Y-2847485D01*
G01X3490125Y-2844787D01*
G01X3488964Y-2842031D01*
G01X3487941Y-2839220D01*
G01X3487059Y-2836362D01*
G01X3486320Y-2833461D01*
G01X3485728Y-2830530D01*
G01X3485281Y-2827571D01*
G01X3484984Y-2824594D01*
G01X3484834Y-2821607D01*
G37*
G36*
G01X3484984Y-1950606D02*
G01X3485281Y-1947629D01*
G01X3485728Y-1944670D01*
G01X3486320Y-1941739D01*
G01X3487059Y-1938838D01*
G01X3487941Y-1935980D01*
G01X3488964Y-1933169D01*
G01X3490125Y-1930413D01*
G01X3491423Y-1927715D01*
G01X3492856Y-1925089D01*
G01X3494415Y-1922536D01*
G01X3496099Y-1920065D01*
G01X3497908Y-1917680D01*
G01X3499830Y-1915389D01*
G01X3501865Y-1913194D01*
G01X3504006Y-1911106D01*
G01X3506249Y-1909125D01*
G01X3508588Y-1907261D01*
G01X3511017Y-1905516D01*
G01X3513531Y-1903893D01*
G01X3516122Y-1902396D01*
G01X3518784Y-1901030D01*
G01X3521509Y-1899801D01*
G01X3524296Y-1898708D01*
G01X3527130Y-1897753D01*
G01X3530011Y-1896943D01*
G01X3532927Y-1896278D01*
G01X3535873Y-1895759D01*
G01X3538842Y-1895386D01*
G01X3541827Y-1895163D01*
G01X3544816Y-1895089D01*
G01X3604816Y-1895089D01*
G01X3607806Y-1895163D01*
G01X3610790Y-1895386D01*
G01X3613760Y-1895759D01*
G01X3616706Y-1896278D01*
G01X3619622Y-1896943D01*
G01X3622502Y-1897753D01*
G01X3625337Y-1898708D01*
G01X3628123Y-1899801D01*
G01X3630849Y-1901030D01*
G01X3633511Y-1902396D01*
G01X3636101Y-1903893D01*
G01X3638616Y-1905516D01*
G01X3641044Y-1907261D01*
G01X3643384Y-1909125D01*
G01X3645626Y-1911106D01*
G01X3647768Y-1913194D01*
G01X3649802Y-1915389D01*
G01X3651725Y-1917680D01*
G01X3653533Y-1920065D01*
G01X3655217Y-1922536D01*
G01X3656777Y-1925089D01*
G01X3658210Y-1927715D01*
G01X3659508Y-1930413D01*
G01X3660668Y-1933169D01*
G01X3661692Y-1935980D01*
G01X3662573Y-1938838D01*
G01X3663312Y-1941739D01*
G01X3663904Y-1944670D01*
G01X3664351Y-1947629D01*
G01X3664649Y-1950606D01*
G01X3664798Y-1953593D01*
G01X3664798Y-1956585D01*
G01X3664649Y-1959572D01*
G01X3664351Y-1962549D01*
G01X3663904Y-1965508D01*
G01X3663312Y-1968439D01*
G01X3662573Y-1971340D01*
G01X3661692Y-1974197D01*
G01X3660668Y-1977009D01*
G01X3659508Y-1979765D01*
G01X3658210Y-1982462D01*
G01X3656777Y-1985089D01*
G01X3655217Y-1987641D01*
G01X3653533Y-1990113D01*
G01X3651725Y-1992498D01*
G01X3649802Y-1994789D01*
G01X3647768Y-1996984D01*
G01X3645626Y-1999071D01*
G01X3643384Y-2001053D01*
G01X3641044Y-2002917D01*
G01X3638616Y-2004662D01*
G01X3636101Y-2006285D01*
G01X3633511Y-2007781D01*
G01X3630849Y-2009148D01*
G01X3628123Y-2010377D01*
G01X3625337Y-2011469D01*
G01X3622502Y-2012424D01*
G01X3619622Y-2013234D01*
G01X3616706Y-2013900D01*
G01X3613760Y-2014418D01*
G01X3610790Y-2014791D01*
G01X3607806Y-2015015D01*
G01X3604816Y-2015089D01*
G01X3544816Y-2015089D01*
G01X3541827Y-2015015D01*
G01X3538842Y-2014791D01*
G01X3535873Y-2014418D01*
G01X3532927Y-2013900D01*
G01X3530011Y-2013234D01*
G01X3527130Y-2012424D01*
G01X3524296Y-2011469D01*
G01X3521509Y-2010377D01*
G01X3518784Y-2009148D01*
G01X3516122Y-2007781D01*
G01X3513531Y-2006285D01*
G01X3511017Y-2004662D01*
G01X3508588Y-2002917D01*
G01X3506249Y-2001053D01*
G01X3504006Y-1999071D01*
G01X3501865Y-1996984D01*
G01X3499830Y-1994789D01*
G01X3497908Y-1992498D01*
G01X3496099Y-1990113D01*
G01X3494415Y-1987641D01*
G01X3492856Y-1985089D01*
G01X3491423Y-1982462D01*
G01X3490125Y-1979765D01*
G01X3488964Y-1977009D01*
G01X3487941Y-1974197D01*
G01X3487059Y-1971340D01*
G01X3486320Y-1968439D01*
G01X3485728Y-1965508D01*
G01X3485281Y-1962549D01*
G01X3484984Y-1959572D01*
G01X3484834Y-1956585D01*
G01X3484834Y-1953593D01*
G01X3484984Y-1950606D01*
G37*
G36*
G01X3144980Y-2117583D02*
G01X3144980Y-2147583D01*
G01X3144980Y-2147585D01*
G01X3144980Y-2177585D01*
G01X3014983Y-2177585D01*
G01X3014983Y-2147585D01*
G01X3014983Y-2147583D01*
G01X3014983Y-2117583D01*
G01X3144980Y-2117583D01*
G37*

G04 Pad Start*
G54D10*
G01X1304188Y-1028700D03*
G01X1388212Y-1028700D03*
G54D11*
G01X1574800Y-885088D03*
G01X1574800Y-969112D03*
G54D10*
G01X1316888Y-1181100D03*
G01X1400912Y-1181100D03*
G01X1598102Y-1425754D03*
G01X1682125Y-1425754D03*
G54D12*
G01X1785287Y-2757984D03*
G01X1925292Y-2757984D03*
G01X1367296Y-3115098D03*
G01X1507301Y-3115098D03*
G54D10*
G01X588112Y-2552700D03*
G01X504088Y-2552700D03*
G54D13*
G01X2776150Y-4256163D03*
G01X2776150Y-4396167D03*
G54D10*
G01X1362812Y-4724400D03*
G01X1278788Y-4724400D03*
G54D14*
G01X818401Y-1243000D03*
G01X818401Y-1043000D03*
G54D16*
G01X248399Y-1478001D03*
G01X248399Y-807999D03*
G54D17*
G01X1049260Y-2859978D03*
G01X709256Y-2859978D03*
G54D18*
G01X2327396Y-2436267D03*
G01X2327396Y-2096263D03*
G54D19*
G01X2287207Y-2705100D03*
G01X2437194Y-2705100D03*
G54D20*
G01X2768600Y-2566606D03*
G01X2768600Y-2716593D03*
G01X2844800Y-3176206D03*
G01X2844800Y-3326193D03*
G54D21*
G01X1803999Y-4287712D03*
G01X2084009Y-4287712D03*
G54D22*
G01X877499Y-3606805D03*
G01X1027511Y-3606805D03*
G54D23*
G01X229946Y-3632098D03*
G01X229946Y-3810102D03*
G01X557454Y-3810102D03*
G01X557454Y-3632098D03*
G54D22*
G01X990605Y-3821501D03*
G01X840593Y-3821501D03*
G01X522000Y-3416643D03*
G01X671800Y-3415957D03*
G54D24*
G01X1790700Y-3693668D03*
G01X1695704Y-3443732D03*
G01X1885696Y-3443732D03*
G54D25*
G01X526593Y-1899107D03*
G01X946607Y-1899107D03*
G01X526593Y-2114093D03*
G01X946607Y-2114093D03*
G01X1530807Y-2114093D03*
G01X1110793Y-2114093D03*
G01X1530807Y-1899107D03*
G01X1110793Y-1899107D03*
G54D26*
G01X1937309Y-730301D03*
G01X1937309Y-810311D03*
G01X1937309Y-890295D03*
G01X1937309Y-970305D03*
G01X1937309Y-1050290D03*
G01X1937309Y-1130300D03*
G01X1937309Y-1210310D03*
G01X1937309Y-1290295D03*
G01X1937309Y-1370305D03*
G01X1937309Y-1450289D03*
G01X1937309Y-1530299D03*
G54D27*
G01X2047291Y-1620291D03*
G01X2127301Y-1620291D03*
G01X2207311Y-1620291D03*
G01X2287295Y-1620291D03*
G01X2367305Y-1620291D03*
G01X2447290Y-1620291D03*
G01X2527300Y-1620291D03*
G01X2607310Y-1620291D03*
G01X2687295Y-1620291D03*
G01X2767305Y-1620291D03*
G01X2847289Y-1620291D03*
G01X2927299Y-1620291D03*
G01X3007309Y-1620291D03*
G54D26*
G01X3117291Y-1530299D03*
G01X3117291Y-1450289D03*
G01X3117291Y-1370305D03*
G01X3117291Y-1290295D03*
G01X3117291Y-1210310D03*
G01X3117291Y-1130300D03*
G01X3117291Y-1050290D03*
G01X3117291Y-970305D03*
G01X3117291Y-890295D03*
G01X3117291Y-810311D03*
G01X3117291Y-730301D03*
G54D27*
G01X3007309Y-640309D03*
G01X2927299Y-640309D03*
G01X2847289Y-640309D03*
G01X2767305Y-640309D03*
G01X2687295Y-640309D03*
G01X2607310Y-640309D03*
G01X2527300Y-640309D03*
G01X2447290Y-640309D03*
G01X2367305Y-640309D03*
G01X2287295Y-640309D03*
G01X2207311Y-640309D03*
G01X2127301Y-640309D03*
G01X2047291Y-640309D03*
G54D28*
G01X3122295Y-635305D03*
G01X3122295Y-1625295D03*
G01X1932305Y-1625295D03*
G01X1932305Y-635305D03*
G54D29*
G01X2329787Y-932805D03*
G54D30*
G01X2724785Y-1327810D03*
G01X2527300Y-1327810D03*
G01X2329790Y-1327810D03*
G01X2329790Y-1130300D03*
G01X2527300Y-932815D03*
G01X2724785Y-932815D03*
G01X2724785Y-1130300D03*
G01X2527300Y-1130300D03*
G54D31*
G01X1294599Y-2873346D03*
G01X1389595Y-2873346D03*
G01X1484591Y-2873346D03*
G54D32*
G01X1484591Y-2642612D03*
G01X1294599Y-2642612D03*
G54D33*
G01X2411933Y-3867404D03*
G01X2411933Y-3962400D03*
G01X2411933Y-4057396D03*
G54D34*
G01X2642667Y-4057396D03*
G01X2642667Y-3867404D03*
G54D35*
G01X1555394Y-5346700D03*
G01X1555394Y-5219700D03*
G01X1555394Y-5092700D03*
G01X1555394Y-4965700D03*
G01X1035406Y-5346700D03*
G01X1035406Y-5219700D03*
G01X1035406Y-5092700D03*
G01X1035406Y-4965700D03*
G54D36*
G01X1701800Y-959599D03*
G01X1701800Y-894601D03*
G04 Pad End*

M02*

